M48
; DRILL file {KiCad 9.0.6} date 2026-03-20T10:49:24+1100
; FORMAT={-:-/ absolute / metric / decimal}
; #@! TF.CreationDate,2026-03-20T10:49:24+11:00
; #@! TF.GenerationSoftware,Kicad,Pcbnew,9.0.6
; #@! TF.FileFunction,Plated,1,2,PTH
FMAT,2
METRIC
; #@! TA.AperFunction,Plated,PTH,ViaDrill
T1C0.305
; #@! TA.AperFunction,Plated,PTH,ViaDrill
T2C0.305
; #@! TA.AperFunction,Plated,PTH,ComponentDrill
T3C0.350
; #@! TA.AperFunction,Plated,PTH,ComponentDrill
T4C1.000
; #@! TA.AperFunction,Plated,PTH,ComponentDrill
T5C1.400
; #@! TA.AperFunction,Plated,PTH,ViaDrill
T6C1.511
%
G90
G05
T1
X79.451Y-52.066
X80.997Y-52.521
X81.527Y-50.0
X83.027Y-55.99
X84.027Y-52.49
X87.0Y-67.0
X87.027Y-46.49
X89.0Y-64.0
X89.39Y-67.39
X89.527Y-42.99
X90.5Y-64.0
X90.5Y-66.0
X104.027Y-40.49
X106.0Y-64.0
X110.5Y-63.5
X111.0Y-68.5
X113.0Y-73.5
X114.027Y-40.99
X125.0Y-75.5
X125.5Y-78.0
X127.0Y-70.0
X132.027Y-76.99
X134.027Y-76.99
T2
X73.651Y-76.779
X73.651Y-82.77
X76.527Y-70.615
X77.438Y-87.866
X77.532Y-34.344
X78.651Y-53.854
X78.651Y-59.845
X80.106Y-79.647
X83.993Y-69.196
X84.718Y-84.632
X84.873Y-69.807
X84.917Y-74.373
X85.139Y-76.907
X85.431Y-41.591
X85.902Y-55.342
X86.1Y-33.99
X86.472Y-61.079
X87.939Y-61.692
X88.295Y-53.116
X88.53Y-43.321
X89.038Y-63.072
X89.444Y-55.926
X89.621Y-70.487
X89.636Y-49.675
X89.765Y-62.206
X90.224Y-51.791
X90.239Y-46.024
X91.125Y-67.438
X91.511Y-51.397
X91.57Y-60.597
X91.905Y-57.363
X92.001Y-50.806
X92.091Y-33.99
X92.242Y-64.2
X92.258Y-58.53
X92.517Y-73.42
X92.84Y-39.463
X93.048Y-71.442
X93.205Y-55.149
X93.346Y-46.061
X93.489Y-50.035
X93.539Y-48.558
X93.921Y-86.275
X93.938Y-70.843
X93.945Y-64.849
X94.363Y-54.301
X95.24Y-49.836
X95.395Y-48.569
X96.328Y-51.787
X96.407Y-63.225
X96.663Y-73.359
X96.752Y-50.314
X97.629Y-36.536
X97.938Y-76.074
X98.199Y-49.69
X98.387Y-54.256
X98.706Y-70.626
X99.991Y-64.84
X100.124Y-46.048
X101.013Y-49.401
X102.385Y-81.673
X102.561Y-47.517
X102.579Y-61.882
X103.652Y-87.866
X103.95Y-47.32
X104.024Y-76.317
X104.146Y-33.99
X104.676Y-48.482
X105.146Y-57.363
X105.5Y-69.0
X105.917Y-42.581
X106.228Y-55.293
X107.633Y-62.405
X109.177Y-70.103
X109.486Y-87.457
X110.02Y-80.058
X111.25Y-50.48
X111.846Y-42.406
X112.0Y-77.5
X112.327Y-43.36
X112.33Y-68.529
X112.882Y-33.99
X113.502Y-72.239
X114.081Y-57.007
X114.125Y-62.018
X115.477Y-87.457
X116.86Y-49.325
X117.378Y-59.61
X118.737Y-63.103
X119.121Y-66.874
X121.674Y-41.487
X122.074Y-83.015
X124.161Y-60.03
X126.015Y-47.456
X126.449Y-54.49
X127.749Y-47.661
X127.914Y-34.323
X128.166Y-68.334
X129.445Y-53.314
X130.872Y-45.453
X130.999Y-87.865
X131.637Y-75.895
X132.08Y-40.316
X132.663Y-54.799
X133.132Y-46.055
X133.506Y-58.659
X133.506Y-64.65
X133.506Y-70.641
X134.148Y-46.491
X134.518Y-33.99
X135.393Y-51.179
X135.743Y-45.816
X136.129Y-50.862
X136.403Y-84.382
T3
X130.851Y-50.233
X130.851Y-51.533
X132.151Y-50.233
X132.151Y-51.533
X133.451Y-50.233
X133.451Y-51.533
T4
X80.924Y-35.325
X80.924Y-37.865
X83.464Y-35.325
X83.464Y-37.865
X86.004Y-35.325
X86.004Y-37.865
X88.544Y-35.325
X88.544Y-37.865
X91.084Y-35.325
X91.084Y-37.865
X93.624Y-35.325
X93.624Y-37.865
X96.164Y-35.325
X96.164Y-37.865
X98.704Y-35.325
X98.704Y-37.865
X101.244Y-35.325
X101.244Y-37.865
X103.784Y-35.325
X103.784Y-37.865
X106.324Y-35.325
X106.324Y-37.865
X108.864Y-35.325
X108.864Y-37.865
X111.404Y-35.325
X111.404Y-37.865
X113.944Y-35.325
X113.944Y-37.865
X116.484Y-35.325
X116.484Y-37.865
X119.024Y-35.325
X119.024Y-37.865
X121.564Y-35.325
X121.564Y-37.865
X124.104Y-35.325
X124.104Y-37.865
X126.644Y-35.325
X126.644Y-37.865
X129.184Y-35.325
X129.184Y-37.865
T5
X82.627Y-78.49
X82.627Y-83.99
X86.827Y-78.49
X86.827Y-83.99
X91.027Y-78.49
X91.027Y-83.99
X98.827Y-78.49
X98.827Y-83.99
X103.027Y-78.49
X103.027Y-83.99
T6
X116.491Y-54.728
X126.864Y-59.373
X129.963Y-73.822
X130.051Y-56.557
M30
