%TF.GenerationSoftware,KiCad,Pcbnew,10.0.0*%
%TF.CreationDate,2026-03-31T15:06:34+11:00*%
%TF.ProjectId,PiGarage,50694761-7261-4676-952e-6b696361645f,v0.1*%
%TF.SameCoordinates,Original*%
%TF.FileFunction,Paste,Top*%
%TF.FilePolarity,Positive*%
%FSLAX46Y46*%
G04 Gerber Fmt 4.6, Leading zero omitted, Abs format (unit mm)*
G04 Created by KiCad (PCBNEW 10.0.0) date 2026-03-31 15:06:34*
%MOMM*%
%LPD*%
G01*
G04 APERTURE LIST*
G04 Aperture macros list*
%AMRoundRect*
0 Rectangle with rounded corners*
0 $1 Rounding radius*
0 $2 $3 $4 $5 $6 $7 $8 $9 X,Y pos of 4 corners*
0 Add a 4 corners polygon primitive as box body*
4,1,4,$2,$3,$4,$5,$6,$7,$8,$9,$2,$3,0*
0 Add four circle primitives for the rounded corners*
1,1,$1+$1,$2,$3*
1,1,$1+$1,$4,$5*
1,1,$1+$1,$6,$7*
1,1,$1+$1,$8,$9*
0 Add four rect primitives between the rounded corners*
20,1,$1+$1,$2,$3,$4,$5,0*
20,1,$1+$1,$4,$5,$6,$7,0*
20,1,$1+$1,$6,$7,$8,$9,0*
20,1,$1+$1,$8,$9,$2,$3,0*%
G04 Aperture macros list end*
%ADD10RoundRect,0.225000X-0.250000X0.225000X-0.250000X-0.225000X0.250000X-0.225000X0.250000X0.225000X0*%
%ADD11RoundRect,0.200000X0.275000X-0.200000X0.275000X0.200000X-0.275000X0.200000X-0.275000X-0.200000X0*%
%ADD12RoundRect,0.218750X-0.218750X-0.256250X0.218750X-0.256250X0.218750X0.256250X-0.218750X0.256250X0*%
%ADD13RoundRect,0.225000X0.225000X0.250000X-0.225000X0.250000X-0.225000X-0.250000X0.225000X-0.250000X0*%
%ADD14RoundRect,0.225000X0.250000X-0.225000X0.250000X0.225000X-0.250000X0.225000X-0.250000X-0.225000X0*%
%ADD15RoundRect,0.200000X-0.275000X0.200000X-0.275000X-0.200000X0.275000X-0.200000X0.275000X0.200000X0*%
%ADD16RoundRect,0.035000X-0.700000X-0.105000X0.700000X-0.105000X0.700000X0.105000X-0.700000X0.105000X0*%
%ADD17RoundRect,0.200000X0.200000X0.275000X-0.200000X0.275000X-0.200000X-0.275000X0.200000X-0.275000X0*%
%ADD18RoundRect,0.225000X-0.225000X-0.250000X0.225000X-0.250000X0.225000X0.250000X-0.225000X0.250000X0*%
%ADD19RoundRect,0.250000X0.325000X0.650000X-0.325000X0.650000X-0.325000X-0.650000X0.325000X-0.650000X0*%
%ADD20RoundRect,0.250000X-0.325000X-0.650000X0.325000X-0.650000X0.325000X0.650000X-0.325000X0.650000X0*%
%ADD21R,3.820000X3.030000*%
%ADD22RoundRect,0.200000X-0.200000X-0.275000X0.200000X-0.275000X0.200000X0.275000X-0.200000X0.275000X0*%
%ADD23R,1.500000X3.500000*%
%ADD24RoundRect,0.222500X0.222500X-0.297500X0.222500X0.297500X-0.222500X0.297500X-0.222500X-0.297500X0*%
%ADD25RoundRect,0.150000X0.150000X-0.737500X0.150000X0.737500X-0.150000X0.737500X-0.150000X-0.737500X0*%
%ADD26RoundRect,0.249999X0.640001X-0.750001X0.640001X0.750001X-0.640001X0.750001X-0.640001X-0.750001X0*%
%ADD27RoundRect,0.250000X-0.650000X0.325000X-0.650000X-0.325000X0.650000X-0.325000X0.650000X0.325000X0*%
%ADD28RoundRect,0.100000X-0.100000X0.637500X-0.100000X-0.637500X0.100000X-0.637500X0.100000X0.637500X0*%
%ADD29RoundRect,0.150000X-0.587500X-0.150000X0.587500X-0.150000X0.587500X0.150000X-0.587500X0.150000X0*%
%ADD30RoundRect,0.150000X0.587500X0.150000X-0.587500X0.150000X-0.587500X-0.150000X0.587500X-0.150000X0*%
%ADD31RoundRect,0.150000X-0.150000X0.512500X-0.150000X-0.512500X0.150000X-0.512500X0.150000X0.512500X0*%
%ADD32RoundRect,0.162500X-0.162500X0.447500X-0.162500X-0.447500X0.162500X-0.447500X0.162500X0.447500X0*%
%ADD33RoundRect,0.250000X-1.000000X1.400000X-1.000000X-1.400000X1.000000X-1.400000X1.000000X1.400000X0*%
%ADD34RoundRect,0.075000X0.225000X-0.910000X0.225000X0.910000X-0.225000X0.910000X-0.225000X-0.910000X0*%
%ADD35R,2.400000X3.200000*%
G04 APERTURE END LIST*
D10*
%TO.C,C22*%
X89017556Y-58225000D03*
X89017556Y-59775000D03*
%TD*%
D11*
%TO.C,R22*%
X95330000Y-75325000D03*
X95330000Y-73675000D03*
%TD*%
D12*
%TO.C,FB1*%
X80578898Y-44626081D03*
X82153898Y-44626081D03*
%TD*%
D10*
%TO.C,C16*%
X82500000Y-58225000D03*
X82500000Y-59775000D03*
%TD*%
D11*
%TO.C,R20*%
X96840000Y-75325000D03*
X96840000Y-73675000D03*
%TD*%
D13*
%TO.C,C20*%
X92160881Y-62043990D03*
X90610881Y-62043990D03*
%TD*%
D14*
%TO.C,C3*%
X135000000Y-45775000D03*
X135000000Y-44225000D03*
%TD*%
%TO.C,C14*%
X86000000Y-59783098D03*
X86000000Y-58233098D03*
%TD*%
D13*
%TO.C,C9*%
X82132922Y-46251710D03*
X80582922Y-46251710D03*
%TD*%
D15*
%TO.C,R1*%
X133500000Y-44175000D03*
X133500000Y-45825000D03*
%TD*%
D16*
%TO.C,U5*%
X95200000Y-70000000D03*
X95200000Y-70500000D03*
X95200000Y-71000000D03*
X95200000Y-71500000D03*
X95200000Y-72000000D03*
X99500000Y-72000000D03*
X99500000Y-71500000D03*
X99500000Y-71000000D03*
X99500000Y-70500000D03*
X99500000Y-70000000D03*
%TD*%
D11*
%TO.C,R18*%
X106134430Y-56786048D03*
X106134430Y-55136048D03*
%TD*%
D17*
%TO.C,R11*%
X128825000Y-67000000D03*
X127175000Y-67000000D03*
%TD*%
%TO.C,R8*%
X113512273Y-52153984D03*
X111862273Y-52153984D03*
%TD*%
%TO.C,R3*%
X124325000Y-41500000D03*
X122675000Y-41500000D03*
%TD*%
D18*
%TO.C,C10*%
X80652917Y-53713329D03*
X82202917Y-53713329D03*
%TD*%
D11*
%TO.C,R15*%
X91941008Y-56786048D03*
X91941008Y-55136048D03*
%TD*%
D19*
%TO.C,C1*%
X132475000Y-56756684D03*
X129525000Y-56756684D03*
%TD*%
D11*
%TO.C,R19*%
X98350000Y-75325000D03*
X98350000Y-73675000D03*
%TD*%
D17*
%TO.C,R10*%
X125825000Y-67000000D03*
X124175000Y-67000000D03*
%TD*%
D13*
%TO.C,C18*%
X92180751Y-66464653D03*
X90630751Y-66464653D03*
%TD*%
%TO.C,C33*%
X103245520Y-68493787D03*
X101695520Y-68493787D03*
%TD*%
D20*
%TO.C,C6*%
X119542313Y-54500000D03*
X122492313Y-54500000D03*
%TD*%
D21*
%TO.C,D2*%
X127000000Y-44140000D03*
X127000000Y-51000000D03*
%TD*%
D22*
%TO.C,R26*%
X101645520Y-69980000D03*
X103295520Y-69980000D03*
%TD*%
D23*
%TO.C,J3*%
X79100000Y-82250000D03*
X81100000Y-74750000D03*
X86100000Y-82250000D03*
%TD*%
D22*
%TO.C,R6*%
X111850000Y-53690000D03*
X113500000Y-53690000D03*
%TD*%
D24*
%TO.C,U1*%
X132440000Y-52200000D03*
X133470000Y-52200000D03*
X134500000Y-52200000D03*
X132440000Y-51000000D03*
X133470000Y-51000000D03*
X134500000Y-51000000D03*
D25*
X131565000Y-54162500D03*
X132835000Y-54162500D03*
X134105000Y-54162500D03*
X135375000Y-54162500D03*
X135375000Y-49037500D03*
X134105000Y-49037500D03*
X132835000Y-49037500D03*
X131565000Y-49037500D03*
%TD*%
D11*
%TO.C,R17*%
X101403289Y-56786048D03*
X101403289Y-55136048D03*
%TD*%
D26*
%TO.C,U6*%
X91588258Y-53146617D03*
X94128258Y-53146617D03*
X96668258Y-53146617D03*
X99208258Y-53146617D03*
X101748258Y-53146617D03*
X104288258Y-53146617D03*
X106828258Y-53146617D03*
X109368258Y-53146617D03*
X109368258Y-43616617D03*
X106828258Y-43616617D03*
X104288258Y-43616617D03*
X101748258Y-43616617D03*
X99208258Y-43616617D03*
X96668258Y-43616617D03*
X94128258Y-43616617D03*
X91588258Y-43616617D03*
%TD*%
D22*
%TO.C,R25*%
X101645520Y-74493787D03*
X103295520Y-74493787D03*
%TD*%
D17*
%TO.C,R9*%
X113508990Y-56701093D03*
X111858990Y-56701093D03*
%TD*%
D10*
%TO.C,C26*%
X99037719Y-55186048D03*
X99037719Y-56736048D03*
%TD*%
D27*
%TO.C,C7*%
X113500000Y-46025000D03*
X113500000Y-48975000D03*
%TD*%
D17*
%TO.C,R7*%
X113512273Y-50652212D03*
X111862273Y-50652212D03*
%TD*%
D18*
%TO.C,C19*%
X90615635Y-63575454D03*
X92165635Y-63575454D03*
%TD*%
D10*
%TO.C,C8*%
X127910140Y-63731121D03*
X127910140Y-65281121D03*
%TD*%
%TO.C,C15*%
X87510488Y-58219265D03*
X87510488Y-59769265D03*
%TD*%
D15*
%TO.C,R12*%
X122200374Y-65460731D03*
X122200374Y-67110731D03*
%TD*%
D14*
%TO.C,C12*%
X86060128Y-71985543D03*
X86060128Y-70435543D03*
%TD*%
%TO.C,C13*%
X87560128Y-71985543D03*
X87560128Y-70435543D03*
%TD*%
D28*
%TO.C,U3*%
X88273594Y-62139792D03*
X87623594Y-62139792D03*
X86973594Y-62139792D03*
X86323594Y-62139792D03*
X85673594Y-62139792D03*
X85023594Y-62139792D03*
X84373594Y-62139792D03*
X83723594Y-62139792D03*
X83073594Y-62139792D03*
X82423594Y-62139792D03*
X81773594Y-62139792D03*
X81123594Y-62139792D03*
X80473594Y-62139792D03*
X79823594Y-62139792D03*
X79823594Y-67864792D03*
X80473594Y-67864792D03*
X81123594Y-67864792D03*
X81773594Y-67864792D03*
X82423594Y-67864792D03*
X83073594Y-67864792D03*
X83723594Y-67864792D03*
X84373594Y-67864792D03*
X85023594Y-67864792D03*
X85673594Y-67864792D03*
X86323594Y-67864792D03*
X86973594Y-67864792D03*
X87623594Y-67864792D03*
X88273594Y-67864792D03*
%TD*%
D14*
%TO.C,C4*%
X132000000Y-45775000D03*
X132000000Y-44225000D03*
%TD*%
D20*
%TO.C,C5*%
X119550000Y-52207955D03*
X122500000Y-52207955D03*
%TD*%
D10*
%TO.C,C28*%
X108500000Y-55186048D03*
X108500000Y-56736048D03*
%TD*%
D29*
%TO.C,U2*%
X115317295Y-52050000D03*
X115317295Y-53950000D03*
X117192295Y-53000000D03*
%TD*%
D11*
%TO.C,R16*%
X96672149Y-56786048D03*
X96672149Y-55136048D03*
%TD*%
D30*
%TO.C,D3*%
X126000000Y-65500000D03*
X126000000Y-63600000D03*
X124125000Y-64550000D03*
%TD*%
D17*
%TO.C,R4*%
X124325000Y-43000000D03*
X122675000Y-43000000D03*
%TD*%
D14*
%TO.C,C24*%
X80033381Y-72007516D03*
X80033381Y-70457516D03*
%TD*%
D13*
%TO.C,C2*%
X129225000Y-54450000D03*
X127675000Y-54450000D03*
%TD*%
D31*
%TO.C,U4*%
X82267500Y-48020861D03*
X81317500Y-48020861D03*
X80367500Y-48020861D03*
X80367500Y-50295861D03*
X82267500Y-50295861D03*
%TD*%
D11*
%TO.C,R21*%
X99860000Y-75325000D03*
X99860000Y-73675000D03*
%TD*%
D10*
%TO.C,C25*%
X94306578Y-55186048D03*
X94306578Y-56736048D03*
%TD*%
D32*
%TO.C,Q2*%
X116868674Y-56685362D03*
X114968674Y-56685362D03*
X115918674Y-59305362D03*
%TD*%
D18*
%TO.C,C32*%
X101695520Y-71484596D03*
X103245520Y-71484596D03*
%TD*%
D22*
%TO.C,R5*%
X111869803Y-55184556D03*
%TD*%
D17*
%TO.C,R23*%
X93295520Y-69980000D03*
X91645520Y-69980000D03*
%TD*%
D33*
%TO.C,D1*%
X126000000Y-59141679D03*
X119200000Y-59141679D03*
%TD*%
D34*
%TO.C,Q1*%
X129612293Y-64742769D03*
X130882293Y-64742769D03*
X132152293Y-64742769D03*
X133422293Y-64742769D03*
X133422293Y-59792769D03*
X132152293Y-59792769D03*
X130882293Y-59792769D03*
X129612293Y-59792769D03*
%TD*%
D14*
%TO.C,C21*%
X90517556Y-59775000D03*
X90517556Y-58225000D03*
%TD*%
D15*
%TO.C,R2*%
X135175000Y-56175000D03*
X135175000Y-57825000D03*
%TD*%
D17*
%TO.C,R24*%
X93295520Y-74480000D03*
X91645520Y-74480000D03*
%TD*%
D15*
%TO.C,R14*%
X81540535Y-70407516D03*
X81540535Y-72057516D03*
%TD*%
D18*
%TO.C,C11*%
X80630200Y-52127404D03*
X82180200Y-52127404D03*
%TD*%
D35*
%TO.C,L1*%
X122500000Y-47500000D03*
X116500000Y-47500000D03*
%TD*%
D11*
%TO.C,R13*%
X83047690Y-72057516D03*
X83047690Y-70407516D03*
%TD*%
D13*
%TO.C,C30*%
X93245520Y-72980000D03*
X91695520Y-72980000D03*
%TD*%
D18*
%TO.C,C17*%
X90630751Y-67964653D03*
X92180751Y-67964653D03*
%TD*%
D10*
%TO.C,C27*%
X103768859Y-55186048D03*
X103768859Y-56736048D03*
%TD*%
%TO.C,C23*%
X84554844Y-70457516D03*
X84554844Y-72007516D03*
%TD*%
D18*
%TO.C,C31*%
X101695520Y-72989191D03*
X103245520Y-72989191D03*
%TD*%
%TO.C,C29*%
X91695520Y-71493787D03*
X93245520Y-71493787D03*
%TD*%
M02*
