%TF.GenerationSoftware,KiCad,Pcbnew,9.0.6*%
%TF.CreationDate,2026-03-20T10:49:18+11:00*%
%TF.ProjectId,PiGarage,50694761-7261-4676-952e-6b696361645f,v0.1*%
%TF.SameCoordinates,Original*%
%TF.FileFunction,Profile,NP*%
%FSLAX46Y46*%
G04 Gerber Fmt 4.6, Leading zero omitted, Abs format (unit mm)*
G04 Created by KiCad (PCBNEW 9.0.6) date 2026-03-20 10:49:18*
%MOMM*%
%LPD*%
G01*
G04 APERTURE LIST*
%TA.AperFunction,Profile*%
%ADD10C,0.100000*%
%TD*%
%TA.AperFunction,Profile*%
%ADD11C,0.050000*%
%TD*%
G04 APERTURE END LIST*
D10*
%TO.C,REF\u002A\u002A*%
X75526956Y-32990487D02*
X134526956Y-32990487D01*
X134526956Y-32990487D02*
G75*
G02*
X137526956Y-35990487I0J-3000000D01*
G01*
X72526956Y-35990487D02*
X72526956Y-51490487D01*
X72526956Y-70490487D02*
X72526956Y-85990487D01*
X73526956Y-52490487D02*
X76526956Y-52490487D01*
X73526956Y-69490487D02*
X76526956Y-69490487D01*
X75526956Y-88990487D02*
X134526956Y-88990487D01*
X77526956Y-53490487D02*
X77526956Y-68490487D01*
X116526956Y-69990487D02*
X116526956Y-84990487D01*
X118526956Y-69990487D02*
X118526956Y-84990487D01*
X137526956Y-36490487D02*
X137526956Y-85990487D01*
X72526956Y-70490487D02*
G75*
G02*
X73526956Y-69490487I999999J1D01*
G01*
X73526956Y-52490487D02*
G75*
G02*
X72526956Y-51490487I-1J999999D01*
G01*
X75526956Y-88990487D02*
G75*
G02*
X72526956Y-85990487I1J3000001D01*
G01*
X76526956Y-52490487D02*
G75*
G02*
X77526956Y-53490487I1J-999999D01*
G01*
X77526956Y-68490487D02*
G75*
G02*
X76526956Y-69490487I-999999J-1D01*
G01*
X116526956Y-69990487D02*
G75*
G02*
X118526956Y-69990487I1000000J0D01*
G01*
X118526956Y-84990487D02*
G75*
G02*
X116526956Y-84990487I-1000000J0D01*
G01*
X137526956Y-85990487D02*
G75*
G02*
X134526956Y-88990487I-3000000J0D01*
G01*
D11*
X77526957Y-36490487D02*
G75*
G02*
X74526955Y-36490487I-1500001J0D01*
G01*
X74526955Y-36490487D02*
G75*
G02*
X77526957Y-36490487I1500001J0D01*
G01*
X77526957Y-85490487D02*
G75*
G02*
X74526955Y-85490487I-1500001J0D01*
G01*
X74526955Y-85490487D02*
G75*
G02*
X77526957Y-85490487I1500001J0D01*
G01*
X135526957Y-36490487D02*
G75*
G02*
X132526955Y-36490487I-1500001J0D01*
G01*
X132526955Y-36490487D02*
G75*
G02*
X135526957Y-36490487I1500001J0D01*
G01*
X135526957Y-85490487D02*
G75*
G02*
X132526955Y-85490487I-1500001J0D01*
G01*
X132526955Y-85490487D02*
G75*
G02*
X135526957Y-85490487I1500001J0D01*
G01*
D10*
X72526956Y-35990487D02*
G75*
G02*
X75526956Y-32990487I3000001J-1D01*
G01*
X137526956Y-36490487D02*
X137526956Y-35990487D01*
%TD*%
M02*
