%TF.GenerationSoftware,KiCad,Pcbnew,10.0.0*%
%TF.CreationDate,2026-04-17T11:48:20+10:00*%
%TF.ProjectId,PiGarage,50694761-7261-4676-952e-6b696361645f,v0.1*%
%TF.SameCoordinates,Original*%
%TF.FileFunction,Copper,L2,Bot*%
%TF.FilePolarity,Positive*%
%FSLAX46Y46*%
G04 Gerber Fmt 4.6, Leading zero omitted, Abs format (unit mm)*
G04 Created by KiCad (PCBNEW 10.0.0) date 2026-04-17 11:48:20*
%MOMM*%
%LPD*%
G01*
G04 APERTURE LIST*
G04 Aperture macros list*
%AMRoundRect*
0 Rectangle with rounded corners*
0 $1 Rounding radius*
0 $2 $3 $4 $5 $6 $7 $8 $9 X,Y pos of 4 corners*
0 Add a 4 corners polygon primitive as box body*
4,1,4,$2,$3,$4,$5,$6,$7,$8,$9,$2,$3,0*
0 Add four circle primitives for the rounded corners*
1,1,$1+$1,$2,$3*
1,1,$1+$1,$4,$5*
1,1,$1+$1,$6,$7*
1,1,$1+$1,$8,$9*
0 Add four rect primitives between the rounded corners*
20,1,$1+$1,$2,$3,$4,$5,0*
20,1,$1+$1,$4,$5,$6,$7,0*
20,1,$1+$1,$6,$7,$8,$9,0*
20,1,$1+$1,$8,$9,$2,$3,0*%
G04 Aperture macros list end*
%TA.AperFunction,HeatsinkPad*%
%ADD10C,0.500000*%
%TD*%
%TA.AperFunction,HeatsinkPad*%
%ADD11R,3.100000X1.800000*%
%TD*%
%TA.AperFunction,ComponentPad*%
%ADD12RoundRect,0.250001X1.099999X1.399999X-1.099999X1.399999X-1.099999X-1.399999X1.099999X-1.399999X0*%
%TD*%
%TA.AperFunction,ComponentPad*%
%ADD13O,2.700000X3.300000*%
%TD*%
%TA.AperFunction,ComponentPad*%
%ADD14RoundRect,0.250001X-1.399999X1.099999X-1.399999X-1.099999X1.399999X-1.099999X1.399999X1.099999X0*%
%TD*%
%TA.AperFunction,ComponentPad*%
%ADD15O,3.300000X2.700000*%
%TD*%
%TA.AperFunction,ComponentPad*%
%ADD16R,1.700000X1.700000*%
%TD*%
%TA.AperFunction,ComponentPad*%
%ADD17C,1.700000*%
%TD*%
%TA.AperFunction,ViaPad*%
%ADD18C,0.609600*%
%TD*%
%TA.AperFunction,ViaPad*%
%ADD19C,0.610210*%
%TD*%
%TA.AperFunction,Conductor*%
%ADD20C,0.152400*%
%TD*%
%TA.AperFunction,Profile*%
%ADD21C,0.100000*%
%TD*%
%TA.AperFunction,Profile*%
%ADD22C,0.050000*%
%TD*%
G04 APERTURE END LIST*
D10*
%TO.P,U1,9,GND_9*%
%TO.N,GND*%
X132170000Y-52250000D03*
X133470000Y-52250000D03*
X134770000Y-52250000D03*
D11*
X133470000Y-51600000D03*
D10*
X132170000Y-50950000D03*
X133470000Y-50950000D03*
X134770000Y-50950000D03*
%TD*%
D12*
%TO.P,J2,1,Pin_1_1*%
%TO.N,/AIN0*%
X99600000Y-85500000D03*
D13*
%TO.P,J2,2,Pin_2_2*%
%TO.N,/AIN1*%
X95400000Y-85500000D03*
%TO.P,J2,3,Pin_3_3*%
%TO.N,/AIN2*%
X99600000Y-80000000D03*
%TO.P,J2,4,Pin_4_4*%
%TO.N,/AIN3*%
X95400000Y-80000000D03*
%TD*%
D14*
%TO.P,J1,1,Pin_1_1*%
%TO.N,+VBAT*%
X133500000Y-71500000D03*
D15*
%TO.P,J1,2,Pin_2_2*%
%TO.N,GND*%
X133500000Y-75700000D03*
%TO.P,J1,3,Pin_3_3*%
%TO.N,/ACC*%
X133500000Y-79900000D03*
%TO.P,J1,4,Pin_4_4*%
%TO.N,/ILL*%
X128000000Y-71500000D03*
%TO.P,J1,5,Pin_5_5*%
%TO.N,/REV*%
X128000000Y-75700000D03*
%TO.P,J1,6,Pin_6_6*%
%TO.N,/AUX*%
X128000000Y-79900000D03*
%TD*%
D16*
%TO.P,J4,1,Pin_1_1*%
%TO.N,+3.3V*%
X80924259Y-37865171D03*
D17*
%TO.P,J4,2,Pin_2_2*%
%TO.N,+5V*%
X80924259Y-35325171D03*
%TO.P,J4,3,Pin_3_3*%
%TO.N,/BCM2*%
X83464259Y-37865171D03*
%TO.P,J4,4,Pin_4_4*%
%TO.N,+5V*%
X83464259Y-35325171D03*
%TO.P,J4,5,Pin_5_5*%
%TO.N,/BCM3*%
X86004259Y-37865171D03*
%TO.P,J4,6,Pin_6_6*%
%TO.N,GND*%
X86004259Y-35325171D03*
%TO.P,J4,7,Pin_7_7*%
%TO.N,unconnected-(J4-Pin_7-Pad7)*%
X88544259Y-37865171D03*
%TO.P,J4,8,Pin_8_8*%
%TO.N,unconnected-(J4-Pin_8-Pad8)*%
X88544259Y-35325171D03*
%TO.P,J4,9,Pin_9_9*%
%TO.N,GND*%
X91084259Y-37865171D03*
%TO.P,J4,10,Pin_10_10*%
%TO.N,unconnected-(J4-Pin_10-Pad10)*%
X91084259Y-35325171D03*
%TO.P,J4,11,Pin_11_11*%
%TO.N,/BCM17*%
X93624259Y-37865171D03*
%TO.P,J4,12,Pin_12_12*%
%TO.N,/BCM18*%
X93624259Y-35325171D03*
%TO.P,J4,13,Pin_13_13*%
%TO.N,/BCM27*%
X96164259Y-37865171D03*
%TO.P,J4,14,Pin_14_14*%
%TO.N,GND*%
X96164259Y-35325171D03*
%TO.P,J4,15,Pin_15_15*%
%TO.N,/BCM22*%
X98704259Y-37865171D03*
%TO.P,J4,16,Pin_16_16*%
%TO.N,unconnected-(J4-Pin_16-Pad16)*%
X98704259Y-35325171D03*
%TO.P,J4,17,Pin_17_17*%
%TO.N,+3.3V*%
X101244259Y-37865171D03*
%TO.P,J4,18,Pin_18_18*%
%TO.N,/BCM24*%
X101244259Y-35325171D03*
%TO.P,J4,19,Pin_19_19*%
%TO.N,unconnected-(J4-Pin_19-Pad19)*%
X103784259Y-37865171D03*
%TO.P,J4,20,Pin_20_20*%
%TO.N,GND*%
X103784259Y-35325171D03*
%TO.P,J4,21,Pin_21_21*%
%TO.N,unconnected-(J4-Pin_21-Pad21)*%
X106324259Y-37865171D03*
%TO.P,J4,22,Pin_22_22*%
%TO.N,/BCM25*%
X106324259Y-35325171D03*
%TO.P,J4,23,Pin_23_23*%
%TO.N,unconnected-(J4-Pin_23-Pad23)*%
X108864259Y-37865171D03*
%TO.P,J4,24,Pin_24_24*%
%TO.N,unconnected-(J4-Pin_24-Pad24)*%
X108864259Y-35325171D03*
%TO.P,J4,25,Pin_25_25*%
%TO.N,GND*%
X111404259Y-37865171D03*
%TO.P,J4,26,Pin_26_26*%
%TO.N,unconnected-(J4-Pin_26-Pad26)*%
X111404259Y-35325171D03*
%TO.P,J4,27,Pin_27_27*%
%TO.N,unconnected-(J4-Pin_27-Pad27)*%
X113944259Y-37865171D03*
%TO.P,J4,28,Pin_28_28*%
%TO.N,unconnected-(J4-Pin_28-Pad28)*%
X113944259Y-35325171D03*
%TO.P,J4,29,Pin_29_29*%
%TO.N,unconnected-(J4-Pin_29-Pad29)*%
X116484259Y-37865171D03*
%TO.P,J4,30,Pin_30_30*%
%TO.N,GND*%
X116484259Y-35325171D03*
%TO.P,J4,31,Pin_31_31*%
%TO.N,unconnected-(J4-Pin_31-Pad31)*%
X119024259Y-37865171D03*
%TO.P,J4,32,Pin_32_32*%
%TO.N,unconnected-(J4-Pin_32-Pad32)*%
X119024259Y-35325171D03*
%TO.P,J4,33,Pin_33_33*%
%TO.N,unconnected-(J4-Pin_33-Pad33)*%
X121564259Y-37865171D03*
%TO.P,J4,34,Pin_34_34*%
%TO.N,GND*%
X121564259Y-35325171D03*
%TO.P,J4,35,Pin_35_35*%
%TO.N,/BCM19*%
X124104259Y-37865171D03*
%TO.P,J4,36,Pin_36_36*%
%TO.N,unconnected-(J4-Pin_36-Pad36)*%
X124104259Y-35325171D03*
%TO.P,J4,37,Pin_37_37*%
%TO.N,unconnected-(J4-Pin_37-Pad37)*%
X126644259Y-37865171D03*
%TO.P,J4,38,Pin_38_38*%
%TO.N,unconnected-(J4-Pin_38-Pad38)*%
X126644259Y-35325171D03*
%TO.P,J4,39,Pin_39_39*%
%TO.N,GND*%
X129184259Y-37865171D03*
%TO.P,J4,40,Pin_40_40*%
%TO.N,/BCM21*%
X129184259Y-35325171D03*
%TD*%
D18*
%TO.N,GND*%
X87045328Y-63685474D03*
X84587672Y-41699737D03*
X104587672Y-66699737D03*
X114587672Y-86699737D03*
X109587672Y-86699737D03*
X105000000Y-56000000D03*
X104587672Y-86699737D03*
X109587672Y-76699737D03*
X126000000Y-47000000D03*
X114587672Y-76699737D03*
X110000000Y-51500000D03*
X120000000Y-64500000D03*
X74587672Y-71699737D03*
X84587672Y-36699737D03*
X109587672Y-61699737D03*
X109827822Y-55969075D03*
X100500000Y-56000000D03*
X124587672Y-61699737D03*
X129587672Y-86699737D03*
X94587672Y-66699737D03*
X119587672Y-86699737D03*
X89587672Y-51699737D03*
X129587672Y-61699737D03*
X90354213Y-72980000D03*
X119587672Y-56699737D03*
X84587672Y-81699737D03*
X112675104Y-52908142D03*
X114587672Y-66699737D03*
X114587672Y-81699737D03*
X84587672Y-86699737D03*
X84587672Y-51699737D03*
X121000000Y-42500000D03*
X79587672Y-86699737D03*
X89587672Y-76699737D03*
D19*
X105500000Y-33990487D03*
D18*
X124587672Y-81699737D03*
X100000000Y-51500000D03*
X128000000Y-47000000D03*
X99587672Y-46699737D03*
D19*
X93500000Y-33990487D03*
D18*
X124587672Y-86699737D03*
X99587672Y-41699737D03*
X89587672Y-66699737D03*
X104587672Y-61699737D03*
X84587672Y-56699737D03*
D19*
X77531682Y-34343565D03*
D18*
X89587672Y-56699737D03*
X74587672Y-46699737D03*
X87837566Y-65720396D03*
X109587672Y-81699737D03*
X104587672Y-81699737D03*
X99587672Y-61699737D03*
X74587672Y-81699737D03*
X124587672Y-51699737D03*
X109587672Y-71699737D03*
X84587672Y-76699737D03*
X114587672Y-41699737D03*
X112632966Y-56043831D03*
X109587672Y-66699737D03*
X109587672Y-46699737D03*
X74587672Y-41699737D03*
X95500000Y-56000000D03*
X89587672Y-86699737D03*
X115804082Y-56312546D03*
X84587672Y-46699737D03*
X104587672Y-41699737D03*
X104587672Y-76699737D03*
X124587672Y-76699737D03*
X105000000Y-51500000D03*
D19*
X134518465Y-33990487D03*
D18*
X97464307Y-71000000D03*
X126000000Y-48000000D03*
X132000000Y-42500000D03*
X89500000Y-36500000D03*
X104587672Y-46699737D03*
X95000000Y-51500000D03*
X117500000Y-50500000D03*
X89587672Y-81699737D03*
X89587672Y-46699737D03*
X134587672Y-81699737D03*
X128000000Y-48000000D03*
X95200000Y-68318788D03*
X114587672Y-71699737D03*
X82500000Y-63915870D03*
X90332564Y-71493787D03*
X74587672Y-76699737D03*
D19*
X97628773Y-36535770D03*
D18*
X99587672Y-66699737D03*
X94587672Y-46699737D03*
X126500000Y-64500000D03*
X94587672Y-61699737D03*
X129587672Y-81699737D03*
X109587672Y-41699737D03*
X135500000Y-61500000D03*
X89587672Y-61699737D03*
D19*
X86099653Y-33990487D03*
D18*
X119587672Y-61699737D03*
X124587672Y-71699737D03*
%TO.N,/AIN3*%
X95329503Y-76863358D03*
X104500000Y-70000000D03*
%TO.N,+3.3V*%
X99860000Y-72691826D03*
X80000000Y-64500000D03*
X104500000Y-68500000D03*
%TO.N,/AIN1*%
X90319452Y-74488926D03*
X96978600Y-77500000D03*
%TO.N,/BCM2*%
X81562150Y-60695461D03*
X98000000Y-68194181D03*
%TO.N,/BCM3*%
X99500000Y-68133860D03*
X81126081Y-63520975D03*
%TO.N,/BCM25*%
X130000000Y-67000000D03*
%TO.N,/ACC*%
X125012527Y-67854318D03*
X125012527Y-69643000D03*
%TO.N,/AIN0*%
X98021400Y-76324703D03*
X90578301Y-69500000D03*
%TO.N,Net-(D2-K)*%
X129750000Y-42250000D03*
X127500000Y-53119802D03*
%TO.N,/EN*%
X126000000Y-63000000D03*
X134000000Y-58000000D03*
%TO.N,/BCM24*%
X106870361Y-41630599D03*
%TO.N,/BCM17*%
X91508165Y-41630599D03*
%TO.N,/BCM22*%
X101749629Y-41630599D03*
%TO.N,/BCM27*%
X96628897Y-41630599D03*
%TO.N,/OUTL*%
X85023594Y-63500000D03*
X83000000Y-69500000D03*
%TO.N,/OUTR*%
X81548531Y-69500000D03*
X84000000Y-63500000D03*
%TO.N,/BCM18*%
X83464100Y-66318209D03*
%TO.N,/BCM21*%
X84367303Y-66318209D03*
%TO.N,/BCM19*%
X85270505Y-66318209D03*
%TD*%
%TO.N,/AIN3*%
D20*
X100141897Y-76858103D02*
X104500000Y-72500000D01*
X95457791Y-76858103D02*
X100141897Y-76858103D01*
X95329503Y-76986391D02*
X95457791Y-76858103D01*
X95329503Y-76863358D02*
X95329503Y-76986391D01*
X104500000Y-72500000D02*
X104500000Y-70000000D01*
%TO.N,+3.3V*%
X80924259Y-38924259D02*
X81500000Y-39500000D01*
X80000000Y-41000000D02*
X80000000Y-64500000D01*
X81500000Y-39500000D02*
X80000000Y-41000000D01*
X99860000Y-71640000D02*
X103000000Y-68500000D01*
X103000000Y-68500000D02*
X104500000Y-68500000D01*
X80924259Y-37865171D02*
X80924259Y-38924259D01*
X99860000Y-72691826D02*
X99860000Y-71640000D01*
%TO.N,/AIN1*%
X90319452Y-74488926D02*
X93350814Y-77520288D01*
X93350814Y-77520288D02*
X96966775Y-77520288D01*
%TO.N,/BCM2*%
X98000000Y-68000000D02*
X95661800Y-70338200D01*
X81562150Y-60695461D02*
X80609600Y-59742911D01*
X80609600Y-59742911D02*
X80609600Y-41500000D01*
X81201336Y-70338200D02*
X80710331Y-69847194D01*
X81500000Y-64714808D02*
X80592681Y-63807489D01*
X83464259Y-38645341D02*
X83464259Y-37865171D01*
X80592681Y-63807489D02*
X80592681Y-61664930D01*
X95661800Y-70338200D02*
X81201336Y-70338200D01*
X80710331Y-69152806D02*
X81500000Y-68363137D01*
X80592681Y-61664930D02*
X81562150Y-60695461D01*
X80710331Y-69847194D02*
X80710331Y-69152806D01*
X81500000Y-68363137D02*
X81500000Y-64714808D01*
X80609600Y-41500000D02*
X83464259Y-38645341D01*
%TO.N,/BCM3*%
X81126081Y-63909837D02*
X81871910Y-64655666D01*
X81327589Y-70033400D02*
X83466600Y-70033400D01*
X83500000Y-70000000D02*
X83533400Y-70033400D01*
X83466600Y-70033400D02*
X83500000Y-70000000D01*
X82095550Y-60474519D02*
X81000000Y-59378968D01*
X81871910Y-64655666D02*
X81871910Y-68422279D01*
X99026921Y-67660781D02*
X99500000Y-68133860D01*
X97779058Y-67660781D02*
X99026921Y-67660781D01*
X81871910Y-68422279D02*
X81015131Y-69279058D01*
X81000000Y-59378968D02*
X81000000Y-41540652D01*
X81126081Y-63520975D02*
X82095550Y-62551506D01*
X84849104Y-39020326D02*
X86004259Y-37865171D01*
X83520326Y-39020326D02*
X84849104Y-39020326D01*
X95406440Y-70033400D02*
X97779058Y-67660781D01*
X81126081Y-63520975D02*
X81126081Y-63909837D01*
X82095550Y-62551506D02*
X82095550Y-60474519D01*
X81015131Y-69279058D02*
X81015131Y-69720942D01*
X83533400Y-70033400D02*
X95406440Y-70033400D01*
X81015131Y-69720942D02*
X81327589Y-70033400D01*
X81000000Y-41540652D02*
X83520326Y-39020326D01*
%TO.N,/BCM25*%
X107859648Y-33789782D02*
X106324259Y-35325171D01*
X130000000Y-66000000D02*
X134533400Y-61466600D01*
X130500000Y-52245658D02*
X130500000Y-34500000D01*
X134533400Y-56279058D02*
X130500000Y-52245658D01*
X130000000Y-67000000D02*
X130000000Y-66000000D01*
X130500000Y-34500000D02*
X129789782Y-33789782D01*
X129789782Y-33789782D02*
X107859648Y-33789782D01*
X134533400Y-61466600D02*
X134533400Y-56279058D01*
%TO.N,/ACC*%
X125012527Y-69643000D02*
X125012527Y-67854318D01*
%TO.N,/AIN0*%
X99398742Y-72398742D02*
X99398742Y-71601258D01*
X97144019Y-67355981D02*
X95000000Y-69500000D01*
X99476463Y-67355981D02*
X97144019Y-67355981D01*
X98021400Y-73776084D02*
X99398742Y-72398742D01*
X99398742Y-71601258D02*
X101500000Y-69500000D01*
X101500000Y-69379518D02*
X99476463Y-67355981D01*
X101500000Y-69500000D02*
X101500000Y-69379518D01*
X98021400Y-76324703D02*
X98021400Y-73776084D01*
X95000000Y-69500000D02*
X90578301Y-69500000D01*
%TO.N,Net-(D2-K)*%
X130000000Y-42500000D02*
X129750000Y-42250000D01*
X130000000Y-52500000D02*
X130000000Y-42500000D01*
X129380198Y-53119802D02*
X130000000Y-52500000D01*
X127500000Y-53119802D02*
X129380198Y-53119802D01*
%TO.N,/EN*%
X126000000Y-63000000D02*
X132568948Y-63000000D01*
X134000000Y-61568948D02*
X132568948Y-63000000D01*
X134000000Y-58000000D02*
X134000000Y-61568948D01*
%TO.N,/BCM24*%
X102680189Y-36819812D02*
X102680189Y-38286473D01*
X102430188Y-36569812D02*
X102680189Y-36819812D01*
X102680189Y-38286473D02*
X106024316Y-41630599D01*
X106024316Y-41630599D02*
X106870361Y-41630599D01*
X102430188Y-36569811D02*
X102430188Y-36569812D01*
X101244259Y-35383882D02*
X102430188Y-36569811D01*
%TO.N,/BCM17*%
X91508165Y-39981265D02*
X91508165Y-41630599D01*
X93624259Y-37865171D02*
X91508165Y-39981265D01*
%TO.N,/BCM22*%
X101749629Y-41630599D02*
X101749629Y-40910541D01*
X101749629Y-40910541D02*
X98704259Y-37865171D01*
%TO.N,/BCM27*%
X96164259Y-41165961D02*
X96164259Y-37865171D01*
X96628897Y-41630599D02*
X96164259Y-41165961D01*
%TO.N,/OUTL*%
X82804800Y-66000000D02*
X85038983Y-63765817D01*
X85038983Y-63765817D02*
X85038983Y-63647057D01*
X83000000Y-68695200D02*
X82804800Y-68500000D01*
X82804800Y-68500000D02*
X82804800Y-66000000D01*
X83000000Y-69500000D02*
X83000000Y-68695200D01*
%TO.N,/OUTR*%
X82500000Y-65873748D02*
X82500000Y-68548531D01*
X82500000Y-68548531D02*
X81548531Y-69500000D01*
X84000000Y-64373748D02*
X82500000Y-65873748D01*
X84000000Y-63500000D02*
X84000000Y-64373748D01*
%TO.N,/BCM18*%
X86069676Y-39325126D02*
X83646578Y-39325126D01*
X87197401Y-34802599D02*
X87197401Y-38197401D01*
X92545659Y-34246571D02*
X87753429Y-34246571D01*
X85572383Y-63072383D02*
X85572383Y-64209926D01*
X86447401Y-38947401D02*
X87197401Y-38197401D01*
X83646578Y-39325126D02*
X81304800Y-41666904D01*
X93624259Y-35325171D02*
X92545659Y-34246571D01*
X81304800Y-41666904D02*
X81304800Y-58804800D01*
X87753429Y-34246571D02*
X87197401Y-34802599D01*
X81304800Y-58804800D02*
X85572383Y-63072383D01*
X85572383Y-64209926D02*
X83464100Y-66318209D01*
X86447401Y-38947401D02*
X86069676Y-39325126D01*
%TO.N,/BCM21*%
X95000000Y-35500000D02*
X95000000Y-34964059D01*
X88304875Y-39629926D02*
X89622859Y-38311942D01*
X85877183Y-62946131D02*
X81609600Y-58678548D01*
X89622859Y-38311942D02*
X89622859Y-37801200D01*
X91000000Y-36424059D02*
X91000000Y-36403771D01*
X96022288Y-33941771D02*
X103926230Y-33941771D01*
X84367303Y-66318209D02*
X85877183Y-64808329D01*
X95000000Y-34964059D02*
X96022288Y-33941771D01*
X85877183Y-64808329D02*
X85877183Y-62946131D01*
X94096229Y-36403771D02*
X95000000Y-35500000D01*
X105500000Y-36403771D02*
X104862859Y-35766630D01*
X81609600Y-41793156D02*
X83772830Y-39629926D01*
X128105659Y-36403771D02*
X105500000Y-36403771D01*
X89622859Y-37801200D02*
X91000000Y-36424059D01*
X104862859Y-35766630D02*
X104862859Y-34878400D01*
X81609600Y-58678548D02*
X81609600Y-41793156D01*
X129184259Y-35325171D02*
X128105659Y-36403771D01*
X103926230Y-33941771D02*
X104862859Y-34878400D01*
X83772830Y-39629926D02*
X88304875Y-39629926D01*
X91000000Y-36403771D02*
X94096229Y-36403771D01*
%TO.N,/BCM19*%
X90474801Y-40000000D02*
X84000000Y-40000000D01*
X97625659Y-34878401D02*
X97625659Y-35389142D01*
X102500000Y-35055541D02*
X101691030Y-34246571D01*
X98257488Y-34246571D02*
X97625659Y-34878401D01*
X123254259Y-37015171D02*
X123254259Y-36954312D01*
X124104259Y-37865171D02*
X123254259Y-37015171D01*
X123254259Y-36954312D02*
X123008518Y-36708571D01*
X92500000Y-37091371D02*
X92500000Y-37974801D01*
X92834533Y-36756838D02*
X92500000Y-37091371D01*
X86181983Y-65406731D02*
X86181983Y-62819879D01*
X96257963Y-36756838D02*
X92834533Y-36756838D01*
X82000000Y-58637896D02*
X86181983Y-62819879D01*
X101691030Y-34246571D02*
X98257488Y-34246571D01*
X102500000Y-36208571D02*
X102500000Y-35055541D01*
X85270505Y-66318209D02*
X86181983Y-65406731D01*
X82000000Y-42000000D02*
X82000000Y-58637896D01*
X92500000Y-37974801D02*
X90474801Y-40000000D01*
X103000000Y-36708571D02*
X102500000Y-36208571D01*
X97625659Y-35389142D02*
X96257963Y-36756838D01*
X84000000Y-40000000D02*
X82000000Y-42000000D01*
X123008518Y-36708571D02*
X103000000Y-36708571D01*
%TD*%
%TA.AperFunction,Conductor*%
%TO.N,GND*%
G36*
X81249073Y-59073069D02*
G01*
X85253914Y-63077910D01*
X85257341Y-63086183D01*
X85253914Y-63094456D01*
X85245641Y-63097883D01*
X85239792Y-63096316D01*
X85200259Y-63073492D01*
X85200258Y-63073491D01*
X85200255Y-63073490D01*
X85200257Y-63073490D01*
X85083853Y-63042300D01*
X85083851Y-63042300D01*
X84963337Y-63042300D01*
X84963334Y-63042300D01*
X84846931Y-63073490D01*
X84742558Y-63133750D01*
X84657344Y-63218964D01*
X84597084Y-63323337D01*
X84565894Y-63439740D01*
X84565894Y-63560259D01*
X84597084Y-63676662D01*
X84657344Y-63781035D01*
X84670283Y-63793974D01*
X84673710Y-63802247D01*
X84670283Y-63810520D01*
X84249073Y-64231730D01*
X84240800Y-64235157D01*
X84232527Y-64231730D01*
X84229100Y-64223457D01*
X84229100Y-63902989D01*
X84232527Y-63894716D01*
X84234946Y-63892858D01*
X84281034Y-63866251D01*
X84366251Y-63781034D01*
X84426508Y-63676665D01*
X84457700Y-63560257D01*
X84457700Y-63439743D01*
X84426508Y-63323335D01*
X84366251Y-63218966D01*
X84281034Y-63133749D01*
X84176665Y-63073492D01*
X84176664Y-63073491D01*
X84176661Y-63073490D01*
X84176663Y-63073490D01*
X84060259Y-63042300D01*
X84060257Y-63042300D01*
X83939743Y-63042300D01*
X83939740Y-63042300D01*
X83823337Y-63073490D01*
X83718964Y-63133750D01*
X83633750Y-63218964D01*
X83573490Y-63323337D01*
X83542300Y-63439740D01*
X83542300Y-63560259D01*
X83573490Y-63676662D01*
X83573492Y-63676665D01*
X83633749Y-63781034D01*
X83718966Y-63866251D01*
X83765050Y-63892857D01*
X83770501Y-63899961D01*
X83770900Y-63902989D01*
X83770900Y-64274005D01*
X83767473Y-64282278D01*
X82305777Y-65743974D01*
X82294625Y-65770900D01*
X82270900Y-65828174D01*
X82270900Y-68448788D01*
X82267473Y-68457061D01*
X81671489Y-69053044D01*
X81663216Y-69056471D01*
X81660188Y-69056072D01*
X81608790Y-69042300D01*
X81608788Y-69042300D01*
X81604132Y-69042300D01*
X81595859Y-69038873D01*
X81592432Y-69030600D01*
X81595859Y-69022327D01*
X81691678Y-68926508D01*
X82066131Y-68552054D01*
X82087287Y-68500979D01*
X82087648Y-68500109D01*
X82101009Y-68467852D01*
X82101010Y-68467850D01*
X82101010Y-64610095D01*
X82066131Y-64525891D01*
X82001685Y-64461445D01*
X81425563Y-63885323D01*
X81422136Y-63877050D01*
X81425563Y-63868777D01*
X81450198Y-63844142D01*
X81492332Y-63802009D01*
X81552589Y-63697640D01*
X81583781Y-63581232D01*
X81583781Y-63460718D01*
X81583781Y-63460716D01*
X81570007Y-63409318D01*
X81571175Y-63400439D01*
X81573031Y-63398020D01*
X82289772Y-62681281D01*
X82324650Y-62597076D01*
X82324650Y-62505936D01*
X82324650Y-60428948D01*
X82308584Y-60390161D01*
X82289772Y-60344744D01*
X81232527Y-59287498D01*
X81229100Y-59279225D01*
X81229100Y-59081342D01*
X81232527Y-59073069D01*
X81240800Y-59069642D01*
X81249073Y-59073069D01*
G37*
%TD.AperFunction*%
%TA.AperFunction,Conductor*%
G36*
X90291185Y-37473414D02*
G01*
X90294612Y-37481687D01*
X90293721Y-37486164D01*
X90242500Y-37609825D01*
X90208859Y-37778952D01*
X90208859Y-37951389D01*
X90242500Y-38120516D01*
X90308488Y-38279827D01*
X90308492Y-38279835D01*
X90404289Y-38423204D01*
X90411375Y-38430289D01*
X90678789Y-38162875D01*
X90684160Y-38172178D01*
X90777252Y-38265270D01*
X90786552Y-38270639D01*
X90519139Y-38538053D01*
X90526225Y-38545140D01*
X90669594Y-38640937D01*
X90669602Y-38640941D01*
X90828913Y-38706929D01*
X90998041Y-38740571D01*
X91170477Y-38740571D01*
X91339604Y-38706929D01*
X91463261Y-38655710D01*
X91472215Y-38655710D01*
X91478547Y-38662042D01*
X91478547Y-38670996D01*
X91476011Y-38674792D01*
X90383331Y-39767473D01*
X90375058Y-39770900D01*
X88516144Y-39770900D01*
X88507871Y-39767473D01*
X88504444Y-39759200D01*
X88507871Y-39750927D01*
X88804371Y-39454427D01*
X89817081Y-38441716D01*
X89851959Y-38357512D01*
X89851959Y-38266372D01*
X89851959Y-37900941D01*
X89855385Y-37892669D01*
X90274642Y-37473412D01*
X90282912Y-37469987D01*
X90291185Y-37473414D01*
G37*
%TD.AperFunction*%
%TA.AperFunction,Conductor*%
G36*
X87980155Y-34479098D02*
G01*
X87983582Y-34487371D01*
X87980155Y-34495644D01*
X87978382Y-34497099D01*
X87904947Y-34546166D01*
X87904943Y-34546169D01*
X87765257Y-34685855D01*
X87765254Y-34685859D01*
X87655503Y-34850113D01*
X87655500Y-34850120D01*
X87579900Y-35032635D01*
X87556468Y-35150437D01*
X87541359Y-35226394D01*
X87541359Y-35423948D01*
X87565301Y-35544310D01*
X87579900Y-35617706D01*
X87655499Y-35800220D01*
X87655503Y-35800228D01*
X87765254Y-35964482D01*
X87765257Y-35964486D01*
X87904943Y-36104172D01*
X87904947Y-36104175D01*
X88069201Y-36213926D01*
X88069205Y-36213928D01*
X88069208Y-36213930D01*
X88251724Y-36289530D01*
X88445482Y-36328071D01*
X88445483Y-36328071D01*
X88643035Y-36328071D01*
X88643036Y-36328071D01*
X88836794Y-36289530D01*
X89019310Y-36213930D01*
X89183571Y-36104175D01*
X89323263Y-35964483D01*
X89433018Y-35800222D01*
X89508618Y-35617706D01*
X89547159Y-35423948D01*
X89547159Y-35226394D01*
X89508618Y-35032636D01*
X89433018Y-34850120D01*
X89433014Y-34850113D01*
X89323263Y-34685859D01*
X89323260Y-34685855D01*
X89183574Y-34546169D01*
X89183570Y-34546166D01*
X89110136Y-34497099D01*
X89105161Y-34489654D01*
X89106908Y-34480871D01*
X89114353Y-34475896D01*
X89116636Y-34475671D01*
X90511882Y-34475671D01*
X90520155Y-34479098D01*
X90523582Y-34487371D01*
X90520155Y-34495644D01*
X90518382Y-34497099D01*
X90444947Y-34546166D01*
X90444943Y-34546169D01*
X90305257Y-34685855D01*
X90305254Y-34685859D01*
X90195503Y-34850113D01*
X90195500Y-34850120D01*
X90119900Y-35032635D01*
X90096468Y-35150437D01*
X90081359Y-35226394D01*
X90081359Y-35423948D01*
X90105301Y-35544310D01*
X90119900Y-35617706D01*
X90195499Y-35800220D01*
X90195503Y-35800228D01*
X90305254Y-35964482D01*
X90305257Y-35964486D01*
X90444943Y-36104172D01*
X90444947Y-36104175D01*
X90609201Y-36213926D01*
X90609205Y-36213928D01*
X90609208Y-36213930D01*
X90787418Y-36287746D01*
X90793750Y-36294078D01*
X90793750Y-36303033D01*
X90792322Y-36306480D01*
X90789786Y-36310275D01*
X89526507Y-37573553D01*
X89518234Y-37576980D01*
X89509961Y-37573553D01*
X89507425Y-37569757D01*
X89502623Y-37558164D01*
X89433018Y-37390120D01*
X89433016Y-37390117D01*
X89433014Y-37390113D01*
X89323263Y-37225859D01*
X89323260Y-37225855D01*
X89183574Y-37086169D01*
X89183570Y-37086166D01*
X89019316Y-36976415D01*
X89019308Y-36976411D01*
X88836794Y-36900812D01*
X88821104Y-36897691D01*
X88643036Y-36862271D01*
X88445482Y-36862271D01*
X88400885Y-36871142D01*
X88251723Y-36900812D01*
X88069209Y-36976411D01*
X88069201Y-36976415D01*
X87904947Y-37086166D01*
X87904943Y-37086169D01*
X87765257Y-37225855D01*
X87765254Y-37225859D01*
X87655503Y-37390113D01*
X87655499Y-37390121D01*
X87579900Y-37572635D01*
X87560100Y-37672178D01*
X87541359Y-37766394D01*
X87541359Y-37963948D01*
X87549286Y-38003798D01*
X87579900Y-38157706D01*
X87655499Y-38340220D01*
X87655503Y-38340228D01*
X87765254Y-38504482D01*
X87765257Y-38504486D01*
X87904943Y-38644172D01*
X87904947Y-38644175D01*
X88069201Y-38753926D01*
X88069205Y-38753928D01*
X88069208Y-38753930D01*
X88251724Y-38829530D01*
X88445482Y-38868071D01*
X88445483Y-38868071D01*
X88643035Y-38868071D01*
X88643036Y-38868071D01*
X88729661Y-38850839D01*
X88738442Y-38852586D01*
X88743417Y-38860031D01*
X88741670Y-38868814D01*
X88740215Y-38870587D01*
X88213405Y-39397399D01*
X88205132Y-39400826D01*
X86346219Y-39400826D01*
X86337946Y-39397399D01*
X86334519Y-39389126D01*
X86337946Y-39380853D01*
X86369324Y-39349473D01*
X86575528Y-39143268D01*
X86575535Y-39143264D01*
X86577176Y-39141623D01*
X87391623Y-38327176D01*
X87426501Y-38242971D01*
X87426501Y-38151831D01*
X87426501Y-34902341D01*
X87429928Y-34894068D01*
X87844898Y-34479098D01*
X87853171Y-34475671D01*
X87971882Y-34475671D01*
X87980155Y-34479098D01*
G37*
%TD.AperFunction*%
%TA.AperFunction,Conductor*%
G36*
X92614530Y-36636298D02*
G01*
X92617957Y-36644571D01*
X92614530Y-36652844D01*
X92305777Y-36961597D01*
X92284058Y-37014034D01*
X92270900Y-37045797D01*
X92270900Y-37875057D01*
X92267473Y-37883330D01*
X91893879Y-38256923D01*
X91885606Y-38260350D01*
X91877333Y-38256923D01*
X91873906Y-38248650D01*
X91874797Y-38244173D01*
X91926017Y-38120516D01*
X91959659Y-37951389D01*
X91959659Y-37778952D01*
X91926017Y-37609825D01*
X91860029Y-37450514D01*
X91860025Y-37450506D01*
X91764228Y-37307137D01*
X91757141Y-37300051D01*
X91489727Y-37567464D01*
X91484358Y-37558164D01*
X91391266Y-37465072D01*
X91381963Y-37459701D01*
X91649378Y-37192287D01*
X91642292Y-37185201D01*
X91498923Y-37089404D01*
X91498915Y-37089400D01*
X91339604Y-37023412D01*
X91170477Y-36989771D01*
X90998041Y-36989771D01*
X90828913Y-37023412D01*
X90705252Y-37074633D01*
X90696297Y-37074633D01*
X90689966Y-37068301D01*
X90689966Y-37059346D01*
X90692497Y-37055557D01*
X91111757Y-36636298D01*
X91120030Y-36632871D01*
X92606257Y-36632871D01*
X92614530Y-36636298D01*
G37*
%TD.AperFunction*%
%TA.AperFunction,Conductor*%
G36*
X95371185Y-34933414D02*
G01*
X95374612Y-34941687D01*
X95373721Y-34946164D01*
X95322500Y-35069825D01*
X95288859Y-35238952D01*
X95288859Y-35411389D01*
X95322500Y-35580516D01*
X95388488Y-35739827D01*
X95388492Y-35739835D01*
X95484289Y-35883204D01*
X95491375Y-35890289D01*
X95758789Y-35622875D01*
X95764160Y-35632178D01*
X95857252Y-35725270D01*
X95866552Y-35730639D01*
X95599139Y-35998053D01*
X95606225Y-36005140D01*
X95749594Y-36100937D01*
X95749602Y-36100941D01*
X95908913Y-36166929D01*
X96078041Y-36200571D01*
X96250477Y-36200571D01*
X96419604Y-36166929D01*
X96543261Y-36115709D01*
X96552215Y-36115709D01*
X96558547Y-36122041D01*
X96558547Y-36130995D01*
X96556011Y-36134791D01*
X96166493Y-36524311D01*
X96158220Y-36527738D01*
X94324505Y-36527738D01*
X94316232Y-36524311D01*
X94312805Y-36516038D01*
X94316232Y-36507765D01*
X95194221Y-35629776D01*
X95194222Y-35629775D01*
X95229100Y-35545570D01*
X95229100Y-35454430D01*
X95229100Y-35063800D01*
X95232526Y-35055528D01*
X95354642Y-34933412D01*
X95362912Y-34929987D01*
X95371185Y-34933414D01*
G37*
%TD.AperFunction*%
%TA.AperFunction,Conductor*%
G36*
X103834760Y-34174298D02*
G01*
X104176012Y-34515550D01*
X104179439Y-34523823D01*
X104176012Y-34532096D01*
X104167739Y-34535523D01*
X104163262Y-34534632D01*
X104039604Y-34483412D01*
X103870477Y-34449771D01*
X103698041Y-34449771D01*
X103528913Y-34483412D01*
X103369602Y-34549400D01*
X103369594Y-34549404D01*
X103226227Y-34645200D01*
X103226222Y-34645204D01*
X103219139Y-34652286D01*
X103219139Y-34652287D01*
X103486553Y-34919701D01*
X103477252Y-34925072D01*
X103384160Y-35018164D01*
X103378789Y-35027465D01*
X103111375Y-34760051D01*
X103104292Y-34767134D01*
X103104288Y-34767139D01*
X103008492Y-34910506D01*
X103008488Y-34910514D01*
X102942500Y-35069825D01*
X102908859Y-35238952D01*
X102908859Y-35411389D01*
X102942500Y-35580516D01*
X103008488Y-35739827D01*
X103008492Y-35739835D01*
X103104289Y-35883204D01*
X103111375Y-35890289D01*
X103378788Y-35622875D01*
X103384160Y-35632178D01*
X103477252Y-35725270D01*
X103486552Y-35730639D01*
X103219139Y-35998053D01*
X103226225Y-36005140D01*
X103369594Y-36100937D01*
X103369602Y-36100941D01*
X103528913Y-36166929D01*
X103698041Y-36200571D01*
X103870477Y-36200571D01*
X104039604Y-36166929D01*
X104198915Y-36100941D01*
X104198923Y-36100937D01*
X104342289Y-36005142D01*
X104349378Y-35998053D01*
X104081964Y-35730639D01*
X104091266Y-35725270D01*
X104184358Y-35632178D01*
X104189728Y-35622876D01*
X104457141Y-35890289D01*
X104464230Y-35883201D01*
X104560025Y-35739835D01*
X104560029Y-35739827D01*
X104611250Y-35616169D01*
X104617582Y-35609837D01*
X104626536Y-35609837D01*
X104632868Y-35616169D01*
X104633759Y-35620646D01*
X104633759Y-35812202D01*
X104665650Y-35889194D01*
X104668637Y-35896405D01*
X104957017Y-36184785D01*
X105231731Y-36459498D01*
X105235158Y-36467771D01*
X105231731Y-36476044D01*
X105223458Y-36479471D01*
X103099742Y-36479471D01*
X103091469Y-36476044D01*
X102732527Y-36117101D01*
X102729100Y-36108828D01*
X102729100Y-35009971D01*
X102729099Y-35009967D01*
X102712489Y-34969869D01*
X102694221Y-34925766D01*
X102629775Y-34861320D01*
X102296756Y-34528301D01*
X101959300Y-34190844D01*
X101955873Y-34182571D01*
X101959300Y-34174298D01*
X101967573Y-34170871D01*
X103826487Y-34170871D01*
X103834760Y-34174298D01*
G37*
%TD.AperFunction*%
%TA.AperFunction,Conductor*%
G36*
X97989218Y-34174298D02*
G01*
X97992645Y-34182571D01*
X97989218Y-34190844D01*
X97431438Y-34748625D01*
X97431436Y-34748628D01*
X97411006Y-34797952D01*
X97396559Y-34832827D01*
X97396559Y-35289398D01*
X97393132Y-35297671D01*
X96973879Y-35716923D01*
X96965606Y-35720350D01*
X96957333Y-35716923D01*
X96953906Y-35708650D01*
X96954797Y-35704173D01*
X97006017Y-35580516D01*
X97039659Y-35411389D01*
X97039659Y-35238952D01*
X97006017Y-35069825D01*
X96940029Y-34910514D01*
X96940025Y-34910506D01*
X96844228Y-34767137D01*
X96837141Y-34760051D01*
X96569727Y-35027464D01*
X96564358Y-35018164D01*
X96471266Y-34925072D01*
X96461963Y-34919701D01*
X96729378Y-34652287D01*
X96722292Y-34645201D01*
X96578923Y-34549404D01*
X96578915Y-34549400D01*
X96419604Y-34483412D01*
X96250477Y-34449771D01*
X96078041Y-34449771D01*
X95908913Y-34483412D01*
X95785252Y-34534633D01*
X95776297Y-34534633D01*
X95769966Y-34528301D01*
X95769966Y-34519346D01*
X95772497Y-34515557D01*
X96113757Y-34174298D01*
X96122030Y-34170871D01*
X97980945Y-34170871D01*
X97989218Y-34174298D01*
G37*
%TD.AperFunction*%
%TA.AperFunction,Conductor*%
G36*
X134527303Y-33499008D02*
G01*
X134826579Y-33517111D01*
X134827966Y-33517280D01*
X135064802Y-33560682D01*
X135122513Y-33571258D01*
X135123884Y-33571595D01*
X135409783Y-33660684D01*
X135411094Y-33661182D01*
X135684169Y-33784084D01*
X135685410Y-33784734D01*
X135941684Y-33939657D01*
X135942845Y-33940458D01*
X136085662Y-34052349D01*
X136178571Y-34125138D01*
X136179628Y-34126075D01*
X136391367Y-34337814D01*
X136392304Y-34338871D01*
X136576982Y-34574595D01*
X136577785Y-34575758D01*
X136732705Y-34832028D01*
X136733361Y-34833279D01*
X136856258Y-35106343D01*
X136856759Y-35107664D01*
X136945846Y-35393557D01*
X136946184Y-35394929D01*
X137000161Y-35689468D01*
X137000332Y-35690871D01*
X137010794Y-35863837D01*
X137010815Y-35864543D01*
X137009609Y-86064878D01*
X137009575Y-86065764D01*
X136992598Y-86289193D01*
X136992498Y-86290071D01*
X136970029Y-86437402D01*
X136969822Y-86438441D01*
X136898274Y-86728374D01*
X136897854Y-86729723D01*
X136791945Y-87008764D01*
X136791365Y-87010052D01*
X136652602Y-87274295D01*
X136651871Y-87275503D01*
X136482225Y-87521169D01*
X136481469Y-87522148D01*
X136335520Y-87691929D01*
X136334920Y-87692577D01*
X136229508Y-87797953D01*
X136228725Y-87798667D01*
X135999290Y-87989820D01*
X135998152Y-87990657D01*
X135747346Y-88152772D01*
X135746431Y-88153306D01*
X135614469Y-88222548D01*
X135613672Y-88222929D01*
X135408113Y-88311714D01*
X135406954Y-88312143D01*
X135121923Y-88400942D01*
X135120552Y-88401280D01*
X134826984Y-88455067D01*
X134825575Y-88455238D01*
X134523406Y-88473336D01*
X134522706Y-88473357D01*
X75531288Y-88474355D01*
X75530585Y-88474334D01*
X75228278Y-88456127D01*
X75227217Y-88456014D01*
X75079865Y-88433547D01*
X75078998Y-88433381D01*
X74860706Y-88383007D01*
X74859686Y-88382723D01*
X74646833Y-88312805D01*
X74646005Y-88312498D01*
X74508125Y-88255360D01*
X74507500Y-88255078D01*
X74373315Y-88189720D01*
X74372538Y-88189304D01*
X74179022Y-88076246D01*
X74178277Y-88075772D01*
X74055542Y-87991040D01*
X74054835Y-87990512D01*
X73880519Y-87849630D01*
X73879853Y-87849049D01*
X73771246Y-87746812D01*
X73770627Y-87746183D01*
X73619553Y-87580763D01*
X73618874Y-87579949D01*
X73483370Y-87401527D01*
X73482863Y-87400804D01*
X73401823Y-87275485D01*
X73401458Y-87274881D01*
X73364951Y-87210170D01*
X73328127Y-87144897D01*
X73327727Y-87144122D01*
X73272408Y-87026052D01*
X73232630Y-86941152D01*
X73232296Y-86940362D01*
X73179371Y-86800887D01*
X73179101Y-86800085D01*
X73115633Y-86585195D01*
X73115386Y-86584192D01*
X73071615Y-86364432D01*
X73071481Y-86363592D01*
X73053462Y-86215532D01*
X73053388Y-86214647D01*
X73043099Y-85986770D01*
X73043087Y-85986242D01*
X73043099Y-85358843D01*
X74018455Y-85358843D01*
X74018455Y-85622130D01*
X74052820Y-85883165D01*
X74120964Y-86137482D01*
X74120968Y-86137493D01*
X74221717Y-86380722D01*
X74221721Y-86380731D01*
X74353365Y-86608745D01*
X74513645Y-86817626D01*
X74699817Y-87003798D01*
X74908698Y-87164078D01*
X75136712Y-87295722D01*
X75379959Y-87396478D01*
X75634276Y-87464622D01*
X75895312Y-87498988D01*
X76158600Y-87498988D01*
X76419636Y-87464622D01*
X76673953Y-87396478D01*
X76917200Y-87295722D01*
X77145214Y-87164078D01*
X77354095Y-87003798D01*
X77540267Y-86817626D01*
X77700547Y-86608745D01*
X77832191Y-86380731D01*
X77932947Y-86137484D01*
X78001091Y-85883167D01*
X78035457Y-85622131D01*
X78035457Y-85358843D01*
X78001091Y-85097807D01*
X77996780Y-85081718D01*
X93897100Y-85081718D01*
X93897100Y-85918281D01*
X93934105Y-86151922D01*
X93934109Y-86151938D01*
X94007204Y-86376904D01*
X94007206Y-86376908D01*
X94007208Y-86376913D01*
X94104457Y-86567775D01*
X94114608Y-86587697D01*
X94253644Y-86779063D01*
X94253648Y-86779067D01*
X94253652Y-86779073D01*
X94420927Y-86946348D01*
X94420932Y-86946352D01*
X94420936Y-86946355D01*
X94612302Y-87085391D01*
X94612307Y-87085393D01*
X94612309Y-87085395D01*
X94823087Y-87192792D01*
X94823092Y-87192793D01*
X94823095Y-87192795D01*
X94937648Y-87230015D01*
X95048070Y-87265893D01*
X95108744Y-87275503D01*
X95281718Y-87302900D01*
X95281719Y-87302900D01*
X95518281Y-87302900D01*
X95751930Y-87265893D01*
X95976913Y-87192792D01*
X96187691Y-87085395D01*
X96379073Y-86946348D01*
X96546348Y-86779073D01*
X96605430Y-86697752D01*
X96685391Y-86587697D01*
X96685391Y-86587695D01*
X96685395Y-86587691D01*
X96792792Y-86376913D01*
X96865893Y-86151930D01*
X96902900Y-85918281D01*
X96902900Y-85081719D01*
X96865893Y-84848070D01*
X96854269Y-84812295D01*
X96792795Y-84623095D01*
X96792793Y-84623091D01*
X96792792Y-84623087D01*
X96685395Y-84412309D01*
X96685393Y-84412307D01*
X96685391Y-84412302D01*
X96546355Y-84220936D01*
X96546352Y-84220932D01*
X96546348Y-84220927D01*
X96393713Y-84068292D01*
X98097100Y-84068292D01*
X98097100Y-86931706D01*
X98112042Y-87026052D01*
X98112042Y-87026053D01*
X98112043Y-87026054D01*
X98169984Y-87139770D01*
X98260230Y-87230016D01*
X98373946Y-87287957D01*
X98468293Y-87302900D01*
X100731706Y-87302899D01*
X100826054Y-87287957D01*
X100939770Y-87230016D01*
X101030016Y-87139770D01*
X101087957Y-87026054D01*
X101102900Y-86931707D01*
X101102899Y-84068294D01*
X101087957Y-83973946D01*
X101030016Y-83860230D01*
X100939770Y-83769984D01*
X100826054Y-83712043D01*
X100826053Y-83712042D01*
X100826052Y-83712042D01*
X100731707Y-83697100D01*
X98468293Y-83697100D01*
X98373947Y-83712042D01*
X98260229Y-83769984D01*
X98169984Y-83860229D01*
X98112042Y-83973947D01*
X98097100Y-84068292D01*
X96393713Y-84068292D01*
X96379073Y-84053652D01*
X96379067Y-84053648D01*
X96379063Y-84053644D01*
X96187697Y-83914608D01*
X96080972Y-83860229D01*
X95976913Y-83807208D01*
X95976910Y-83807207D01*
X95976908Y-83807206D01*
X95976904Y-83807204D01*
X95751938Y-83734109D01*
X95751922Y-83734105D01*
X95518282Y-83697100D01*
X95518281Y-83697100D01*
X95281719Y-83697100D01*
X95281718Y-83697100D01*
X95048077Y-83734105D01*
X95048061Y-83734109D01*
X94823095Y-83807204D01*
X94823091Y-83807206D01*
X94612302Y-83914608D01*
X94420936Y-84053644D01*
X94420920Y-84053658D01*
X94253658Y-84220920D01*
X94253644Y-84220936D01*
X94114608Y-84412302D01*
X94007206Y-84623091D01*
X94007204Y-84623095D01*
X93934109Y-84848061D01*
X93934105Y-84848077D01*
X93897100Y-85081718D01*
X77996780Y-85081718D01*
X77932947Y-84843490D01*
X77832191Y-84600243D01*
X77700547Y-84372229D01*
X77540267Y-84163348D01*
X77354095Y-83977176D01*
X77145214Y-83816896D01*
X76917200Y-83685252D01*
X76917192Y-83685248D01*
X76917191Y-83685248D01*
X76673962Y-83584499D01*
X76673951Y-83584495D01*
X76419634Y-83516351D01*
X76158600Y-83481986D01*
X75895312Y-83481986D01*
X75634277Y-83516351D01*
X75379960Y-83584495D01*
X75379949Y-83584499D01*
X75136720Y-83685248D01*
X75136715Y-83685250D01*
X75136712Y-83685252D01*
X74908698Y-83816896D01*
X74908697Y-83816896D01*
X74699818Y-83977175D01*
X74699811Y-83977181D01*
X74513650Y-84163342D01*
X74513644Y-84163349D01*
X74353365Y-84372228D01*
X74353365Y-84372229D01*
X74221721Y-84600243D01*
X74221719Y-84600246D01*
X74221717Y-84600251D01*
X74120968Y-84843480D01*
X74120964Y-84843491D01*
X74052820Y-85097808D01*
X74018455Y-85358843D01*
X73043099Y-85358843D01*
X73043099Y-85358460D01*
X73043206Y-79581718D01*
X93897100Y-79581718D01*
X93897100Y-80418281D01*
X93934105Y-80651922D01*
X93934109Y-80651938D01*
X94007204Y-80876904D01*
X94007206Y-80876908D01*
X94007208Y-80876913D01*
X94008309Y-80879073D01*
X94114608Y-81087697D01*
X94253644Y-81279063D01*
X94253648Y-81279067D01*
X94253652Y-81279073D01*
X94420927Y-81446348D01*
X94420932Y-81446352D01*
X94420936Y-81446355D01*
X94612302Y-81585391D01*
X94612307Y-81585393D01*
X94612309Y-81585395D01*
X94823087Y-81692792D01*
X94823092Y-81692793D01*
X94823095Y-81692795D01*
X95012295Y-81754269D01*
X95048070Y-81765893D01*
X95143170Y-81780955D01*
X95281718Y-81802900D01*
X95281719Y-81802900D01*
X95518281Y-81802900D01*
X95751930Y-81765893D01*
X95976913Y-81692792D01*
X96187691Y-81585395D01*
X96379073Y-81446348D01*
X96546348Y-81279073D01*
X96685395Y-81087691D01*
X96792792Y-80876913D01*
X96865893Y-80651930D01*
X96902900Y-80418281D01*
X96902900Y-79581719D01*
X96902900Y-79581718D01*
X98097100Y-79581718D01*
X98097100Y-80418281D01*
X98134105Y-80651922D01*
X98134109Y-80651938D01*
X98207204Y-80876904D01*
X98207206Y-80876908D01*
X98207208Y-80876913D01*
X98208309Y-80879073D01*
X98314608Y-81087697D01*
X98453644Y-81279063D01*
X98453648Y-81279067D01*
X98453652Y-81279073D01*
X98620927Y-81446348D01*
X98620932Y-81446352D01*
X98620936Y-81446355D01*
X98812302Y-81585391D01*
X98812307Y-81585393D01*
X98812309Y-81585395D01*
X99023087Y-81692792D01*
X99023092Y-81692793D01*
X99023095Y-81692795D01*
X99212295Y-81754269D01*
X99248070Y-81765893D01*
X99343170Y-81780955D01*
X99481718Y-81802900D01*
X99481719Y-81802900D01*
X99718281Y-81802900D01*
X99951930Y-81765893D01*
X100176913Y-81692792D01*
X100387691Y-81585395D01*
X100579073Y-81446348D01*
X100746348Y-81279073D01*
X100885395Y-81087691D01*
X100992792Y-80876913D01*
X101065893Y-80651930D01*
X101102900Y-80418281D01*
X101102900Y-79581719D01*
X101097570Y-79548070D01*
X101065894Y-79348077D01*
X101065893Y-79348070D01*
X101007129Y-79167211D01*
X100992795Y-79123095D01*
X100992793Y-79123091D01*
X100992792Y-79123087D01*
X100885395Y-78912309D01*
X100885393Y-78912307D01*
X100885391Y-78912302D01*
X100746355Y-78720936D01*
X100746352Y-78720932D01*
X100746348Y-78720927D01*
X100579073Y-78553652D01*
X100579067Y-78553648D01*
X100579063Y-78553644D01*
X100387697Y-78414608D01*
X100353336Y-78397100D01*
X100176913Y-78307208D01*
X100176910Y-78307207D01*
X100176908Y-78307206D01*
X100176904Y-78307204D01*
X99951938Y-78234109D01*
X99951922Y-78234105D01*
X99718282Y-78197100D01*
X99718281Y-78197100D01*
X99481719Y-78197100D01*
X99481718Y-78197100D01*
X99248077Y-78234105D01*
X99248061Y-78234109D01*
X99023095Y-78307204D01*
X99023091Y-78307206D01*
X98812302Y-78414608D01*
X98620936Y-78553644D01*
X98620920Y-78553658D01*
X98453658Y-78720920D01*
X98453644Y-78720936D01*
X98314608Y-78912302D01*
X98207206Y-79123091D01*
X98207204Y-79123095D01*
X98134109Y-79348061D01*
X98134105Y-79348077D01*
X98097100Y-79581718D01*
X96902900Y-79581718D01*
X96897570Y-79548070D01*
X96865894Y-79348077D01*
X96865893Y-79348070D01*
X96807129Y-79167211D01*
X96792795Y-79123095D01*
X96792793Y-79123091D01*
X96792792Y-79123087D01*
X96685395Y-78912309D01*
X96685393Y-78912307D01*
X96685391Y-78912302D01*
X96546355Y-78720936D01*
X96546352Y-78720932D01*
X96546348Y-78720927D01*
X96379073Y-78553652D01*
X96379067Y-78553648D01*
X96379063Y-78553644D01*
X96187697Y-78414608D01*
X96153336Y-78397100D01*
X95976913Y-78307208D01*
X95976910Y-78307207D01*
X95976908Y-78307206D01*
X95976904Y-78307204D01*
X95751938Y-78234109D01*
X95751922Y-78234105D01*
X95518282Y-78197100D01*
X95518281Y-78197100D01*
X95281719Y-78197100D01*
X95281718Y-78197100D01*
X95048077Y-78234105D01*
X95048061Y-78234109D01*
X94823095Y-78307204D01*
X94823091Y-78307206D01*
X94612302Y-78414608D01*
X94420936Y-78553644D01*
X94420920Y-78553658D01*
X94253658Y-78720920D01*
X94253644Y-78720936D01*
X94114608Y-78912302D01*
X94007206Y-79123091D01*
X94007204Y-79123095D01*
X93934109Y-79348061D01*
X93934105Y-79348077D01*
X93897100Y-79581718D01*
X73043206Y-79581718D01*
X73043206Y-79581259D01*
X73043227Y-78425845D01*
X78247100Y-78425845D01*
X78247100Y-78574154D01*
X78276032Y-78719612D01*
X78332788Y-78856630D01*
X78332792Y-78856638D01*
X78415183Y-78979945D01*
X78415186Y-78979949D01*
X78520050Y-79084813D01*
X78520054Y-79084816D01*
X78643361Y-79167207D01*
X78643365Y-79167209D01*
X78643368Y-79167211D01*
X78780387Y-79223967D01*
X78925846Y-79252900D01*
X79074154Y-79252900D01*
X79219613Y-79223967D01*
X79356632Y-79167211D01*
X79479946Y-79084816D01*
X79584816Y-78979946D01*
X79667211Y-78856632D01*
X79723967Y-78719613D01*
X79752900Y-78574154D01*
X79752900Y-78425846D01*
X79752900Y-78425845D01*
X84247100Y-78425845D01*
X84247100Y-78574154D01*
X84276032Y-78719612D01*
X84332788Y-78856630D01*
X84332792Y-78856638D01*
X84415183Y-78979945D01*
X84415186Y-78979949D01*
X84520050Y-79084813D01*
X84520054Y-79084816D01*
X84643361Y-79167207D01*
X84643365Y-79167209D01*
X84643368Y-79167211D01*
X84780387Y-79223967D01*
X84925846Y-79252900D01*
X85074154Y-79252900D01*
X85219613Y-79223967D01*
X85356632Y-79167211D01*
X85479946Y-79084816D01*
X85584816Y-78979946D01*
X85667211Y-78856632D01*
X85723967Y-78719613D01*
X85752900Y-78574154D01*
X85752900Y-78425846D01*
X85723967Y-78280387D01*
X85667211Y-78143368D01*
X85667209Y-78143365D01*
X85667207Y-78143361D01*
X85584816Y-78020054D01*
X85584813Y-78020050D01*
X85479949Y-77915186D01*
X85479945Y-77915183D01*
X85356638Y-77832792D01*
X85356630Y-77832788D01*
X85219612Y-77776032D01*
X85074154Y-77747100D01*
X84925846Y-77747100D01*
X84780387Y-77776032D01*
X84643369Y-77832788D01*
X84643361Y-77832792D01*
X84520054Y-77915183D01*
X84520050Y-77915186D01*
X84415186Y-78020050D01*
X84415183Y-78020054D01*
X84332792Y-78143361D01*
X84332788Y-78143369D01*
X84276032Y-78280387D01*
X84247100Y-78425845D01*
X79752900Y-78425845D01*
X79723967Y-78280387D01*
X79667211Y-78143368D01*
X79667209Y-78143365D01*
X79667207Y-78143361D01*
X79584816Y-78020054D01*
X79584813Y-78020050D01*
X79479949Y-77915186D01*
X79479945Y-77915183D01*
X79356638Y-77832792D01*
X79356630Y-77832788D01*
X79219612Y-77776032D01*
X79074154Y-77747100D01*
X78925846Y-77747100D01*
X78780387Y-77776032D01*
X78643369Y-77832788D01*
X78643361Y-77832792D01*
X78520054Y-77915183D01*
X78520050Y-77915186D01*
X78415186Y-78020050D01*
X78415183Y-78020054D01*
X78332792Y-78143361D01*
X78332788Y-78143369D01*
X78276032Y-78280387D01*
X78247100Y-78425845D01*
X73043227Y-78425845D01*
X73043227Y-78425271D01*
X73043249Y-77218964D01*
X73043373Y-70475762D01*
X73043543Y-70473784D01*
X73066489Y-70341621D01*
X73067204Y-70339155D01*
X73095379Y-70270988D01*
X73096203Y-70269368D01*
X73134901Y-70206127D01*
X73135970Y-70204652D01*
X73184089Y-70148249D01*
X73185377Y-70146960D01*
X73241445Y-70099030D01*
X73243565Y-70097588D01*
X73361832Y-70034922D01*
X73364212Y-70033979D01*
X73435362Y-70014501D01*
X73437156Y-70014160D01*
X73511778Y-70005978D01*
X73513052Y-70005909D01*
X76550854Y-70006063D01*
X76628172Y-69998987D01*
X76634846Y-69998987D01*
X76646534Y-69997306D01*
X76771552Y-69985865D01*
X76840037Y-69969484D01*
X76848430Y-69968278D01*
X76863134Y-69963960D01*
X76987344Y-69934252D01*
X77046394Y-69910209D01*
X77047467Y-69909835D01*
X77055469Y-69907486D01*
X77074886Y-69898618D01*
X77075231Y-69898469D01*
X77207678Y-69844545D01*
X77411254Y-69721454D01*
X77593052Y-69568014D01*
X77748544Y-69388072D01*
X77859296Y-69213693D01*
X77956090Y-68996379D01*
X78017659Y-68766671D01*
X78035055Y-68601165D01*
X78035456Y-68598377D01*
X78035456Y-68597351D01*
X78042527Y-68530078D01*
X78042679Y-64439740D01*
X79542300Y-64439740D01*
X79542300Y-64560259D01*
X79573490Y-64676662D01*
X79573492Y-64676665D01*
X79633749Y-64781034D01*
X79718966Y-64866251D01*
X79823335Y-64926508D01*
X79823337Y-64926508D01*
X79823338Y-64926509D01*
X79823336Y-64926509D01*
X79915142Y-64951108D01*
X79939740Y-64957699D01*
X79939742Y-64957700D01*
X79939743Y-64957700D01*
X80060258Y-64957700D01*
X80060258Y-64957699D01*
X80142081Y-64935774D01*
X80176662Y-64926509D01*
X80176662Y-64926508D01*
X80176665Y-64926508D01*
X80281034Y-64866251D01*
X80366251Y-64781034D01*
X80426508Y-64676665D01*
X80457700Y-64560257D01*
X80457700Y-64439743D01*
X80426508Y-64323335D01*
X80366251Y-64218966D01*
X80281034Y-64133749D01*
X80281033Y-64133748D01*
X80281030Y-64133746D01*
X80234950Y-64107141D01*
X80229499Y-64100037D01*
X80229100Y-64097009D01*
X80229100Y-61619356D01*
X80363581Y-61619356D01*
X80363581Y-63853061D01*
X80398458Y-63937262D01*
X80398459Y-63937264D01*
X81267473Y-64806277D01*
X81270900Y-64814550D01*
X81270900Y-68263394D01*
X81267473Y-68271667D01*
X80516110Y-69023029D01*
X80516109Y-69023030D01*
X80516109Y-69023031D01*
X80508128Y-69042300D01*
X80481231Y-69107232D01*
X80481231Y-69892767D01*
X80493979Y-69923542D01*
X80494183Y-69924034D01*
X80516109Y-69976968D01*
X81071561Y-70532422D01*
X81131102Y-70557084D01*
X81155765Y-70567300D01*
X81155766Y-70567300D01*
X81155767Y-70567300D01*
X95707369Y-70567300D01*
X95707370Y-70567300D01*
X95707371Y-70567300D01*
X95732033Y-70557084D01*
X95791575Y-70532422D01*
X97740892Y-68583103D01*
X97749164Y-68579677D01*
X97755013Y-68581243D01*
X97823335Y-68620689D01*
X97823337Y-68620689D01*
X97823338Y-68620690D01*
X97823336Y-68620690D01*
X97915142Y-68645289D01*
X97939740Y-68651880D01*
X97939742Y-68651881D01*
X97939743Y-68651881D01*
X98060258Y-68651881D01*
X98060258Y-68651880D01*
X98142081Y-68629955D01*
X98176662Y-68620690D01*
X98176662Y-68620689D01*
X98176665Y-68620689D01*
X98281034Y-68560432D01*
X98366251Y-68475215D01*
X98426508Y-68370846D01*
X98457700Y-68254438D01*
X98457700Y-68133924D01*
X98441507Y-68073492D01*
X98426509Y-68017518D01*
X98422688Y-68010900D01*
X98366251Y-67913147D01*
X98362958Y-67909854D01*
X98359531Y-67901581D01*
X98362958Y-67893308D01*
X98371231Y-67889881D01*
X98927178Y-67889881D01*
X98935451Y-67893308D01*
X99053044Y-68010900D01*
X99056471Y-68019173D01*
X99056072Y-68022201D01*
X99042300Y-68073600D01*
X99042300Y-68194119D01*
X99073490Y-68310522D01*
X99073492Y-68310525D01*
X99133749Y-68414894D01*
X99218966Y-68500111D01*
X99323335Y-68560368D01*
X99323337Y-68560368D01*
X99323338Y-68560369D01*
X99323336Y-68560369D01*
X99408185Y-68583104D01*
X99439740Y-68591559D01*
X99439742Y-68591560D01*
X99439743Y-68591560D01*
X99560258Y-68591560D01*
X99560258Y-68591559D01*
X99657789Y-68565426D01*
X99676662Y-68560369D01*
X99676662Y-68560368D01*
X99676665Y-68560368D01*
X99781034Y-68500111D01*
X99866251Y-68414894D01*
X99926508Y-68310525D01*
X99957700Y-68194117D01*
X99957700Y-68189460D01*
X99961127Y-68181187D01*
X99969400Y-68177760D01*
X99977672Y-68181186D01*
X101227971Y-69431486D01*
X101231398Y-69439758D01*
X101227971Y-69448031D01*
X99204521Y-71471481D01*
X99204519Y-71471484D01*
X99188473Y-71510225D01*
X99169642Y-71555684D01*
X99169642Y-72298999D01*
X99166215Y-72307272D01*
X97827177Y-73646310D01*
X97802515Y-73705850D01*
X97792300Y-73730510D01*
X97792300Y-75921712D01*
X97788873Y-75929985D01*
X97786450Y-75931844D01*
X97740369Y-75958449D01*
X97740364Y-75958453D01*
X97655150Y-76043667D01*
X97594890Y-76148040D01*
X97563700Y-76264443D01*
X97563700Y-76384962D01*
X97594890Y-76501365D01*
X97594892Y-76501368D01*
X97649538Y-76596019D01*
X97655150Y-76605738D01*
X97658442Y-76609030D01*
X97661869Y-76617303D01*
X97658442Y-76625576D01*
X97650169Y-76629003D01*
X95729459Y-76629003D01*
X95721186Y-76625576D01*
X95719327Y-76623153D01*
X95695756Y-76582327D01*
X95695752Y-76582322D01*
X95610538Y-76497108D01*
X95610537Y-76497107D01*
X95506168Y-76436850D01*
X95506167Y-76436849D01*
X95506164Y-76436848D01*
X95506166Y-76436848D01*
X95389762Y-76405658D01*
X95389760Y-76405658D01*
X95269246Y-76405658D01*
X95269243Y-76405658D01*
X95152840Y-76436848D01*
X95048467Y-76497108D01*
X94963253Y-76582322D01*
X94902993Y-76686695D01*
X94871803Y-76803098D01*
X94871803Y-76923617D01*
X94902993Y-77040020D01*
X94922318Y-77073492D01*
X94963252Y-77144392D01*
X95048469Y-77229609D01*
X95048470Y-77229610D01*
X95048472Y-77229611D01*
X95117312Y-77269356D01*
X95122763Y-77276460D01*
X95121594Y-77285338D01*
X95114490Y-77290789D01*
X95111462Y-77291188D01*
X93450557Y-77291188D01*
X93442284Y-77287761D01*
X90766406Y-74611883D01*
X90762979Y-74603610D01*
X90763377Y-74600586D01*
X90775953Y-74553658D01*
X90777152Y-74549184D01*
X90777152Y-74428668D01*
X90777151Y-74428666D01*
X90745961Y-74312263D01*
X90745960Y-74312261D01*
X90685703Y-74207892D01*
X90600486Y-74122675D01*
X90496117Y-74062418D01*
X90496116Y-74062417D01*
X90496113Y-74062416D01*
X90496115Y-74062416D01*
X90379711Y-74031226D01*
X90379709Y-74031226D01*
X90259195Y-74031226D01*
X90259192Y-74031226D01*
X90142789Y-74062416D01*
X90038416Y-74122676D01*
X89953202Y-74207890D01*
X89892942Y-74312263D01*
X89861752Y-74428666D01*
X89861752Y-74549185D01*
X89892942Y-74665588D01*
X89892944Y-74665591D01*
X89953201Y-74769960D01*
X90038418Y-74855177D01*
X90142787Y-74915434D01*
X90142789Y-74915434D01*
X90142790Y-74915435D01*
X90142788Y-74915435D01*
X90219091Y-74935880D01*
X90259192Y-74946625D01*
X90259194Y-74946626D01*
X90259195Y-74946626D01*
X90379709Y-74946626D01*
X90431108Y-74932852D01*
X90439986Y-74934020D01*
X90442409Y-74935880D01*
X93221039Y-77714510D01*
X93280580Y-77739172D01*
X93305243Y-77749388D01*
X93305244Y-77749388D01*
X93396384Y-77749388D01*
X96587323Y-77749388D01*
X96595596Y-77752815D01*
X96597455Y-77755238D01*
X96612346Y-77781030D01*
X96612348Y-77781033D01*
X96612349Y-77781034D01*
X96697566Y-77866251D01*
X96801935Y-77926508D01*
X96801937Y-77926508D01*
X96801938Y-77926509D01*
X96801936Y-77926509D01*
X96893742Y-77951108D01*
X96918340Y-77957699D01*
X96918342Y-77957700D01*
X96918343Y-77957700D01*
X97038858Y-77957700D01*
X97038858Y-77957699D01*
X97120681Y-77935774D01*
X97155262Y-77926509D01*
X97155262Y-77926508D01*
X97155265Y-77926508D01*
X97259634Y-77866251D01*
X97344851Y-77781034D01*
X97405108Y-77676665D01*
X97436300Y-77560257D01*
X97436300Y-77439743D01*
X97405108Y-77323335D01*
X97344851Y-77218966D01*
X97259634Y-77133749D01*
X97259633Y-77133748D01*
X97259630Y-77133746D01*
X97216829Y-77109035D01*
X97211378Y-77101931D01*
X97212547Y-77093053D01*
X97219651Y-77087602D01*
X97222679Y-77087203D01*
X100187466Y-77087203D01*
X100187467Y-77087203D01*
X100187468Y-77087203D01*
X100220569Y-77073492D01*
X100271672Y-77052325D01*
X104694221Y-72629775D01*
X104729100Y-72545570D01*
X104729100Y-72454430D01*
X104729100Y-70402989D01*
X104732527Y-70394716D01*
X104734946Y-70392858D01*
X104781034Y-70366251D01*
X104866251Y-70281034D01*
X104926508Y-70176665D01*
X104928559Y-70169013D01*
X104935774Y-70142081D01*
X104957700Y-70060257D01*
X104957700Y-69939743D01*
X104951241Y-69915639D01*
X104940174Y-69874333D01*
X104939486Y-69871764D01*
X116018456Y-69871764D01*
X116018456Y-85109209D01*
X116055598Y-85343720D01*
X116055602Y-85343736D01*
X116128970Y-85569541D01*
X116128972Y-85569545D01*
X116128974Y-85569550D01*
X116226587Y-85761127D01*
X116236774Y-85781120D01*
X116376328Y-85973199D01*
X116376332Y-85973203D01*
X116376336Y-85973209D01*
X116544234Y-86141107D01*
X116544239Y-86141111D01*
X116544243Y-86141114D01*
X116736322Y-86280668D01*
X116736327Y-86280670D01*
X116736329Y-86280672D01*
X116947893Y-86388469D01*
X116947898Y-86388470D01*
X116947901Y-86388472D01*
X117098493Y-86437402D01*
X117173715Y-86461843D01*
X117269158Y-86476959D01*
X117408233Y-86498987D01*
X117408234Y-86498987D01*
X117645678Y-86498987D01*
X117880197Y-86461843D01*
X118106019Y-86388469D01*
X118317583Y-86280672D01*
X118509678Y-86141107D01*
X118677576Y-85973209D01*
X118817141Y-85781114D01*
X118924938Y-85569550D01*
X118993401Y-85358843D01*
X132018455Y-85358843D01*
X132018455Y-85622130D01*
X132052820Y-85883165D01*
X132120964Y-86137482D01*
X132120968Y-86137493D01*
X132221717Y-86380722D01*
X132221721Y-86380731D01*
X132353365Y-86608745D01*
X132513645Y-86817626D01*
X132699817Y-87003798D01*
X132908698Y-87164078D01*
X133136712Y-87295722D01*
X133379959Y-87396478D01*
X133634276Y-87464622D01*
X133895312Y-87498988D01*
X134158600Y-87498988D01*
X134419636Y-87464622D01*
X134673953Y-87396478D01*
X134917200Y-87295722D01*
X135145214Y-87164078D01*
X135354095Y-87003798D01*
X135540267Y-86817626D01*
X135700547Y-86608745D01*
X135832191Y-86380731D01*
X135932947Y-86137484D01*
X136001091Y-85883167D01*
X136035457Y-85622131D01*
X136035457Y-85358843D01*
X136001091Y-85097807D01*
X135932947Y-84843490D01*
X135832191Y-84600243D01*
X135700547Y-84372229D01*
X135540267Y-84163348D01*
X135354095Y-83977176D01*
X135145214Y-83816896D01*
X134917200Y-83685252D01*
X134917192Y-83685248D01*
X134917191Y-83685248D01*
X134673962Y-83584499D01*
X134673951Y-83584495D01*
X134419634Y-83516351D01*
X134158600Y-83481986D01*
X133895312Y-83481986D01*
X133634277Y-83516351D01*
X133379960Y-83584495D01*
X133379949Y-83584499D01*
X133136720Y-83685248D01*
X133136715Y-83685250D01*
X133136712Y-83685252D01*
X132908698Y-83816896D01*
X132908697Y-83816896D01*
X132699818Y-83977175D01*
X132699811Y-83977181D01*
X132513650Y-84163342D01*
X132513644Y-84163349D01*
X132353365Y-84372228D01*
X132353365Y-84372229D01*
X132221721Y-84600243D01*
X132221719Y-84600246D01*
X132221717Y-84600251D01*
X132120968Y-84843480D01*
X132120964Y-84843491D01*
X132052820Y-85097808D01*
X132018455Y-85358843D01*
X118993401Y-85358843D01*
X118998312Y-85343728D01*
X119035456Y-85109209D01*
X119035456Y-84990487D01*
X119035456Y-84923542D01*
X119035456Y-79781718D01*
X126197100Y-79781718D01*
X126197100Y-80018281D01*
X126234105Y-80251922D01*
X126234109Y-80251938D01*
X126307204Y-80476904D01*
X126307206Y-80476908D01*
X126307208Y-80476913D01*
X126396380Y-80651922D01*
X126414608Y-80687697D01*
X126553644Y-80879063D01*
X126553648Y-80879067D01*
X126553652Y-80879073D01*
X126720927Y-81046348D01*
X126720932Y-81046352D01*
X126720936Y-81046355D01*
X126912302Y-81185391D01*
X126912307Y-81185393D01*
X126912309Y-81185395D01*
X127123087Y-81292792D01*
X127123092Y-81292793D01*
X127123095Y-81292795D01*
X127312295Y-81354269D01*
X127348070Y-81365893D01*
X127443170Y-81380955D01*
X127581718Y-81402900D01*
X127581719Y-81402900D01*
X128418281Y-81402900D01*
X128651930Y-81365893D01*
X128876913Y-81292792D01*
X129087691Y-81185395D01*
X129279073Y-81046348D01*
X129446348Y-80879073D01*
X129585395Y-80687691D01*
X129692792Y-80476913D01*
X129765893Y-80251930D01*
X129802900Y-80018281D01*
X129802900Y-79781719D01*
X129802900Y-79781718D01*
X131697100Y-79781718D01*
X131697100Y-80018281D01*
X131734105Y-80251922D01*
X131734109Y-80251938D01*
X131807204Y-80476904D01*
X131807206Y-80476908D01*
X131807208Y-80476913D01*
X131896380Y-80651922D01*
X131914608Y-80687697D01*
X132053644Y-80879063D01*
X132053648Y-80879067D01*
X132053652Y-80879073D01*
X132220927Y-81046348D01*
X132220932Y-81046352D01*
X132220936Y-81046355D01*
X132412302Y-81185391D01*
X132412307Y-81185393D01*
X132412309Y-81185395D01*
X132623087Y-81292792D01*
X132623092Y-81292793D01*
X132623095Y-81292795D01*
X132812295Y-81354269D01*
X132848070Y-81365893D01*
X132943170Y-81380955D01*
X133081718Y-81402900D01*
X133081719Y-81402900D01*
X133918281Y-81402900D01*
X134151930Y-81365893D01*
X134376913Y-81292792D01*
X134587691Y-81185395D01*
X134779073Y-81046348D01*
X134946348Y-80879073D01*
X135085395Y-80687691D01*
X135192792Y-80476913D01*
X135265893Y-80251930D01*
X135302900Y-80018281D01*
X135302900Y-79781719D01*
X135265893Y-79548070D01*
X135200912Y-79348077D01*
X135192795Y-79323095D01*
X135192793Y-79323091D01*
X135192792Y-79323087D01*
X135085395Y-79112309D01*
X135085393Y-79112307D01*
X135085391Y-79112302D01*
X134946355Y-78920936D01*
X134946352Y-78920932D01*
X134946348Y-78920927D01*
X134779073Y-78753652D01*
X134779067Y-78753648D01*
X134779063Y-78753644D01*
X134587697Y-78614608D01*
X134567775Y-78604457D01*
X134376913Y-78507208D01*
X134376910Y-78507207D01*
X134376908Y-78507206D01*
X134376904Y-78507204D01*
X134151938Y-78434109D01*
X134151922Y-78434105D01*
X133918282Y-78397100D01*
X133918281Y-78397100D01*
X133081719Y-78397100D01*
X133081718Y-78397100D01*
X132848077Y-78434105D01*
X132848061Y-78434109D01*
X132623095Y-78507204D01*
X132623091Y-78507206D01*
X132412302Y-78614608D01*
X132220936Y-78753644D01*
X132220920Y-78753658D01*
X132053658Y-78920920D01*
X132053644Y-78920936D01*
X131914608Y-79112302D01*
X131807206Y-79323091D01*
X131807204Y-79323095D01*
X131734109Y-79548061D01*
X131734105Y-79548077D01*
X131697100Y-79781718D01*
X129802900Y-79781718D01*
X129765893Y-79548070D01*
X129700912Y-79348077D01*
X129692795Y-79323095D01*
X129692793Y-79323091D01*
X129692792Y-79323087D01*
X129585395Y-79112309D01*
X129585393Y-79112307D01*
X129585391Y-79112302D01*
X129446355Y-78920936D01*
X129446352Y-78920932D01*
X129446348Y-78920927D01*
X129279073Y-78753652D01*
X129279067Y-78753648D01*
X129279063Y-78753644D01*
X129087697Y-78614608D01*
X129067775Y-78604457D01*
X128876913Y-78507208D01*
X128876910Y-78507207D01*
X128876908Y-78507206D01*
X128876904Y-78507204D01*
X128651938Y-78434109D01*
X128651922Y-78434105D01*
X128418282Y-78397100D01*
X128418281Y-78397100D01*
X127581719Y-78397100D01*
X127581718Y-78397100D01*
X127348077Y-78434105D01*
X127348061Y-78434109D01*
X127123095Y-78507204D01*
X127123091Y-78507206D01*
X126912302Y-78614608D01*
X126720936Y-78753644D01*
X126720920Y-78753658D01*
X126553658Y-78920920D01*
X126553644Y-78920936D01*
X126414608Y-79112302D01*
X126307206Y-79323091D01*
X126307204Y-79323095D01*
X126234109Y-79548061D01*
X126234105Y-79548077D01*
X126197100Y-79781718D01*
X119035456Y-79781718D01*
X119035456Y-75581718D01*
X126197100Y-75581718D01*
X126197100Y-75818281D01*
X126234105Y-76051922D01*
X126234109Y-76051938D01*
X126307204Y-76276904D01*
X126307206Y-76276908D01*
X126307208Y-76276913D01*
X126388699Y-76436848D01*
X126414608Y-76487697D01*
X126553644Y-76679063D01*
X126553648Y-76679067D01*
X126553652Y-76679073D01*
X126720927Y-76846348D01*
X126720932Y-76846352D01*
X126720936Y-76846355D01*
X126912302Y-76985391D01*
X126912307Y-76985393D01*
X126912309Y-76985395D01*
X127123087Y-77092792D01*
X127123092Y-77092793D01*
X127123095Y-77092795D01*
X127249131Y-77133746D01*
X127348070Y-77165893D01*
X127443170Y-77180955D01*
X127581718Y-77202900D01*
X127581719Y-77202900D01*
X128418281Y-77202900D01*
X128651930Y-77165893D01*
X128876913Y-77092792D01*
X129087691Y-76985395D01*
X129102503Y-76974634D01*
X129279063Y-76846355D01*
X129279073Y-76846348D01*
X129446348Y-76679073D01*
X129575458Y-76501368D01*
X129585391Y-76487697D01*
X129585391Y-76487695D01*
X129585395Y-76487691D01*
X129692792Y-76276913D01*
X129765893Y-76051930D01*
X129802900Y-75818281D01*
X129802900Y-75591753D01*
X131824600Y-75591753D01*
X131824600Y-75623800D01*
X132801443Y-75623800D01*
X132800000Y-75631056D01*
X132800000Y-75768944D01*
X132801443Y-75776200D01*
X131824600Y-75776200D01*
X131824600Y-75808246D01*
X131858465Y-76022066D01*
X131858468Y-76022078D01*
X131925365Y-76227965D01*
X132023655Y-76420873D01*
X132150896Y-76596003D01*
X132150910Y-76596019D01*
X132303980Y-76749089D01*
X132303996Y-76749103D01*
X132479126Y-76876344D01*
X132672034Y-76974634D01*
X132877921Y-77041531D01*
X132877933Y-77041534D01*
X133091753Y-77075400D01*
X133423800Y-77075400D01*
X133423800Y-76398556D01*
X133431056Y-76400000D01*
X133568944Y-76400000D01*
X133576200Y-76398556D01*
X133576200Y-77075400D01*
X133908246Y-77075400D01*
X134122066Y-77041534D01*
X134122078Y-77041531D01*
X134327965Y-76974634D01*
X134520873Y-76876344D01*
X134696003Y-76749103D01*
X134696019Y-76749089D01*
X134849089Y-76596019D01*
X134849103Y-76596003D01*
X134976344Y-76420873D01*
X135074634Y-76227965D01*
X135141531Y-76022078D01*
X135141534Y-76022066D01*
X135175400Y-75808246D01*
X135175400Y-75776200D01*
X134198557Y-75776200D01*
X134200000Y-75768944D01*
X134200000Y-75631056D01*
X134198557Y-75623800D01*
X135175400Y-75623800D01*
X135175400Y-75591753D01*
X135141534Y-75377933D01*
X135141531Y-75377921D01*
X135074634Y-75172034D01*
X134976344Y-74979126D01*
X134849103Y-74803996D01*
X134849089Y-74803980D01*
X134696019Y-74650910D01*
X134696003Y-74650896D01*
X134520873Y-74523655D01*
X134327965Y-74425365D01*
X134122078Y-74358468D01*
X134122066Y-74358465D01*
X133908247Y-74324600D01*
X133576200Y-74324600D01*
X133576200Y-75001443D01*
X133568944Y-75000000D01*
X133431056Y-75000000D01*
X133423800Y-75001443D01*
X133423800Y-74324600D01*
X133091753Y-74324600D01*
X132877933Y-74358465D01*
X132877921Y-74358468D01*
X132672034Y-74425365D01*
X132479126Y-74523655D01*
X132303996Y-74650896D01*
X132303980Y-74650910D01*
X132150910Y-74803980D01*
X132150896Y-74803996D01*
X132023655Y-74979126D01*
X131925365Y-75172034D01*
X131858468Y-75377921D01*
X131858465Y-75377933D01*
X131824600Y-75591753D01*
X129802900Y-75591753D01*
X129802900Y-75581719D01*
X129765893Y-75348070D01*
X129692792Y-75123087D01*
X129585395Y-74912309D01*
X129585393Y-74912307D01*
X129585391Y-74912302D01*
X129446355Y-74720936D01*
X129446352Y-74720932D01*
X129446348Y-74720927D01*
X129279073Y-74553652D01*
X129279067Y-74553648D01*
X129279063Y-74553644D01*
X129087697Y-74414608D01*
X128977510Y-74358465D01*
X128876913Y-74307208D01*
X128876910Y-74307207D01*
X128876908Y-74307206D01*
X128876904Y-74307204D01*
X128651938Y-74234109D01*
X128651922Y-74234105D01*
X128418282Y-74197100D01*
X128418281Y-74197100D01*
X127581719Y-74197100D01*
X127581718Y-74197100D01*
X127348077Y-74234105D01*
X127348061Y-74234109D01*
X127123095Y-74307204D01*
X127123091Y-74307206D01*
X126912302Y-74414608D01*
X126720936Y-74553644D01*
X126720920Y-74553658D01*
X126553658Y-74720920D01*
X126553644Y-74720936D01*
X126414608Y-74912302D01*
X126307206Y-75123091D01*
X126307204Y-75123095D01*
X126234109Y-75348061D01*
X126234105Y-75348077D01*
X126197100Y-75581718D01*
X119035456Y-75581718D01*
X119035456Y-71381718D01*
X126197100Y-71381718D01*
X126197100Y-71618281D01*
X126234105Y-71851922D01*
X126234109Y-71851938D01*
X126307204Y-72076904D01*
X126307206Y-72076908D01*
X126307208Y-72076913D01*
X126404457Y-72267775D01*
X126414608Y-72287697D01*
X126553644Y-72479063D01*
X126553648Y-72479067D01*
X126553652Y-72479073D01*
X126720927Y-72646348D01*
X126720932Y-72646352D01*
X126720936Y-72646355D01*
X126912302Y-72785391D01*
X126912307Y-72785393D01*
X126912309Y-72785395D01*
X127123087Y-72892792D01*
X127123092Y-72892793D01*
X127123095Y-72892795D01*
X127312295Y-72954269D01*
X127348070Y-72965893D01*
X127443170Y-72980955D01*
X127581718Y-73002900D01*
X127581719Y-73002900D01*
X128418281Y-73002900D01*
X128651930Y-72965893D01*
X128876913Y-72892792D01*
X129087691Y-72785395D01*
X129133539Y-72752085D01*
X129279063Y-72646355D01*
X129279073Y-72646348D01*
X129446348Y-72479073D01*
X129571169Y-72307272D01*
X129585391Y-72287697D01*
X129585391Y-72287695D01*
X129585395Y-72287691D01*
X129692792Y-72076913D01*
X129765893Y-71851930D01*
X129802900Y-71618281D01*
X129802900Y-71381719D01*
X129765893Y-71148070D01*
X129692792Y-70923087D01*
X129585395Y-70712309D01*
X129585393Y-70712307D01*
X129585391Y-70712302D01*
X129446355Y-70520936D01*
X129446352Y-70520932D01*
X129446348Y-70520927D01*
X129282322Y-70356901D01*
X131549500Y-70356901D01*
X131549500Y-70356902D01*
X131549500Y-70356906D01*
X131549500Y-72643092D01*
X131560124Y-72731565D01*
X131615636Y-72872337D01*
X131615638Y-72872339D01*
X131615639Y-72872342D01*
X131707078Y-72992922D01*
X131827658Y-73084361D01*
X131827660Y-73084362D01*
X131827662Y-73084363D01*
X131913809Y-73118334D01*
X131968436Y-73139876D01*
X132056901Y-73150500D01*
X134943098Y-73150499D01*
X135031564Y-73139876D01*
X135172342Y-73084361D01*
X135292922Y-72992922D01*
X135384361Y-72872342D01*
X135439876Y-72731564D01*
X135450500Y-72643099D01*
X135450499Y-70356902D01*
X135439876Y-70268436D01*
X135403687Y-70176665D01*
X135384363Y-70127662D01*
X135384362Y-70127660D01*
X135384361Y-70127658D01*
X135292922Y-70007078D01*
X135172342Y-69915639D01*
X135172339Y-69915638D01*
X135172337Y-69915636D01*
X135031565Y-69860124D01*
X135018926Y-69858606D01*
X134943099Y-69849500D01*
X134943093Y-69849500D01*
X132056907Y-69849500D01*
X131968434Y-69860124D01*
X131827662Y-69915636D01*
X131827658Y-69915638D01*
X131827658Y-69915639D01*
X131746784Y-69976968D01*
X131707078Y-70007078D01*
X131615636Y-70127662D01*
X131560124Y-70268434D01*
X131558611Y-70281034D01*
X131549500Y-70356901D01*
X129282322Y-70356901D01*
X129279073Y-70353652D01*
X129279067Y-70353648D01*
X129279063Y-70353644D01*
X129087697Y-70214608D01*
X129027708Y-70184042D01*
X128876913Y-70107208D01*
X128876910Y-70107207D01*
X128876908Y-70107206D01*
X128876904Y-70107204D01*
X128651938Y-70034109D01*
X128651922Y-70034105D01*
X128418282Y-69997100D01*
X128418281Y-69997100D01*
X127581719Y-69997100D01*
X127581718Y-69997100D01*
X127348077Y-70034105D01*
X127348061Y-70034109D01*
X127123095Y-70107204D01*
X127123091Y-70107206D01*
X126912302Y-70214608D01*
X126720936Y-70353644D01*
X126720920Y-70353658D01*
X126553658Y-70520920D01*
X126553644Y-70520936D01*
X126414608Y-70712302D01*
X126307206Y-70923091D01*
X126307204Y-70923095D01*
X126234109Y-71148061D01*
X126234105Y-71148077D01*
X126197100Y-71381718D01*
X119035456Y-71381718D01*
X119035456Y-69923542D01*
X119035456Y-69871765D01*
X119027785Y-69823335D01*
X118998313Y-69637253D01*
X118998312Y-69637246D01*
X118967462Y-69542300D01*
X118924941Y-69411432D01*
X118924939Y-69411428D01*
X118924938Y-69411424D01*
X118817141Y-69199860D01*
X118817139Y-69199858D01*
X118817137Y-69199853D01*
X118677583Y-69007774D01*
X118677580Y-69007770D01*
X118677576Y-69007765D01*
X118509678Y-68839867D01*
X118509672Y-68839863D01*
X118509668Y-68839859D01*
X118317589Y-68700305D01*
X118218131Y-68649629D01*
X118106019Y-68592505D01*
X118106016Y-68592504D01*
X118106014Y-68592503D01*
X118106010Y-68592501D01*
X117880205Y-68519133D01*
X117880189Y-68519129D01*
X117645679Y-68481987D01*
X117645678Y-68481987D01*
X117408234Y-68481987D01*
X117408233Y-68481987D01*
X117173722Y-68519129D01*
X117173706Y-68519133D01*
X116947901Y-68592501D01*
X116947897Y-68592503D01*
X116736322Y-68700305D01*
X116544243Y-68839859D01*
X116544227Y-68839873D01*
X116376342Y-69007758D01*
X116376328Y-69007774D01*
X116236774Y-69199853D01*
X116128972Y-69411428D01*
X116128970Y-69411432D01*
X116055602Y-69637237D01*
X116055598Y-69637253D01*
X116018456Y-69871764D01*
X104939486Y-69871764D01*
X104926509Y-69823337D01*
X104915004Y-69803409D01*
X104866251Y-69718966D01*
X104781034Y-69633749D01*
X104676665Y-69573492D01*
X104676664Y-69573491D01*
X104676661Y-69573490D01*
X104676663Y-69573490D01*
X104560259Y-69542300D01*
X104560257Y-69542300D01*
X104439743Y-69542300D01*
X104439740Y-69542300D01*
X104323337Y-69573490D01*
X104218964Y-69633750D01*
X104133750Y-69718964D01*
X104073490Y-69823337D01*
X104042300Y-69939740D01*
X104042300Y-70060259D01*
X104073490Y-70176662D01*
X104073492Y-70176665D01*
X104133749Y-70281034D01*
X104218966Y-70366251D01*
X104265050Y-70392857D01*
X104270501Y-70399961D01*
X104270900Y-70402989D01*
X104270900Y-72400257D01*
X104267473Y-72408530D01*
X100050427Y-76625576D01*
X100042154Y-76629003D01*
X98392631Y-76629003D01*
X98384358Y-76625576D01*
X98380931Y-76617303D01*
X98384358Y-76609030D01*
X98387651Y-76605737D01*
X98447908Y-76501368D01*
X98449050Y-76497108D01*
X98479099Y-76384962D01*
X98479100Y-76384961D01*
X98479100Y-76264445D01*
X98479099Y-76264443D01*
X98447909Y-76148040D01*
X98446861Y-76146224D01*
X98387651Y-76043669D01*
X98302434Y-75958452D01*
X98302433Y-75958451D01*
X98302430Y-75958449D01*
X98256350Y-75931844D01*
X98250899Y-75924740D01*
X98250500Y-75921712D01*
X98250500Y-73875826D01*
X98253927Y-73867553D01*
X99382327Y-72739153D01*
X99390600Y-72735726D01*
X99398873Y-72739153D01*
X99402300Y-72747426D01*
X99402300Y-72752085D01*
X99433490Y-72868488D01*
X99433492Y-72868491D01*
X99493749Y-72972860D01*
X99578966Y-73058077D01*
X99683335Y-73118334D01*
X99683337Y-73118334D01*
X99683338Y-73118335D01*
X99683336Y-73118335D01*
X99763729Y-73139876D01*
X99799740Y-73149525D01*
X99799742Y-73149526D01*
X99799743Y-73149526D01*
X99920258Y-73149526D01*
X99920258Y-73149525D01*
X100002081Y-73127600D01*
X100036662Y-73118335D01*
X100036662Y-73118334D01*
X100036665Y-73118334D01*
X100141034Y-73058077D01*
X100226251Y-72972860D01*
X100286508Y-72868491D01*
X100317700Y-72752083D01*
X100317700Y-72631569D01*
X100294657Y-72545572D01*
X100286509Y-72515163D01*
X100265676Y-72479079D01*
X100226251Y-72410792D01*
X100141034Y-72325575D01*
X100141033Y-72325574D01*
X100141030Y-72325572D01*
X100094950Y-72298967D01*
X100089499Y-72291863D01*
X100089100Y-72288835D01*
X100089100Y-71739742D01*
X100092527Y-71731469D01*
X103091469Y-68732527D01*
X103099742Y-68729100D01*
X104097010Y-68729100D01*
X104105283Y-68732527D01*
X104107142Y-68734950D01*
X104133746Y-68781030D01*
X104133748Y-68781033D01*
X104133749Y-68781034D01*
X104218966Y-68866251D01*
X104323335Y-68926508D01*
X104323337Y-68926508D01*
X104323338Y-68926509D01*
X104323336Y-68926509D01*
X104415142Y-68951108D01*
X104439740Y-68957699D01*
X104439742Y-68957700D01*
X104439743Y-68957700D01*
X104560258Y-68957700D01*
X104560258Y-68957699D01*
X104651269Y-68933313D01*
X104676662Y-68926509D01*
X104676662Y-68926508D01*
X104676665Y-68926508D01*
X104781034Y-68866251D01*
X104866251Y-68781034D01*
X104926508Y-68676665D01*
X104957700Y-68560257D01*
X104957700Y-68439743D01*
X104926508Y-68323335D01*
X104866251Y-68218966D01*
X104781034Y-68133749D01*
X104676665Y-68073492D01*
X104676664Y-68073491D01*
X104676661Y-68073490D01*
X104676663Y-68073490D01*
X104560259Y-68042300D01*
X104560257Y-68042300D01*
X104439743Y-68042300D01*
X104439740Y-68042300D01*
X104323337Y-68073490D01*
X104218964Y-68133750D01*
X104133750Y-68218964D01*
X104133746Y-68218969D01*
X104107142Y-68265050D01*
X104100038Y-68270501D01*
X104097010Y-68270900D01*
X102954428Y-68270900D01*
X102942447Y-68275863D01*
X102930466Y-68280826D01*
X102870227Y-68305777D01*
X102870224Y-68305779D01*
X101749073Y-69426930D01*
X101740800Y-69430357D01*
X101732527Y-69426930D01*
X101729100Y-69418657D01*
X101729100Y-69333948D01*
X101729099Y-69333944D01*
X101705406Y-69276746D01*
X101694221Y-69249743D01*
X101629775Y-69185297D01*
X100944587Y-68500109D01*
X100246046Y-67801567D01*
X100238537Y-67794058D01*
X124554827Y-67794058D01*
X124554827Y-67914577D01*
X124586017Y-68030980D01*
X124586019Y-68030983D01*
X124646276Y-68135352D01*
X124731493Y-68220569D01*
X124777577Y-68247175D01*
X124783028Y-68254279D01*
X124783427Y-68257307D01*
X124783427Y-69240009D01*
X124780000Y-69248282D01*
X124777577Y-69250141D01*
X124731496Y-69276746D01*
X124731491Y-69276750D01*
X124646277Y-69361964D01*
X124586017Y-69466337D01*
X124554827Y-69582740D01*
X124554827Y-69703259D01*
X124586017Y-69819662D01*
X124586019Y-69819665D01*
X124646276Y-69924034D01*
X124731493Y-70009251D01*
X124835862Y-70069508D01*
X124835864Y-70069508D01*
X124835865Y-70069509D01*
X124835863Y-70069509D01*
X124927669Y-70094108D01*
X124952267Y-70100699D01*
X124952269Y-70100700D01*
X124952270Y-70100700D01*
X125072785Y-70100700D01*
X125072785Y-70100699D01*
X125154608Y-70078774D01*
X125189189Y-70069509D01*
X125189189Y-70069508D01*
X125189192Y-70069508D01*
X125293561Y-70009251D01*
X125378778Y-69924034D01*
X125439035Y-69819665D01*
X125470227Y-69703257D01*
X125470227Y-69582743D01*
X125452272Y-69515734D01*
X125439036Y-69466337D01*
X125423682Y-69439743D01*
X125378778Y-69361966D01*
X125293561Y-69276749D01*
X125293560Y-69276748D01*
X125293557Y-69276746D01*
X125247477Y-69250141D01*
X125242026Y-69243037D01*
X125241627Y-69240009D01*
X125241627Y-68257307D01*
X125245054Y-68249034D01*
X125247473Y-68247176D01*
X125293561Y-68220569D01*
X125378778Y-68135352D01*
X125439035Y-68030983D01*
X125470227Y-67914575D01*
X125470227Y-67794061D01*
X125442794Y-67691681D01*
X125439036Y-67677655D01*
X125431418Y-67664460D01*
X125378778Y-67573284D01*
X125293561Y-67488067D01*
X125189192Y-67427810D01*
X125189191Y-67427809D01*
X125189188Y-67427808D01*
X125189190Y-67427808D01*
X125072786Y-67396618D01*
X125072784Y-67396618D01*
X124952270Y-67396618D01*
X124952267Y-67396618D01*
X124835864Y-67427808D01*
X124731491Y-67488068D01*
X124646277Y-67573282D01*
X124586017Y-67677655D01*
X124554827Y-67794058D01*
X100238537Y-67794058D01*
X99606239Y-67161760D01*
X99606238Y-67161759D01*
X99546696Y-67137096D01*
X99522036Y-67126881D01*
X99522034Y-67126881D01*
X97098448Y-67126881D01*
X97098445Y-67126881D01*
X97063570Y-67141328D01*
X97014246Y-67161758D01*
X97014243Y-67161760D01*
X94908530Y-69267473D01*
X94900257Y-69270900D01*
X90981291Y-69270900D01*
X90973018Y-69267473D01*
X90971159Y-69265050D01*
X90944554Y-69218969D01*
X90944550Y-69218964D01*
X90859336Y-69133750D01*
X90859335Y-69133749D01*
X90754966Y-69073492D01*
X90754965Y-69073491D01*
X90754962Y-69073490D01*
X90754964Y-69073490D01*
X90638560Y-69042300D01*
X90638558Y-69042300D01*
X90518044Y-69042300D01*
X90518041Y-69042300D01*
X90401638Y-69073490D01*
X90297265Y-69133750D01*
X90212051Y-69218964D01*
X90151791Y-69323337D01*
X90120601Y-69439740D01*
X90120601Y-69560259D01*
X90151791Y-69676662D01*
X90151793Y-69676665D01*
X90206199Y-69770900D01*
X90212051Y-69781035D01*
X90215343Y-69784327D01*
X90218770Y-69792600D01*
X90215343Y-69800873D01*
X90207070Y-69804300D01*
X83628533Y-69804300D01*
X83624056Y-69803409D01*
X83545572Y-69770900D01*
X83545570Y-69770900D01*
X83454430Y-69770900D01*
X83454427Y-69770900D01*
X83375944Y-69803409D01*
X83371467Y-69804300D01*
X83371231Y-69804300D01*
X83362958Y-69800873D01*
X83359531Y-69792600D01*
X83362958Y-69784327D01*
X83366251Y-69781034D01*
X83426508Y-69676665D01*
X83457700Y-69560257D01*
X83457700Y-69439743D01*
X83457699Y-69439741D01*
X83457699Y-69439740D01*
X83426509Y-69323337D01*
X83399612Y-69276750D01*
X83366251Y-69218966D01*
X83281034Y-69133749D01*
X83281033Y-69133748D01*
X83281030Y-69133746D01*
X83234950Y-69107141D01*
X83229499Y-69100037D01*
X83229100Y-69097009D01*
X83229100Y-68649630D01*
X83229099Y-68649626D01*
X83205436Y-68592501D01*
X83194221Y-68565425D01*
X83129775Y-68500979D01*
X83085857Y-68457061D01*
X83037327Y-68408530D01*
X83033900Y-68400257D01*
X83033900Y-66532144D01*
X83037327Y-66523871D01*
X83045600Y-66520444D01*
X83053873Y-66523871D01*
X83055729Y-66526289D01*
X83097849Y-66599243D01*
X83183066Y-66684460D01*
X83287435Y-66744717D01*
X83287437Y-66744717D01*
X83287438Y-66744718D01*
X83287436Y-66744718D01*
X83379242Y-66769317D01*
X83403840Y-66775908D01*
X83403842Y-66775909D01*
X83403843Y-66775909D01*
X83524358Y-66775909D01*
X83524358Y-66775908D01*
X83606181Y-66753983D01*
X83640762Y-66744718D01*
X83640762Y-66744717D01*
X83640765Y-66744717D01*
X83745134Y-66684460D01*
X83830351Y-66599243D01*
X83890608Y-66494874D01*
X83904400Y-66443400D01*
X83909851Y-66436297D01*
X83918729Y-66435128D01*
X83925833Y-66440579D01*
X83927002Y-66443401D01*
X83940793Y-66494871D01*
X83940795Y-66494874D01*
X84001052Y-66599243D01*
X84086269Y-66684460D01*
X84190638Y-66744717D01*
X84190640Y-66744717D01*
X84190641Y-66744718D01*
X84190639Y-66744718D01*
X84282445Y-66769317D01*
X84307043Y-66775908D01*
X84307045Y-66775909D01*
X84307046Y-66775909D01*
X84427561Y-66775909D01*
X84427561Y-66775908D01*
X84509384Y-66753983D01*
X84543965Y-66744718D01*
X84543965Y-66744717D01*
X84543968Y-66744717D01*
X84648337Y-66684460D01*
X84733554Y-66599243D01*
X84793811Y-66494874D01*
X84807603Y-66443403D01*
X84813054Y-66436299D01*
X84821932Y-66435130D01*
X84829036Y-66440581D01*
X84830205Y-66443403D01*
X84843995Y-66494871D01*
X84843997Y-66494874D01*
X84904254Y-66599243D01*
X84989471Y-66684460D01*
X85093840Y-66744717D01*
X85093842Y-66744717D01*
X85093843Y-66744718D01*
X85093841Y-66744718D01*
X85185647Y-66769317D01*
X85210245Y-66775908D01*
X85210247Y-66775909D01*
X85210248Y-66775909D01*
X85330763Y-66775909D01*
X85330763Y-66775908D01*
X85412586Y-66753983D01*
X85447167Y-66744718D01*
X85447167Y-66744717D01*
X85447170Y-66744717D01*
X85551539Y-66684460D01*
X85636756Y-66599243D01*
X85697013Y-66494874D01*
X85728205Y-66378466D01*
X85728205Y-66257952D01*
X85728205Y-66257950D01*
X85714431Y-66206551D01*
X85715599Y-66197672D01*
X85717455Y-66195253D01*
X86376205Y-65536505D01*
X86411083Y-65452301D01*
X86411083Y-65361160D01*
X86411083Y-62774308D01*
X86411082Y-62774305D01*
X86399244Y-62745726D01*
X86376205Y-62690105D01*
X86376204Y-62690103D01*
X82232527Y-58546426D01*
X82229100Y-58538153D01*
X82229100Y-42099743D01*
X82232527Y-42091470D01*
X84091470Y-40232527D01*
X84099743Y-40229100D01*
X90520370Y-40229100D01*
X90520371Y-40229100D01*
X90520372Y-40229100D01*
X90565602Y-40210365D01*
X90604576Y-40194222D01*
X92642010Y-38156786D01*
X92650282Y-38153360D01*
X92658555Y-38156787D01*
X92661091Y-38160583D01*
X92735499Y-38340220D01*
X92735503Y-38340228D01*
X92766098Y-38386016D01*
X92767845Y-38394799D01*
X92764643Y-38400789D01*
X91313944Y-39851488D01*
X91313942Y-39851491D01*
X91289280Y-39911031D01*
X91279065Y-39935691D01*
X91279065Y-41227608D01*
X91275638Y-41235881D01*
X91273215Y-41237740D01*
X91227134Y-41264345D01*
X91227129Y-41264349D01*
X91141915Y-41349563D01*
X91081655Y-41453936D01*
X91050465Y-41570339D01*
X91050465Y-41690858D01*
X91081655Y-41807261D01*
X91081657Y-41807264D01*
X91141914Y-41911633D01*
X91227131Y-41996850D01*
X91331500Y-42057107D01*
X91331502Y-42057107D01*
X91331503Y-42057108D01*
X91331501Y-42057108D01*
X91423307Y-42081707D01*
X91447905Y-42088298D01*
X91447907Y-42088299D01*
X91447908Y-42088299D01*
X91568423Y-42088299D01*
X91568423Y-42088298D01*
X91650246Y-42066373D01*
X91684827Y-42057108D01*
X91684827Y-42057107D01*
X91684830Y-42057107D01*
X91789199Y-41996850D01*
X91874416Y-41911633D01*
X91934673Y-41807264D01*
X91965865Y-41690856D01*
X91965865Y-41570342D01*
X91951280Y-41515912D01*
X91934674Y-41453936D01*
X91909814Y-41410877D01*
X91874416Y-41349565D01*
X91789199Y-41264348D01*
X91789198Y-41264347D01*
X91789195Y-41264345D01*
X91743115Y-41237740D01*
X91737664Y-41230636D01*
X91737265Y-41227608D01*
X91737265Y-40081006D01*
X91740691Y-40072734D01*
X93088640Y-38724784D01*
X93096912Y-38721358D01*
X93103411Y-38723329D01*
X93107877Y-38726313D01*
X93149201Y-38753926D01*
X93149205Y-38753928D01*
X93149208Y-38753930D01*
X93331724Y-38829530D01*
X93525482Y-38868071D01*
X93525483Y-38868071D01*
X93723035Y-38868071D01*
X93723036Y-38868071D01*
X93916794Y-38829530D01*
X94099310Y-38753930D01*
X94263571Y-38644175D01*
X94403263Y-38504483D01*
X94513018Y-38340222D01*
X94588618Y-38157706D01*
X94627159Y-37963948D01*
X94627159Y-37766394D01*
X94588618Y-37572636D01*
X94513018Y-37390120D01*
X94513016Y-37390117D01*
X94513014Y-37390113D01*
X94403263Y-37225859D01*
X94403260Y-37225855D01*
X94263574Y-37086169D01*
X94263570Y-37086166D01*
X94145637Y-37007366D01*
X94140662Y-36999921D01*
X94142409Y-36991138D01*
X94149854Y-36986163D01*
X94152137Y-36985938D01*
X95636381Y-36985938D01*
X95644654Y-36989365D01*
X95648081Y-36997638D01*
X95644654Y-37005911D01*
X95642881Y-37007366D01*
X95524947Y-37086166D01*
X95524943Y-37086169D01*
X95385257Y-37225855D01*
X95385254Y-37225859D01*
X95275503Y-37390113D01*
X95275499Y-37390121D01*
X95199900Y-37572635D01*
X95180100Y-37672178D01*
X95161359Y-37766394D01*
X95161359Y-37963948D01*
X95169286Y-38003798D01*
X95199900Y-38157706D01*
X95275499Y-38340220D01*
X95275503Y-38340228D01*
X95385254Y-38504482D01*
X95385257Y-38504486D01*
X95524943Y-38644172D01*
X95524947Y-38644175D01*
X95689201Y-38753926D01*
X95689205Y-38753928D01*
X95689208Y-38753930D01*
X95871724Y-38829530D01*
X95925742Y-38840274D01*
X95933187Y-38845249D01*
X95935159Y-38851749D01*
X95935159Y-41211533D01*
X95970036Y-41295734D01*
X95970037Y-41295736D01*
X96181941Y-41507639D01*
X96185368Y-41515912D01*
X96184969Y-41518940D01*
X96171197Y-41570339D01*
X96171197Y-41690858D01*
X96202387Y-41807261D01*
X96202389Y-41807264D01*
X96262646Y-41911633D01*
X96347863Y-41996850D01*
X96452232Y-42057107D01*
X96452234Y-42057107D01*
X96452235Y-42057108D01*
X96452233Y-42057108D01*
X96544039Y-42081707D01*
X96568637Y-42088298D01*
X96568639Y-42088299D01*
X96568640Y-42088299D01*
X96689155Y-42088299D01*
X96689155Y-42088298D01*
X96770978Y-42066373D01*
X96805559Y-42057108D01*
X96805559Y-42057107D01*
X96805562Y-42057107D01*
X96909931Y-41996850D01*
X96995148Y-41911633D01*
X97055405Y-41807264D01*
X97086597Y-41690856D01*
X97086597Y-41570342D01*
X97072012Y-41515912D01*
X97055406Y-41453936D01*
X97030546Y-41410877D01*
X96995148Y-41349565D01*
X96909931Y-41264348D01*
X96805562Y-41204091D01*
X96805561Y-41204090D01*
X96805558Y-41204089D01*
X96805560Y-41204089D01*
X96689156Y-41172899D01*
X96689154Y-41172899D01*
X96568640Y-41172899D01*
X96568637Y-41172899D01*
X96517238Y-41186671D01*
X96508360Y-41185502D01*
X96505937Y-41183643D01*
X96396786Y-41074491D01*
X96393359Y-41066218D01*
X96393359Y-38851749D01*
X96396786Y-38843476D01*
X96402775Y-38840275D01*
X96456794Y-38829530D01*
X96639310Y-38753930D01*
X96803571Y-38644175D01*
X96943263Y-38504483D01*
X97053018Y-38340222D01*
X97128618Y-38157706D01*
X97167159Y-37963948D01*
X97167159Y-37766394D01*
X97701359Y-37766394D01*
X97701359Y-37963948D01*
X97709286Y-38003798D01*
X97739900Y-38157706D01*
X97815499Y-38340220D01*
X97815503Y-38340228D01*
X97925254Y-38504482D01*
X97925257Y-38504486D01*
X98064943Y-38644172D01*
X98064947Y-38644175D01*
X98229201Y-38753926D01*
X98229205Y-38753928D01*
X98229208Y-38753930D01*
X98411724Y-38829530D01*
X98605482Y-38868071D01*
X98605483Y-38868071D01*
X98803035Y-38868071D01*
X98803036Y-38868071D01*
X98996794Y-38829530D01*
X99179310Y-38753930D01*
X99225105Y-38723329D01*
X99233886Y-38721583D01*
X99239877Y-38724785D01*
X101517102Y-41002010D01*
X101520529Y-41010283D01*
X101520529Y-41227608D01*
X101517102Y-41235881D01*
X101514679Y-41237740D01*
X101468598Y-41264345D01*
X101468593Y-41264349D01*
X101383379Y-41349563D01*
X101323119Y-41453936D01*
X101291929Y-41570339D01*
X101291929Y-41690858D01*
X101323119Y-41807261D01*
X101323121Y-41807264D01*
X101383378Y-41911633D01*
X101468595Y-41996850D01*
X101572964Y-42057107D01*
X101572966Y-42057107D01*
X101572967Y-42057108D01*
X101572965Y-42057108D01*
X101664771Y-42081707D01*
X101689369Y-42088298D01*
X101689371Y-42088299D01*
X101689372Y-42088299D01*
X101809887Y-42088299D01*
X101809887Y-42088298D01*
X101891710Y-42066373D01*
X101926291Y-42057108D01*
X101926291Y-42057107D01*
X101926294Y-42057107D01*
X102030663Y-41996850D01*
X102115880Y-41911633D01*
X102176137Y-41807264D01*
X102207329Y-41690856D01*
X102207329Y-41570342D01*
X102192744Y-41515912D01*
X102176138Y-41453936D01*
X102151278Y-41410877D01*
X102115880Y-41349565D01*
X102030663Y-41264348D01*
X102030662Y-41264347D01*
X102030659Y-41264345D01*
X101984579Y-41237740D01*
X101979128Y-41230636D01*
X101978729Y-41227608D01*
X101978729Y-40864971D01*
X101978728Y-40864967D01*
X101954211Y-40805779D01*
X101943851Y-40780768D01*
X101943850Y-40780766D01*
X99563873Y-38400789D01*
X99560446Y-38392516D01*
X99562417Y-38386018D01*
X99593018Y-38340222D01*
X99668618Y-38157706D01*
X99707159Y-37963948D01*
X99707159Y-37766394D01*
X100241359Y-37766394D01*
X100241359Y-37963948D01*
X100249286Y-38003798D01*
X100279900Y-38157706D01*
X100355499Y-38340220D01*
X100355503Y-38340228D01*
X100465254Y-38504482D01*
X100465257Y-38504486D01*
X100604943Y-38644172D01*
X100604947Y-38644175D01*
X100769201Y-38753926D01*
X100769205Y-38753928D01*
X100769208Y-38753930D01*
X100951724Y-38829530D01*
X101145482Y-38868071D01*
X101145483Y-38868071D01*
X101343035Y-38868071D01*
X101343036Y-38868071D01*
X101536794Y-38829530D01*
X101719310Y-38753930D01*
X101883571Y-38644175D01*
X102023263Y-38504483D01*
X102133018Y-38340222D01*
X102208618Y-38157706D01*
X102247159Y-37963948D01*
X102247159Y-37766394D01*
X102208618Y-37572636D01*
X102133018Y-37390120D01*
X102133016Y-37390117D01*
X102133014Y-37390113D01*
X102023263Y-37225859D01*
X102023260Y-37225855D01*
X101883574Y-37086169D01*
X101883570Y-37086166D01*
X101719316Y-36976415D01*
X101719308Y-36976411D01*
X101536794Y-36900812D01*
X101521104Y-36897691D01*
X101343036Y-36862271D01*
X101145482Y-36862271D01*
X101100885Y-36871142D01*
X100951723Y-36900812D01*
X100769209Y-36976411D01*
X100769201Y-36976415D01*
X100604947Y-37086166D01*
X100604943Y-37086169D01*
X100465257Y-37225855D01*
X100465254Y-37225859D01*
X100355503Y-37390113D01*
X100355499Y-37390121D01*
X100279900Y-37572635D01*
X100260100Y-37672178D01*
X100241359Y-37766394D01*
X99707159Y-37766394D01*
X99668618Y-37572636D01*
X99593018Y-37390120D01*
X99593016Y-37390117D01*
X99593014Y-37390113D01*
X99483263Y-37225859D01*
X99483260Y-37225855D01*
X99343574Y-37086169D01*
X99343570Y-37086166D01*
X99179316Y-36976415D01*
X99179308Y-36976411D01*
X98996794Y-36900812D01*
X98981104Y-36897691D01*
X98803036Y-36862271D01*
X98605482Y-36862271D01*
X98560885Y-36871142D01*
X98411723Y-36900812D01*
X98229209Y-36976411D01*
X98229201Y-36976415D01*
X98064947Y-37086166D01*
X98064943Y-37086169D01*
X97925257Y-37225855D01*
X97925254Y-37225859D01*
X97815503Y-37390113D01*
X97815499Y-37390121D01*
X97739900Y-37572635D01*
X97720100Y-37672178D01*
X97701359Y-37766394D01*
X97167159Y-37766394D01*
X97128618Y-37572636D01*
X97053018Y-37390120D01*
X97053016Y-37390117D01*
X97053014Y-37390113D01*
X96943263Y-37225859D01*
X96943260Y-37225855D01*
X96803574Y-37086169D01*
X96803570Y-37086166D01*
X96639316Y-36976415D01*
X96639308Y-36976411D01*
X96459671Y-36902003D01*
X96453339Y-36895671D01*
X96453339Y-36886717D01*
X96455872Y-36882924D01*
X97722010Y-35616786D01*
X97730282Y-35613360D01*
X97738555Y-35616787D01*
X97741091Y-35620583D01*
X97815499Y-35800220D01*
X97815503Y-35800228D01*
X97925254Y-35964482D01*
X97925257Y-35964486D01*
X98064943Y-36104172D01*
X98064947Y-36104175D01*
X98229201Y-36213926D01*
X98229205Y-36213928D01*
X98229208Y-36213930D01*
X98411724Y-36289530D01*
X98605482Y-36328071D01*
X98605483Y-36328071D01*
X98803035Y-36328071D01*
X98803036Y-36328071D01*
X98996794Y-36289530D01*
X99179310Y-36213930D01*
X99343571Y-36104175D01*
X99483263Y-35964483D01*
X99593018Y-35800222D01*
X99668618Y-35617706D01*
X99707159Y-35423948D01*
X99707159Y-35226394D01*
X99668618Y-35032636D01*
X99593018Y-34850120D01*
X99593014Y-34850113D01*
X99483263Y-34685859D01*
X99483260Y-34685855D01*
X99343574Y-34546169D01*
X99343570Y-34546166D01*
X99270136Y-34497099D01*
X99265161Y-34489654D01*
X99266908Y-34480871D01*
X99274353Y-34475896D01*
X99276636Y-34475671D01*
X100671882Y-34475671D01*
X100680155Y-34479098D01*
X100683582Y-34487371D01*
X100680155Y-34495644D01*
X100678382Y-34497099D01*
X100604947Y-34546166D01*
X100604943Y-34546169D01*
X100465257Y-34685855D01*
X100465254Y-34685859D01*
X100355503Y-34850113D01*
X100355500Y-34850120D01*
X100279900Y-35032635D01*
X100256468Y-35150437D01*
X100241359Y-35226394D01*
X100241359Y-35423948D01*
X100265301Y-35544310D01*
X100279900Y-35617706D01*
X100355499Y-35800220D01*
X100355503Y-35800228D01*
X100465254Y-35964482D01*
X100465257Y-35964486D01*
X100604943Y-36104172D01*
X100604947Y-36104175D01*
X100769201Y-36213926D01*
X100769205Y-36213928D01*
X100769208Y-36213930D01*
X100951724Y-36289530D01*
X101145482Y-36328071D01*
X101145483Y-36328071D01*
X101343035Y-36328071D01*
X101343036Y-36328071D01*
X101536794Y-36289530D01*
X101719310Y-36213930D01*
X101729911Y-36206846D01*
X101738691Y-36205100D01*
X101744682Y-36208302D01*
X102235967Y-36699587D01*
X102447662Y-36911281D01*
X102451089Y-36919554D01*
X102451089Y-38332046D01*
X102461304Y-38356706D01*
X102477082Y-38394799D01*
X102485967Y-38416248D01*
X105894541Y-41824821D01*
X105954082Y-41849483D01*
X105978745Y-41859699D01*
X105978746Y-41859699D01*
X106069886Y-41859699D01*
X106467371Y-41859699D01*
X106475644Y-41863126D01*
X106477503Y-41865549D01*
X106504107Y-41911629D01*
X106504109Y-41911632D01*
X106504110Y-41911633D01*
X106589327Y-41996850D01*
X106693696Y-42057107D01*
X106693698Y-42057107D01*
X106693699Y-42057108D01*
X106693697Y-42057108D01*
X106785503Y-42081707D01*
X106810101Y-42088298D01*
X106810103Y-42088299D01*
X106810104Y-42088299D01*
X106930619Y-42088299D01*
X106930619Y-42088298D01*
X107012442Y-42066373D01*
X107047023Y-42057108D01*
X107047023Y-42057107D01*
X107047026Y-42057107D01*
X107151395Y-41996850D01*
X107236612Y-41911633D01*
X107296869Y-41807264D01*
X107328061Y-41690856D01*
X107328061Y-41570342D01*
X107313476Y-41515912D01*
X107296870Y-41453936D01*
X107272010Y-41410877D01*
X107236612Y-41349565D01*
X107151395Y-41264348D01*
X107047026Y-41204091D01*
X107047025Y-41204090D01*
X107047022Y-41204089D01*
X107047024Y-41204089D01*
X106930620Y-41172899D01*
X106930618Y-41172899D01*
X106810104Y-41172899D01*
X106810101Y-41172899D01*
X106693698Y-41204089D01*
X106589325Y-41264349D01*
X106504111Y-41349563D01*
X106504107Y-41349568D01*
X106477503Y-41395649D01*
X106470399Y-41401100D01*
X106467371Y-41401499D01*
X106124059Y-41401499D01*
X106115786Y-41398072D01*
X103588300Y-38870587D01*
X103584873Y-38862314D01*
X103588300Y-38854041D01*
X103596573Y-38850614D01*
X103598849Y-38850838D01*
X103685482Y-38868071D01*
X103685483Y-38868071D01*
X103883035Y-38868071D01*
X103883036Y-38868071D01*
X104076794Y-38829530D01*
X104259310Y-38753930D01*
X104423571Y-38644175D01*
X104563263Y-38504483D01*
X104673018Y-38340222D01*
X104748618Y-38157706D01*
X104787159Y-37963948D01*
X104787159Y-37766394D01*
X104748618Y-37572636D01*
X104673018Y-37390120D01*
X104673016Y-37390117D01*
X104673014Y-37390113D01*
X104563263Y-37225859D01*
X104563260Y-37225855D01*
X104423574Y-37086169D01*
X104423570Y-37086166D01*
X104259316Y-36976415D01*
X104259308Y-36976411D01*
X104220122Y-36960180D01*
X104213790Y-36953848D01*
X104213790Y-36944894D01*
X104220122Y-36938562D01*
X104224599Y-36937671D01*
X105883919Y-36937671D01*
X105892192Y-36941098D01*
X105895619Y-36949371D01*
X105892192Y-36957644D01*
X105888396Y-36960180D01*
X105849209Y-36976411D01*
X105849201Y-36976415D01*
X105684947Y-37086166D01*
X105684943Y-37086169D01*
X105545257Y-37225855D01*
X105545254Y-37225859D01*
X105435503Y-37390113D01*
X105435499Y-37390121D01*
X105359900Y-37572635D01*
X105340100Y-37672178D01*
X105321359Y-37766394D01*
X105321359Y-37963948D01*
X105329286Y-38003798D01*
X105359900Y-38157706D01*
X105435499Y-38340220D01*
X105435503Y-38340228D01*
X105545254Y-38504482D01*
X105545257Y-38504486D01*
X105684943Y-38644172D01*
X105684947Y-38644175D01*
X105849201Y-38753926D01*
X105849205Y-38753928D01*
X105849208Y-38753930D01*
X106031724Y-38829530D01*
X106225482Y-38868071D01*
X106225483Y-38868071D01*
X106423035Y-38868071D01*
X106423036Y-38868071D01*
X106616794Y-38829530D01*
X106799310Y-38753930D01*
X106963571Y-38644175D01*
X107103263Y-38504483D01*
X107213018Y-38340222D01*
X107288618Y-38157706D01*
X107327159Y-37963948D01*
X107327159Y-37766394D01*
X107288618Y-37572636D01*
X107213018Y-37390120D01*
X107213016Y-37390117D01*
X107213014Y-37390113D01*
X107103263Y-37225859D01*
X107103260Y-37225855D01*
X106963574Y-37086169D01*
X106963570Y-37086166D01*
X106799316Y-36976415D01*
X106799308Y-36976411D01*
X106760122Y-36960180D01*
X106753790Y-36953848D01*
X106753790Y-36944894D01*
X106760122Y-36938562D01*
X106764599Y-36937671D01*
X108423919Y-36937671D01*
X108432192Y-36941098D01*
X108435619Y-36949371D01*
X108432192Y-36957644D01*
X108428396Y-36960180D01*
X108389209Y-36976411D01*
X108389201Y-36976415D01*
X108224947Y-37086166D01*
X108224943Y-37086169D01*
X108085257Y-37225855D01*
X108085254Y-37225859D01*
X107975503Y-37390113D01*
X107975499Y-37390121D01*
X107899900Y-37572635D01*
X107880100Y-37672178D01*
X107861359Y-37766394D01*
X107861359Y-37963948D01*
X107869286Y-38003798D01*
X107899900Y-38157706D01*
X107975499Y-38340220D01*
X107975503Y-38340228D01*
X108085254Y-38504482D01*
X108085257Y-38504486D01*
X108224943Y-38644172D01*
X108224947Y-38644175D01*
X108389201Y-38753926D01*
X108389205Y-38753928D01*
X108389208Y-38753930D01*
X108571724Y-38829530D01*
X108765482Y-38868071D01*
X108765483Y-38868071D01*
X108963035Y-38868071D01*
X108963036Y-38868071D01*
X109156794Y-38829530D01*
X109339310Y-38753930D01*
X109503571Y-38644175D01*
X109506809Y-38640937D01*
X109622812Y-38524935D01*
X109643260Y-38504486D01*
X109643263Y-38504483D01*
X109753018Y-38340222D01*
X109828618Y-38157706D01*
X109867159Y-37963948D01*
X109867159Y-37778952D01*
X110528859Y-37778952D01*
X110528859Y-37951389D01*
X110562500Y-38120516D01*
X110628488Y-38279827D01*
X110628492Y-38279835D01*
X110724289Y-38423204D01*
X110731375Y-38430289D01*
X110998788Y-38162875D01*
X111004160Y-38172178D01*
X111097252Y-38265270D01*
X111106552Y-38270639D01*
X110839139Y-38538053D01*
X110846225Y-38545140D01*
X110989594Y-38640937D01*
X110989602Y-38640941D01*
X111148913Y-38706929D01*
X111318041Y-38740571D01*
X111490477Y-38740571D01*
X111659604Y-38706929D01*
X111818915Y-38640941D01*
X111818923Y-38640937D01*
X111962289Y-38545142D01*
X111969378Y-38538053D01*
X111701964Y-38270639D01*
X111711266Y-38265270D01*
X111804358Y-38172178D01*
X111809728Y-38162876D01*
X112077141Y-38430289D01*
X112084230Y-38423201D01*
X112180025Y-38279835D01*
X112180029Y-38279827D01*
X112246017Y-38120516D01*
X112279659Y-37951389D01*
X112279659Y-37778952D01*
X112246017Y-37609825D01*
X112180029Y-37450514D01*
X112180025Y-37450506D01*
X112084228Y-37307137D01*
X112077141Y-37300051D01*
X111809727Y-37567464D01*
X111804358Y-37558164D01*
X111711266Y-37465072D01*
X111701963Y-37459701D01*
X111969378Y-37192287D01*
X111962292Y-37185201D01*
X111818923Y-37089404D01*
X111818915Y-37089400D01*
X111659604Y-37023412D01*
X111490477Y-36989771D01*
X111318041Y-36989771D01*
X111148913Y-37023412D01*
X110989602Y-37089400D01*
X110989594Y-37089404D01*
X110846227Y-37185200D01*
X110846222Y-37185204D01*
X110839139Y-37192286D01*
X110839139Y-37192287D01*
X111106553Y-37459701D01*
X111097252Y-37465072D01*
X111004160Y-37558164D01*
X110998789Y-37567465D01*
X110731375Y-37300051D01*
X110724292Y-37307134D01*
X110724288Y-37307139D01*
X110628492Y-37450506D01*
X110628488Y-37450514D01*
X110562500Y-37609825D01*
X110528859Y-37778952D01*
X109867159Y-37778952D01*
X109867159Y-37766394D01*
X109828618Y-37572636D01*
X109753018Y-37390120D01*
X109753016Y-37390117D01*
X109753014Y-37390113D01*
X109643263Y-37225859D01*
X109643260Y-37225855D01*
X109503574Y-37086169D01*
X109503570Y-37086166D01*
X109339316Y-36976415D01*
X109339308Y-36976411D01*
X109300122Y-36960180D01*
X109293790Y-36953848D01*
X109293790Y-36944894D01*
X109300122Y-36938562D01*
X109304599Y-36937671D01*
X113503919Y-36937671D01*
X113512192Y-36941098D01*
X113515619Y-36949371D01*
X113512192Y-36957644D01*
X113508396Y-36960180D01*
X113469209Y-36976411D01*
X113469201Y-36976415D01*
X113304947Y-37086166D01*
X113304943Y-37086169D01*
X113165257Y-37225855D01*
X113165254Y-37225859D01*
X113055503Y-37390113D01*
X113055499Y-37390121D01*
X112979900Y-37572635D01*
X112960100Y-37672178D01*
X112941359Y-37766394D01*
X112941359Y-37963948D01*
X112949286Y-38003798D01*
X112979900Y-38157706D01*
X113055499Y-38340220D01*
X113055503Y-38340228D01*
X113165254Y-38504482D01*
X113165257Y-38504486D01*
X113304943Y-38644172D01*
X113304947Y-38644175D01*
X113469201Y-38753926D01*
X113469205Y-38753928D01*
X113469208Y-38753930D01*
X113651724Y-38829530D01*
X113845482Y-38868071D01*
X113845483Y-38868071D01*
X114043035Y-38868071D01*
X114043036Y-38868071D01*
X114236794Y-38829530D01*
X114419310Y-38753930D01*
X114583571Y-38644175D01*
X114723263Y-38504483D01*
X114833018Y-38340222D01*
X114908618Y-38157706D01*
X114947159Y-37963948D01*
X114947159Y-37766394D01*
X114908618Y-37572636D01*
X114833018Y-37390120D01*
X114833016Y-37390117D01*
X114833014Y-37390113D01*
X114723263Y-37225859D01*
X114723260Y-37225855D01*
X114583574Y-37086169D01*
X114583570Y-37086166D01*
X114419316Y-36976415D01*
X114419308Y-36976411D01*
X114380122Y-36960180D01*
X114373790Y-36953848D01*
X114373790Y-36944894D01*
X114380122Y-36938562D01*
X114384599Y-36937671D01*
X116043919Y-36937671D01*
X116052192Y-36941098D01*
X116055619Y-36949371D01*
X116052192Y-36957644D01*
X116048396Y-36960180D01*
X116009209Y-36976411D01*
X116009201Y-36976415D01*
X115844947Y-37086166D01*
X115844943Y-37086169D01*
X115705257Y-37225855D01*
X115705254Y-37225859D01*
X115595503Y-37390113D01*
X115595499Y-37390121D01*
X115519900Y-37572635D01*
X115500100Y-37672178D01*
X115481359Y-37766394D01*
X115481359Y-37963948D01*
X115489286Y-38003798D01*
X115519900Y-38157706D01*
X115595499Y-38340220D01*
X115595503Y-38340228D01*
X115705254Y-38504482D01*
X115705257Y-38504486D01*
X115844943Y-38644172D01*
X115844947Y-38644175D01*
X116009201Y-38753926D01*
X116009205Y-38753928D01*
X116009208Y-38753930D01*
X116191724Y-38829530D01*
X116385482Y-38868071D01*
X116385483Y-38868071D01*
X116583035Y-38868071D01*
X116583036Y-38868071D01*
X116776794Y-38829530D01*
X116959310Y-38753930D01*
X117123571Y-38644175D01*
X117263263Y-38504483D01*
X117373018Y-38340222D01*
X117448618Y-38157706D01*
X117487159Y-37963948D01*
X117487159Y-37766394D01*
X117448618Y-37572636D01*
X117373018Y-37390120D01*
X117373016Y-37390117D01*
X117373014Y-37390113D01*
X117263263Y-37225859D01*
X117263260Y-37225855D01*
X117123574Y-37086169D01*
X117123570Y-37086166D01*
X116959316Y-36976415D01*
X116959308Y-36976411D01*
X116920122Y-36960180D01*
X116913790Y-36953848D01*
X116913790Y-36944894D01*
X116920122Y-36938562D01*
X116924599Y-36937671D01*
X118583919Y-36937671D01*
X118592192Y-36941098D01*
X118595619Y-36949371D01*
X118592192Y-36957644D01*
X118588396Y-36960180D01*
X118549209Y-36976411D01*
X118549201Y-36976415D01*
X118384947Y-37086166D01*
X118384943Y-37086169D01*
X118245257Y-37225855D01*
X118245254Y-37225859D01*
X118135503Y-37390113D01*
X118135499Y-37390121D01*
X118059900Y-37572635D01*
X118040100Y-37672178D01*
X118021359Y-37766394D01*
X118021359Y-37963948D01*
X118029286Y-38003798D01*
X118059900Y-38157706D01*
X118135499Y-38340220D01*
X118135503Y-38340228D01*
X118245254Y-38504482D01*
X118245257Y-38504486D01*
X118384943Y-38644172D01*
X118384947Y-38644175D01*
X118549201Y-38753926D01*
X118549205Y-38753928D01*
X118549208Y-38753930D01*
X118731724Y-38829530D01*
X118925482Y-38868071D01*
X118925483Y-38868071D01*
X119123035Y-38868071D01*
X119123036Y-38868071D01*
X119316794Y-38829530D01*
X119499310Y-38753930D01*
X119663571Y-38644175D01*
X119803263Y-38504483D01*
X119913018Y-38340222D01*
X119988618Y-38157706D01*
X120027159Y-37963948D01*
X120027159Y-37766394D01*
X119988618Y-37572636D01*
X119913018Y-37390120D01*
X119913016Y-37390117D01*
X119913014Y-37390113D01*
X119803263Y-37225859D01*
X119803260Y-37225855D01*
X119663574Y-37086169D01*
X119663570Y-37086166D01*
X119499316Y-36976415D01*
X119499308Y-36976411D01*
X119460122Y-36960180D01*
X119453790Y-36953848D01*
X119453790Y-36944894D01*
X119460122Y-36938562D01*
X119464599Y-36937671D01*
X121123919Y-36937671D01*
X121132192Y-36941098D01*
X121135619Y-36949371D01*
X121132192Y-36957644D01*
X121128396Y-36960180D01*
X121089209Y-36976411D01*
X121089201Y-36976415D01*
X120924947Y-37086166D01*
X120924943Y-37086169D01*
X120785257Y-37225855D01*
X120785254Y-37225859D01*
X120675503Y-37390113D01*
X120675499Y-37390121D01*
X120599900Y-37572635D01*
X120580100Y-37672178D01*
X120561359Y-37766394D01*
X120561359Y-37963948D01*
X120569286Y-38003798D01*
X120599900Y-38157706D01*
X120675499Y-38340220D01*
X120675503Y-38340228D01*
X120785254Y-38504482D01*
X120785257Y-38504486D01*
X120924943Y-38644172D01*
X120924947Y-38644175D01*
X121089201Y-38753926D01*
X121089205Y-38753928D01*
X121089208Y-38753930D01*
X121271724Y-38829530D01*
X121465482Y-38868071D01*
X121465483Y-38868071D01*
X121663035Y-38868071D01*
X121663036Y-38868071D01*
X121856794Y-38829530D01*
X122039310Y-38753930D01*
X122203571Y-38644175D01*
X122343263Y-38504483D01*
X122453018Y-38340222D01*
X122528618Y-38157706D01*
X122567159Y-37963948D01*
X122567159Y-37766394D01*
X122528618Y-37572636D01*
X122453018Y-37390120D01*
X122453016Y-37390117D01*
X122453014Y-37390113D01*
X122343263Y-37225859D01*
X122343260Y-37225855D01*
X122203574Y-37086169D01*
X122203570Y-37086166D01*
X122039316Y-36976415D01*
X122039308Y-36976411D01*
X122000122Y-36960180D01*
X121993790Y-36953848D01*
X121993790Y-36944894D01*
X122000122Y-36938562D01*
X122004599Y-36937671D01*
X122908775Y-36937671D01*
X122917048Y-36941098D01*
X123021732Y-37045782D01*
X123025159Y-37054055D01*
X123025159Y-37060743D01*
X123060036Y-37144944D01*
X123060037Y-37144946D01*
X123244643Y-37329551D01*
X123248070Y-37337824D01*
X123246098Y-37344324D01*
X123215503Y-37390113D01*
X123215499Y-37390121D01*
X123139900Y-37572635D01*
X123120100Y-37672178D01*
X123101359Y-37766394D01*
X123101359Y-37963948D01*
X123109286Y-38003798D01*
X123139900Y-38157706D01*
X123215499Y-38340220D01*
X123215503Y-38340228D01*
X123325254Y-38504482D01*
X123325257Y-38504486D01*
X123464943Y-38644172D01*
X123464947Y-38644175D01*
X123629201Y-38753926D01*
X123629205Y-38753928D01*
X123629208Y-38753930D01*
X123811724Y-38829530D01*
X124005482Y-38868071D01*
X124005483Y-38868071D01*
X124203035Y-38868071D01*
X124203036Y-38868071D01*
X124396794Y-38829530D01*
X124579310Y-38753930D01*
X124743571Y-38644175D01*
X124883263Y-38504483D01*
X124993018Y-38340222D01*
X125068618Y-38157706D01*
X125107159Y-37963948D01*
X125107159Y-37766394D01*
X125641359Y-37766394D01*
X125641359Y-37963948D01*
X125649286Y-38003798D01*
X125679900Y-38157706D01*
X125755499Y-38340220D01*
X125755503Y-38340228D01*
X125865254Y-38504482D01*
X125865257Y-38504486D01*
X126004943Y-38644172D01*
X126004947Y-38644175D01*
X126169201Y-38753926D01*
X126169205Y-38753928D01*
X126169208Y-38753930D01*
X126351724Y-38829530D01*
X126545482Y-38868071D01*
X126545483Y-38868071D01*
X126743035Y-38868071D01*
X126743036Y-38868071D01*
X126936794Y-38829530D01*
X127119310Y-38753930D01*
X127283571Y-38644175D01*
X127286809Y-38640937D01*
X127402812Y-38524935D01*
X127423260Y-38504486D01*
X127423263Y-38504483D01*
X127533018Y-38340222D01*
X127608618Y-38157706D01*
X127647159Y-37963948D01*
X127647159Y-37778952D01*
X128308859Y-37778952D01*
X128308859Y-37951389D01*
X128342500Y-38120516D01*
X128408488Y-38279827D01*
X128408492Y-38279835D01*
X128504289Y-38423204D01*
X128511375Y-38430289D01*
X128778788Y-38162875D01*
X128784160Y-38172178D01*
X128877252Y-38265270D01*
X128886552Y-38270639D01*
X128619139Y-38538053D01*
X128626225Y-38545140D01*
X128769594Y-38640937D01*
X128769602Y-38640941D01*
X128928913Y-38706929D01*
X129098041Y-38740571D01*
X129270477Y-38740571D01*
X129439604Y-38706929D01*
X129598915Y-38640941D01*
X129598923Y-38640937D01*
X129742289Y-38545142D01*
X129749378Y-38538053D01*
X129481964Y-38270639D01*
X129491266Y-38265270D01*
X129584358Y-38172178D01*
X129589728Y-38162876D01*
X129857141Y-38430289D01*
X129864230Y-38423201D01*
X129960025Y-38279835D01*
X129960029Y-38279827D01*
X130026017Y-38120516D01*
X130059659Y-37951389D01*
X130059659Y-37778952D01*
X130026017Y-37609825D01*
X129960029Y-37450514D01*
X129960025Y-37450506D01*
X129864228Y-37307137D01*
X129857141Y-37300051D01*
X129589727Y-37567464D01*
X129584358Y-37558164D01*
X129491266Y-37465072D01*
X129481963Y-37459701D01*
X129749378Y-37192287D01*
X129742292Y-37185201D01*
X129598923Y-37089404D01*
X129598915Y-37089400D01*
X129439604Y-37023412D01*
X129270477Y-36989771D01*
X129098041Y-36989771D01*
X128928913Y-37023412D01*
X128769602Y-37089400D01*
X128769594Y-37089404D01*
X128626227Y-37185200D01*
X128626222Y-37185204D01*
X128619139Y-37192286D01*
X128619139Y-37192287D01*
X128886553Y-37459701D01*
X128877252Y-37465072D01*
X128784160Y-37558164D01*
X128778789Y-37567465D01*
X128511375Y-37300051D01*
X128504292Y-37307134D01*
X128504288Y-37307139D01*
X128408492Y-37450506D01*
X128408488Y-37450514D01*
X128342500Y-37609825D01*
X128308859Y-37778952D01*
X127647159Y-37778952D01*
X127647159Y-37766394D01*
X127608618Y-37572636D01*
X127533018Y-37390120D01*
X127533016Y-37390117D01*
X127533014Y-37390113D01*
X127423263Y-37225859D01*
X127423260Y-37225855D01*
X127283574Y-37086169D01*
X127283570Y-37086166D01*
X127119316Y-36976415D01*
X127119308Y-36976411D01*
X126936794Y-36900812D01*
X126921104Y-36897691D01*
X126743036Y-36862271D01*
X126545482Y-36862271D01*
X126500885Y-36871142D01*
X126351723Y-36900812D01*
X126169209Y-36976411D01*
X126169201Y-36976415D01*
X126004947Y-37086166D01*
X126004943Y-37086169D01*
X125865257Y-37225855D01*
X125865254Y-37225859D01*
X125755503Y-37390113D01*
X125755499Y-37390121D01*
X125679900Y-37572635D01*
X125660100Y-37672178D01*
X125641359Y-37766394D01*
X125107159Y-37766394D01*
X125068618Y-37572636D01*
X124993018Y-37390120D01*
X124993016Y-37390117D01*
X124993014Y-37390113D01*
X124883263Y-37225859D01*
X124883260Y-37225855D01*
X124743574Y-37086169D01*
X124743570Y-37086166D01*
X124579316Y-36976415D01*
X124579308Y-36976411D01*
X124396794Y-36900812D01*
X124381104Y-36897691D01*
X124203036Y-36862271D01*
X124005482Y-36862271D01*
X123960885Y-36871142D01*
X123811723Y-36900812D01*
X123629209Y-36976411D01*
X123629201Y-36976415D01*
X123583412Y-37007010D01*
X123574629Y-37008757D01*
X123568639Y-37005555D01*
X123486786Y-36923701D01*
X123483359Y-36915428D01*
X123483359Y-36908742D01*
X123483358Y-36908738D01*
X123464111Y-36862272D01*
X123448481Y-36824538D01*
X123448480Y-36824536D01*
X123276788Y-36652844D01*
X123273361Y-36644571D01*
X123276788Y-36636298D01*
X123285061Y-36632871D01*
X128151228Y-36632871D01*
X128151229Y-36632871D01*
X128151230Y-36632871D01*
X128177158Y-36622131D01*
X128235434Y-36597993D01*
X128648640Y-36184784D01*
X128656912Y-36181358D01*
X128663411Y-36183329D01*
X128667877Y-36186313D01*
X128709201Y-36213926D01*
X128709205Y-36213928D01*
X128709208Y-36213930D01*
X128891724Y-36289530D01*
X129085482Y-36328071D01*
X129085483Y-36328071D01*
X129283035Y-36328071D01*
X129283036Y-36328071D01*
X129476794Y-36289530D01*
X129659310Y-36213930D01*
X129823571Y-36104175D01*
X129963263Y-35964483D01*
X130073018Y-35800222D01*
X130148618Y-35617706D01*
X130187159Y-35423948D01*
X130187159Y-35226394D01*
X130148618Y-35032636D01*
X130073018Y-34850120D01*
X130073014Y-34850113D01*
X129963263Y-34685859D01*
X129963260Y-34685855D01*
X129823574Y-34546169D01*
X129823570Y-34546166D01*
X129659316Y-34436415D01*
X129659308Y-34436411D01*
X129476794Y-34360812D01*
X129283036Y-34322271D01*
X129085482Y-34322271D01*
X128988603Y-34341541D01*
X128891723Y-34360812D01*
X128709209Y-34436411D01*
X128709201Y-34436415D01*
X128544947Y-34546166D01*
X128544943Y-34546169D01*
X128405257Y-34685855D01*
X128405254Y-34685859D01*
X128295503Y-34850113D01*
X128295500Y-34850120D01*
X128219900Y-35032635D01*
X128196468Y-35150437D01*
X128181359Y-35226394D01*
X128181359Y-35423948D01*
X128205301Y-35544310D01*
X128219900Y-35617706D01*
X128295499Y-35800220D01*
X128295503Y-35800228D01*
X128326098Y-35846016D01*
X128327845Y-35854799D01*
X128324643Y-35860789D01*
X128014189Y-36171244D01*
X128005916Y-36174671D01*
X127216636Y-36174671D01*
X127208363Y-36171244D01*
X127204936Y-36162971D01*
X127208363Y-36154698D01*
X127210136Y-36153243D01*
X127243432Y-36130995D01*
X127283571Y-36104175D01*
X127423263Y-35964483D01*
X127533018Y-35800222D01*
X127608618Y-35617706D01*
X127647159Y-35423948D01*
X127647159Y-35226394D01*
X127608618Y-35032636D01*
X127533018Y-34850120D01*
X127533014Y-34850113D01*
X127423263Y-34685859D01*
X127423260Y-34685855D01*
X127283574Y-34546169D01*
X127283570Y-34546166D01*
X127119316Y-34436415D01*
X127119308Y-34436411D01*
X126936794Y-34360812D01*
X126743036Y-34322271D01*
X126545482Y-34322271D01*
X126448603Y-34341541D01*
X126351723Y-34360812D01*
X126169209Y-34436411D01*
X126169201Y-34436415D01*
X126004947Y-34546166D01*
X126004943Y-34546169D01*
X125865257Y-34685855D01*
X125865254Y-34685859D01*
X125755503Y-34850113D01*
X125755500Y-34850120D01*
X125679900Y-35032635D01*
X125656468Y-35150437D01*
X125641359Y-35226394D01*
X125641359Y-35423948D01*
X125665301Y-35544310D01*
X125679900Y-35617706D01*
X125755499Y-35800220D01*
X125755503Y-35800228D01*
X125865254Y-35964482D01*
X125865257Y-35964486D01*
X126004943Y-36104172D01*
X126004947Y-36104175D01*
X126078382Y-36153243D01*
X126083357Y-36160688D01*
X126081610Y-36169471D01*
X126074165Y-36174446D01*
X126071882Y-36174671D01*
X124676636Y-36174671D01*
X124668363Y-36171244D01*
X124664936Y-36162971D01*
X124668363Y-36154698D01*
X124670136Y-36153243D01*
X124703432Y-36130995D01*
X124743571Y-36104175D01*
X124883263Y-35964483D01*
X124993018Y-35800222D01*
X125068618Y-35617706D01*
X125107159Y-35423948D01*
X125107159Y-35226394D01*
X125068618Y-35032636D01*
X124993018Y-34850120D01*
X124993014Y-34850113D01*
X124883263Y-34685859D01*
X124883260Y-34685855D01*
X124743574Y-34546169D01*
X124743570Y-34546166D01*
X124579316Y-34436415D01*
X124579308Y-34436411D01*
X124396794Y-34360812D01*
X124203036Y-34322271D01*
X124005482Y-34322271D01*
X123908603Y-34341541D01*
X123811723Y-34360812D01*
X123629209Y-34436411D01*
X123629201Y-34436415D01*
X123464947Y-34546166D01*
X123464943Y-34546169D01*
X123325257Y-34685855D01*
X123325254Y-34685859D01*
X123215503Y-34850113D01*
X123215500Y-34850120D01*
X123139900Y-35032635D01*
X123116468Y-35150437D01*
X123101359Y-35226394D01*
X123101359Y-35423948D01*
X123125301Y-35544310D01*
X123139900Y-35617706D01*
X123215499Y-35800220D01*
X123215503Y-35800228D01*
X123325254Y-35964482D01*
X123325257Y-35964486D01*
X123464943Y-36104172D01*
X123464947Y-36104175D01*
X123538382Y-36153243D01*
X123543357Y-36160688D01*
X123541610Y-36169471D01*
X123534165Y-36174446D01*
X123531882Y-36174671D01*
X121859735Y-36174671D01*
X121851462Y-36171244D01*
X121848035Y-36162971D01*
X121851462Y-36154698D01*
X121855258Y-36152162D01*
X121978915Y-36100941D01*
X121978923Y-36100937D01*
X122122289Y-36005142D01*
X122129378Y-35998053D01*
X121861964Y-35730639D01*
X121871266Y-35725270D01*
X121964358Y-35632178D01*
X121969728Y-35622876D01*
X122237141Y-35890289D01*
X122244230Y-35883201D01*
X122340025Y-35739835D01*
X122340029Y-35739827D01*
X122406017Y-35580516D01*
X122439659Y-35411389D01*
X122439659Y-35238952D01*
X122406017Y-35069825D01*
X122340029Y-34910514D01*
X122340025Y-34910506D01*
X122244228Y-34767137D01*
X122237141Y-34760051D01*
X121969727Y-35027464D01*
X121964358Y-35018164D01*
X121871266Y-34925072D01*
X121861963Y-34919701D01*
X122129378Y-34652287D01*
X122122292Y-34645201D01*
X121978923Y-34549404D01*
X121978915Y-34549400D01*
X121819604Y-34483412D01*
X121650477Y-34449771D01*
X121478041Y-34449771D01*
X121308913Y-34483412D01*
X121149602Y-34549400D01*
X121149594Y-34549404D01*
X121006227Y-34645200D01*
X121006222Y-34645204D01*
X120999139Y-34652286D01*
X120999139Y-34652287D01*
X121266553Y-34919701D01*
X121257252Y-34925072D01*
X121164160Y-35018164D01*
X121158789Y-35027465D01*
X120891375Y-34760051D01*
X120884292Y-34767134D01*
X120884288Y-34767139D01*
X120788492Y-34910506D01*
X120788488Y-34910514D01*
X120722500Y-35069825D01*
X120688859Y-35238952D01*
X120688859Y-35411389D01*
X120722500Y-35580516D01*
X120788488Y-35739827D01*
X120788492Y-35739835D01*
X120884289Y-35883204D01*
X120891375Y-35890289D01*
X121158788Y-35622875D01*
X121164160Y-35632178D01*
X121257252Y-35725270D01*
X121266552Y-35730639D01*
X120999139Y-35998053D01*
X121006225Y-36005140D01*
X121149594Y-36100937D01*
X121149602Y-36100941D01*
X121273260Y-36152162D01*
X121279592Y-36158494D01*
X121279592Y-36167448D01*
X121273260Y-36173780D01*
X121268783Y-36174671D01*
X119596636Y-36174671D01*
X119588363Y-36171244D01*
X119584936Y-36162971D01*
X119588363Y-36154698D01*
X119590136Y-36153243D01*
X119623432Y-36130995D01*
X119663571Y-36104175D01*
X119803263Y-35964483D01*
X119913018Y-35800222D01*
X119988618Y-35617706D01*
X120027159Y-35423948D01*
X120027159Y-35226394D01*
X119988618Y-35032636D01*
X119913018Y-34850120D01*
X119913014Y-34850113D01*
X119803263Y-34685859D01*
X119803260Y-34685855D01*
X119663574Y-34546169D01*
X119663570Y-34546166D01*
X119499316Y-34436415D01*
X119499308Y-34436411D01*
X119316794Y-34360812D01*
X119123036Y-34322271D01*
X118925482Y-34322271D01*
X118828603Y-34341541D01*
X118731723Y-34360812D01*
X118549209Y-34436411D01*
X118549201Y-34436415D01*
X118384947Y-34546166D01*
X118384943Y-34546169D01*
X118245257Y-34685855D01*
X118245254Y-34685859D01*
X118135503Y-34850113D01*
X118135500Y-34850120D01*
X118059900Y-35032635D01*
X118036468Y-35150437D01*
X118021359Y-35226394D01*
X118021359Y-35423948D01*
X118045301Y-35544310D01*
X118059900Y-35617706D01*
X118135499Y-35800220D01*
X118135503Y-35800228D01*
X118245254Y-35964482D01*
X118245257Y-35964486D01*
X118384943Y-36104172D01*
X118384947Y-36104175D01*
X118458382Y-36153243D01*
X118463357Y-36160688D01*
X118461610Y-36169471D01*
X118454165Y-36174446D01*
X118451882Y-36174671D01*
X116779735Y-36174671D01*
X116771462Y-36171244D01*
X116768035Y-36162971D01*
X116771462Y-36154698D01*
X116775258Y-36152162D01*
X116898915Y-36100941D01*
X116898923Y-36100937D01*
X117042289Y-36005142D01*
X117049378Y-35998053D01*
X116781964Y-35730639D01*
X116791266Y-35725270D01*
X116884358Y-35632178D01*
X116889728Y-35622876D01*
X117157141Y-35890289D01*
X117164230Y-35883201D01*
X117260025Y-35739835D01*
X117260029Y-35739827D01*
X117326017Y-35580516D01*
X117359659Y-35411389D01*
X117359659Y-35238952D01*
X117326017Y-35069825D01*
X117260029Y-34910514D01*
X117260025Y-34910506D01*
X117164228Y-34767137D01*
X117157141Y-34760051D01*
X116889727Y-35027464D01*
X116884358Y-35018164D01*
X116791266Y-34925072D01*
X116781963Y-34919701D01*
X117049378Y-34652287D01*
X117042292Y-34645201D01*
X116898923Y-34549404D01*
X116898915Y-34549400D01*
X116739604Y-34483412D01*
X116570477Y-34449771D01*
X116398041Y-34449771D01*
X116228913Y-34483412D01*
X116069602Y-34549400D01*
X116069594Y-34549404D01*
X115926227Y-34645200D01*
X115926222Y-34645204D01*
X115919139Y-34652286D01*
X115919139Y-34652287D01*
X116186553Y-34919701D01*
X116177252Y-34925072D01*
X116084160Y-35018164D01*
X116078789Y-35027465D01*
X115811375Y-34760051D01*
X115804292Y-34767134D01*
X115804288Y-34767139D01*
X115708492Y-34910506D01*
X115708488Y-34910514D01*
X115642500Y-35069825D01*
X115608859Y-35238952D01*
X115608859Y-35411389D01*
X115642500Y-35580516D01*
X115708488Y-35739827D01*
X115708492Y-35739835D01*
X115804289Y-35883204D01*
X115811375Y-35890289D01*
X116078788Y-35622875D01*
X116084160Y-35632178D01*
X116177252Y-35725270D01*
X116186552Y-35730639D01*
X115919139Y-35998053D01*
X115926225Y-36005140D01*
X116069594Y-36100937D01*
X116069602Y-36100941D01*
X116193260Y-36152162D01*
X116199592Y-36158494D01*
X116199592Y-36167448D01*
X116193260Y-36173780D01*
X116188783Y-36174671D01*
X114516636Y-36174671D01*
X114508363Y-36171244D01*
X114504936Y-36162971D01*
X114508363Y-36154698D01*
X114510136Y-36153243D01*
X114543432Y-36130995D01*
X114583571Y-36104175D01*
X114723263Y-35964483D01*
X114833018Y-35800222D01*
X114908618Y-35617706D01*
X114947159Y-35423948D01*
X114947159Y-35226394D01*
X114908618Y-35032636D01*
X114833018Y-34850120D01*
X114833014Y-34850113D01*
X114723263Y-34685859D01*
X114723260Y-34685855D01*
X114583574Y-34546169D01*
X114583570Y-34546166D01*
X114419316Y-34436415D01*
X114419308Y-34436411D01*
X114236794Y-34360812D01*
X114043036Y-34322271D01*
X113845482Y-34322271D01*
X113748603Y-34341541D01*
X113651723Y-34360812D01*
X113469209Y-34436411D01*
X113469201Y-34436415D01*
X113304947Y-34546166D01*
X113304943Y-34546169D01*
X113165257Y-34685855D01*
X113165254Y-34685859D01*
X113055503Y-34850113D01*
X113055500Y-34850120D01*
X112979900Y-35032635D01*
X112956468Y-35150437D01*
X112941359Y-35226394D01*
X112941359Y-35423948D01*
X112965301Y-35544310D01*
X112979900Y-35617706D01*
X113055499Y-35800220D01*
X113055503Y-35800228D01*
X113165254Y-35964482D01*
X113165257Y-35964486D01*
X113304943Y-36104172D01*
X113304947Y-36104175D01*
X113378382Y-36153243D01*
X113383357Y-36160688D01*
X113381610Y-36169471D01*
X113374165Y-36174446D01*
X113371882Y-36174671D01*
X111976636Y-36174671D01*
X111968363Y-36171244D01*
X111964936Y-36162971D01*
X111968363Y-36154698D01*
X111970136Y-36153243D01*
X112003432Y-36130995D01*
X112043571Y-36104175D01*
X112183263Y-35964483D01*
X112293018Y-35800222D01*
X112368618Y-35617706D01*
X112407159Y-35423948D01*
X112407159Y-35226394D01*
X112368618Y-35032636D01*
X112293018Y-34850120D01*
X112293014Y-34850113D01*
X112183263Y-34685859D01*
X112183260Y-34685855D01*
X112043574Y-34546169D01*
X112043570Y-34546166D01*
X111879316Y-34436415D01*
X111879308Y-34436411D01*
X111696794Y-34360812D01*
X111503036Y-34322271D01*
X111305482Y-34322271D01*
X111208603Y-34341541D01*
X111111723Y-34360812D01*
X110929209Y-34436411D01*
X110929201Y-34436415D01*
X110764947Y-34546166D01*
X110764943Y-34546169D01*
X110625257Y-34685855D01*
X110625254Y-34685859D01*
X110515503Y-34850113D01*
X110515500Y-34850120D01*
X110439900Y-35032635D01*
X110416468Y-35150437D01*
X110401359Y-35226394D01*
X110401359Y-35423948D01*
X110425301Y-35544310D01*
X110439900Y-35617706D01*
X110515499Y-35800220D01*
X110515503Y-35800228D01*
X110625254Y-35964482D01*
X110625257Y-35964486D01*
X110764943Y-36104172D01*
X110764947Y-36104175D01*
X110838382Y-36153243D01*
X110843357Y-36160688D01*
X110841610Y-36169471D01*
X110834165Y-36174446D01*
X110831882Y-36174671D01*
X109436636Y-36174671D01*
X109428363Y-36171244D01*
X109424936Y-36162971D01*
X109428363Y-36154698D01*
X109430136Y-36153243D01*
X109463432Y-36130995D01*
X109503571Y-36104175D01*
X109643263Y-35964483D01*
X109753018Y-35800222D01*
X109828618Y-35617706D01*
X109867159Y-35423948D01*
X109867159Y-35226394D01*
X109828618Y-35032636D01*
X109753018Y-34850120D01*
X109753014Y-34850113D01*
X109643263Y-34685859D01*
X109643260Y-34685855D01*
X109503574Y-34546169D01*
X109503570Y-34546166D01*
X109339316Y-34436415D01*
X109339308Y-34436411D01*
X109156794Y-34360812D01*
X108963036Y-34322271D01*
X108765482Y-34322271D01*
X108668603Y-34341541D01*
X108571723Y-34360812D01*
X108389209Y-34436411D01*
X108389201Y-34436415D01*
X108224947Y-34546166D01*
X108224943Y-34546169D01*
X108085257Y-34685855D01*
X108085254Y-34685859D01*
X107975503Y-34850113D01*
X107975500Y-34850120D01*
X107899900Y-35032635D01*
X107876468Y-35150437D01*
X107861359Y-35226394D01*
X107861359Y-35423948D01*
X107885301Y-35544310D01*
X107899900Y-35617706D01*
X107975499Y-35800220D01*
X107975503Y-35800228D01*
X108085254Y-35964482D01*
X108085257Y-35964486D01*
X108224943Y-36104172D01*
X108224947Y-36104175D01*
X108298382Y-36153243D01*
X108303357Y-36160688D01*
X108301610Y-36169471D01*
X108294165Y-36174446D01*
X108291882Y-36174671D01*
X106896636Y-36174671D01*
X106888363Y-36171244D01*
X106884936Y-36162971D01*
X106888363Y-36154698D01*
X106890136Y-36153243D01*
X106923432Y-36130995D01*
X106963571Y-36104175D01*
X107103263Y-35964483D01*
X107213018Y-35800222D01*
X107288618Y-35617706D01*
X107327159Y-35423948D01*
X107327159Y-35226394D01*
X107288618Y-35032636D01*
X107213018Y-34850120D01*
X107182417Y-34804324D01*
X107180671Y-34795543D01*
X107183871Y-34789554D01*
X107951118Y-34022309D01*
X107959391Y-34018882D01*
X129690039Y-34018882D01*
X129698312Y-34022309D01*
X130267473Y-34591470D01*
X130270900Y-34599743D01*
X130270900Y-41897961D01*
X130267473Y-41906234D01*
X130259200Y-41909661D01*
X130250927Y-41906234D01*
X130249068Y-41903811D01*
X130234362Y-41878340D01*
X130234358Y-41878335D01*
X130121664Y-41765641D01*
X130121659Y-41765637D01*
X129983639Y-41685950D01*
X129983635Y-41685948D01*
X129829691Y-41644700D01*
X129829689Y-41644700D01*
X129670311Y-41644700D01*
X129670308Y-41644700D01*
X129516364Y-41685948D01*
X129516360Y-41685950D01*
X129378340Y-41765637D01*
X129378335Y-41765641D01*
X129265641Y-41878335D01*
X129265637Y-41878340D01*
X129185950Y-42016360D01*
X129185948Y-42016364D01*
X129144700Y-42170308D01*
X129144700Y-42329691D01*
X129185948Y-42483635D01*
X129185950Y-42483639D01*
X129265637Y-42621659D01*
X129265639Y-42621662D01*
X129265640Y-42621663D01*
X129378337Y-42734360D01*
X129378338Y-42734361D01*
X129378340Y-42734362D01*
X129516360Y-42814049D01*
X129516362Y-42814049D01*
X129516363Y-42814050D01*
X129614628Y-42840379D01*
X129621732Y-42845830D01*
X129623300Y-42851680D01*
X129623300Y-52339120D01*
X129619873Y-52347393D01*
X129227591Y-52739675D01*
X129219318Y-52743102D01*
X127984169Y-52743102D01*
X127975896Y-52739675D01*
X127871664Y-52635443D01*
X127871659Y-52635439D01*
X127733639Y-52555752D01*
X127733635Y-52555750D01*
X127579691Y-52514502D01*
X127579689Y-52514502D01*
X127420311Y-52514502D01*
X127420308Y-52514502D01*
X127266364Y-52555750D01*
X127266360Y-52555752D01*
X127128340Y-52635439D01*
X127128335Y-52635443D01*
X127015641Y-52748137D01*
X127015637Y-52748142D01*
X126935950Y-52886162D01*
X126935948Y-52886166D01*
X126894700Y-53040110D01*
X126894700Y-53199493D01*
X126935948Y-53353437D01*
X126935950Y-53353441D01*
X127015637Y-53491461D01*
X127015639Y-53491464D01*
X127015640Y-53491465D01*
X127128337Y-53604162D01*
X127128338Y-53604163D01*
X127128340Y-53604164D01*
X127266360Y-53683851D01*
X127266364Y-53683853D01*
X127387775Y-53716384D01*
X127420308Y-53725101D01*
X127420310Y-53725102D01*
X127420311Y-53725102D01*
X127579690Y-53725102D01*
X127579690Y-53725101D01*
X127656663Y-53704477D01*
X127733635Y-53683853D01*
X127733639Y-53683851D01*
X127779645Y-53657288D01*
X127871663Y-53604162D01*
X127975896Y-53499929D01*
X127984169Y-53496502D01*
X129329880Y-53496502D01*
X129329896Y-53496503D01*
X129330605Y-53496503D01*
X129429792Y-53496503D01*
X129429792Y-53496502D01*
X129477695Y-53483667D01*
X129525597Y-53470832D01*
X129525601Y-53470830D01*
X129554232Y-53454299D01*
X129611498Y-53421237D01*
X129681633Y-53351102D01*
X129681633Y-53351100D01*
X129682591Y-53350143D01*
X129682595Y-53350138D01*
X130230336Y-52802397D01*
X130230341Y-52802393D01*
X130231298Y-52801435D01*
X130231300Y-52801435D01*
X130301435Y-52731300D01*
X130351029Y-52645401D01*
X130353698Y-52635443D01*
X130367436Y-52584167D01*
X130376700Y-52549594D01*
X130376700Y-52474601D01*
X130380127Y-52466328D01*
X130388400Y-52462901D01*
X130396673Y-52466328D01*
X134300873Y-56370528D01*
X134304300Y-56378801D01*
X134304300Y-57628769D01*
X134300873Y-57637042D01*
X134292600Y-57640469D01*
X134284327Y-57637042D01*
X134281035Y-57633750D01*
X134281034Y-57633749D01*
X134176665Y-57573492D01*
X134176664Y-57573491D01*
X134176661Y-57573490D01*
X134176663Y-57573490D01*
X134060259Y-57542300D01*
X134060257Y-57542300D01*
X133939743Y-57542300D01*
X133939740Y-57542300D01*
X133823337Y-57573490D01*
X133718964Y-57633750D01*
X133633750Y-57718964D01*
X133573490Y-57823337D01*
X133542300Y-57939740D01*
X133542300Y-58060259D01*
X133573490Y-58176662D01*
X133573492Y-58176665D01*
X133633749Y-58281034D01*
X133718966Y-58366251D01*
X133765050Y-58392857D01*
X133770501Y-58399961D01*
X133770900Y-58402989D01*
X133770900Y-61469205D01*
X133767473Y-61477478D01*
X132477478Y-62767473D01*
X132469205Y-62770900D01*
X126402990Y-62770900D01*
X126394717Y-62767473D01*
X126392858Y-62765050D01*
X126366253Y-62718969D01*
X126366249Y-62718964D01*
X126281035Y-62633750D01*
X126281034Y-62633749D01*
X126176665Y-62573492D01*
X126176664Y-62573491D01*
X126176661Y-62573490D01*
X126176663Y-62573490D01*
X126060259Y-62542300D01*
X126060257Y-62542300D01*
X125939743Y-62542300D01*
X125939740Y-62542300D01*
X125823337Y-62573490D01*
X125718964Y-62633750D01*
X125633750Y-62718964D01*
X125573490Y-62823337D01*
X125542300Y-62939740D01*
X125542300Y-63060259D01*
X125573490Y-63176662D01*
X125573492Y-63176665D01*
X125633749Y-63281034D01*
X125718966Y-63366251D01*
X125823335Y-63426508D01*
X125823337Y-63426508D01*
X125823338Y-63426509D01*
X125823336Y-63426509D01*
X125915142Y-63451108D01*
X125939740Y-63457699D01*
X125939742Y-63457700D01*
X125939743Y-63457700D01*
X126060258Y-63457700D01*
X126060258Y-63457699D01*
X126142081Y-63435774D01*
X126176662Y-63426509D01*
X126176662Y-63426508D01*
X126176665Y-63426508D01*
X126281034Y-63366251D01*
X126366251Y-63281034D01*
X126392858Y-63234950D01*
X126399962Y-63229499D01*
X126402990Y-63229100D01*
X132418658Y-63229100D01*
X132426931Y-63232527D01*
X132430358Y-63240800D01*
X132426931Y-63249073D01*
X129805777Y-65870225D01*
X129796883Y-65891701D01*
X129796882Y-65891701D01*
X129770900Y-65954426D01*
X129770900Y-66597009D01*
X129767473Y-66605282D01*
X129765050Y-66607141D01*
X129718969Y-66633746D01*
X129718964Y-66633750D01*
X129633750Y-66718964D01*
X129573490Y-66823337D01*
X129542300Y-66939740D01*
X129542300Y-67060259D01*
X129573490Y-67176662D01*
X129573492Y-67176665D01*
X129633749Y-67281034D01*
X129718966Y-67366251D01*
X129823335Y-67426508D01*
X129823337Y-67426508D01*
X129823338Y-67426509D01*
X129823336Y-67426509D01*
X129915142Y-67451108D01*
X129939740Y-67457699D01*
X129939742Y-67457700D01*
X129939743Y-67457700D01*
X130060258Y-67457700D01*
X130060258Y-67457699D01*
X130142081Y-67435774D01*
X130176662Y-67426509D01*
X130176662Y-67426508D01*
X130176665Y-67426508D01*
X130281034Y-67366251D01*
X130366251Y-67281034D01*
X130426508Y-67176665D01*
X130430503Y-67161758D01*
X130457699Y-67060259D01*
X130457700Y-67060258D01*
X130457700Y-66939742D01*
X130457699Y-66939740D01*
X130426509Y-66823337D01*
X130426508Y-66823335D01*
X130366251Y-66718966D01*
X130281034Y-66633749D01*
X130281033Y-66633748D01*
X130281030Y-66633746D01*
X130234950Y-66607141D01*
X130229499Y-66600037D01*
X130229100Y-66597009D01*
X130229100Y-66099742D01*
X130232527Y-66091469D01*
X134727621Y-61596375D01*
X134727622Y-61596374D01*
X134748052Y-61547049D01*
X134762500Y-61512171D01*
X134762500Y-56233487D01*
X134752284Y-56208824D01*
X134727622Y-56149283D01*
X130773556Y-52195217D01*
X131894600Y-52195217D01*
X131894600Y-52304782D01*
X131927653Y-52384580D01*
X131927654Y-52384580D01*
X132021794Y-52290439D01*
X132040801Y-52336328D01*
X132083672Y-52379199D01*
X132129558Y-52398205D01*
X132035418Y-52492344D01*
X132035418Y-52492345D01*
X132115217Y-52525399D01*
X132115222Y-52525400D01*
X132224778Y-52525400D01*
X132224782Y-52525399D01*
X132304580Y-52492345D01*
X132304580Y-52492344D01*
X132210441Y-52398205D01*
X132256328Y-52379199D01*
X132299199Y-52336328D01*
X132318205Y-52290441D01*
X132412344Y-52384580D01*
X132412345Y-52384580D01*
X132445399Y-52304782D01*
X132445400Y-52304778D01*
X132445400Y-52195221D01*
X132445399Y-52195217D01*
X133194600Y-52195217D01*
X133194600Y-52304782D01*
X133227653Y-52384580D01*
X133227654Y-52384580D01*
X133321794Y-52290439D01*
X133340801Y-52336328D01*
X133383672Y-52379199D01*
X133429558Y-52398205D01*
X133335418Y-52492344D01*
X133335418Y-52492345D01*
X133415217Y-52525399D01*
X133415222Y-52525400D01*
X133524778Y-52525400D01*
X133524782Y-52525399D01*
X133604580Y-52492345D01*
X133604580Y-52492344D01*
X133510441Y-52398205D01*
X133556328Y-52379199D01*
X133599199Y-52336328D01*
X133618205Y-52290441D01*
X133712344Y-52384580D01*
X133712345Y-52384580D01*
X133745399Y-52304782D01*
X133745400Y-52304778D01*
X133745400Y-52195221D01*
X133745399Y-52195217D01*
X134494600Y-52195217D01*
X134494600Y-52304782D01*
X134527653Y-52384580D01*
X134527654Y-52384580D01*
X134621794Y-52290439D01*
X134640801Y-52336328D01*
X134683672Y-52379199D01*
X134729558Y-52398205D01*
X134635418Y-52492344D01*
X134635418Y-52492345D01*
X134715217Y-52525399D01*
X134715222Y-52525400D01*
X134824778Y-52525400D01*
X134824782Y-52525399D01*
X134904580Y-52492345D01*
X134904580Y-52492344D01*
X134810441Y-52398205D01*
X134856328Y-52379199D01*
X134899199Y-52336328D01*
X134918205Y-52290441D01*
X135012344Y-52384580D01*
X135012345Y-52384580D01*
X135045399Y-52304782D01*
X135045400Y-52304778D01*
X135045400Y-52195221D01*
X135045399Y-52195217D01*
X135012345Y-52115418D01*
X135012344Y-52115418D01*
X134918204Y-52209557D01*
X134899199Y-52163672D01*
X134856328Y-52120801D01*
X134810439Y-52101794D01*
X134904580Y-52007654D01*
X134904580Y-52007653D01*
X134824782Y-51974600D01*
X134715217Y-51974600D01*
X134635418Y-52007653D01*
X134635418Y-52007654D01*
X134729558Y-52101794D01*
X134683672Y-52120801D01*
X134640801Y-52163672D01*
X134621794Y-52209558D01*
X134527654Y-52115418D01*
X134527653Y-52115418D01*
X134494600Y-52195217D01*
X133745399Y-52195217D01*
X133712345Y-52115418D01*
X133712344Y-52115418D01*
X133618204Y-52209557D01*
X133599199Y-52163672D01*
X133556328Y-52120801D01*
X133510439Y-52101794D01*
X133604580Y-52007654D01*
X133604580Y-52007653D01*
X133524782Y-51974600D01*
X133415217Y-51974600D01*
X133335418Y-52007653D01*
X133335418Y-52007654D01*
X133429558Y-52101794D01*
X133383672Y-52120801D01*
X133340801Y-52163672D01*
X133321794Y-52209558D01*
X133227654Y-52115418D01*
X133227653Y-52115418D01*
X133194600Y-52195217D01*
X132445399Y-52195217D01*
X132412345Y-52115418D01*
X132412344Y-52115418D01*
X132318204Y-52209557D01*
X132299199Y-52163672D01*
X132256328Y-52120801D01*
X132210439Y-52101794D01*
X132304580Y-52007654D01*
X132304580Y-52007653D01*
X132224782Y-51974600D01*
X132115217Y-51974600D01*
X132035418Y-52007653D01*
X132035418Y-52007654D01*
X132129558Y-52101794D01*
X132083672Y-52120801D01*
X132040801Y-52163672D01*
X132021794Y-52209558D01*
X131927654Y-52115418D01*
X131927653Y-52115418D01*
X131894600Y-52195217D01*
X130773556Y-52195217D01*
X130732527Y-52154188D01*
X130729100Y-52145915D01*
X130729100Y-50895217D01*
X131894600Y-50895217D01*
X131894600Y-51004782D01*
X131927653Y-51084580D01*
X131927654Y-51084580D01*
X132021794Y-50990439D01*
X132040801Y-51036328D01*
X132083672Y-51079199D01*
X132129558Y-51098205D01*
X132035418Y-51192344D01*
X132035418Y-51192345D01*
X132115217Y-51225399D01*
X132115222Y-51225400D01*
X132224778Y-51225400D01*
X132224782Y-51225399D01*
X132304580Y-51192345D01*
X132304580Y-51192344D01*
X132210441Y-51098205D01*
X132256328Y-51079199D01*
X132299199Y-51036328D01*
X132318205Y-50990441D01*
X132412344Y-51084580D01*
X132412345Y-51084580D01*
X132445399Y-51004782D01*
X132445400Y-51004778D01*
X132445400Y-50895221D01*
X132445399Y-50895217D01*
X133194600Y-50895217D01*
X133194600Y-51004782D01*
X133227653Y-51084580D01*
X133227654Y-51084580D01*
X133321794Y-50990439D01*
X133340801Y-51036328D01*
X133383672Y-51079199D01*
X133429558Y-51098205D01*
X133335418Y-51192344D01*
X133335418Y-51192345D01*
X133415217Y-51225399D01*
X133415222Y-51225400D01*
X133524778Y-51225400D01*
X133524782Y-51225399D01*
X133604580Y-51192345D01*
X133604580Y-51192344D01*
X133510441Y-51098205D01*
X133556328Y-51079199D01*
X133599199Y-51036328D01*
X133618205Y-50990441D01*
X133712344Y-51084580D01*
X133712345Y-51084580D01*
X133745399Y-51004782D01*
X133745400Y-51004778D01*
X133745400Y-50895221D01*
X133745399Y-50895217D01*
X134494600Y-50895217D01*
X134494600Y-51004782D01*
X134527653Y-51084580D01*
X134527654Y-51084580D01*
X134621794Y-50990439D01*
X134640801Y-51036328D01*
X134683672Y-51079199D01*
X134729558Y-51098205D01*
X134635418Y-51192344D01*
X134635418Y-51192345D01*
X134715217Y-51225399D01*
X134715222Y-51225400D01*
X134824778Y-51225400D01*
X134824782Y-51225399D01*
X134904580Y-51192345D01*
X134904580Y-51192344D01*
X134810441Y-51098205D01*
X134856328Y-51079199D01*
X134899199Y-51036328D01*
X134918205Y-50990441D01*
X135012344Y-51084580D01*
X135012345Y-51084580D01*
X135045399Y-51004782D01*
X135045400Y-51004778D01*
X135045400Y-50895221D01*
X135045399Y-50895217D01*
X135012345Y-50815418D01*
X135012344Y-50815418D01*
X134918204Y-50909557D01*
X134899199Y-50863672D01*
X134856328Y-50820801D01*
X134810439Y-50801794D01*
X134904580Y-50707654D01*
X134904580Y-50707653D01*
X134824782Y-50674600D01*
X134715217Y-50674600D01*
X134635418Y-50707653D01*
X134635418Y-50707654D01*
X134729558Y-50801794D01*
X134683672Y-50820801D01*
X134640801Y-50863672D01*
X134621794Y-50909558D01*
X134527654Y-50815418D01*
X134527653Y-50815418D01*
X134494600Y-50895217D01*
X133745399Y-50895217D01*
X133712345Y-50815418D01*
X133712344Y-50815418D01*
X133618204Y-50909557D01*
X133599199Y-50863672D01*
X133556328Y-50820801D01*
X133510439Y-50801794D01*
X133604580Y-50707654D01*
X133604580Y-50707653D01*
X133524782Y-50674600D01*
X133415217Y-50674600D01*
X133335418Y-50707653D01*
X133335418Y-50707654D01*
X133429558Y-50801794D01*
X133383672Y-50820801D01*
X133340801Y-50863672D01*
X133321794Y-50909558D01*
X133227654Y-50815418D01*
X133227653Y-50815418D01*
X133194600Y-50895217D01*
X132445399Y-50895217D01*
X132412345Y-50815418D01*
X132412344Y-50815418D01*
X132318204Y-50909557D01*
X132299199Y-50863672D01*
X132256328Y-50820801D01*
X132210439Y-50801794D01*
X132304580Y-50707654D01*
X132304580Y-50707653D01*
X132224782Y-50674600D01*
X132115217Y-50674600D01*
X132035418Y-50707653D01*
X132035418Y-50707654D01*
X132129558Y-50801794D01*
X132083672Y-50820801D01*
X132040801Y-50863672D01*
X132021794Y-50909558D01*
X131927654Y-50815418D01*
X131927653Y-50815418D01*
X131894600Y-50895217D01*
X130729100Y-50895217D01*
X130729100Y-36358843D01*
X132018455Y-36358843D01*
X132018455Y-36622130D01*
X132052820Y-36883165D01*
X132120964Y-37137482D01*
X132120968Y-37137493D01*
X132214546Y-37363410D01*
X132221721Y-37380731D01*
X132353365Y-37608745D01*
X132513645Y-37817626D01*
X132699817Y-38003798D01*
X132908698Y-38164078D01*
X133136712Y-38295722D01*
X133224406Y-38332046D01*
X133375905Y-38394799D01*
X133379959Y-38396478D01*
X133634276Y-38464622D01*
X133895312Y-38498988D01*
X134158600Y-38498988D01*
X134419636Y-38464622D01*
X134673953Y-38396478D01*
X134917200Y-38295722D01*
X135145214Y-38164078D01*
X135354095Y-38003798D01*
X135540267Y-37817626D01*
X135700547Y-37608745D01*
X135832191Y-37380731D01*
X135932947Y-37137484D01*
X136001091Y-36883167D01*
X136035457Y-36622131D01*
X136035457Y-36358843D01*
X136001091Y-36097807D01*
X135932947Y-35843490D01*
X135922440Y-35818125D01*
X135880521Y-35716923D01*
X135832191Y-35600243D01*
X135700547Y-35372229D01*
X135540267Y-35163348D01*
X135354095Y-34977176D01*
X135145214Y-34816896D01*
X134917200Y-34685252D01*
X134917192Y-34685248D01*
X134917191Y-34685248D01*
X134673962Y-34584499D01*
X134673951Y-34584495D01*
X134419634Y-34516351D01*
X134158600Y-34481986D01*
X133895312Y-34481986D01*
X133634277Y-34516351D01*
X133379960Y-34584495D01*
X133379949Y-34584499D01*
X133136720Y-34685248D01*
X133136715Y-34685250D01*
X133136712Y-34685252D01*
X132908698Y-34816896D01*
X132908697Y-34816896D01*
X132699818Y-34977175D01*
X132699811Y-34977181D01*
X132513650Y-35163342D01*
X132513644Y-35163349D01*
X132353365Y-35372228D01*
X132353365Y-35372229D01*
X132221721Y-35600243D01*
X132221719Y-35600246D01*
X132221717Y-35600251D01*
X132120968Y-35843480D01*
X132120964Y-35843491D01*
X132052820Y-36097808D01*
X132018455Y-36358843D01*
X130729100Y-36358843D01*
X130729100Y-34454430D01*
X130729100Y-34454429D01*
X130718884Y-34429766D01*
X130694222Y-34370225D01*
X129919557Y-33595560D01*
X129860015Y-33570897D01*
X129835355Y-33560682D01*
X129835353Y-33560682D01*
X107814077Y-33560682D01*
X107814074Y-33560682D01*
X107789414Y-33570897D01*
X107729874Y-33595559D01*
X107729871Y-33595561D01*
X106859876Y-34465555D01*
X106851603Y-34468982D01*
X106845103Y-34467010D01*
X106799316Y-34436415D01*
X106799308Y-34436411D01*
X106616794Y-34360812D01*
X106423036Y-34322271D01*
X106225482Y-34322271D01*
X106128603Y-34341541D01*
X106031723Y-34360812D01*
X105849209Y-34436411D01*
X105849201Y-34436415D01*
X105684947Y-34546166D01*
X105684943Y-34546169D01*
X105545257Y-34685855D01*
X105545254Y-34685859D01*
X105435503Y-34850113D01*
X105435500Y-34850120D01*
X105359900Y-35032635D01*
X105336468Y-35150437D01*
X105321359Y-35226394D01*
X105321359Y-35423948D01*
X105345301Y-35544310D01*
X105359900Y-35617706D01*
X105435499Y-35800220D01*
X105435503Y-35800228D01*
X105545254Y-35964482D01*
X105545257Y-35964486D01*
X105684943Y-36104172D01*
X105684947Y-36104175D01*
X105758382Y-36153243D01*
X105763357Y-36160688D01*
X105761610Y-36169471D01*
X105754165Y-36174446D01*
X105751882Y-36174671D01*
X105599742Y-36174671D01*
X105591469Y-36171244D01*
X105095386Y-35675160D01*
X105091959Y-35666887D01*
X105091959Y-34832830D01*
X105091958Y-34832826D01*
X105061813Y-34760051D01*
X105057080Y-34748625D01*
X104992634Y-34684179D01*
X104056005Y-33747549D01*
X103996463Y-33722886D01*
X103971803Y-33712671D01*
X103971801Y-33712671D01*
X95976717Y-33712671D01*
X95976714Y-33712671D01*
X95941839Y-33727118D01*
X95892515Y-33747548D01*
X95892512Y-33747550D01*
X94805777Y-34834284D01*
X94799219Y-34850120D01*
X94799218Y-34850120D01*
X94770900Y-34918485D01*
X94770900Y-35400256D01*
X94767473Y-35408529D01*
X94623418Y-35552583D01*
X94615145Y-35556010D01*
X94606872Y-35552583D01*
X94603445Y-35544310D01*
X94603669Y-35542035D01*
X94627159Y-35423948D01*
X94627159Y-35226394D01*
X94588618Y-35032636D01*
X94513018Y-34850120D01*
X94513014Y-34850113D01*
X94403263Y-34685859D01*
X94403260Y-34685855D01*
X94263574Y-34546169D01*
X94263570Y-34546166D01*
X94099316Y-34436415D01*
X94099308Y-34436411D01*
X93916794Y-34360812D01*
X93723036Y-34322271D01*
X93525482Y-34322271D01*
X93428603Y-34341541D01*
X93331723Y-34360812D01*
X93149209Y-34436411D01*
X93149201Y-34436415D01*
X93103412Y-34467010D01*
X93094629Y-34468757D01*
X93088639Y-34465555D01*
X92882044Y-34258960D01*
X92675434Y-34052349D01*
X92675429Y-34052347D01*
X92594636Y-34018882D01*
X92591230Y-34017471D01*
X87707858Y-34017471D01*
X87707855Y-34017471D01*
X87623657Y-34052347D01*
X87623657Y-34052348D01*
X87623656Y-34052348D01*
X87623653Y-34052350D01*
X87003179Y-34672823D01*
X87003178Y-34672825D01*
X86990522Y-34703382D01*
X86968301Y-34757025D01*
X86968301Y-37513051D01*
X86964874Y-37521324D01*
X86956601Y-37524751D01*
X86948328Y-37521324D01*
X86945792Y-37517528D01*
X86918034Y-37450514D01*
X86893018Y-37390120D01*
X86893016Y-37390117D01*
X86893014Y-37390113D01*
X86783263Y-37225859D01*
X86783260Y-37225855D01*
X86643574Y-37086169D01*
X86643570Y-37086166D01*
X86479316Y-36976415D01*
X86479308Y-36976411D01*
X86296794Y-36900812D01*
X86281104Y-36897691D01*
X86103036Y-36862271D01*
X85905482Y-36862271D01*
X85860885Y-36871142D01*
X85711723Y-36900812D01*
X85529209Y-36976411D01*
X85529201Y-36976415D01*
X85364947Y-37086166D01*
X85364943Y-37086169D01*
X85225257Y-37225855D01*
X85225254Y-37225859D01*
X85115503Y-37390113D01*
X85115499Y-37390121D01*
X85039900Y-37572635D01*
X85020100Y-37672178D01*
X85001359Y-37766394D01*
X85001359Y-37963948D01*
X85009286Y-38003798D01*
X85039900Y-38157706D01*
X85115499Y-38340220D01*
X85115503Y-38340228D01*
X85146098Y-38386015D01*
X85147845Y-38394797D01*
X85144643Y-38400788D01*
X84757634Y-38787799D01*
X84749361Y-38791226D01*
X83908088Y-38791226D01*
X83899815Y-38787799D01*
X83896388Y-38779526D01*
X83899815Y-38771253D01*
X83903611Y-38768717D01*
X83909284Y-38766367D01*
X83939310Y-38753930D01*
X84103571Y-38644175D01*
X84243263Y-38504483D01*
X84353018Y-38340222D01*
X84428618Y-38157706D01*
X84467159Y-37963948D01*
X84467159Y-37766394D01*
X84428618Y-37572636D01*
X84353018Y-37390120D01*
X84353016Y-37390117D01*
X84353014Y-37390113D01*
X84243263Y-37225859D01*
X84243260Y-37225855D01*
X84103574Y-37086169D01*
X84103570Y-37086166D01*
X83939316Y-36976415D01*
X83939308Y-36976411D01*
X83756794Y-36900812D01*
X83741104Y-36897691D01*
X83563036Y-36862271D01*
X83365482Y-36862271D01*
X83320885Y-36871142D01*
X83171723Y-36900812D01*
X82989209Y-36976411D01*
X82989201Y-36976415D01*
X82824947Y-37086166D01*
X82824943Y-37086169D01*
X82685257Y-37225855D01*
X82685254Y-37225859D01*
X82575503Y-37390113D01*
X82575499Y-37390121D01*
X82499900Y-37572635D01*
X82480100Y-37672178D01*
X82461359Y-37766394D01*
X82461359Y-37963948D01*
X82469286Y-38003798D01*
X82499900Y-38157706D01*
X82575499Y-38340220D01*
X82575503Y-38340228D01*
X82685254Y-38504482D01*
X82685257Y-38504486D01*
X82824943Y-38644172D01*
X82824947Y-38644175D01*
X82989201Y-38753926D01*
X82989205Y-38753928D01*
X82989208Y-38753930D01*
X83003057Y-38759666D01*
X83009389Y-38765997D01*
X83009389Y-38774952D01*
X83006853Y-38778748D01*
X80415379Y-41370223D01*
X80415377Y-41370226D01*
X80398540Y-41410877D01*
X80380500Y-41454426D01*
X80380500Y-59788483D01*
X80415377Y-59872684D01*
X80415379Y-59872687D01*
X81115194Y-60572502D01*
X81118621Y-60580775D01*
X81118222Y-60583803D01*
X81104450Y-60635201D01*
X81104450Y-60755720D01*
X81118222Y-60807117D01*
X81117054Y-60815995D01*
X81115194Y-60818418D01*
X80398460Y-61535153D01*
X80398458Y-61535156D01*
X80373796Y-61594696D01*
X80363581Y-61619356D01*
X80229100Y-61619356D01*
X80229100Y-41099741D01*
X80232526Y-41091469D01*
X81628127Y-39695867D01*
X81628134Y-39695863D01*
X81629775Y-39694222D01*
X81694222Y-39629775D01*
X81729100Y-39545570D01*
X81729100Y-39454430D01*
X81694222Y-39370226D01*
X81212040Y-38888043D01*
X81208613Y-38879770D01*
X81212040Y-38871497D01*
X81220313Y-38868070D01*
X81789315Y-38868070D01*
X81833917Y-38859199D01*
X81884493Y-38825405D01*
X81918287Y-38774829D01*
X81927159Y-38730228D01*
X81927158Y-37000115D01*
X81927119Y-36999921D01*
X81918287Y-36955513D01*
X81918286Y-36955512D01*
X81911191Y-36944894D01*
X81884493Y-36904937D01*
X81833917Y-36871143D01*
X81789316Y-36862271D01*
X81789315Y-36862271D01*
X80059202Y-36862271D01*
X80014601Y-36871142D01*
X80014600Y-36871143D01*
X79964025Y-36904936D01*
X79964024Y-36904937D01*
X79930231Y-36955512D01*
X79921359Y-37000114D01*
X79921359Y-38730227D01*
X79930230Y-38774828D01*
X79930231Y-38774829D01*
X79964025Y-38825405D01*
X80014601Y-38859199D01*
X80059202Y-38868071D01*
X80683459Y-38868070D01*
X80691732Y-38871497D01*
X80695159Y-38879770D01*
X80695159Y-38969832D01*
X80704744Y-38992971D01*
X80730036Y-39054032D01*
X80730038Y-39054035D01*
X81167730Y-39491727D01*
X81171157Y-39500000D01*
X81167730Y-39508273D01*
X79805777Y-40870226D01*
X79781115Y-40929766D01*
X79770900Y-40954426D01*
X79770900Y-64097009D01*
X79767473Y-64105282D01*
X79765050Y-64107141D01*
X79718969Y-64133746D01*
X79718964Y-64133750D01*
X79633750Y-64218964D01*
X79573490Y-64323337D01*
X79542300Y-64439740D01*
X78042679Y-64439740D01*
X78043086Y-53490450D01*
X78035456Y-53389343D01*
X78035456Y-53382597D01*
X78034384Y-53375144D01*
X78025823Y-53261695D01*
X77980899Y-53060009D01*
X77915517Y-52881071D01*
X77836375Y-52725592D01*
X77730168Y-52567435D01*
X77605010Y-52423913D01*
X77462712Y-52297125D01*
X77462710Y-52297123D01*
X77462706Y-52297120D01*
X77305759Y-52189288D01*
X77305749Y-52189283D01*
X77136452Y-52101961D01*
X77136446Y-52101958D01*
X77136445Y-52101958D01*
X77129668Y-52099401D01*
X76987551Y-52045788D01*
X76771786Y-51994147D01*
X76565971Y-51974874D01*
X73467600Y-51970479D01*
X73465065Y-51970197D01*
X73378439Y-51950834D01*
X73376514Y-51950225D01*
X73308166Y-51921914D01*
X73306530Y-51921081D01*
X73243370Y-51882376D01*
X73241884Y-51881297D01*
X73185554Y-51833186D01*
X73184256Y-51831888D01*
X73159043Y-51802368D01*
X73136202Y-51775626D01*
X73135036Y-51773993D01*
X73089706Y-51697346D01*
X73088839Y-51695540D01*
X73062715Y-51626406D01*
X73062170Y-51624473D01*
X73045504Y-51537102D01*
X73045297Y-51534908D01*
X73047526Y-36358843D01*
X74018455Y-36358843D01*
X74018455Y-36622130D01*
X74052820Y-36883165D01*
X74120964Y-37137482D01*
X74120968Y-37137493D01*
X74214546Y-37363410D01*
X74221721Y-37380731D01*
X74353365Y-37608745D01*
X74513645Y-37817626D01*
X74699817Y-38003798D01*
X74908698Y-38164078D01*
X75136712Y-38295722D01*
X75224406Y-38332046D01*
X75375905Y-38394799D01*
X75379959Y-38396478D01*
X75634276Y-38464622D01*
X75895312Y-38498988D01*
X76158600Y-38498988D01*
X76419636Y-38464622D01*
X76673953Y-38396478D01*
X76917200Y-38295722D01*
X77145214Y-38164078D01*
X77354095Y-38003798D01*
X77540267Y-37817626D01*
X77700547Y-37608745D01*
X77832191Y-37380731D01*
X77932947Y-37137484D01*
X78001091Y-36883167D01*
X78035457Y-36622131D01*
X78035457Y-36358843D01*
X78001091Y-36097807D01*
X77932947Y-35843490D01*
X77922440Y-35818125D01*
X77880521Y-35716923D01*
X77832191Y-35600243D01*
X77700547Y-35372229D01*
X77594959Y-35234624D01*
X79773759Y-35234624D01*
X79773759Y-35415717D01*
X79802086Y-35594572D01*
X79802090Y-35594588D01*
X79858044Y-35766801D01*
X79858046Y-35766805D01*
X79858048Y-35766810D01*
X79940263Y-35928165D01*
X80046706Y-36074672D01*
X80174758Y-36202724D01*
X80321265Y-36309167D01*
X80482620Y-36391382D01*
X80482625Y-36391383D01*
X80482628Y-36391385D01*
X80581600Y-36423542D01*
X80654850Y-36447342D01*
X80727643Y-36458871D01*
X80833712Y-36475671D01*
X80833713Y-36475671D01*
X81014805Y-36475671D01*
X81193668Y-36447342D01*
X81365898Y-36391382D01*
X81527253Y-36309167D01*
X81673760Y-36202724D01*
X81801812Y-36074672D01*
X81908255Y-35928165D01*
X81990470Y-35766810D01*
X82046430Y-35594580D01*
X82074759Y-35415717D01*
X82074759Y-35234625D01*
X82074759Y-35234624D01*
X82313759Y-35234624D01*
X82313759Y-35415717D01*
X82342086Y-35594572D01*
X82342090Y-35594588D01*
X82398044Y-35766801D01*
X82398046Y-35766805D01*
X82398048Y-35766810D01*
X82480263Y-35928165D01*
X82586706Y-36074672D01*
X82714758Y-36202724D01*
X82861265Y-36309167D01*
X83022620Y-36391382D01*
X83022625Y-36391383D01*
X83022628Y-36391385D01*
X83121600Y-36423542D01*
X83194850Y-36447342D01*
X83267643Y-36458871D01*
X83373712Y-36475671D01*
X83373713Y-36475671D01*
X83554805Y-36475671D01*
X83733668Y-36447342D01*
X83905898Y-36391382D01*
X84067253Y-36309167D01*
X84213760Y-36202724D01*
X84341812Y-36074672D01*
X84448255Y-35928165D01*
X84530470Y-35766810D01*
X84586430Y-35594580D01*
X84614759Y-35415717D01*
X84614759Y-35238952D01*
X85128859Y-35238952D01*
X85128859Y-35411389D01*
X85162500Y-35580516D01*
X85228488Y-35739827D01*
X85228492Y-35739835D01*
X85324289Y-35883204D01*
X85331375Y-35890289D01*
X85598788Y-35622875D01*
X85604160Y-35632178D01*
X85697252Y-35725270D01*
X85706552Y-35730639D01*
X85439139Y-35998053D01*
X85446225Y-36005140D01*
X85589594Y-36100937D01*
X85589602Y-36100941D01*
X85748913Y-36166929D01*
X85918041Y-36200571D01*
X86090477Y-36200571D01*
X86259604Y-36166929D01*
X86418915Y-36100941D01*
X86418923Y-36100937D01*
X86562289Y-36005142D01*
X86569378Y-35998053D01*
X86301964Y-35730639D01*
X86311266Y-35725270D01*
X86404358Y-35632178D01*
X86409728Y-35622876D01*
X86677141Y-35890289D01*
X86684230Y-35883201D01*
X86780025Y-35739835D01*
X86780029Y-35739827D01*
X86846017Y-35580516D01*
X86879659Y-35411389D01*
X86879659Y-35238952D01*
X86846017Y-35069825D01*
X86780029Y-34910514D01*
X86780025Y-34910506D01*
X86684228Y-34767137D01*
X86677141Y-34760051D01*
X86409727Y-35027464D01*
X86404358Y-35018164D01*
X86311266Y-34925072D01*
X86301963Y-34919701D01*
X86569378Y-34652287D01*
X86562292Y-34645201D01*
X86418923Y-34549404D01*
X86418915Y-34549400D01*
X86259604Y-34483412D01*
X86090477Y-34449771D01*
X85918041Y-34449771D01*
X85748913Y-34483412D01*
X85589602Y-34549400D01*
X85589594Y-34549404D01*
X85446227Y-34645200D01*
X85446222Y-34645204D01*
X85439139Y-34652286D01*
X85439139Y-34652287D01*
X85706553Y-34919701D01*
X85697252Y-34925072D01*
X85604160Y-35018164D01*
X85598789Y-35027465D01*
X85331375Y-34760051D01*
X85324292Y-34767134D01*
X85324288Y-34767139D01*
X85228492Y-34910506D01*
X85228488Y-34910514D01*
X85162500Y-35069825D01*
X85128859Y-35238952D01*
X84614759Y-35238952D01*
X84614759Y-35234625D01*
X84586430Y-35055762D01*
X84558522Y-34969869D01*
X84530473Y-34883540D01*
X84530471Y-34883536D01*
X84530470Y-34883532D01*
X84448255Y-34722177D01*
X84398951Y-34654316D01*
X84398951Y-34654314D01*
X84341819Y-34575679D01*
X84341816Y-34575675D01*
X84341812Y-34575670D01*
X84213760Y-34447618D01*
X84067253Y-34341175D01*
X83905898Y-34258960D01*
X83905895Y-34258959D01*
X83905893Y-34258958D01*
X83905889Y-34258956D01*
X83733676Y-34203002D01*
X83733660Y-34202998D01*
X83554806Y-34174671D01*
X83554805Y-34174671D01*
X83373713Y-34174671D01*
X83373712Y-34174671D01*
X83194857Y-34202998D01*
X83194841Y-34203002D01*
X83022628Y-34258956D01*
X83022624Y-34258958D01*
X82861263Y-34341176D01*
X82714759Y-34447617D01*
X82714751Y-34447624D01*
X82586712Y-34575663D01*
X82586705Y-34575671D01*
X82480264Y-34722175D01*
X82398046Y-34883536D01*
X82398044Y-34883540D01*
X82342090Y-35055753D01*
X82342086Y-35055769D01*
X82313759Y-35234624D01*
X82074759Y-35234624D01*
X82046430Y-35055762D01*
X82018522Y-34969869D01*
X81990473Y-34883540D01*
X81990471Y-34883536D01*
X81990470Y-34883532D01*
X81908255Y-34722177D01*
X81801812Y-34575670D01*
X81673760Y-34447618D01*
X81527253Y-34341175D01*
X81365898Y-34258960D01*
X81365895Y-34258959D01*
X81365893Y-34258958D01*
X81365889Y-34258956D01*
X81193676Y-34203002D01*
X81193660Y-34202998D01*
X81014806Y-34174671D01*
X81014805Y-34174671D01*
X80833713Y-34174671D01*
X80833712Y-34174671D01*
X80654857Y-34202998D01*
X80654841Y-34203002D01*
X80482628Y-34258956D01*
X80482624Y-34258958D01*
X80321263Y-34341176D01*
X80174759Y-34447617D01*
X80174751Y-34447624D01*
X80046712Y-34575663D01*
X80046705Y-34575671D01*
X79940264Y-34722175D01*
X79858046Y-34883536D01*
X79858044Y-34883540D01*
X79802090Y-35055753D01*
X79802086Y-35055769D01*
X79773759Y-35234624D01*
X77594959Y-35234624D01*
X77540267Y-35163348D01*
X77354095Y-34977176D01*
X77145214Y-34816896D01*
X76917200Y-34685252D01*
X76917192Y-34685248D01*
X76917191Y-34685248D01*
X76673962Y-34584499D01*
X76673951Y-34584495D01*
X76419634Y-34516351D01*
X76158600Y-34481986D01*
X75895312Y-34481986D01*
X75634277Y-34516351D01*
X75379960Y-34584495D01*
X75379949Y-34584499D01*
X75136720Y-34685248D01*
X75136715Y-34685250D01*
X75136712Y-34685252D01*
X74908698Y-34816896D01*
X74908697Y-34816896D01*
X74699818Y-34977175D01*
X74699811Y-34977181D01*
X74513650Y-35163342D01*
X74513644Y-35163349D01*
X74353365Y-35372228D01*
X74353365Y-35372229D01*
X74221721Y-35600243D01*
X74221719Y-35600246D01*
X74221717Y-35600251D01*
X74120968Y-35843480D01*
X74120964Y-35843491D01*
X74052820Y-36097808D01*
X74018455Y-36358843D01*
X73047526Y-36358843D01*
X73047610Y-35789866D01*
X73047629Y-35789230D01*
X73053580Y-35690861D01*
X73053748Y-35689478D01*
X73107728Y-35394924D01*
X73108065Y-35393557D01*
X73114711Y-35372229D01*
X73197155Y-35107654D01*
X73197649Y-35106353D01*
X73320556Y-34833266D01*
X73321199Y-34832039D01*
X73476132Y-34575747D01*
X73476921Y-34574605D01*
X73661615Y-34338861D01*
X73662536Y-34337822D01*
X73874291Y-34126067D01*
X73875330Y-34125146D01*
X74111074Y-33940452D01*
X74112216Y-33939663D01*
X74368508Y-33784730D01*
X74369735Y-33784087D01*
X74642822Y-33661180D01*
X74644123Y-33660686D01*
X74930031Y-33571594D01*
X74931393Y-33571259D01*
X75225947Y-33517279D01*
X75227330Y-33517111D01*
X75526609Y-33499008D01*
X75527315Y-33498987D01*
X75593902Y-33498987D01*
X134460010Y-33498987D01*
X134526597Y-33498987D01*
X134527303Y-33499008D01*
G37*
%TD.AperFunction*%
%TD*%
%TO.C,REF\u002A\u002A*%
D21*
X72526956Y-35990487D02*
X72526956Y-51490487D01*
X72526956Y-70490487D02*
X72526956Y-85990487D01*
X73526956Y-52490487D02*
X76526956Y-52490487D01*
X73526956Y-69490487D02*
X76526956Y-69490487D01*
X75526956Y-32990487D02*
X134526956Y-32990487D01*
X75526956Y-88990487D02*
X134526956Y-88990487D01*
X77526956Y-53490487D02*
X77526956Y-68490487D01*
X116526956Y-69990487D02*
X116526956Y-84990487D01*
X118526956Y-69990487D02*
X118526956Y-84990487D01*
X137526956Y-36490487D02*
X137526956Y-35990487D01*
X137526956Y-36490487D02*
X137526956Y-85990487D01*
X72526956Y-35990487D02*
G75*
G02*
X75526956Y-32990487I3000001J-1D01*
G01*
X72526956Y-70490487D02*
G75*
G02*
X73526956Y-69490487I999999J1D01*
G01*
X73526956Y-52490487D02*
G75*
G02*
X72526956Y-51490487I-1J999999D01*
G01*
X75526956Y-88990487D02*
G75*
G02*
X72526956Y-85990487I1J3000001D01*
G01*
X76526956Y-52490487D02*
G75*
G02*
X77526956Y-53490487I1J-999999D01*
G01*
X77526956Y-68490487D02*
G75*
G02*
X76526956Y-69490487I-999999J-1D01*
G01*
X116526956Y-69990487D02*
G75*
G02*
X118526956Y-69990487I1000000J0D01*
G01*
X118526956Y-84990487D02*
G75*
G02*
X116526956Y-84990487I-1000000J0D01*
G01*
X134526956Y-32990487D02*
G75*
G02*
X137526956Y-35990487I0J-3000000D01*
G01*
X137526956Y-85990487D02*
G75*
G02*
X134526956Y-88990487I-3000000J0D01*
G01*
D22*
X77526957Y-36490487D02*
G75*
G02*
X74526955Y-36490487I-1500001J0D01*
G01*
X74526955Y-36490487D02*
G75*
G02*
X77526957Y-36490487I1500001J0D01*
G01*
X77526957Y-85490487D02*
G75*
G02*
X74526955Y-85490487I-1500001J0D01*
G01*
X74526955Y-85490487D02*
G75*
G02*
X77526957Y-85490487I1500001J0D01*
G01*
X135526957Y-36490487D02*
G75*
G02*
X132526955Y-36490487I-1500001J0D01*
G01*
X132526955Y-36490487D02*
G75*
G02*
X135526957Y-36490487I1500001J0D01*
G01*
X135526957Y-85490487D02*
G75*
G02*
X132526955Y-85490487I-1500001J0D01*
G01*
X132526955Y-85490487D02*
G75*
G02*
X135526957Y-85490487I1500001J0D01*
G01*
%TD*%
M02*
