%TF.GenerationSoftware,KiCad,Pcbnew,10.0.0*%
%TF.CreationDate,2026-03-31T15:06:34+11:00*%
%TF.ProjectId,PiGarage,50694761-7261-4676-952e-6b696361645f,v0.1*%
%TF.SameCoordinates,Original*%
%TF.FileFunction,Legend,Top*%
%TF.FilePolarity,Positive*%
%FSLAX46Y46*%
G04 Gerber Fmt 4.6, Leading zero omitted, Abs format (unit mm)*
G04 Created by KiCad (PCBNEW 10.0.0) date 2026-03-31 15:06:34*
%MOMM*%
%LPD*%
G01*
G04 APERTURE LIST*
%ADD10C,0.150000*%
%ADD11C,0.120000*%
%ADD12C,0.127000*%
%ADD13C,0.200000*%
%ADD14C,0.250000*%
G04 APERTURE END LIST*
D10*
X80533064Y-43127090D02*
X80199731Y-43127090D01*
X80199731Y-43650900D02*
X80199731Y-42650900D01*
X80199731Y-42650900D02*
X80675921Y-42650900D01*
X81390207Y-43127090D02*
X81533064Y-43174709D01*
X81533064Y-43174709D02*
X81580683Y-43222328D01*
X81580683Y-43222328D02*
X81628302Y-43317566D01*
X81628302Y-43317566D02*
X81628302Y-43460423D01*
X81628302Y-43460423D02*
X81580683Y-43555661D01*
X81580683Y-43555661D02*
X81533064Y-43603281D01*
X81533064Y-43603281D02*
X81437826Y-43650900D01*
X81437826Y-43650900D02*
X81056874Y-43650900D01*
X81056874Y-43650900D02*
X81056874Y-42650900D01*
X81056874Y-42650900D02*
X81390207Y-42650900D01*
X81390207Y-42650900D02*
X81485445Y-42698519D01*
X81485445Y-42698519D02*
X81533064Y-42746138D01*
X81533064Y-42746138D02*
X81580683Y-42841376D01*
X81580683Y-42841376D02*
X81580683Y-42936614D01*
X81580683Y-42936614D02*
X81533064Y-43031852D01*
X81533064Y-43031852D02*
X81485445Y-43079471D01*
X81485445Y-43079471D02*
X81390207Y-43127090D01*
X81390207Y-43127090D02*
X81056874Y-43127090D01*
X82580683Y-43650900D02*
X82009255Y-43650900D01*
X82294969Y-43650900D02*
X82294969Y-42650900D01*
X82294969Y-42650900D02*
X82199731Y-42793757D01*
X82199731Y-42793757D02*
X82104493Y-42888995D01*
X82104493Y-42888995D02*
X82009255Y-42936614D01*
X96280476Y-68054295D02*
X96280476Y-68701914D01*
X96280476Y-68701914D02*
X96318571Y-68778104D01*
X96318571Y-68778104D02*
X96356666Y-68816200D01*
X96356666Y-68816200D02*
X96432857Y-68854295D01*
X96432857Y-68854295D02*
X96585238Y-68854295D01*
X96585238Y-68854295D02*
X96661428Y-68816200D01*
X96661428Y-68816200D02*
X96699523Y-68778104D01*
X96699523Y-68778104D02*
X96737619Y-68701914D01*
X96737619Y-68701914D02*
X96737619Y-68054295D01*
X97499523Y-68054295D02*
X97118571Y-68054295D01*
X97118571Y-68054295D02*
X97080475Y-68435247D01*
X97080475Y-68435247D02*
X97118571Y-68397152D01*
X97118571Y-68397152D02*
X97194761Y-68359057D01*
X97194761Y-68359057D02*
X97385237Y-68359057D01*
X97385237Y-68359057D02*
X97461428Y-68397152D01*
X97461428Y-68397152D02*
X97499523Y-68435247D01*
X97499523Y-68435247D02*
X97537618Y-68511438D01*
X97537618Y-68511438D02*
X97537618Y-68701914D01*
X97537618Y-68701914D02*
X97499523Y-68778104D01*
X97499523Y-68778104D02*
X97461428Y-68816200D01*
X97461428Y-68816200D02*
X97385237Y-68854295D01*
X97385237Y-68854295D02*
X97194761Y-68854295D01*
X97194761Y-68854295D02*
X97118571Y-68816200D01*
X97118571Y-68816200D02*
X97080475Y-68778104D01*
X131454819Y-48308094D02*
X130454819Y-48308094D01*
X130454819Y-48308094D02*
X130454819Y-48069999D01*
X130454819Y-48069999D02*
X130502438Y-47927142D01*
X130502438Y-47927142D02*
X130597676Y-47831904D01*
X130597676Y-47831904D02*
X130692914Y-47784285D01*
X130692914Y-47784285D02*
X130883390Y-47736666D01*
X130883390Y-47736666D02*
X131026247Y-47736666D01*
X131026247Y-47736666D02*
X131216723Y-47784285D01*
X131216723Y-47784285D02*
X131311961Y-47831904D01*
X131311961Y-47831904D02*
X131407200Y-47927142D01*
X131407200Y-47927142D02*
X131454819Y-48069999D01*
X131454819Y-48069999D02*
X131454819Y-48308094D01*
X130550057Y-47355713D02*
X130502438Y-47308094D01*
X130502438Y-47308094D02*
X130454819Y-47212856D01*
X130454819Y-47212856D02*
X130454819Y-46974761D01*
X130454819Y-46974761D02*
X130502438Y-46879523D01*
X130502438Y-46879523D02*
X130550057Y-46831904D01*
X130550057Y-46831904D02*
X130645295Y-46784285D01*
X130645295Y-46784285D02*
X130740533Y-46784285D01*
X130740533Y-46784285D02*
X130883390Y-46831904D01*
X130883390Y-46831904D02*
X131454819Y-47403332D01*
X131454819Y-47403332D02*
X131454819Y-46784285D01*
X88454819Y-78666480D02*
X89169104Y-78666480D01*
X89169104Y-78666480D02*
X89311961Y-78714099D01*
X89311961Y-78714099D02*
X89407200Y-78809337D01*
X89407200Y-78809337D02*
X89454819Y-78952194D01*
X89454819Y-78952194D02*
X89454819Y-79047432D01*
X88454819Y-78285527D02*
X88454819Y-77666480D01*
X88454819Y-77666480D02*
X88835771Y-77999813D01*
X88835771Y-77999813D02*
X88835771Y-77856956D01*
X88835771Y-77856956D02*
X88883390Y-77761718D01*
X88883390Y-77761718D02*
X88931009Y-77714099D01*
X88931009Y-77714099D02*
X89026247Y-77666480D01*
X89026247Y-77666480D02*
X89264342Y-77666480D01*
X89264342Y-77666480D02*
X89359580Y-77714099D01*
X89359580Y-77714099D02*
X89407200Y-77761718D01*
X89407200Y-77761718D02*
X89454819Y-77856956D01*
X89454819Y-77856956D02*
X89454819Y-78142670D01*
X89454819Y-78142670D02*
X89407200Y-78237908D01*
X89407200Y-78237908D02*
X89359580Y-78285527D01*
X136267566Y-52463469D02*
X137077089Y-52463469D01*
X137077089Y-52463469D02*
X137172327Y-52415850D01*
X137172327Y-52415850D02*
X137219947Y-52368231D01*
X137219947Y-52368231D02*
X137267566Y-52272993D01*
X137267566Y-52272993D02*
X137267566Y-52082517D01*
X137267566Y-52082517D02*
X137219947Y-51987279D01*
X137219947Y-51987279D02*
X137172327Y-51939660D01*
X137172327Y-51939660D02*
X137077089Y-51892041D01*
X137077089Y-51892041D02*
X136267566Y-51892041D01*
X137267566Y-50892041D02*
X137267566Y-51463469D01*
X137267566Y-51177755D02*
X136267566Y-51177755D01*
X136267566Y-51177755D02*
X136410423Y-51272993D01*
X136410423Y-51272993D02*
X136505661Y-51368231D01*
X136505661Y-51368231D02*
X136553280Y-51463469D01*
X88954819Y-49261904D02*
X89764342Y-49261904D01*
X89764342Y-49261904D02*
X89859580Y-49214285D01*
X89859580Y-49214285D02*
X89907200Y-49166666D01*
X89907200Y-49166666D02*
X89954819Y-49071428D01*
X89954819Y-49071428D02*
X89954819Y-48880952D01*
X89954819Y-48880952D02*
X89907200Y-48785714D01*
X89907200Y-48785714D02*
X89859580Y-48738095D01*
X89859580Y-48738095D02*
X89764342Y-48690476D01*
X89764342Y-48690476D02*
X88954819Y-48690476D01*
X88954819Y-47785714D02*
X88954819Y-47976190D01*
X88954819Y-47976190D02*
X89002438Y-48071428D01*
X89002438Y-48071428D02*
X89050057Y-48119047D01*
X89050057Y-48119047D02*
X89192914Y-48214285D01*
X89192914Y-48214285D02*
X89383390Y-48261904D01*
X89383390Y-48261904D02*
X89764342Y-48261904D01*
X89764342Y-48261904D02*
X89859580Y-48214285D01*
X89859580Y-48214285D02*
X89907200Y-48166666D01*
X89907200Y-48166666D02*
X89954819Y-48071428D01*
X89954819Y-48071428D02*
X89954819Y-47880952D01*
X89954819Y-47880952D02*
X89907200Y-47785714D01*
X89907200Y-47785714D02*
X89859580Y-47738095D01*
X89859580Y-47738095D02*
X89764342Y-47690476D01*
X89764342Y-47690476D02*
X89526247Y-47690476D01*
X89526247Y-47690476D02*
X89431009Y-47738095D01*
X89431009Y-47738095D02*
X89383390Y-47785714D01*
X89383390Y-47785714D02*
X89335771Y-47880952D01*
X89335771Y-47880952D02*
X89335771Y-48071428D01*
X89335771Y-48071428D02*
X89383390Y-48166666D01*
X89383390Y-48166666D02*
X89431009Y-48214285D01*
X89431009Y-48214285D02*
X89526247Y-48261904D01*
X89303413Y-65764196D02*
X90112936Y-65764196D01*
X90112936Y-65764196D02*
X90208174Y-65716577D01*
X90208174Y-65716577D02*
X90255794Y-65668958D01*
X90255794Y-65668958D02*
X90303413Y-65573720D01*
X90303413Y-65573720D02*
X90303413Y-65383244D01*
X90303413Y-65383244D02*
X90255794Y-65288006D01*
X90255794Y-65288006D02*
X90208174Y-65240387D01*
X90208174Y-65240387D02*
X90112936Y-65192768D01*
X90112936Y-65192768D02*
X89303413Y-65192768D01*
X89303413Y-64811815D02*
X89303413Y-64192768D01*
X89303413Y-64192768D02*
X89684365Y-64526101D01*
X89684365Y-64526101D02*
X89684365Y-64383244D01*
X89684365Y-64383244D02*
X89731984Y-64288006D01*
X89731984Y-64288006D02*
X89779603Y-64240387D01*
X89779603Y-64240387D02*
X89874841Y-64192768D01*
X89874841Y-64192768D02*
X90112936Y-64192768D01*
X90112936Y-64192768D02*
X90208174Y-64240387D01*
X90208174Y-64240387D02*
X90255794Y-64288006D01*
X90255794Y-64288006D02*
X90303413Y-64383244D01*
X90303413Y-64383244D02*
X90303413Y-64668958D01*
X90303413Y-64668958D02*
X90255794Y-64764196D01*
X90255794Y-64764196D02*
X90208174Y-64811815D01*
X115238095Y-54954819D02*
X115238095Y-55764342D01*
X115238095Y-55764342D02*
X115285714Y-55859580D01*
X115285714Y-55859580D02*
X115333333Y-55907200D01*
X115333333Y-55907200D02*
X115428571Y-55954819D01*
X115428571Y-55954819D02*
X115619047Y-55954819D01*
X115619047Y-55954819D02*
X115714285Y-55907200D01*
X115714285Y-55907200D02*
X115761904Y-55859580D01*
X115761904Y-55859580D02*
X115809523Y-55764342D01*
X115809523Y-55764342D02*
X115809523Y-54954819D01*
X116238095Y-55050057D02*
X116285714Y-55002438D01*
X116285714Y-55002438D02*
X116380952Y-54954819D01*
X116380952Y-54954819D02*
X116619047Y-54954819D01*
X116619047Y-54954819D02*
X116714285Y-55002438D01*
X116714285Y-55002438D02*
X116761904Y-55050057D01*
X116761904Y-55050057D02*
X116809523Y-55145295D01*
X116809523Y-55145295D02*
X116809523Y-55240533D01*
X116809523Y-55240533D02*
X116761904Y-55383390D01*
X116761904Y-55383390D02*
X116190476Y-55954819D01*
X116190476Y-55954819D02*
X116809523Y-55954819D01*
X101166666Y-76454819D02*
X101166666Y-77169104D01*
X101166666Y-77169104D02*
X101119047Y-77311961D01*
X101119047Y-77311961D02*
X101023809Y-77407200D01*
X101023809Y-77407200D02*
X100880952Y-77454819D01*
X100880952Y-77454819D02*
X100785714Y-77454819D01*
X101595238Y-76550057D02*
X101642857Y-76502438D01*
X101642857Y-76502438D02*
X101738095Y-76454819D01*
X101738095Y-76454819D02*
X101976190Y-76454819D01*
X101976190Y-76454819D02*
X102071428Y-76502438D01*
X102071428Y-76502438D02*
X102119047Y-76550057D01*
X102119047Y-76550057D02*
X102166666Y-76645295D01*
X102166666Y-76645295D02*
X102166666Y-76740533D01*
X102166666Y-76740533D02*
X102119047Y-76883390D01*
X102119047Y-76883390D02*
X101547619Y-77454819D01*
X101547619Y-77454819D02*
X102166666Y-77454819D01*
X122954819Y-64738094D02*
X121954819Y-64738094D01*
X121954819Y-64738094D02*
X121954819Y-64499999D01*
X121954819Y-64499999D02*
X122002438Y-64357142D01*
X122002438Y-64357142D02*
X122097676Y-64261904D01*
X122097676Y-64261904D02*
X122192914Y-64214285D01*
X122192914Y-64214285D02*
X122383390Y-64166666D01*
X122383390Y-64166666D02*
X122526247Y-64166666D01*
X122526247Y-64166666D02*
X122716723Y-64214285D01*
X122716723Y-64214285D02*
X122811961Y-64261904D01*
X122811961Y-64261904D02*
X122907200Y-64357142D01*
X122907200Y-64357142D02*
X122954819Y-64499999D01*
X122954819Y-64499999D02*
X122954819Y-64738094D01*
X121954819Y-63833332D02*
X121954819Y-63214285D01*
X121954819Y-63214285D02*
X122335771Y-63547618D01*
X122335771Y-63547618D02*
X122335771Y-63404761D01*
X122335771Y-63404761D02*
X122383390Y-63309523D01*
X122383390Y-63309523D02*
X122431009Y-63261904D01*
X122431009Y-63261904D02*
X122526247Y-63214285D01*
X122526247Y-63214285D02*
X122764342Y-63214285D01*
X122764342Y-63214285D02*
X122859580Y-63261904D01*
X122859580Y-63261904D02*
X122907200Y-63309523D01*
X122907200Y-63309523D02*
X122954819Y-63404761D01*
X122954819Y-63404761D02*
X122954819Y-63690475D01*
X122954819Y-63690475D02*
X122907200Y-63785713D01*
X122907200Y-63785713D02*
X122859580Y-63833332D01*
X122954819Y-75833333D02*
X123669104Y-75833333D01*
X123669104Y-75833333D02*
X123811961Y-75880952D01*
X123811961Y-75880952D02*
X123907200Y-75976190D01*
X123907200Y-75976190D02*
X123954819Y-76119047D01*
X123954819Y-76119047D02*
X123954819Y-76214285D01*
X123954819Y-74833333D02*
X123954819Y-75404761D01*
X123954819Y-75119047D02*
X122954819Y-75119047D01*
X122954819Y-75119047D02*
X123097676Y-75214285D01*
X123097676Y-75214285D02*
X123192914Y-75309523D01*
X123192914Y-75309523D02*
X123240533Y-75404761D01*
X83172319Y-49920265D02*
X83981842Y-49920265D01*
X83981842Y-49920265D02*
X84077080Y-49872646D01*
X84077080Y-49872646D02*
X84124700Y-49825027D01*
X84124700Y-49825027D02*
X84172319Y-49729789D01*
X84172319Y-49729789D02*
X84172319Y-49539313D01*
X84172319Y-49539313D02*
X84124700Y-49444075D01*
X84124700Y-49444075D02*
X84077080Y-49396456D01*
X84077080Y-49396456D02*
X83981842Y-49348837D01*
X83981842Y-49348837D02*
X83172319Y-49348837D01*
X83505652Y-48444075D02*
X84172319Y-48444075D01*
X83124700Y-48682170D02*
X83838985Y-48920265D01*
X83838985Y-48920265D02*
X83838985Y-48301218D01*
X115323435Y-61545419D02*
X115228197Y-61497800D01*
X115228197Y-61497800D02*
X115132959Y-61402562D01*
X115132959Y-61402562D02*
X114990102Y-61259704D01*
X114990102Y-61259704D02*
X114894864Y-61212085D01*
X114894864Y-61212085D02*
X114799626Y-61212085D01*
X114847245Y-61450181D02*
X114752007Y-61402562D01*
X114752007Y-61402562D02*
X114656769Y-61307323D01*
X114656769Y-61307323D02*
X114609150Y-61116847D01*
X114609150Y-61116847D02*
X114609150Y-60783514D01*
X114609150Y-60783514D02*
X114656769Y-60593038D01*
X114656769Y-60593038D02*
X114752007Y-60497800D01*
X114752007Y-60497800D02*
X114847245Y-60450181D01*
X114847245Y-60450181D02*
X115037721Y-60450181D01*
X115037721Y-60450181D02*
X115132959Y-60497800D01*
X115132959Y-60497800D02*
X115228197Y-60593038D01*
X115228197Y-60593038D02*
X115275816Y-60783514D01*
X115275816Y-60783514D02*
X115275816Y-61116847D01*
X115275816Y-61116847D02*
X115228197Y-61307323D01*
X115228197Y-61307323D02*
X115132959Y-61402562D01*
X115132959Y-61402562D02*
X115037721Y-61450181D01*
X115037721Y-61450181D02*
X114847245Y-61450181D01*
X115656769Y-60545419D02*
X115704388Y-60497800D01*
X115704388Y-60497800D02*
X115799626Y-60450181D01*
X115799626Y-60450181D02*
X116037721Y-60450181D01*
X116037721Y-60450181D02*
X116132959Y-60497800D01*
X116132959Y-60497800D02*
X116180578Y-60545419D01*
X116180578Y-60545419D02*
X116228197Y-60640657D01*
X116228197Y-60640657D02*
X116228197Y-60735895D01*
X116228197Y-60735895D02*
X116180578Y-60878752D01*
X116180578Y-60878752D02*
X115609150Y-61450181D01*
X115609150Y-61450181D02*
X116228197Y-61450181D01*
X123761905Y-55454819D02*
X123761905Y-54454819D01*
X123761905Y-54454819D02*
X124000000Y-54454819D01*
X124000000Y-54454819D02*
X124142857Y-54502438D01*
X124142857Y-54502438D02*
X124238095Y-54597676D01*
X124238095Y-54597676D02*
X124285714Y-54692914D01*
X124285714Y-54692914D02*
X124333333Y-54883390D01*
X124333333Y-54883390D02*
X124333333Y-55026247D01*
X124333333Y-55026247D02*
X124285714Y-55216723D01*
X124285714Y-55216723D02*
X124238095Y-55311961D01*
X124238095Y-55311961D02*
X124142857Y-55407200D01*
X124142857Y-55407200D02*
X124000000Y-55454819D01*
X124000000Y-55454819D02*
X123761905Y-55454819D01*
X125285714Y-55454819D02*
X124714286Y-55454819D01*
X125000000Y-55454819D02*
X125000000Y-54454819D01*
X125000000Y-54454819D02*
X124904762Y-54597676D01*
X124904762Y-54597676D02*
X124809524Y-54692914D01*
X124809524Y-54692914D02*
X124714286Y-54740533D01*
X135550057Y-62595238D02*
X135502438Y-62690476D01*
X135502438Y-62690476D02*
X135407200Y-62785714D01*
X135407200Y-62785714D02*
X135264342Y-62928571D01*
X135264342Y-62928571D02*
X135216723Y-63023809D01*
X135216723Y-63023809D02*
X135216723Y-63119047D01*
X135454819Y-63071428D02*
X135407200Y-63166666D01*
X135407200Y-63166666D02*
X135311961Y-63261904D01*
X135311961Y-63261904D02*
X135121485Y-63309523D01*
X135121485Y-63309523D02*
X134788152Y-63309523D01*
X134788152Y-63309523D02*
X134597676Y-63261904D01*
X134597676Y-63261904D02*
X134502438Y-63166666D01*
X134502438Y-63166666D02*
X134454819Y-63071428D01*
X134454819Y-63071428D02*
X134454819Y-62880952D01*
X134454819Y-62880952D02*
X134502438Y-62785714D01*
X134502438Y-62785714D02*
X134597676Y-62690476D01*
X134597676Y-62690476D02*
X134788152Y-62642857D01*
X134788152Y-62642857D02*
X135121485Y-62642857D01*
X135121485Y-62642857D02*
X135311961Y-62690476D01*
X135311961Y-62690476D02*
X135407200Y-62785714D01*
X135407200Y-62785714D02*
X135454819Y-62880952D01*
X135454819Y-62880952D02*
X135454819Y-63071428D01*
X135454819Y-61690476D02*
X135454819Y-62261904D01*
X135454819Y-61976190D02*
X134454819Y-61976190D01*
X134454819Y-61976190D02*
X134597676Y-62071428D01*
X134597676Y-62071428D02*
X134692914Y-62166666D01*
X134692914Y-62166666D02*
X134740533Y-62261904D01*
X120358333Y-43454819D02*
X119882143Y-43454819D01*
X119882143Y-43454819D02*
X119882143Y-42454819D01*
X121215476Y-43454819D02*
X120644048Y-43454819D01*
X120929762Y-43454819D02*
X120929762Y-42454819D01*
X120929762Y-42454819D02*
X120834524Y-42597676D01*
X120834524Y-42597676D02*
X120739286Y-42692914D01*
X120739286Y-42692914D02*
X120644048Y-42740533D01*
%TO.C,C22*%
D11*
X88507556Y-58859420D02*
X88507556Y-59140580D01*
X89527556Y-58859420D02*
X89527556Y-59140580D01*
%TO.C,R22*%
X94807500Y-74737258D02*
X94807500Y-74262742D01*
X95852500Y-74737258D02*
X95852500Y-74262742D01*
%TO.C,FB1*%
X81203619Y-44116081D02*
X81529177Y-44116081D01*
X81203619Y-45136081D02*
X81529177Y-45136081D01*
%TO.C,C16*%
X81990000Y-58859420D02*
X81990000Y-59140580D01*
X83010000Y-58859420D02*
X83010000Y-59140580D01*
%TO.C,R20*%
X96317500Y-74737258D02*
X96317500Y-74262742D01*
X97362500Y-74737258D02*
X97362500Y-74262742D01*
%TO.C,C20*%
X91526461Y-61533990D02*
X91245301Y-61533990D01*
X91526461Y-62553990D02*
X91245301Y-62553990D01*
%TO.C,C3*%
X134490000Y-45140580D02*
X134490000Y-44859420D01*
X135510000Y-45140580D02*
X135510000Y-44859420D01*
%TO.C,C14*%
X85490000Y-59148678D02*
X85490000Y-58867518D01*
X86510000Y-59148678D02*
X86510000Y-58867518D01*
%TO.C,C9*%
X81498502Y-45741710D02*
X81217342Y-45741710D01*
X81498502Y-46761710D02*
X81217342Y-46761710D01*
%TO.C,R1*%
X132977500Y-44762742D02*
X132977500Y-45237258D01*
X134022500Y-44762742D02*
X134022500Y-45237258D01*
%TO.C,U5*%
D12*
X95850000Y-69500000D02*
X98850000Y-69500000D01*
X95850000Y-72500000D02*
X98850000Y-72500000D01*
D13*
X93950000Y-69750000D02*
G75*
G02*
X93750000Y-69750000I-100000J0D01*
G01*
X93750000Y-69750000D02*
G75*
G02*
X93950000Y-69750000I100000J0D01*
G01*
%TO.C,R18*%
D11*
X105611930Y-56198306D02*
X105611930Y-55723790D01*
X106656930Y-56198306D02*
X106656930Y-55723790D01*
%TO.C,R11*%
X128237258Y-66477500D02*
X127762742Y-66477500D01*
X128237258Y-67522500D02*
X127762742Y-67522500D01*
%TO.C,R8*%
X112924531Y-51631484D02*
X112450015Y-51631484D01*
X112924531Y-52676484D02*
X112450015Y-52676484D01*
%TO.C,R3*%
X123737258Y-40977500D02*
X123262742Y-40977500D01*
X123737258Y-42022500D02*
X123262742Y-42022500D01*
%TO.C,C10*%
X81287337Y-53203329D02*
X81568497Y-53203329D01*
X81287337Y-54223329D02*
X81568497Y-54223329D01*
%TO.C,R15*%
X91418508Y-56198306D02*
X91418508Y-55723790D01*
X92463508Y-56198306D02*
X92463508Y-55723790D01*
%TO.C,C1*%
X131711252Y-55846684D02*
X130288748Y-55846684D01*
X131711252Y-57666684D02*
X130288748Y-57666684D01*
%TO.C,R19*%
X97827500Y-74737258D02*
X97827500Y-74262742D01*
X98872500Y-74737258D02*
X98872500Y-74262742D01*
%TO.C,R10*%
X125237258Y-66477500D02*
X124762742Y-66477500D01*
X125237258Y-67522500D02*
X124762742Y-67522500D01*
%TO.C,C18*%
X91546331Y-65954653D02*
X91265171Y-65954653D01*
X91546331Y-66974653D02*
X91265171Y-66974653D01*
%TO.C,C33*%
X102611100Y-67983787D02*
X102329940Y-67983787D01*
X102611100Y-69003787D02*
X102329940Y-69003787D01*
%TO.C,C6*%
X120306061Y-53590000D02*
X121728565Y-53590000D01*
X120306061Y-55410000D02*
X121728565Y-55410000D01*
%TO.C,D2*%
D14*
X123890000Y-43970000D02*
X123890000Y-51170000D01*
X124860000Y-43970000D02*
X123890000Y-43970000D01*
X124860000Y-51170000D02*
X123890000Y-51170000D01*
X126500000Y-47570000D02*
X127510000Y-47570000D01*
X126500000Y-48590000D02*
X127510000Y-48590000D01*
X127000000Y-47570000D02*
X126500000Y-47570000D01*
X127000000Y-47570000D02*
X126500000Y-48590000D01*
X127000000Y-49100000D02*
X127000000Y-47060000D01*
X127510000Y-48590000D02*
X127000000Y-47570000D01*
X130110000Y-43970000D02*
X129150000Y-43970000D01*
X130110000Y-43970000D02*
X130110000Y-51170000D01*
X130110000Y-46380000D02*
X123890000Y-46380000D01*
X130110000Y-51170000D02*
X129150000Y-51170000D01*
%TO.C,R26*%
D11*
X102233262Y-69457500D02*
X102707778Y-69457500D01*
X102233262Y-70502500D02*
X102707778Y-70502500D01*
%TO.C,J3*%
D12*
X74000000Y-75500000D02*
X80030000Y-75500000D01*
X74000000Y-81500000D02*
X74000000Y-75500000D01*
X78030000Y-81500000D02*
X74000000Y-81500000D01*
X80170000Y-81500000D02*
X85030000Y-81500000D01*
X82170000Y-75500000D02*
X88000000Y-75500000D01*
X88000000Y-75500000D02*
X88000000Y-81500000D01*
X88000000Y-81500000D02*
X87170000Y-81500000D01*
D13*
X79200000Y-85000000D02*
G75*
G02*
X79000000Y-85000000I-100000J0D01*
G01*
X79000000Y-85000000D02*
G75*
G02*
X79200000Y-85000000I100000J0D01*
G01*
%TO.C,R6*%
D11*
X112437742Y-53167500D02*
X112912258Y-53167500D01*
X112437742Y-54212500D02*
X112912258Y-54212500D01*
%TO.C,U1*%
X130910000Y-49540000D02*
X131005000Y-49540000D01*
X130910000Y-49865000D02*
X130910000Y-49540000D01*
X130910000Y-53660000D02*
X130910000Y-53335000D01*
X131005000Y-53660000D02*
X130910000Y-53660000D01*
X135935000Y-49540000D02*
X136030000Y-49540000D01*
X136030000Y-49540000D02*
X136030000Y-49865000D01*
X136030000Y-53335000D02*
X136030000Y-53660000D01*
X136030000Y-53660000D02*
X135935000Y-53660000D01*
X131000000Y-54200000D02*
X130670000Y-54440000D01*
X130670000Y-53960000D01*
X131000000Y-54200000D01*
G36*
X131000000Y-54200000D02*
G01*
X130670000Y-54440000D01*
X130670000Y-53960000D01*
X131000000Y-54200000D01*
G37*
%TO.C,R17*%
X100880789Y-56198306D02*
X100880789Y-55723790D01*
X101925789Y-56198306D02*
X101925789Y-55723790D01*
%TO.C,U6*%
X90258258Y-45146617D02*
X90258258Y-47381617D01*
X90258258Y-49381617D02*
X90258258Y-51616617D01*
X90258258Y-51616617D02*
X110698258Y-51616617D01*
X110698258Y-45146617D02*
X90258258Y-45146617D01*
X110698258Y-51616617D02*
X110698258Y-45146617D01*
X90258258Y-47381617D02*
G75*
G02*
X90258258Y-49381617I0J-1000000D01*
G01*
%TO.C,R25*%
X102233262Y-73971287D02*
X102707778Y-73971287D01*
X102233262Y-75016287D02*
X102707778Y-75016287D01*
%TO.C,R9*%
X112921248Y-56178593D02*
X112446732Y-56178593D01*
X112921248Y-57223593D02*
X112446732Y-57223593D01*
%TO.C,C26*%
X98527719Y-55820468D02*
X98527719Y-56101628D01*
X99547719Y-55820468D02*
X99547719Y-56101628D01*
%TO.C,C7*%
X112590000Y-46788748D02*
X112590000Y-48211252D01*
X114410000Y-46788748D02*
X114410000Y-48211252D01*
%TO.C,R7*%
X112924531Y-50129712D02*
X112450015Y-50129712D01*
X112924531Y-51174712D02*
X112450015Y-51174712D01*
%TO.C,C19*%
X91250055Y-63065454D02*
X91531215Y-63065454D01*
X91250055Y-64085454D02*
X91531215Y-64085454D01*
%TO.C,C8*%
X127400140Y-64365541D02*
X127400140Y-64646701D01*
X128420140Y-64365541D02*
X128420140Y-64646701D01*
%TO.C,C15*%
X87000488Y-58853685D02*
X87000488Y-59134845D01*
X88020488Y-58853685D02*
X88020488Y-59134845D01*
%TO.C,R12*%
X121677874Y-66048473D02*
X121677874Y-66522989D01*
X122722874Y-66048473D02*
X122722874Y-66522989D01*
%TO.C,C12*%
X85550128Y-71351123D02*
X85550128Y-71069963D01*
X86570128Y-71351123D02*
X86570128Y-71069963D01*
%TO.C,C13*%
X87050128Y-71351123D02*
X87050128Y-71069963D01*
X88070128Y-71351123D02*
X88070128Y-71069963D01*
%TO.C,U3*%
X79088594Y-62692292D02*
X79363594Y-62692292D01*
X79088594Y-67312292D02*
X79088594Y-62692292D01*
X79363594Y-67312292D02*
X79088594Y-67312292D01*
X88733594Y-62692292D02*
X89008594Y-62692292D01*
X89008594Y-62692292D02*
X89008594Y-67312292D01*
X89008594Y-67312292D02*
X88733594Y-67312292D01*
X89208594Y-62392292D02*
X88738594Y-62052292D01*
X89208594Y-61712292D01*
X89208594Y-62392292D01*
G36*
X89208594Y-62392292D02*
G01*
X88738594Y-62052292D01*
X89208594Y-61712292D01*
X89208594Y-62392292D01*
G37*
%TO.C,C4*%
X131490000Y-45140580D02*
X131490000Y-44859420D01*
X132510000Y-45140580D02*
X132510000Y-44859420D01*
%TO.C,C5*%
X120313748Y-51297955D02*
X121736252Y-51297955D01*
X120313748Y-53117955D02*
X121736252Y-53117955D01*
%TO.C,C28*%
X107990000Y-55820468D02*
X107990000Y-56101628D01*
X109010000Y-55820468D02*
X109010000Y-56101628D01*
%TO.C,U2*%
X115494795Y-51440000D02*
X117014795Y-51440000D01*
X115494795Y-51490000D02*
X115494795Y-51440000D01*
X115494795Y-53390000D02*
X115494795Y-52610000D01*
X115494795Y-54560000D02*
X115494795Y-54510000D01*
X117014795Y-51440000D02*
X117014795Y-52440000D01*
X117014795Y-53560000D02*
X117014795Y-54560000D01*
X117014795Y-54560000D02*
X115494795Y-54560000D01*
X115194795Y-52950000D02*
X114714795Y-52950000D01*
X114954795Y-52620000D01*
X115194795Y-52950000D01*
G36*
X115194795Y-52950000D02*
G01*
X114714795Y-52950000D01*
X114954795Y-52620000D01*
X115194795Y-52950000D01*
G37*
%TO.C,R16*%
X96149649Y-56198306D02*
X96149649Y-55723790D01*
X97194649Y-56198306D02*
X97194649Y-55723790D01*
%TO.C,J2*%
X92590000Y-78040000D02*
X95690000Y-78040000D01*
X92590000Y-87860000D02*
X92590000Y-78040000D01*
X95690000Y-76640000D02*
X97500000Y-76640000D01*
X95690000Y-78040000D02*
X95690000Y-76640000D01*
X97500000Y-87860000D02*
X92590000Y-87860000D01*
X97500000Y-87860000D02*
X102410000Y-87860000D01*
X99310000Y-76640000D02*
X97500000Y-76640000D01*
X99310000Y-78040000D02*
X99310000Y-76640000D01*
X99800000Y-88100000D02*
X102650000Y-88100000D01*
X102410000Y-78040000D02*
X99310000Y-78040000D01*
X102410000Y-87860000D02*
X102410000Y-78040000D01*
X102650000Y-88100000D02*
X102650000Y-85250000D01*
%TO.C,D3*%
X124302500Y-62990000D02*
X125822500Y-62990000D01*
X124302500Y-63990000D02*
X124302500Y-62990000D01*
X124302500Y-66110000D02*
X124302500Y-65110000D01*
X125822500Y-62990000D02*
X125822500Y-63040000D01*
X125822500Y-64160000D02*
X125822500Y-64940000D01*
X125822500Y-66060000D02*
X125822500Y-66110000D01*
X125822500Y-66110000D02*
X124302500Y-66110000D01*
X126362500Y-64930000D02*
X126122500Y-64600000D01*
X126602500Y-64600000D01*
X126362500Y-64930000D01*
G36*
X126362500Y-64930000D02*
G01*
X126122500Y-64600000D01*
X126602500Y-64600000D01*
X126362500Y-64930000D01*
G37*
%TO.C,R4*%
X123737258Y-42477500D02*
X123262742Y-42477500D01*
X123737258Y-43522500D02*
X123262742Y-43522500D01*
%TO.C,C24*%
X79523381Y-71373096D02*
X79523381Y-71091936D01*
X80543381Y-71373096D02*
X80543381Y-71091936D01*
%TO.C,C2*%
X128590580Y-53940000D02*
X128309420Y-53940000D01*
X128590580Y-54960000D02*
X128309420Y-54960000D01*
%TO.C,J1*%
X124640000Y-73890000D02*
X124640000Y-75700000D01*
X124640000Y-77510000D02*
X124640000Y-75700000D01*
X126040000Y-68690000D02*
X126040000Y-73890000D01*
X126040000Y-73890000D02*
X124640000Y-73890000D01*
X126040000Y-77510000D02*
X124640000Y-77510000D01*
X126040000Y-82710000D02*
X126040000Y-77510000D01*
X135860000Y-68690000D02*
X126040000Y-68690000D01*
X135860000Y-75700000D02*
X135860000Y-68690000D01*
X135860000Y-75700000D02*
X135860000Y-82710000D01*
X135860000Y-82710000D02*
X126040000Y-82710000D01*
X136100000Y-68450000D02*
X133250000Y-68450000D01*
X136100000Y-71300000D02*
X136100000Y-68450000D01*
%TO.C,U4*%
X79757500Y-48248361D02*
X79807500Y-48248361D01*
X79757500Y-50068361D02*
X79757500Y-48248361D01*
X79807500Y-50068361D02*
X79757500Y-50068361D01*
X81707500Y-50068361D02*
X80927500Y-50068361D01*
X82827500Y-48248361D02*
X82877500Y-48248361D01*
X82877500Y-48248361D02*
X82877500Y-50068361D01*
X82877500Y-50068361D02*
X82827500Y-50068361D01*
X83157500Y-47948361D02*
X82827500Y-47708361D01*
X83157500Y-47468361D01*
X83157500Y-47948361D01*
G36*
X83157500Y-47948361D02*
G01*
X82827500Y-47708361D01*
X83157500Y-47468361D01*
X83157500Y-47948361D01*
G37*
%TO.C,R21*%
X99337500Y-74737258D02*
X99337500Y-74262742D01*
X100382500Y-74737258D02*
X100382500Y-74262742D01*
%TO.C,C25*%
X93796578Y-55820468D02*
X93796578Y-56101628D01*
X94816578Y-55820468D02*
X94816578Y-56101628D01*
%TO.C,Q2*%
X114338674Y-58940362D02*
X114338674Y-57090362D01*
X115228674Y-58940362D02*
X114338674Y-58940362D01*
X117458674Y-58955362D02*
X116568674Y-58955362D01*
X117458674Y-58955362D02*
X117458674Y-57105362D01*
X117798674Y-56955362D02*
X117468674Y-56715362D01*
X117798674Y-56475362D01*
X117798674Y-56955362D01*
G36*
X117798674Y-56955362D02*
G01*
X117468674Y-56715362D01*
X117798674Y-56475362D01*
X117798674Y-56955362D01*
G37*
%TO.C,C32*%
X102329940Y-70974596D02*
X102611100Y-70974596D01*
X102329940Y-71994596D02*
X102611100Y-71994596D01*
%TO.C,R5*%
X112457545Y-54662056D02*
X112932061Y-54662056D01*
X112457545Y-55707056D02*
X112932061Y-55707056D01*
%TO.C,R23*%
X92707778Y-69457500D02*
X92233262Y-69457500D01*
X92707778Y-70502500D02*
X92233262Y-70502500D01*
%TO.C,D1*%
X127510000Y-55891679D02*
X119000000Y-55891679D01*
X127510000Y-55891679D02*
X127510000Y-62391679D01*
X127510000Y-62391679D02*
X119000000Y-62391679D01*
%TO.C,Q1*%
D12*
X128998293Y-64267769D02*
X128998293Y-60267769D01*
X134036293Y-64267769D02*
X134036293Y-60267769D01*
D13*
X129712293Y-66267769D02*
G75*
G02*
X129512293Y-66267769I-100000J0D01*
G01*
X129512293Y-66267769D02*
G75*
G02*
X129712293Y-66267769I100000J0D01*
G01*
%TO.C,C21*%
D11*
X90007556Y-59140580D02*
X90007556Y-58859420D01*
X91027556Y-59140580D02*
X91027556Y-58859420D01*
%TO.C,R2*%
X134652500Y-56762742D02*
X134652500Y-57237258D01*
X135697500Y-56762742D02*
X135697500Y-57237258D01*
%TO.C,R24*%
X92707778Y-73957500D02*
X92233262Y-73957500D01*
X92707778Y-75002500D02*
X92233262Y-75002500D01*
%TO.C,R14*%
X81018035Y-70995258D02*
X81018035Y-71469774D01*
X82063035Y-70995258D02*
X82063035Y-71469774D01*
%TO.C,C11*%
X81264620Y-51617404D02*
X81545780Y-51617404D01*
X81264620Y-52637404D02*
X81545780Y-52637404D01*
%TO.C,L1*%
D14*
X116000000Y-44200000D02*
X122990000Y-44200000D01*
X116000000Y-45420000D02*
X116000000Y-44200000D01*
X116000000Y-50800000D02*
X116000000Y-49590000D01*
X116020000Y-50800000D02*
X116000000Y-50780000D01*
X122990000Y-44200000D02*
X123000000Y-44200000D01*
X123000000Y-44200000D02*
X123000000Y-45420000D01*
X123000000Y-49590000D02*
X123000000Y-50800000D01*
X123000000Y-50800000D02*
X116020000Y-50800000D01*
%TO.C,R13*%
D11*
X82525190Y-71469774D02*
X82525190Y-70995258D01*
X83570190Y-71469774D02*
X83570190Y-70995258D01*
%TO.C,C30*%
X92611100Y-72470000D02*
X92329940Y-72470000D01*
X92611100Y-73490000D02*
X92329940Y-73490000D01*
%TO.C,C17*%
X91265171Y-67454653D02*
X91546331Y-67454653D01*
X91265171Y-68474653D02*
X91546331Y-68474653D01*
%TO.C,C27*%
X103258859Y-55820468D02*
X103258859Y-56101628D01*
X104278859Y-55820468D02*
X104278859Y-56101628D01*
%TO.C,C23*%
X84044844Y-71091936D02*
X84044844Y-71373096D01*
X85064844Y-71091936D02*
X85064844Y-71373096D01*
%TO.C,C31*%
X102329940Y-72479191D02*
X102611100Y-72479191D01*
X102329940Y-73499191D02*
X102611100Y-73499191D01*
%TO.C,C29*%
X92329940Y-70983787D02*
X92611100Y-70983787D01*
X92329940Y-72003787D02*
X92611100Y-72003787D01*
%TD*%
M02*
