%TF.GenerationSoftware,KiCad,Pcbnew,9.0.6*%
%TF.CreationDate,2026-03-20T10:49:18+11:00*%
%TF.ProjectId,PiGarage,50694761-7261-4676-952e-6b696361645f,v0.1*%
%TF.SameCoordinates,Original*%
%TF.FileFunction,Soldermask,Bot*%
%TF.FilePolarity,Negative*%
%FSLAX46Y46*%
G04 Gerber Fmt 4.6, Leading zero omitted, Abs format (unit mm)*
G04 Created by KiCad (PCBNEW 9.0.6) date 2026-03-20 10:49:18*
%MOMM*%
%LPD*%
G01*
G04 APERTURE LIST*
G04 Aperture macros list*
%AMRoundRect*
0 Rectangle with rounded corners*
0 $1 Rounding radius*
0 $2 $3 $4 $5 $6 $7 $8 $9 X,Y pos of 4 corners*
0 Add a 4 corners polygon primitive as box body*
4,1,4,$2,$3,$4,$5,$6,$7,$8,$9,$2,$3,0*
0 Add four circle primitives for the rounded corners*
1,1,$1+$1,$2,$3*
1,1,$1+$1,$4,$5*
1,1,$1+$1,$6,$7*
1,1,$1+$1,$8,$9*
0 Add four rect primitives between the rounded corners*
20,1,$1+$1,$2,$3,$4,$5,0*
20,1,$1+$1,$4,$5,$6,$7,0*
20,1,$1+$1,$6,$7,$8,$9,0*
20,1,$1+$1,$8,$9,$2,$3,0*%
G04 Aperture macros list end*
%ADD10RoundRect,0.250001X-1.099999X-1.399999X1.099999X-1.399999X1.099999X1.399999X-1.099999X1.399999X0*%
%ADD11O,2.700000X3.300000*%
%ADD12R,1.700000X1.700000*%
%ADD13C,1.700000*%
%ADD14C,1.200000*%
G04 APERTURE END LIST*
D10*
%TO.C,J1*%
X82626956Y-78490487D03*
D11*
X86826956Y-78490487D03*
X91026956Y-78490487D03*
X82626956Y-83990487D03*
X86826956Y-83990487D03*
X91026956Y-83990487D03*
%TD*%
D10*
%TO.C,J2*%
X98826956Y-78490487D03*
D11*
X103026956Y-78490487D03*
X98826956Y-83990487D03*
X103026956Y-83990487D03*
%TD*%
D12*
%TO.C,J4*%
X80924259Y-37865171D03*
D13*
X80924259Y-35325171D03*
X83464259Y-37865171D03*
X83464259Y-35325171D03*
X86004259Y-37865171D03*
X86004259Y-35325171D03*
X88544259Y-37865171D03*
X88544259Y-35325171D03*
X91084259Y-37865171D03*
X91084259Y-35325171D03*
X93624259Y-37865171D03*
X93624259Y-35325171D03*
X96164259Y-37865171D03*
X96164259Y-35325171D03*
X98704259Y-37865171D03*
X98704259Y-35325171D03*
X101244259Y-37865171D03*
X101244259Y-35325171D03*
X103784259Y-37865171D03*
X103784259Y-35325171D03*
X106324259Y-37865171D03*
X106324259Y-35325171D03*
X108864259Y-37865171D03*
X108864259Y-35325171D03*
X111404259Y-37865171D03*
X111404259Y-35325171D03*
X113944259Y-37865171D03*
X113944259Y-35325171D03*
X116484259Y-37865171D03*
X116484259Y-35325171D03*
X119024259Y-37865171D03*
X119024259Y-35325171D03*
X121564259Y-37865171D03*
X121564259Y-35325171D03*
X124104259Y-37865171D03*
X124104259Y-35325171D03*
X126644259Y-37865171D03*
X126644259Y-35325171D03*
X129184259Y-37865171D03*
X129184259Y-35325171D03*
%TD*%
D14*
%TO.C,J3*%
X78026956Y-45240487D03*
X84026956Y-45240487D03*
%TD*%
M02*
