M48
; DRILL file KiCad 10.0.0 date 2026-03-31T15:06:39
; FORMAT={-:-/ absolute / metric / decimal}
; #@! TF.CreationDate,2026-03-31T15:06:39+11:00
; #@! TF.GenerationSoftware,Kicad,Pcbnew,10.0.0
; #@! TF.FileFunction,Plated,1,2,PTH
FMAT,2
METRIC
; #@! TA.AperFunction,Plated,PTH,ViaDrill
T1C0.305
; #@! TA.AperFunction,Plated,PTH,ComponentDrill
T2C0.305
; #@! TA.AperFunction,Plated,PTH,ViaDrill
T3C0.305
; #@! TA.AperFunction,Plated,PTH,ComponentDrill
T4C1.000
; #@! TA.AperFunction,Plated,PTH,ComponentDrill
T5C1.400
%
G90
G05
T1
X74.588Y-41.7
X74.588Y-46.7
X74.588Y-71.7
X74.588Y-76.7
X74.588Y-81.7
X79.588Y-86.7
X80.0Y-64.5
X81.126Y-63.521
X81.549Y-69.5
X81.562Y-60.695
X82.5Y-63.916
X83.0Y-69.5
X83.464Y-66.318
X84.0Y-63.5
X84.367Y-66.318
X84.588Y-36.7
X84.588Y-41.7
X84.588Y-46.7
X84.588Y-51.7
X84.588Y-56.7
X84.588Y-76.7
X84.588Y-81.7
X84.588Y-86.7
X85.024Y-63.5
X85.271Y-66.318
X87.045Y-63.685
X87.838Y-65.72
X89.5Y-36.5
X89.588Y-46.7
X89.588Y-51.7
X89.588Y-56.7
X89.588Y-61.7
X89.588Y-66.7
X89.588Y-76.7
X89.588Y-81.7
X89.588Y-86.7
X90.319Y-74.489
X90.333Y-71.494
X90.354Y-72.98
X90.578Y-69.5
X91.508Y-41.631
X94.588Y-46.7
X94.588Y-61.7
X94.588Y-66.7
X95.2Y-68.319
X95.33Y-76.863
X96.629Y-41.631
X96.979Y-77.5
X97.464Y-71.0
X98.0Y-68.194
X98.021Y-76.325
X99.5Y-68.134
X99.588Y-41.7
X99.588Y-46.7
X99.588Y-61.7
X99.588Y-66.7
X99.86Y-72.692
X101.75Y-41.631
X104.5Y-68.5
X104.5Y-70.0
X104.588Y-41.7
X104.588Y-46.7
X104.588Y-61.7
X104.588Y-66.7
X104.588Y-76.7
X104.588Y-81.7
X104.588Y-86.7
X106.87Y-41.631
X109.588Y-41.7
X109.588Y-46.7
X109.588Y-56.7
X109.588Y-61.7
X109.588Y-66.7
X109.588Y-71.7
X109.588Y-76.7
X109.588Y-81.7
X109.588Y-86.7
X112.633Y-56.044
X112.675Y-52.908
X114.588Y-41.7
X114.588Y-66.7
X114.588Y-71.7
X114.588Y-76.7
X114.588Y-81.7
X114.588Y-86.7
X115.804Y-56.313
X117.5Y-50.5
X119.588Y-56.7
X119.588Y-61.7
X119.588Y-86.7
X121.0Y-42.5
X124.588Y-51.7
X124.588Y-61.7
X124.588Y-71.7
X124.588Y-76.7
X124.588Y-81.7
X124.588Y-86.7
X125.013Y-67.854
X125.013Y-69.643
X126.0Y-63.0
X127.5Y-47.5
X127.5Y-53.12
X129.0Y-67.0
X129.588Y-51.7
X129.588Y-61.7
X129.588Y-81.7
X129.588Y-86.7
X132.0Y-42.5
X134.0Y-58.0
X134.588Y-81.7
T2
X132.17Y-50.95
X132.17Y-52.25
X133.47Y-50.95
X133.47Y-52.25
X134.77Y-50.95
X134.77Y-52.25
T3
X77.532Y-34.344
X86.1Y-33.99
X93.5Y-33.99
X97.629Y-36.536
X105.5Y-33.99
X134.518Y-33.99
T4
X80.924Y-35.325
X80.924Y-37.865
X83.464Y-35.325
X83.464Y-37.865
X86.004Y-35.325
X86.004Y-37.865
X88.544Y-35.325
X88.544Y-37.865
X91.084Y-35.325
X91.084Y-37.865
X93.624Y-35.325
X93.624Y-37.865
X96.164Y-35.325
X96.164Y-37.865
X98.704Y-35.325
X98.704Y-37.865
X101.244Y-35.325
X101.244Y-37.865
X103.784Y-35.325
X103.784Y-37.865
X106.324Y-35.325
X106.324Y-37.865
X108.864Y-35.325
X108.864Y-37.865
X111.404Y-35.325
X111.404Y-37.865
X113.944Y-35.325
X113.944Y-37.865
X116.484Y-35.325
X116.484Y-37.865
X119.024Y-35.325
X119.024Y-37.865
X121.564Y-35.325
X121.564Y-37.865
X124.104Y-35.325
X124.104Y-37.865
X126.644Y-35.325
X126.644Y-37.865
X129.184Y-35.325
X129.184Y-37.865
T5
X95.4Y-80.0
X95.4Y-85.5
X99.6Y-80.0
X99.6Y-85.5
X128.0Y-71.5
X128.0Y-75.7
X128.0Y-79.9
X133.5Y-71.5
X133.5Y-75.7
X133.5Y-79.9
M30
