<?xml version="1.0" standalone="no"?>
 <!DOCTYPE svg PUBLIC "-//W3C//DTD SVG 1.1//EN" 
 "http://www.w3.org/Graphics/SVG/1.1/DTD/svg11.dtd"> 
<svg
  xmlns:svg="http://www.w3.org/2000/svg"
  xmlns="http://www.w3.org/2000/svg"
  xmlns:xlink="http://www.w3.org/1999/xlink"
  xmlns:inkscape="http://www.inkscape.org/namespaces/inkscape"
  version="1.1"
  width="210.0072mm" height="148.0058mm" viewBox="0.0000 0.0000 210.0072 148.0058">
<title>SVG Image created as PiGarage-Top Overlay.svg date 2026-03-31T14:45:00 </title>
  <desc>Image generated by PCBNEW </desc>
<g style="fill:#000000; fill-opacity:1.0000;stroke:#000000; stroke-opacity:1.0000;
stroke-linecap:round; stroke-linejoin:round;"
 transform="translate(0 0) scale(1 1)">
</g>
<g style="fill:none; 
stroke:#000000; stroke-width:0.1500; stroke-opacity:1; 
stroke-linecap:round; stroke-linejoin:round;">
<text x="81.3664" y="43.6961"
textLength="3.0595" font-size="1.3333" lengthAdjust="spacingAndGlyphs"
text-anchor="middle" opacity="0" stroke-opacity="0">FB1</text>
<g class="stroked-text"><desc>FB1</desc>
<path d="M80.5331 43.1271
L80.1997 43.1271
" />
<path d="M80.1997 43.6509
L80.1997 42.6509
" />
<path d="M80.1997 42.6509
L80.6759 42.6509
" />
<path d="M81.3902 43.1271
L81.5331 43.1747
" />
<path d="M81.5331 43.1747
L81.5807 43.2223
" />
<path d="M81.5807 43.2223
L81.6283 43.3176
" />
<path d="M81.6283 43.3176
L81.6283 43.4604
" />
<path d="M81.6283 43.4604
L81.5807 43.5557
" />
<path d="M81.5807 43.5557
L81.5331 43.6033
" />
<path d="M81.5331 43.6033
L81.4378 43.6509
" />
<path d="M81.4378 43.6509
L81.0569 43.6509
" />
<path d="M81.0569 43.6509
L81.0569 42.6509
" />
<path d="M81.0569 42.6509
L81.3902 42.6509
" />
<path d="M81.3902 42.6509
L81.4854 42.6985
" />
<path d="M81.4854 42.6985
L81.5331 42.7461
" />
<path d="M81.5331 42.7461
L81.5807 42.8414
" />
<path d="M81.5807 42.8414
L81.5807 42.9366
" />
<path d="M81.5807 42.9366
L81.5331 43.0319
" />
<path d="M81.5331 43.0319
L81.4854 43.0795
" />
<path d="M81.4854 43.0795
L81.3902 43.1271
" />
<path d="M81.3902 43.1271
L81.0569 43.1271
" />
<path d="M82.5807 43.6509
L82.0093 43.6509
" />
<path d="M82.2950 43.6509
L82.2950 42.6509
" />
<path d="M82.2950 42.6509
L82.1997 42.7938
" />
<path d="M82.1997 42.7938
L82.1045 42.8890
" />
<path d="M82.1045 42.8890
L82.0093 42.9366
" />
</g><text x="96.8900" y="68.8920"
textLength="1.8900" font-size="1.0667" lengthAdjust="spacingAndGlyphs"
text-anchor="middle" opacity="0" stroke-opacity="0">U5</text>
<g class="stroked-text"><desc>U5</desc>
<path d="M96.2805 68.0543
L96.2805 68.7019
" />
<path d="M96.2805 68.7019
L96.3186 68.7781
" />
<path d="M96.3186 68.7781
L96.3567 68.8162
" />
<path d="M96.3567 68.8162
L96.4329 68.8543
" />
<path d="M96.4329 68.8543
L96.5852 68.8543
" />
<path d="M96.5852 68.8543
L96.6614 68.8162
" />
<path d="M96.6614 68.8162
L96.6995 68.7781
" />
<path d="M96.6995 68.7781
L96.7376 68.7019
" />
<path d="M96.7376 68.7019
L96.7376 68.0543
" />
<path d="M97.4995 68.0543
L97.1186 68.0543
" />
<path d="M97.1186 68.0543
L97.0805 68.4352
" />
<path d="M97.0805 68.4352
L97.1186 68.3972
" />
<path d="M97.1186 68.3972
L97.1948 68.3591
" />
<path d="M97.1948 68.3591
L97.3852 68.3591
" />
<path d="M97.3852 68.3591
L97.4614 68.3972
" />
<path d="M97.4614 68.3972
L97.4995 68.4352
" />
<path d="M97.4995 68.4352
L97.5376 68.5114
" />
<path d="M97.5376 68.5114
L97.5376 68.7019
" />
<path d="M97.5376 68.7019
L97.4995 68.7781
" />
<path d="M97.4995 68.7781
L97.4614 68.8162
" />
<path d="M97.4614 68.8162
L97.3852 68.8543
" />
<path d="M97.3852 68.8543
L97.1948 68.8543
" />
<path d="M97.1948 68.8543
L97.1186 68.8162
" />
<path d="M97.1186 68.8162
L97.0805 68.7781
" />
</g><g transform="rotate(-90.000000 131.0000 47.5700)">
<text x="131.0000" y="48.0700"
textLength="2.2024" font-size="1.3333" lengthAdjust="spacingAndGlyphs"
text-anchor="middle" opacity="0" stroke-opacity="0">D2</text>
</g>
<g class="stroked-text"><desc>D2</desc>
<path d="M131.4548 48.3081
L130.4548 48.3081
" />
<path d="M130.4548 48.3081
L130.4548 48.0700
" />
<path d="M130.4548 48.0700
L130.5024 47.9271
" />
<path d="M130.5024 47.9271
L130.5977 47.8319
" />
<path d="M130.5977 47.8319
L130.6929 47.7843
" />
<path d="M130.6929 47.7843
L130.8834 47.7367
" />
<path d="M130.8834 47.7367
L131.0262 47.7367
" />
<path d="M131.0262 47.7367
L131.2167 47.7843
" />
<path d="M131.2167 47.7843
L131.3120 47.8319
" />
<path d="M131.3120 47.8319
L131.4072 47.9271
" />
<path d="M131.4072 47.9271
L131.4548 48.0700
" />
<path d="M131.4548 48.0700
L131.4548 48.3081
" />
<path d="M130.5501 47.3557
L130.5024 47.3081
" />
<path d="M130.5024 47.3081
L130.4548 47.2129
" />
<path d="M130.4548 47.2129
L130.4548 46.9748
" />
<path d="M130.4548 46.9748
L130.5024 46.8795
" />
<path d="M130.5024 46.8795
L130.5501 46.8319
" />
<path d="M130.5501 46.8319
L130.6453 46.7843
" />
<path d="M130.6453 46.7843
L130.7405 46.7843
" />
<path d="M130.7405 46.7843
L130.8834 46.8319
" />
<path d="M130.8834 46.8319
L131.4548 47.4033
" />
<path d="M131.4548 47.4033
L131.4548 46.7843
" />
</g><g transform="rotate(-90.000000 89.0000 78.3331)">
<text x="89.0000" y="78.8331"
textLength="1.9643" font-size="1.3333" lengthAdjust="spacingAndGlyphs"
text-anchor="middle" opacity="0" stroke-opacity="0">J3</text>
</g>
<g class="stroked-text"><desc>J3</desc>
<path d="M88.4548 78.6665
L89.1691 78.6665
" />
<path d="M89.1691 78.6665
L89.3120 78.7141
" />
<path d="M89.3120 78.7141
L89.4072 78.8093
" />
<path d="M89.4072 78.8093
L89.4548 78.9522
" />
<path d="M89.4548 78.9522
L89.4548 79.0474
" />
<path d="M88.4548 78.2855
L88.4548 77.6665
" />
<path d="M88.4548 77.6665
L88.8358 77.9998
" />
<path d="M88.8358 77.9998
L88.8358 77.8570
" />
<path d="M88.8358 77.8570
L88.8834 77.7617
" />
<path d="M88.8834 77.7617
L88.9310 77.7141
" />
<path d="M88.9310 77.7141
L89.0262 77.6665
" />
<path d="M89.0262 77.6665
L89.2643 77.6665
" />
<path d="M89.2643 77.6665
L89.3596 77.7141
" />
<path d="M89.3596 77.7141
L89.4072 77.7617
" />
<path d="M89.4072 77.7617
L89.4548 77.8570
" />
<path d="M89.4548 77.8570
L89.4548 78.1427
" />
<path d="M89.4548 78.1427
L89.4072 78.2379
" />
<path d="M89.4072 78.2379
L89.3596 78.2855
" />
</g><g transform="rotate(-90.000000 136.8127 51.7016)">
<text x="136.8127" y="52.2016"
textLength="2.2500" font-size="1.3333" lengthAdjust="spacingAndGlyphs"
text-anchor="middle" opacity="0" stroke-opacity="0">U1</text>
</g>
<g class="stroked-text"><desc>U1</desc>
<path d="M136.2676 52.4635
L137.0771 52.4635
" />
<path d="M137.0771 52.4635
L137.1723 52.4158
" />
<path d="M137.1723 52.4158
L137.2199 52.3682
" />
<path d="M137.2199 52.3682
L137.2676 52.2730
" />
<path d="M137.2676 52.2730
L137.2676 52.0825
" />
<path d="M137.2676 52.0825
L137.2199 51.9873
" />
<path d="M137.2199 51.9873
L137.1723 51.9397
" />
<path d="M137.1723 51.9397
L137.0771 51.8920
" />
<path d="M137.0771 51.8920
L136.2676 51.8920
" />
<path d="M137.2676 50.8920
L137.2676 51.4635
" />
<path d="M137.2676 51.1778
L136.2676 51.1778
" />
<path d="M136.2676 51.1778
L136.4104 51.2730
" />
<path d="M136.4104 51.2730
L136.5057 51.3682
" />
<path d="M136.5057 51.3682
L136.5533 51.4635
" />
</g><g transform="rotate(-90.000000 89.5000 48.5000)">
<text x="89.5000" y="49.0000"
textLength="2.2500" font-size="1.3333" lengthAdjust="spacingAndGlyphs"
text-anchor="middle" opacity="0" stroke-opacity="0">U6</text>
</g>
<g class="stroked-text"><desc>U6</desc>
<path d="M88.9548 49.2619
L89.7643 49.2619
" />
<path d="M89.7643 49.2619
L89.8596 49.2143
" />
<path d="M89.8596 49.2143
L89.9072 49.1667
" />
<path d="M89.9072 49.1667
L89.9548 49.0714
" />
<path d="M89.9548 49.0714
L89.9548 48.8810
" />
<path d="M89.9548 48.8810
L89.9072 48.7857
" />
<path d="M89.9072 48.7857
L89.8596 48.7381
" />
<path d="M89.8596 48.7381
L89.7643 48.6905
" />
<path d="M89.7643 48.6905
L88.9548 48.6905
" />
<path d="M88.9548 47.7857
L88.9548 47.9762
" />
<path d="M88.9548 47.9762
L89.0024 48.0714
" />
<path d="M89.0024 48.0714
L89.0501 48.1190
" />
<path d="M89.0501 48.1190
L89.1929 48.2143
" />
<path d="M89.1929 48.2143
L89.3834 48.2619
" />
<path d="M89.3834 48.2619
L89.7643 48.2619
" />
<path d="M89.7643 48.2619
L89.8596 48.2143
" />
<path d="M89.8596 48.2143
L89.9072 48.1667
" />
<path d="M89.9072 48.1667
L89.9548 48.0714
" />
<path d="M89.9548 48.0714
L89.9548 47.8810
" />
<path d="M89.9548 47.8810
L89.9072 47.7857
" />
<path d="M89.9072 47.7857
L89.8596 47.7381
" />
<path d="M89.8596 47.7381
L89.7643 47.6905
" />
<path d="M89.7643 47.6905
L89.5262 47.6905
" />
<path d="M89.5262 47.6905
L89.4310 47.7381
" />
<path d="M89.4310 47.7381
L89.3834 47.7857
" />
<path d="M89.3834 47.7857
L89.3358 47.8810
" />
<path d="M89.3358 47.8810
L89.3358 48.0714
" />
<path d="M89.3358 48.0714
L89.3834 48.1667
" />
<path d="M89.3834 48.1667
L89.4310 48.2143
" />
<path d="M89.4310 48.2143
L89.5262 48.2619
" />
</g><g transform="rotate(-90.000000 89.8486 65.0023)">
<text x="89.8486" y="65.5023"
textLength="2.2500" font-size="1.3333" lengthAdjust="spacingAndGlyphs"
text-anchor="middle" opacity="0" stroke-opacity="0">U3</text>
</g>
<g class="stroked-text"><desc>U3</desc>
<path d="M89.3034 65.7642
L90.1129 65.7642
" />
<path d="M90.1129 65.7642
L90.2082 65.7166
" />
<path d="M90.2082 65.7166
L90.2558 65.6690
" />
<path d="M90.2558 65.6690
L90.3034 65.5737
" />
<path d="M90.3034 65.5737
L90.3034 65.3832
" />
<path d="M90.3034 65.3832
L90.2558 65.2880
" />
<path d="M90.2558 65.2880
L90.2082 65.2404
" />
<path d="M90.2082 65.2404
L90.1129 65.1928
" />
<path d="M90.1129 65.1928
L89.3034 65.1928
" />
<path d="M89.3034 64.8118
L89.3034 64.1928
" />
<path d="M89.3034 64.1928
L89.6844 64.5261
" />
<path d="M89.6844 64.5261
L89.6844 64.3832
" />
<path d="M89.6844 64.3832
L89.7320 64.2880
" />
<path d="M89.7320 64.2880
L89.7796 64.2404
" />
<path d="M89.7796 64.2404
L89.8748 64.1928
" />
<path d="M89.8748 64.1928
L90.1129 64.1928
" />
<path d="M90.1129 64.1928
L90.2082 64.2404
" />
<path d="M90.2082 64.2404
L90.2558 64.2880
" />
<path d="M90.2558 64.2880
L90.3034 64.3832
" />
<path d="M90.3034 64.3832
L90.3034 64.6690
" />
<path d="M90.3034 64.6690
L90.2558 64.7642
" />
<path d="M90.2558 64.7642
L90.2082 64.8118
" />
</g><text x="116.0000" y="56.0000"
textLength="2.2500" font-size="1.3333" lengthAdjust="spacingAndGlyphs"
text-anchor="middle" opacity="0" stroke-opacity="0">U2</text>
<g class="stroked-text"><desc>U2</desc>
<path d="M115.2381 54.9548
L115.2381 55.7643
" />
<path d="M115.2381 55.7643
L115.2857 55.8596
" />
<path d="M115.2857 55.8596
L115.3333 55.9072
" />
<path d="M115.3333 55.9072
L115.4286 55.9548
" />
<path d="M115.4286 55.9548
L115.6190 55.9548
" />
<path d="M115.6190 55.9548
L115.7143 55.9072
" />
<path d="M115.7143 55.9072
L115.7619 55.8596
" />
<path d="M115.7619 55.8596
L115.8095 55.7643
" />
<path d="M115.8095 55.7643
L115.8095 54.9548
" />
<path d="M116.2381 55.0501
L116.2857 55.0024
" />
<path d="M116.2857 55.0024
L116.3810 54.9548
" />
<path d="M116.3810 54.9548
L116.6190 54.9548
" />
<path d="M116.6190 54.9548
L116.7143 55.0024
" />
<path d="M116.7143 55.0024
L116.7619 55.0501
" />
<path d="M116.7619 55.0501
L116.8095 55.1453
" />
<path d="M116.8095 55.1453
L116.8095 55.2405
" />
<path d="M116.8095 55.2405
L116.7619 55.3834
" />
<path d="M116.7619 55.3834
L116.1905 55.9548
" />
<path d="M116.1905 55.9548
L116.8095 55.9548
" />
</g><text x="101.5000" y="77.5000"
textLength="1.9643" font-size="1.3333" lengthAdjust="spacingAndGlyphs"
text-anchor="middle" opacity="0" stroke-opacity="0">J2</text>
<g class="stroked-text"><desc>J2</desc>
<path d="M101.1667 76.4548
L101.1667 77.1691
" />
<path d="M101.1667 77.1691
L101.1190 77.3120
" />
<path d="M101.1190 77.3120
L101.0238 77.4072
" />
<path d="M101.0238 77.4072
L100.8810 77.4548
" />
<path d="M100.8810 77.4548
L100.7857 77.4548
" />
<path d="M101.5952 76.5501
L101.6429 76.5024
" />
<path d="M101.6429 76.5024
L101.7381 76.4548
" />
<path d="M101.7381 76.4548
L101.9762 76.4548
" />
<path d="M101.9762 76.4548
L102.0714 76.5024
" />
<path d="M102.0714 76.5024
L102.1190 76.5501
" />
<path d="M102.1190 76.5501
L102.1667 76.6453
" />
<path d="M102.1667 76.6453
L102.1667 76.7405
" />
<path d="M102.1667 76.7405
L102.1190 76.8834
" />
<path d="M102.1190 76.8834
L101.5476 77.4548
" />
<path d="M101.5476 77.4548
L102.1667 77.4548
" />
</g><g transform="rotate(-90.000000 122.5000 64.0000)">
<text x="122.5000" y="64.5000"
textLength="2.2024" font-size="1.3333" lengthAdjust="spacingAndGlyphs"
text-anchor="middle" opacity="0" stroke-opacity="0">D3</text>
</g>
<g class="stroked-text"><desc>D3</desc>
<path d="M122.9548 64.7381
L121.9548 64.7381
" />
<path d="M121.9548 64.7381
L121.9548 64.5000
" />
<path d="M121.9548 64.5000
L122.0024 64.3571
" />
<path d="M122.0024 64.3571
L122.0977 64.2619
" />
<path d="M122.0977 64.2619
L122.1929 64.2143
" />
<path d="M122.1929 64.2143
L122.3834 64.1667
" />
<path d="M122.3834 64.1667
L122.5262 64.1667
" />
<path d="M122.5262 64.1667
L122.7167 64.2143
" />
<path d="M122.7167 64.2143
L122.8120 64.2619
" />
<path d="M122.8120 64.2619
L122.9072 64.3571
" />
<path d="M122.9072 64.3571
L122.9548 64.5000
" />
<path d="M122.9548 64.5000
L122.9548 64.7381
" />
<path d="M121.9548 63.8333
L121.9548 63.2143
" />
<path d="M121.9548 63.2143
L122.3358 63.5476
" />
<path d="M122.3358 63.5476
L122.3358 63.4048
" />
<path d="M122.3358 63.4048
L122.3834 63.3095
" />
<path d="M122.3834 63.3095
L122.4310 63.2619
" />
<path d="M122.4310 63.2619
L122.5262 63.2143
" />
<path d="M122.5262 63.2143
L122.7643 63.2143
" />
<path d="M122.7643 63.2143
L122.8596 63.2619
" />
<path d="M122.8596 63.2619
L122.9072 63.3095
" />
<path d="M122.9072 63.3095
L122.9548 63.4048
" />
<path d="M122.9548 63.4048
L122.9548 63.6905
" />
<path d="M122.9548 63.6905
L122.9072 63.7857
" />
<path d="M122.9072 63.7857
L122.8596 63.8333
" />
</g><g transform="rotate(-90.000000 123.5000 75.5000)">
<text x="123.5000" y="76.0000"
textLength="1.9643" font-size="1.3333" lengthAdjust="spacingAndGlyphs"
text-anchor="middle" opacity="0" stroke-opacity="0">J1</text>
</g>
<g class="stroked-text"><desc>J1</desc>
<path d="M122.9548 75.8333
L123.6691 75.8333
" />
<path d="M123.6691 75.8333
L123.8120 75.8810
" />
<path d="M123.8120 75.8810
L123.9072 75.9762
" />
<path d="M123.9072 75.9762
L123.9548 76.1190
" />
<path d="M123.9548 76.1190
L123.9548 76.2143
" />
<path d="M123.9548 74.8333
L123.9548 75.4048
" />
<path d="M123.9548 75.1190
L122.9548 75.1190
" />
<path d="M122.9548 75.1190
L123.0977 75.2143
" />
<path d="M123.0977 75.2143
L123.1929 75.3095
" />
<path d="M123.1929 75.3095
L123.2405 75.4048
" />
</g><g transform="rotate(-90.000000 83.7175 49.1584)">
<text x="83.7175" y="49.6584"
textLength="2.2500" font-size="1.3333" lengthAdjust="spacingAndGlyphs"
text-anchor="middle" opacity="0" stroke-opacity="0">U4</text>
</g>
<g class="stroked-text"><desc>U4</desc>
<path d="M83.1723 49.9203
L83.9818 49.9203
" />
<path d="M83.9818 49.9203
L84.0771 49.8726
" />
<path d="M84.0771 49.8726
L84.1247 49.8250
" />
<path d="M84.1247 49.8250
L84.1723 49.7298
" />
<path d="M84.1723 49.7298
L84.1723 49.5393
" />
<path d="M84.1723 49.5393
L84.1247 49.4441
" />
<path d="M84.1247 49.4441
L84.0771 49.3965
" />
<path d="M84.0771 49.3965
L83.9818 49.3488
" />
<path d="M83.9818 49.3488
L83.1723 49.3488
" />
<path d="M83.5057 48.4441
L84.1723 48.4441
" />
<path d="M83.1247 48.6822
L83.8390 48.9203
" />
<path d="M83.8390 48.9203
L83.8390 48.3012
" />
</g><text x="115.4187" y="61.4954"
textLength="2.2500" font-size="1.3333" lengthAdjust="spacingAndGlyphs"
text-anchor="middle" opacity="0" stroke-opacity="0">Q2</text>
<g class="stroked-text"><desc>Q2</desc>
<path d="M115.3234 61.5454
L115.2282 61.4978
" />
<path d="M115.2282 61.4978
L115.1330 61.4026
" />
<path d="M115.1330 61.4026
L114.9901 61.2597
" />
<path d="M114.9901 61.2597
L114.8949 61.2121
" />
<path d="M114.8949 61.2121
L114.7996 61.2121
" />
<path d="M114.8472 61.4502
L114.7520 61.4026
" />
<path d="M114.7520 61.4026
L114.6568 61.3073
" />
<path d="M114.6568 61.3073
L114.6091 61.1168
" />
<path d="M114.6091 61.1168
L114.6091 60.7835
" />
<path d="M114.6091 60.7835
L114.6568 60.5930
" />
<path d="M114.6568 60.5930
L114.7520 60.4978
" />
<path d="M114.7520 60.4978
L114.8472 60.4502
" />
<path d="M114.8472 60.4502
L115.0377 60.4502
" />
<path d="M115.0377 60.4502
L115.1330 60.4978
" />
<path d="M115.1330 60.4978
L115.2282 60.5930
" />
<path d="M115.2282 60.5930
L115.2758 60.7835
" />
<path d="M115.2758 60.7835
L115.2758 61.1168
" />
<path d="M115.2758 61.1168
L115.2282 61.3073
" />
<path d="M115.2282 61.3073
L115.1330 61.4026
" />
<path d="M115.1330 61.4026
L115.0377 61.4502
" />
<path d="M115.0377 61.4502
L114.8472 61.4502
" />
<path d="M115.6568 60.5454
L115.7044 60.4978
" />
<path d="M115.7044 60.4978
L115.7996 60.4502
" />
<path d="M115.7996 60.4502
L116.0377 60.4502
" />
<path d="M116.0377 60.4502
L116.1330 60.4978
" />
<path d="M116.1330 60.4978
L116.1806 60.5454
" />
<path d="M116.1806 60.5454
L116.2282 60.6407
" />
<path d="M116.2282 60.6407
L116.2282 60.7359
" />
<path d="M116.2282 60.7359
L116.1806 60.8788
" />
<path d="M116.1806 60.8788
L115.6091 61.4502
" />
<path d="M115.6091 61.4502
L116.2282 61.4502
" />
</g><text x="124.5000" y="55.5000"
textLength="2.2024" font-size="1.3333" lengthAdjust="spacingAndGlyphs"
text-anchor="middle" opacity="0" stroke-opacity="0">D1</text>
<g class="stroked-text"><desc>D1</desc>
<path d="M123.7619 55.4548
L123.7619 54.4548
" />
<path d="M123.7619 54.4548
L124.0000 54.4548
" />
<path d="M124.0000 54.4548
L124.1429 54.5024
" />
<path d="M124.1429 54.5024
L124.2381 54.5977
" />
<path d="M124.2381 54.5977
L124.2857 54.6929
" />
<path d="M124.2857 54.6929
L124.3333 54.8834
" />
<path d="M124.3333 54.8834
L124.3333 55.0262
" />
<path d="M124.3333 55.0262
L124.2857 55.2167
" />
<path d="M124.2857 55.2167
L124.2381 55.3120
" />
<path d="M124.2381 55.3120
L124.1429 55.4072
" />
<path d="M124.1429 55.4072
L124.0000 55.4548
" />
<path d="M124.0000 55.4548
L123.7619 55.4548
" />
<path d="M125.2857 55.4548
L124.7143 55.4548
" />
<path d="M125.0000 55.4548
L125.0000 54.4548
" />
<path d="M125.0000 54.4548
L124.9048 54.5977
" />
<path d="M124.9048 54.5977
L124.8095 54.6929
" />
<path d="M124.8095 54.6929
L124.7143 54.7405
" />
</g><g transform="rotate(-90.000000 135.0000 62.5000)">
<text x="135.0000" y="63.0000"
textLength="2.2500" font-size="1.3333" lengthAdjust="spacingAndGlyphs"
text-anchor="middle" opacity="0" stroke-opacity="0">Q1</text>
</g>
<g class="stroked-text"><desc>Q1</desc>
<path d="M135.5501 62.5952
L135.5024 62.6905
" />
<path d="M135.5024 62.6905
L135.4072 62.7857
" />
<path d="M135.4072 62.7857
L135.2643 62.9286
" />
<path d="M135.2643 62.9286
L135.2167 63.0238
" />
<path d="M135.2167 63.0238
L135.2167 63.1190
" />
<path d="M135.4548 63.0714
L135.4072 63.1667
" />
<path d="M135.4072 63.1667
L135.3120 63.2619
" />
<path d="M135.3120 63.2619
L135.1215 63.3095
" />
<path d="M135.1215 63.3095
L134.7882 63.3095
" />
<path d="M134.7882 63.3095
L134.5977 63.2619
" />
<path d="M134.5977 63.2619
L134.5024 63.1667
" />
<path d="M134.5024 63.1667
L134.4548 63.0714
" />
<path d="M134.4548 63.0714
L134.4548 62.8810
" />
<path d="M134.4548 62.8810
L134.5024 62.7857
" />
<path d="M134.5024 62.7857
L134.5977 62.6905
" />
<path d="M134.5977 62.6905
L134.7882 62.6429
" />
<path d="M134.7882 62.6429
L135.1215 62.6429
" />
<path d="M135.1215 62.6429
L135.3120 62.6905
" />
<path d="M135.3120 62.6905
L135.4072 62.7857
" />
<path d="M135.4072 62.7857
L135.4548 62.8810
" />
<path d="M135.4548 62.8810
L135.4548 63.0714
" />
<path d="M135.4548 61.6905
L135.4548 62.2619
" />
<path d="M135.4548 61.9762
L134.4548 61.9762
" />
<path d="M134.4548 61.9762
L134.5977 62.0714
" />
<path d="M134.5977 62.0714
L134.6929 62.1667
" />
<path d="M134.6929 62.1667
L134.7405 62.2619
" />
</g><text x="120.5250" y="43.5000"
textLength="2.0119" font-size="1.3333" lengthAdjust="spacingAndGlyphs"
text-anchor="middle" opacity="0" stroke-opacity="0">L1</text>
<g class="stroked-text"><desc>L1</desc>
<path d="M120.3583 43.4548
L119.8821 43.4548
" />
<path d="M119.8821 43.4548
L119.8821 42.4548
" />
<path d="M121.2155 43.4548
L120.6440 43.4548
" />
<path d="M120.9298 43.4548
L120.9298 42.4548
" />
<path d="M120.9298 42.4548
L120.8345 42.5977
" />
<path d="M120.8345 42.5977
L120.7393 42.6929
" />
<path d="M120.7393 42.6929
L120.6440 42.7405
" />
</g></g>
<g style="fill:none; 
stroke:#000000; stroke-width:0.1200; stroke-opacity:1; 
stroke-linecap:round; stroke-linejoin:round;">
<path d="M88.5076 58.8594
L88.5076 59.1406
" />
<path d="M89.5276 58.8594
L89.5276 59.1406
" />
<path d="M94.8075 74.7373
L94.8075 74.2627
" />
<path d="M95.8525 74.7373
L95.8525 74.2627
" />
<path d="M81.2036 44.1161
L81.5292 44.1161
" />
<path d="M81.2036 45.1361
L81.5292 45.1361
" />
<path d="M81.9900 58.8594
L81.9900 59.1406
" />
<path d="M83.0100 58.8594
L83.0100 59.1406
" />
<path d="M96.3175 74.7373
L96.3175 74.2627
" />
<path d="M97.3625 74.7373
L97.3625 74.2627
" />
<path d="M91.5265 61.5340
L91.2453 61.5340
" />
<path d="M91.5265 62.5540
L91.2453 62.5540
" />
<path d="M134.4900 45.1406
L134.4900 44.8594
" />
<path d="M135.5100 45.1406
L135.5100 44.8594
" />
<path d="M85.4900 59.1487
L85.4900 58.8675
" />
<path d="M86.5100 59.1487
L86.5100 58.8675
" />
<path d="M81.4985 45.7417
L81.2173 45.7417
" />
<path d="M81.4985 46.7617
L81.2173 46.7617
" />
<path d="M132.9775 44.7627
L132.9775 45.2373
" />
<path d="M134.0225 44.7627
L134.0225 45.2373
" />
</g>
<g style="fill:none; 
stroke:#000000; stroke-width:0.1270; stroke-opacity:1; 
stroke-linecap:round; stroke-linejoin:round;">
<path d="M95.8500 69.5000
L98.8500 69.5000
" />
<path d="M95.8500 72.5000
L98.8500 72.5000
" />
</g>
<g style="fill:none; 
stroke:#000000; stroke-width:0.2000; stroke-opacity:1; 
stroke-linecap:round; stroke-linejoin:round;">
<circle cx="93.8500" cy="69.7500" r="0.1000" /> 
</g>
<g style="fill:none; 
stroke:#000000; stroke-width:0.1200; stroke-opacity:1; 
stroke-linecap:round; stroke-linejoin:round;">
<path d="M105.6119 56.1983
L105.6119 55.7238
" />
<path d="M106.6569 56.1983
L106.6569 55.7238
" />
<path d="M128.2373 66.4775
L127.7627 66.4775
" />
<path d="M128.2373 67.5225
L127.7627 67.5225
" />
<path d="M112.9245 51.6315
L112.4500 51.6315
" />
<path d="M112.9245 52.6765
L112.4500 52.6765
" />
<path d="M123.7373 40.9775
L123.2627 40.9775
" />
<path d="M123.7373 42.0225
L123.2627 42.0225
" />
<path d="M81.2873 53.2033
L81.5685 53.2033
" />
<path d="M81.2873 54.2233
L81.5685 54.2233
" />
<path d="M91.4185 56.1983
L91.4185 55.7238
" />
<path d="M92.4635 56.1983
L92.4635 55.7238
" />
<path d="M131.7113 55.8467
L130.2887 55.8467
" />
<path d="M131.7113 57.6667
L130.2887 57.6667
" />
<path d="M97.8275 74.7373
L97.8275 74.2627
" />
<path d="M98.8725 74.7373
L98.8725 74.2627
" />
<path d="M125.2373 66.4775
L124.7627 66.4775
" />
<path d="M125.2373 67.5225
L124.7627 67.5225
" />
<path d="M91.5463 65.9547
L91.2652 65.9547
" />
<path d="M91.5463 66.9747
L91.2652 66.9747
" />
<path d="M102.6111 67.9838
L102.3299 67.9838
" />
<path d="M102.6111 69.0038
L102.3299 69.0038
" />
<path d="M120.3061 53.5900
L121.7286 53.5900
" />
<path d="M120.3061 55.4100
L121.7286 55.4100
" />
</g>
<g style="fill:none; 
stroke:#000000; stroke-width:0.2500; stroke-opacity:1; 
stroke-linecap:round; stroke-linejoin:round;">
<path d="M123.8900 43.9700
L123.8900 51.1700
" />
<path d="M124.8600 43.9700
L123.8900 43.9700
" />
<path d="M124.8600 51.1700
L123.8900 51.1700
" />
<path d="M126.5000 47.5700
L127.5100 47.5700
" />
<path d="M126.5000 48.5900
L127.5100 48.5900
" />
<path d="M127.0000 47.5700
L126.5000 47.5700
" />
<path d="M127.0000 47.5700
L126.5000 48.5900
" />
<path d="M127.0000 49.1000
L127.0000 47.0600
" />
<path d="M127.5100 48.5900
L127.0000 47.5700
" />
<path d="M130.1100 43.9700
L129.1500 43.9700
" />
<path d="M130.1100 43.9700
L130.1100 51.1700
" />
<path d="M130.1100 46.3800
L123.8900 46.3800
" />
<path d="M130.1100 51.1700
L129.1500 51.1700
" />
</g>
<g style="fill:none; 
stroke:#000000; stroke-width:0.1200; stroke-opacity:1; 
stroke-linecap:round; stroke-linejoin:round;">
<path d="M102.2333 69.4575
L102.7078 69.4575
" />
<path d="M102.2333 70.5025
L102.7078 70.5025
" />
</g>
<g style="fill:none; 
stroke:#000000; stroke-width:0.1270; stroke-opacity:1; 
stroke-linecap:round; stroke-linejoin:round;">
<path d="M74.0000 75.5000
L80.0300 75.5000
" />
<path d="M74.0000 81.5000
L74.0000 75.5000
" />
<path d="M78.0300 81.5000
L74.0000 81.5000
" />
<path d="M80.1700 81.5000
L85.0300 81.5000
" />
<path d="M82.1700 75.5000
L88.0000 75.5000
" />
<path d="M88.0000 75.5000
L88.0000 81.5000
" />
<path d="M88.0000 81.5000
L87.1700 81.5000
" />
</g>
<g style="fill:none; 
stroke:#000000; stroke-width:0.2000; stroke-opacity:1; 
stroke-linecap:round; stroke-linejoin:round;">
<circle cx="79.1000" cy="85.0000" r="0.1000" /> 
</g>
<g style="fill:none; 
stroke:#000000; stroke-width:0.1200; stroke-opacity:1; 
stroke-linecap:round; stroke-linejoin:round;">
<path d="M112.4377 53.1675
L112.9123 53.1675
" />
<path d="M112.4377 54.2125
L112.9123 54.2125
" />
<path d="M130.9100 49.5400
L131.0050 49.5400
" />
<path d="M130.9100 49.8650
L130.9100 49.5400
" />
<path d="M130.9100 53.6600
L130.9100 53.3350
" />
<path d="M131.0050 53.6600
L130.9100 53.6600
" />
<path d="M135.9350 49.5400
L136.0300 49.5400
" />
<path d="M136.0300 49.5400
L136.0300 49.8650
" />
<path d="M136.0300 53.3350
L136.0300 53.6600
" />
<path d="M136.0300 53.6600
L135.9350 53.6600
" />
<path style="fill:#000000; fill-opacity:1.0000; 
stroke:#000000; stroke-width:0.1200; stroke-opacity:1; 
stroke-linecap:round; stroke-linejoin:round;fill-rule:evenodd;"
d="M 131.0000,54.2000
130.6700,54.4400
130.6700,53.9600
Z" /> 
</g>
<g style="fill:none; 
stroke:#000000; stroke-width:0.1200; stroke-opacity:1; 
stroke-linecap:round; stroke-linejoin:round;">
<path d="M100.8808 56.1983
L100.8808 55.7238
" />
<path d="M101.9258 56.1983
L101.9258 55.7238
" />
<path d="M90.2583 45.1466
L90.2583 47.3816
" />
<path d="M90.2583 49.3816
L90.2583 51.6166
" />
<path d="M90.2583 51.6166
L110.6983 51.6166
" />
<path d="M110.6983 45.1466
L90.2583 45.1466
" />
<path d="M110.6983 51.6166
L110.6983 45.1466
" />
<path d="M90.2583 49.3816 A1.0000 1.0000 0.0 0 0 90.2583 47.3816" />
<path d="M102.2333 73.9713
L102.7078 73.9713
" />
<path d="M102.2333 75.0163
L102.7078 75.0163
" />
<path d="M112.9212 56.1786
L112.4467 56.1786
" />
<path d="M112.9212 57.2236
L112.4467 57.2236
" />
<path d="M98.5277 55.8205
L98.5277 56.1016
" />
<path d="M99.5477 55.8205
L99.5477 56.1016
" />
<path d="M112.5900 46.7887
L112.5900 48.2113
" />
<path d="M114.4100 46.7887
L114.4100 48.2113
" />
<path d="M112.9245 50.1297
L112.4500 50.1297
" />
<path d="M112.9245 51.1747
L112.4500 51.1747
" />
<path d="M91.2501 63.0655
L91.5312 63.0655
" />
<path d="M91.2501 64.0855
L91.5312 64.0855
" />
<path d="M127.4001 64.3655
L127.4001 64.6467
" />
<path d="M128.4201 64.3655
L128.4201 64.6467
" />
<path d="M87.0005 58.8537
L87.0005 59.1348
" />
<path d="M88.0205 58.8537
L88.0205 59.1348
" />
<path d="M121.6779 66.0485
L121.6779 66.5230
" />
<path d="M122.7229 66.0485
L122.7229 66.5230
" />
<path d="M85.5501 71.3511
L85.5501 71.0700
" />
<path d="M86.5701 71.3511
L86.5701 71.0700
" />
<path d="M87.0501 71.3511
L87.0501 71.0700
" />
<path d="M88.0701 71.3511
L88.0701 71.0700
" />
<path d="M79.0886 62.6923
L79.3636 62.6923
" />
<path d="M79.0886 67.3123
L79.0886 62.6923
" />
<path d="M79.3636 67.3123
L79.0886 67.3123
" />
<path d="M88.7336 62.6923
L89.0086 62.6923
" />
<path d="M89.0086 62.6923
L89.0086 67.3123
" />
<path d="M89.0086 67.3123
L88.7336 67.3123
" />
<path style="fill:#000000; fill-opacity:1.0000; 
stroke:#000000; stroke-width:0.1200; stroke-opacity:1; 
stroke-linecap:round; stroke-linejoin:round;fill-rule:evenodd;"
d="M 89.2086,62.3923
88.7386,62.0523
89.2086,61.7123
Z" /> 
</g>
<g style="fill:none; 
stroke:#000000; stroke-width:0.1200; stroke-opacity:1; 
stroke-linecap:round; stroke-linejoin:round;">
<path d="M131.4900 45.1406
L131.4900 44.8594
" />
<path d="M132.5100 45.1406
L132.5100 44.8594
" />
<path d="M120.3137 51.2980
L121.7363 51.2980
" />
<path d="M120.3137 53.1180
L121.7363 53.1180
" />
<path d="M107.9900 55.8205
L107.9900 56.1016
" />
<path d="M109.0100 55.8205
L109.0100 56.1016
" />
<path d="M115.4948 51.4400
L117.0148 51.4400
" />
<path d="M115.4948 51.4900
L115.4948 51.4400
" />
<path d="M115.4948 53.3900
L115.4948 52.6100
" />
<path d="M115.4948 54.5600
L115.4948 54.5100
" />
<path d="M117.0148 51.4400
L117.0148 52.4400
" />
<path d="M117.0148 53.5600
L117.0148 54.5600
" />
<path d="M117.0148 54.5600
L115.4948 54.5600
" />
<path style="fill:#000000; fill-opacity:1.0000; 
stroke:#000000; stroke-width:0.1200; stroke-opacity:1; 
stroke-linecap:round; stroke-linejoin:round;fill-rule:evenodd;"
d="M 115.1948,52.9500
114.7148,52.9500
114.9548,52.6200
Z" /> 
</g>
<g style="fill:none; 
stroke:#000000; stroke-width:0.1200; stroke-opacity:1; 
stroke-linecap:round; stroke-linejoin:round;">
<path d="M96.1496 56.1983
L96.1496 55.7238
" />
<path d="M97.1946 56.1983
L97.1946 55.7238
" />
<path d="M92.5900 78.0400
L95.6900 78.0400
" />
<path d="M92.5900 87.8600
L92.5900 78.0400
" />
<path d="M95.6900 76.6400
L97.5000 76.6400
" />
<path d="M95.6900 78.0400
L95.6900 76.6400
" />
<path d="M97.5000 87.8600
L92.5900 87.8600
" />
<path d="M97.5000 87.8600
L102.4100 87.8600
" />
<path d="M99.3100 76.6400
L97.5000 76.6400
" />
<path d="M99.3100 78.0400
L99.3100 76.6400
" />
<path d="M99.8000 88.1000
L102.6500 88.1000
" />
<path d="M102.4100 78.0400
L99.3100 78.0400
" />
<path d="M102.4100 87.8600
L102.4100 78.0400
" />
<path d="M102.6500 88.1000
L102.6500 85.2500
" />
<path d="M124.3025 62.9900
L125.8225 62.9900
" />
<path d="M124.3025 63.9900
L124.3025 62.9900
" />
<path d="M124.3025 66.1100
L124.3025 65.1100
" />
<path d="M125.8225 62.9900
L125.8225 63.0400
" />
<path d="M125.8225 64.1600
L125.8225 64.9400
" />
<path d="M125.8225 66.0600
L125.8225 66.1100
" />
<path d="M125.8225 66.1100
L124.3025 66.1100
" />
<path style="fill:#000000; fill-opacity:1.0000; 
stroke:#000000; stroke-width:0.1200; stroke-opacity:1; 
stroke-linecap:round; stroke-linejoin:round;fill-rule:evenodd;"
d="M 126.3625,64.9300
126.1225,64.6000
126.6025,64.6000
Z" /> 
</g>
<g style="fill:none; 
stroke:#000000; stroke-width:0.1200; stroke-opacity:1; 
stroke-linecap:round; stroke-linejoin:round;">
<path d="M123.7373 42.4775
L123.2627 42.4775
" />
<path d="M123.7373 43.5225
L123.2627 43.5225
" />
<path d="M79.5234 71.3731
L79.5234 71.0919
" />
<path d="M80.5434 71.3731
L80.5434 71.0919
" />
<path d="M128.5906 53.9400
L128.3094 53.9400
" />
<path d="M128.5906 54.9600
L128.3094 54.9600
" />
<path d="M124.6400 73.8900
L124.6400 75.7000
" />
<path d="M124.6400 77.5100
L124.6400 75.7000
" />
<path d="M126.0400 68.6900
L126.0400 73.8900
" />
<path d="M126.0400 73.8900
L124.6400 73.8900
" />
<path d="M126.0400 77.5100
L124.6400 77.5100
" />
<path d="M126.0400 82.7100
L126.0400 77.5100
" />
<path d="M135.8600 68.6900
L126.0400 68.6900
" />
<path d="M135.8600 75.7000
L135.8600 68.6900
" />
<path d="M135.8600 75.7000
L135.8600 82.7100
" />
<path d="M135.8600 82.7100
L126.0400 82.7100
" />
<path d="M136.1000 68.4500
L133.2500 68.4500
" />
<path d="M136.1000 71.3000
L136.1000 68.4500
" />
<path d="M79.7575 48.2484
L79.8075 48.2484
" />
<path d="M79.7575 50.0684
L79.7575 48.2484
" />
<path d="M79.8075 50.0684
L79.7575 50.0684
" />
<path d="M81.7075 50.0684
L80.9275 50.0684
" />
<path d="M82.8275 48.2484
L82.8775 48.2484
" />
<path d="M82.8775 48.2484
L82.8775 50.0684
" />
<path d="M82.8775 50.0684
L82.8275 50.0684
" />
<path style="fill:#000000; fill-opacity:1.0000; 
stroke:#000000; stroke-width:0.1200; stroke-opacity:1; 
stroke-linecap:round; stroke-linejoin:round;fill-rule:evenodd;"
d="M 83.1575,47.9484
82.8275,47.7084
83.1575,47.4684
Z" /> 
</g>
<g style="fill:none; 
stroke:#000000; stroke-width:0.1200; stroke-opacity:1; 
stroke-linecap:round; stroke-linejoin:round;">
<path d="M99.3375 74.7373
L99.3375 74.2627
" />
<path d="M100.3825 74.7373
L100.3825 74.2627
" />
<path d="M93.7966 55.8205
L93.7966 56.1016
" />
<path d="M94.8166 55.8205
L94.8166 56.1016
" />
<path d="M114.3387 58.9404
L114.3387 57.0904
" />
<path d="M115.2287 58.9404
L114.3387 58.9404
" />
<path d="M117.4587 58.9554
L116.5687 58.9554
" />
<path d="M117.4587 58.9554
L117.4587 57.1054
" />
<path style="fill:#000000; fill-opacity:1.0000; 
stroke:#000000; stroke-width:0.1200; stroke-opacity:1; 
stroke-linecap:round; stroke-linejoin:round;fill-rule:evenodd;"
d="M 117.7987,56.9554
117.4687,56.7154
117.7987,56.4754
Z" /> 
</g>
<g style="fill:none; 
stroke:#000000; stroke-width:0.1200; stroke-opacity:1; 
stroke-linecap:round; stroke-linejoin:round;">
<path d="M102.3299 70.9746
L102.6111 70.9746
" />
<path d="M102.3299 71.9946
L102.6111 71.9946
" />
<path d="M112.4575 54.6621
L112.9321 54.6621
" />
<path d="M112.4575 55.7071
L112.9321 55.7071
" />
<path d="M92.7078 69.4575
L92.2333 69.4575
" />
<path d="M92.7078 70.5025
L92.2333 70.5025
" />
<path d="M127.5100 55.8917
L119.0000 55.8917
" />
<path d="M127.5100 55.8917
L127.5100 62.3917
" />
<path d="M127.5100 62.3917
L119.0000 62.3917
" />
</g>
<g style="fill:none; 
stroke:#000000; stroke-width:0.1270; stroke-opacity:1; 
stroke-linecap:round; stroke-linejoin:round;">
<path d="M128.9983 64.2678
L128.9983 60.2678
" />
<path d="M134.0363 64.2678
L134.0363 60.2678
" />
</g>
<g style="fill:none; 
stroke:#000000; stroke-width:0.2000; stroke-opacity:1; 
stroke-linecap:round; stroke-linejoin:round;">
<circle cx="129.6123" cy="66.2678" r="0.1000" /> 
</g>
<g style="fill:none; 
stroke:#000000; stroke-width:0.1200; stroke-opacity:1; 
stroke-linecap:round; stroke-linejoin:round;">
<path d="M90.0076 59.1406
L90.0076 58.8594
" />
<path d="M91.0276 59.1406
L91.0276 58.8594
" />
<path d="M134.6525 56.7627
L134.6525 57.2373
" />
<path d="M135.6975 56.7627
L135.6975 57.2373
" />
<path d="M92.7078 73.9575
L92.2333 73.9575
" />
<path d="M92.7078 75.0025
L92.2333 75.0025
" />
<path d="M81.0180 70.9953
L81.0180 71.4698
" />
<path d="M82.0630 70.9953
L82.0630 71.4698
" />
<path d="M81.2646 51.6174
L81.5458 51.6174
" />
<path d="M81.2646 52.6374
L81.5458 52.6374
" />
</g>
<g style="fill:none; 
stroke:#000000; stroke-width:0.2500; stroke-opacity:1; 
stroke-linecap:round; stroke-linejoin:round;">
<path d="M116.0000 44.2000
L122.9900 44.2000
" />
<path d="M116.0000 45.4200
L116.0000 44.2000
" />
<path d="M116.0000 50.8000
L116.0000 49.5900
" />
<path d="M116.0200 50.8000
L116.0000 50.7800
" />
<path d="M122.9900 44.2000
L123.0000 44.2000
" />
<path d="M123.0000 44.2000
L123.0000 45.4200
" />
<path d="M123.0000 49.5900
L123.0000 50.8000
" />
<path d="M123.0000 50.8000
L116.0200 50.8000
" />
</g>
<g style="fill:none; 
stroke:#000000; stroke-width:0.1200; stroke-opacity:1; 
stroke-linecap:round; stroke-linejoin:round;">
<path d="M82.5252 71.4698
L82.5252 70.9953
" />
<path d="M83.5702 71.4698
L83.5702 70.9953
" />
<path d="M92.6111 72.4700
L92.3299 72.4700
" />
<path d="M92.6111 73.4900
L92.3299 73.4900
" />
<path d="M91.2652 67.4547
L91.5463 67.4547
" />
<path d="M91.2652 68.4747
L91.5463 68.4747
" />
<path d="M103.2589 55.8205
L103.2589 56.1016
" />
<path d="M104.2789 55.8205
L104.2789 56.1016
" />
<path d="M84.0448 71.0919
L84.0448 71.3731
" />
<path d="M85.0648 71.0919
L85.0648 71.3731
" />
<path d="M102.3299 72.4792
L102.6111 72.4792
" />
<path d="M102.3299 73.4992
L102.6111 73.4992
" />
<path d="M92.3299 70.9838
L92.6111 70.9838
" />
<path d="M92.3299 72.0038
L92.6111 72.0038
" />
</g> 
</svg>
