<?xml version="1.0" standalone="no"?>
 <!DOCTYPE svg PUBLIC "-//W3C//DTD SVG 1.1//EN" 
 "http://www.w3.org/Graphics/SVG/1.1/DTD/svg11.dtd"> 
<svg
  xmlns:svg="http://www.w3.org/2000/svg"
  xmlns="http://www.w3.org/2000/svg"
  xmlns:xlink="http://www.w3.org/1999/xlink"
  xmlns:inkscape="http://www.inkscape.org/namespaces/inkscape"
  version="1.1"
  width="210.0072mm" height="148.0058mm" viewBox="0.0000 0.0000 210.0072 148.0058">
<title>SVG Image created as PiGarage-F_Paste.svg date 2026-03-31T14:45:00 </title>
  <desc>Image generated by PCBNEW </desc>
<g style="fill:#000000; fill-opacity:1.0000;stroke:#000000; stroke-opacity:1.0000;
stroke-linecap:round; stroke-linejoin:round;"
 transform="translate(0 0) scale(1 1)">
<path style="fill:#000000; fill-opacity:1.0000; stroke:none;fill-rule:evenodd;"
d="M 89.2676,57.7750
89.3537,57.7921
89.4267,57.8409
89.4754,57.9139
89.4926,58.0000
89.4926,58.4500
89.4754,58.5361
89.4267,58.6091
89.3537,58.6579
89.2676,58.6750
88.7676,58.6750
88.6815,58.6579
88.6085,58.6091
88.5597,58.5361
88.5426,58.4500
88.5426,58.0000
88.5597,57.9139
88.6085,57.8409
88.6815,57.7921
88.7676,57.7750
Z" /> 
<path style="fill:#000000; fill-opacity:1.0000; stroke:none;fill-rule:evenodd;"
d="M 89.2676,59.3250
89.3537,59.3421
89.4267,59.3909
89.4754,59.4639
89.4926,59.5500
89.4926,60.0000
89.4754,60.0861
89.4267,60.1591
89.3537,60.2079
89.2676,60.2250
88.7676,60.2250
88.6815,60.2079
88.6085,60.1591
88.5597,60.0861
88.5426,60.0000
88.5426,59.5500
88.5597,59.4639
88.6085,59.3909
88.6815,59.3421
88.7676,59.3250
Z" /> 
<path style="fill:#000000; fill-opacity:1.0000; stroke:none;fill-rule:evenodd;"
d="M 95.0550,75.7250
94.9785,75.7098
94.9136,75.6664
94.8702,75.6015
94.8550,75.5250
94.8550,75.1250
94.8702,75.0485
94.9136,74.9836
94.9785,74.9402
95.0550,74.9250
95.6050,74.9250
95.6815,74.9402
95.7464,74.9836
95.7898,75.0485
95.8050,75.1250
95.8050,75.5250
95.7898,75.6015
95.7464,75.6664
95.6815,75.7098
95.6050,75.7250
Z" /> 
<path style="fill:#000000; fill-opacity:1.0000; stroke:none;fill-rule:evenodd;"
d="M 95.0550,74.0750
94.9785,74.0598
94.9136,74.0164
94.8702,73.9515
94.8550,73.8750
94.8550,73.4750
94.8702,73.3985
94.9136,73.3336
94.9785,73.2902
95.0550,73.2750
95.6050,73.2750
95.6815,73.2902
95.7464,73.3336
95.7898,73.3985
95.8050,73.4750
95.8050,73.8750
95.7898,73.9515
95.7464,74.0164
95.6815,74.0598
95.6050,74.0750
Z" /> 
<path style="fill:#000000; fill-opacity:1.0000; stroke:none;fill-rule:evenodd;"
d="M 80.1414,44.3698
80.1580,44.2861
80.2055,44.2152
80.2764,44.1677
80.3601,44.1511
80.7976,44.1511
80.8814,44.1677
80.9523,44.2152
80.9997,44.2861
81.0164,44.3698
81.0164,44.8823
80.9997,44.9660
80.9523,45.0370
80.8814,45.0844
80.7976,45.1011
80.3601,45.1011
80.2764,45.0844
80.2055,45.0370
80.1580,44.9660
80.1414,44.8823
Z" /> 
<path style="fill:#000000; fill-opacity:1.0000; stroke:none;fill-rule:evenodd;"
d="M 81.7164,44.3698
81.7330,44.2861
81.7805,44.2152
81.8514,44.1677
81.9351,44.1511
82.3726,44.1511
82.4564,44.1677
82.5273,44.2152
82.5747,44.2861
82.5914,44.3698
82.5914,44.8823
82.5747,44.9660
82.5273,45.0370
82.4564,45.0844
82.3726,45.1011
81.9351,45.1011
81.8514,45.0844
81.7805,45.0370
81.7330,44.9660
81.7164,44.8823
Z" /> 
<path style="fill:#000000; fill-opacity:1.0000; stroke:none;fill-rule:evenodd;"
d="M 82.7500,57.7750
82.8361,57.7921
82.9091,57.8409
82.9579,57.9139
82.9750,58.0000
82.9750,58.4500
82.9579,58.5361
82.9091,58.6091
82.8361,58.6579
82.7500,58.6750
82.2500,58.6750
82.1639,58.6579
82.0909,58.6091
82.0421,58.5361
82.0250,58.4500
82.0250,58.0000
82.0421,57.9139
82.0909,57.8409
82.1639,57.7921
82.2500,57.7750
Z" /> 
<path style="fill:#000000; fill-opacity:1.0000; stroke:none;fill-rule:evenodd;"
d="M 82.7500,59.3250
82.8361,59.3421
82.9091,59.3909
82.9579,59.4639
82.9750,59.5500
82.9750,60.0000
82.9579,60.0861
82.9091,60.1591
82.8361,60.2079
82.7500,60.2250
82.2500,60.2250
82.1639,60.2079
82.0909,60.1591
82.0421,60.0861
82.0250,60.0000
82.0250,59.5500
82.0421,59.4639
82.0909,59.3909
82.1639,59.3421
82.2500,59.3250
Z" /> 
<path style="fill:#000000; fill-opacity:1.0000; stroke:none;fill-rule:evenodd;"
d="M 96.5650,75.7250
96.4885,75.7098
96.4236,75.6664
96.3802,75.6015
96.3650,75.5250
96.3650,75.1250
96.3802,75.0485
96.4236,74.9836
96.4885,74.9402
96.5650,74.9250
97.1150,74.9250
97.1915,74.9402
97.2564,74.9836
97.2998,75.0485
97.3150,75.1250
97.3150,75.5250
97.2998,75.6015
97.2564,75.6664
97.1915,75.7098
97.1150,75.7250
Z" /> 
<path style="fill:#000000; fill-opacity:1.0000; stroke:none;fill-rule:evenodd;"
d="M 96.5650,74.0750
96.4885,74.0598
96.4236,74.0164
96.3802,73.9515
96.3650,73.8750
96.3650,73.4750
96.3802,73.3985
96.4236,73.3336
96.4885,73.2902
96.5650,73.2750
97.1150,73.2750
97.1915,73.2902
97.2564,73.3336
97.2998,73.3985
97.3150,73.4750
97.3150,73.8750
97.2998,73.9515
97.2564,74.0164
97.1915,74.0598
97.1150,74.0750
Z" /> 
<path style="fill:#000000; fill-opacity:1.0000; stroke:none;fill-rule:evenodd;"
d="M 92.6109,62.2940
92.5938,62.3801
92.5450,62.4531
92.4720,62.5019
92.3859,62.5190
91.9359,62.5190
91.8498,62.5019
91.7768,62.4531
91.7280,62.3801
91.7109,62.2940
91.7109,61.7940
91.7280,61.7079
91.7768,61.6349
91.8498,61.5861
91.9359,61.5690
92.3859,61.5690
92.4720,61.5861
92.5450,61.6349
92.5938,61.7079
92.6109,61.7940
Z" /> 
<path style="fill:#000000; fill-opacity:1.0000; stroke:none;fill-rule:evenodd;"
d="M 91.0609,62.2940
91.0438,62.3801
90.9950,62.4531
90.9220,62.5019
90.8359,62.5190
90.3859,62.5190
90.2998,62.5019
90.2268,62.4531
90.1780,62.3801
90.1609,62.2940
90.1609,61.7940
90.1780,61.7079
90.2268,61.6349
90.2998,61.5861
90.3859,61.5690
90.8359,61.5690
90.9220,61.5861
90.9950,61.6349
91.0438,61.7079
91.0609,61.7940
Z" /> 
<path style="fill:#000000; fill-opacity:1.0000; stroke:none;fill-rule:evenodd;"
d="M 134.7500,46.2250
134.6639,46.2079
134.5909,46.1591
134.5421,46.0861
134.5250,46.0000
134.5250,45.5500
134.5421,45.4639
134.5909,45.3909
134.6639,45.3421
134.7500,45.3250
135.2500,45.3250
135.3361,45.3421
135.4091,45.3909
135.4579,45.4639
135.4750,45.5500
135.4750,46.0000
135.4579,46.0861
135.4091,46.1591
135.3361,46.2079
135.2500,46.2250
Z" /> 
<path style="fill:#000000; fill-opacity:1.0000; stroke:none;fill-rule:evenodd;"
d="M 134.7500,44.6750
134.6639,44.6579
134.5909,44.6091
134.5421,44.5361
134.5250,44.4500
134.5250,44.0000
134.5421,43.9139
134.5909,43.8409
134.6639,43.7921
134.7500,43.7750
135.2500,43.7750
135.3361,43.7921
135.4091,43.8409
135.4579,43.9139
135.4750,44.0000
135.4750,44.4500
135.4579,44.5361
135.4091,44.6091
135.3361,44.6579
135.2500,44.6750
Z" /> 
<path style="fill:#000000; fill-opacity:1.0000; stroke:none;fill-rule:evenodd;"
d="M 85.7500,60.2331
85.6639,60.2160
85.5909,60.1672
85.5421,60.0942
85.5250,60.0081
85.5250,59.5581
85.5421,59.4720
85.5909,59.3990
85.6639,59.3502
85.7500,59.3331
86.2500,59.3331
86.3361,59.3502
86.4091,59.3990
86.4579,59.4720
86.4750,59.5581
86.4750,60.0081
86.4579,60.0942
86.4091,60.1672
86.3361,60.2160
86.2500,60.2331
Z" /> 
<path style="fill:#000000; fill-opacity:1.0000; stroke:none;fill-rule:evenodd;"
d="M 85.7500,58.6831
85.6639,58.6660
85.5909,58.6172
85.5421,58.5442
85.5250,58.4581
85.5250,58.0081
85.5421,57.9220
85.5909,57.8490
85.6639,57.8002
85.7500,57.7831
86.2500,57.7831
86.3361,57.8002
86.4091,57.8490
86.4579,57.9220
86.4750,58.0081
86.4750,58.4581
86.4579,58.5442
86.4091,58.6172
86.3361,58.6660
86.2500,58.6831
Z" /> 
<path style="fill:#000000; fill-opacity:1.0000; stroke:none;fill-rule:evenodd;"
d="M 82.5829,46.5017
82.5658,46.5878
82.5170,46.6608
82.4440,46.7096
82.3579,46.7267
81.9079,46.7267
81.8218,46.7096
81.7488,46.6608
81.7000,46.5878
81.6829,46.5017
81.6829,46.0017
81.7000,45.9156
81.7488,45.8426
81.8218,45.7938
81.9079,45.7767
82.3579,45.7767
82.4440,45.7938
82.5170,45.8426
82.5658,45.9156
82.5829,46.0017
Z" /> 
<path style="fill:#000000; fill-opacity:1.0000; stroke:none;fill-rule:evenodd;"
d="M 81.0329,46.5017
81.0158,46.5878
80.9670,46.6608
80.8940,46.7096
80.8079,46.7267
80.3579,46.7267
80.2718,46.7096
80.1988,46.6608
80.1500,46.5878
80.1329,46.5017
80.1329,46.0017
80.1500,45.9156
80.1988,45.8426
80.2718,45.7938
80.3579,45.7767
80.8079,45.7767
80.8940,45.7938
80.9670,45.8426
81.0158,45.9156
81.0329,46.0017
Z" /> 
<path style="fill:#000000; fill-opacity:1.0000; stroke:none;fill-rule:evenodd;"
d="M 133.7750,43.7750
133.8515,43.7902
133.9164,43.8336
133.9598,43.8985
133.9750,43.9750
133.9750,44.3750
133.9598,44.4515
133.9164,44.5164
133.8515,44.5598
133.7750,44.5750
133.2250,44.5750
133.1485,44.5598
133.0836,44.5164
133.0402,44.4515
133.0250,44.3750
133.0250,43.9750
133.0402,43.8985
133.0836,43.8336
133.1485,43.7902
133.2250,43.7750
Z" /> 
<path style="fill:#000000; fill-opacity:1.0000; stroke:none;fill-rule:evenodd;"
d="M 133.7750,45.4250
133.8515,45.4402
133.9164,45.4836
133.9598,45.5485
133.9750,45.6250
133.9750,46.0250
133.9598,46.1015
133.9164,46.1664
133.8515,46.2098
133.7750,46.2250
133.2250,46.2250
133.1485,46.2098
133.0836,46.1664
133.0402,46.1015
133.0250,46.0250
133.0250,45.6250
133.0402,45.5485
133.0836,45.4836
133.1485,45.4402
133.2250,45.4250
Z" /> 
<path style="fill:#000000; fill-opacity:1.0000; stroke:none;fill-rule:evenodd;"
d="M 94.4650,69.8950
94.4677,69.8816
94.4753,69.8703
94.4866,69.8627
94.5000,69.8600
95.9000,69.8600
95.9134,69.8627
95.9247,69.8703
95.9323,69.8816
95.9350,69.8950
95.9350,70.1050
95.9323,70.1184
95.9247,70.1297
95.9134,70.1373
95.9000,70.1400
94.5000,70.1400
94.4866,70.1373
94.4753,70.1297
94.4677,70.1184
94.4650,70.1050
Z" /> 
<path style="fill:#000000; fill-opacity:1.0000; stroke:none;fill-rule:evenodd;"
d="M 94.4650,70.3950
94.4677,70.3816
94.4753,70.3703
94.4866,70.3627
94.5000,70.3600
95.9000,70.3600
95.9134,70.3627
95.9247,70.3703
95.9323,70.3816
95.9350,70.3950
95.9350,70.6050
95.9323,70.6184
95.9247,70.6297
95.9134,70.6373
95.9000,70.6400
94.5000,70.6400
94.4866,70.6373
94.4753,70.6297
94.4677,70.6184
94.4650,70.6050
Z" /> 
<path style="fill:#000000; fill-opacity:1.0000; stroke:none;fill-rule:evenodd;"
d="M 94.4650,70.8950
94.4677,70.8816
94.4753,70.8703
94.4866,70.8627
94.5000,70.8600
95.9000,70.8600
95.9134,70.8627
95.9247,70.8703
95.9323,70.8816
95.9350,70.8950
95.9350,71.1050
95.9323,71.1184
95.9247,71.1297
95.9134,71.1373
95.9000,71.1400
94.5000,71.1400
94.4866,71.1373
94.4753,71.1297
94.4677,71.1184
94.4650,71.1050
Z" /> 
<path style="fill:#000000; fill-opacity:1.0000; stroke:none;fill-rule:evenodd;"
d="M 94.4650,71.3950
94.4677,71.3816
94.4753,71.3703
94.4866,71.3627
94.5000,71.3600
95.9000,71.3600
95.9134,71.3627
95.9247,71.3703
95.9323,71.3816
95.9350,71.3950
95.9350,71.6050
95.9323,71.6184
95.9247,71.6297
95.9134,71.6373
95.9000,71.6400
94.5000,71.6400
94.4866,71.6373
94.4753,71.6297
94.4677,71.6184
94.4650,71.6050
Z" /> 
<path style="fill:#000000; fill-opacity:1.0000; stroke:none;fill-rule:evenodd;"
d="M 94.4650,71.8950
94.4677,71.8816
94.4753,71.8703
94.4866,71.8627
94.5000,71.8600
95.9000,71.8600
95.9134,71.8627
95.9247,71.8703
95.9323,71.8816
95.9350,71.8950
95.9350,72.1050
95.9323,72.1184
95.9247,72.1297
95.9134,72.1373
95.9000,72.1400
94.5000,72.1400
94.4866,72.1373
94.4753,72.1297
94.4677,72.1184
94.4650,72.1050
Z" /> 
<path style="fill:#000000; fill-opacity:1.0000; stroke:none;fill-rule:evenodd;"
d="M 98.7650,71.8950
98.7677,71.8816
98.7753,71.8703
98.7866,71.8627
98.8000,71.8600
100.2000,71.8600
100.2134,71.8627
100.2247,71.8703
100.2323,71.8816
100.2350,71.8950
100.2350,72.1050
100.2323,72.1184
100.2247,72.1297
100.2134,72.1373
100.2000,72.1400
98.8000,72.1400
98.7866,72.1373
98.7753,72.1297
98.7677,72.1184
98.7650,72.1050
Z" /> 
<path style="fill:#000000; fill-opacity:1.0000; stroke:none;fill-rule:evenodd;"
d="M 98.7650,71.3950
98.7677,71.3816
98.7753,71.3703
98.7866,71.3627
98.8000,71.3600
100.2000,71.3600
100.2134,71.3627
100.2247,71.3703
100.2323,71.3816
100.2350,71.3950
100.2350,71.6050
100.2323,71.6184
100.2247,71.6297
100.2134,71.6373
100.2000,71.6400
98.8000,71.6400
98.7866,71.6373
98.7753,71.6297
98.7677,71.6184
98.7650,71.6050
Z" /> 
<path style="fill:#000000; fill-opacity:1.0000; stroke:none;fill-rule:evenodd;"
d="M 98.7650,70.8950
98.7677,70.8816
98.7753,70.8703
98.7866,70.8627
98.8000,70.8600
100.2000,70.8600
100.2134,70.8627
100.2247,70.8703
100.2323,70.8816
100.2350,70.8950
100.2350,71.1050
100.2323,71.1184
100.2247,71.1297
100.2134,71.1373
100.2000,71.1400
98.8000,71.1400
98.7866,71.1373
98.7753,71.1297
98.7677,71.1184
98.7650,71.1050
Z" /> 
<path style="fill:#000000; fill-opacity:1.0000; stroke:none;fill-rule:evenodd;"
d="M 98.7650,70.3950
98.7677,70.3816
98.7753,70.3703
98.7866,70.3627
98.8000,70.3600
100.2000,70.3600
100.2134,70.3627
100.2247,70.3703
100.2323,70.3816
100.2350,70.3950
100.2350,70.6050
100.2323,70.6184
100.2247,70.6297
100.2134,70.6373
100.2000,70.6400
98.8000,70.6400
98.7866,70.6373
98.7753,70.6297
98.7677,70.6184
98.7650,70.6050
Z" /> 
<path style="fill:#000000; fill-opacity:1.0000; stroke:none;fill-rule:evenodd;"
d="M 98.7650,69.8950
98.7677,69.8816
98.7753,69.8703
98.7866,69.8627
98.8000,69.8600
100.2000,69.8600
100.2134,69.8627
100.2247,69.8703
100.2323,69.8816
100.2350,69.8950
100.2350,70.1050
100.2323,70.1184
100.2247,70.1297
100.2134,70.1373
100.2000,70.1400
98.8000,70.1400
98.7866,70.1373
98.7753,70.1297
98.7677,70.1184
98.7650,70.1050
Z" /> 
<path style="fill:#000000; fill-opacity:1.0000; stroke:none;fill-rule:evenodd;"
d="M 105.8594,57.1860
105.7829,57.1708
105.7180,57.1275
105.6747,57.0626
105.6594,56.9860
105.6594,56.5860
105.6747,56.5095
105.7180,56.4446
105.7829,56.4013
105.8594,56.3860
106.4094,56.3860
106.4860,56.4013
106.5509,56.4446
106.5942,56.5095
106.6094,56.5860
106.6094,56.9860
106.5942,57.0626
106.5509,57.1275
106.4860,57.1708
106.4094,57.1860
Z" /> 
<path style="fill:#000000; fill-opacity:1.0000; stroke:none;fill-rule:evenodd;"
d="M 105.8594,55.5360
105.7829,55.5208
105.7180,55.4775
105.6747,55.4126
105.6594,55.3360
105.6594,54.9360
105.6747,54.8595
105.7180,54.7946
105.7829,54.7513
105.8594,54.7360
106.4094,54.7360
106.4860,54.7513
106.5509,54.7946
106.5942,54.8595
106.6094,54.9360
106.6094,55.3360
106.5942,55.4126
106.5509,55.4775
106.4860,55.5208
106.4094,55.5360
Z" /> 
<path style="fill:#000000; fill-opacity:1.0000; stroke:none;fill-rule:evenodd;"
d="M 129.2250,67.2750
129.2098,67.3515
129.1664,67.4164
129.1015,67.4598
129.0250,67.4750
128.6250,67.4750
128.5485,67.4598
128.4836,67.4164
128.4402,67.3515
128.4250,67.2750
128.4250,66.7250
128.4402,66.6485
128.4836,66.5836
128.5485,66.5402
128.6250,66.5250
129.0250,66.5250
129.1015,66.5402
129.1664,66.5836
129.2098,66.6485
129.2250,66.7250
Z" /> 
<path style="fill:#000000; fill-opacity:1.0000; stroke:none;fill-rule:evenodd;"
d="M 127.5750,67.2750
127.5598,67.3515
127.5164,67.4164
127.4515,67.4598
127.3750,67.4750
126.9750,67.4750
126.8985,67.4598
126.8336,67.4164
126.7902,67.3515
126.7750,67.2750
126.7750,66.7250
126.7902,66.6485
126.8336,66.5836
126.8985,66.5402
126.9750,66.5250
127.3750,66.5250
127.4515,66.5402
127.5164,66.5836
127.5598,66.6485
127.5750,66.7250
Z" /> 
<path style="fill:#000000; fill-opacity:1.0000; stroke:none;fill-rule:evenodd;"
d="M 113.9123,52.4290
113.8970,52.5055
113.8537,52.5704
113.7888,52.6138
113.7123,52.6290
113.3123,52.6290
113.2357,52.6138
113.1709,52.5704
113.1275,52.5055
113.1123,52.4290
113.1123,51.8790
113.1275,51.8024
113.1709,51.7376
113.2357,51.6942
113.3123,51.6790
113.7123,51.6790
113.7888,51.6942
113.8537,51.7376
113.8970,51.8024
113.9123,51.8790
Z" /> 
<path style="fill:#000000; fill-opacity:1.0000; stroke:none;fill-rule:evenodd;"
d="M 112.2623,52.4290
112.2470,52.5055
112.2037,52.5704
112.1388,52.6138
112.0623,52.6290
111.6623,52.6290
111.5857,52.6138
111.5209,52.5704
111.4775,52.5055
111.4623,52.4290
111.4623,51.8790
111.4775,51.8024
111.5209,51.7376
111.5857,51.6942
111.6623,51.6790
112.0623,51.6790
112.1388,51.6942
112.2037,51.7376
112.2470,51.8024
112.2623,51.8790
Z" /> 
<path style="fill:#000000; fill-opacity:1.0000; stroke:none;fill-rule:evenodd;"
d="M 124.7250,41.7750
124.7098,41.8515
124.6664,41.9164
124.6015,41.9598
124.5250,41.9750
124.1250,41.9750
124.0485,41.9598
123.9836,41.9164
123.9402,41.8515
123.9250,41.7750
123.9250,41.2250
123.9402,41.1485
123.9836,41.0836
124.0485,41.0402
124.1250,41.0250
124.5250,41.0250
124.6015,41.0402
124.6664,41.0836
124.7098,41.1485
124.7250,41.2250
Z" /> 
<path style="fill:#000000; fill-opacity:1.0000; stroke:none;fill-rule:evenodd;"
d="M 123.0750,41.7750
123.0598,41.8515
123.0164,41.9164
122.9515,41.9598
122.8750,41.9750
122.4750,41.9750
122.3985,41.9598
122.3336,41.9164
122.2902,41.8515
122.2750,41.7750
122.2750,41.2250
122.2902,41.1485
122.3336,41.0836
122.3985,41.0402
122.4750,41.0250
122.8750,41.0250
122.9515,41.0402
123.0164,41.0836
123.0598,41.1485
123.0750,41.2250
Z" /> 
<path style="fill:#000000; fill-opacity:1.0000; stroke:none;fill-rule:evenodd;"
d="M 80.2029,53.4633
80.2200,53.3772
80.2688,53.3042
80.3418,53.2555
80.4279,53.2383
80.8779,53.2383
80.9640,53.2555
81.0370,53.3042
81.0858,53.3772
81.1029,53.4633
81.1029,53.9633
81.0858,54.0494
81.0370,54.1224
80.9640,54.1712
80.8779,54.1883
80.4279,54.1883
80.3418,54.1712
80.2688,54.1224
80.2200,54.0494
80.2029,53.9633
Z" /> 
<path style="fill:#000000; fill-opacity:1.0000; stroke:none;fill-rule:evenodd;"
d="M 81.7529,53.4633
81.7700,53.3772
81.8188,53.3042
81.8918,53.2555
81.9779,53.2383
82.4279,53.2383
82.5140,53.2555
82.5870,53.3042
82.6358,53.3772
82.6529,53.4633
82.6529,53.9633
82.6358,54.0494
82.5870,54.1224
82.5140,54.1712
82.4279,54.1883
81.9779,54.1883
81.8918,54.1712
81.8188,54.1224
81.7700,54.0494
81.7529,53.9633
Z" /> 
<path style="fill:#000000; fill-opacity:1.0000; stroke:none;fill-rule:evenodd;"
d="M 91.6660,57.1860
91.5895,57.1708
91.5246,57.1275
91.4812,57.0626
91.4660,56.9860
91.4660,56.5860
91.4812,56.5095
91.5246,56.4446
91.5895,56.4013
91.6660,56.3860
92.2160,56.3860
92.2925,56.4013
92.3574,56.4446
92.4008,56.5095
92.4160,56.5860
92.4160,56.9860
92.4008,57.0626
92.3574,57.1275
92.2925,57.1708
92.2160,57.1860
Z" /> 
<path style="fill:#000000; fill-opacity:1.0000; stroke:none;fill-rule:evenodd;"
d="M 91.6660,55.5360
91.5895,55.5208
91.5246,55.4775
91.4812,55.4126
91.4660,55.3360
91.4660,54.9360
91.4812,54.8595
91.5246,54.7946
91.5895,54.7513
91.6660,54.7360
92.2160,54.7360
92.2925,54.7513
92.3574,54.7946
92.4008,54.8595
92.4160,54.9360
92.4160,55.3360
92.4008,55.4126
92.3574,55.4775
92.2925,55.5208
92.2160,55.5360
Z" /> 
<path style="fill:#000000; fill-opacity:1.0000; stroke:none;fill-rule:evenodd;"
d="M 133.0500,57.4067
133.0310,57.5024
132.9768,57.5835
132.8957,57.6377
132.8000,57.6567
132.1500,57.6567
132.0543,57.6377
131.9732,57.5835
131.9190,57.5024
131.9000,57.4067
131.9000,56.1067
131.9190,56.0110
131.9732,55.9299
132.0543,55.8757
132.1500,55.8567
132.8000,55.8567
132.8957,55.8757
132.9768,55.9299
133.0310,56.0110
133.0500,56.1067
Z" /> 
<path style="fill:#000000; fill-opacity:1.0000; stroke:none;fill-rule:evenodd;"
d="M 130.1000,57.4067
130.0810,57.5024
130.0268,57.5835
129.9457,57.6377
129.8500,57.6567
129.2000,57.6567
129.1043,57.6377
129.0232,57.5835
128.9690,57.5024
128.9500,57.4067
128.9500,56.1067
128.9690,56.0110
129.0232,55.9299
129.1043,55.8757
129.2000,55.8567
129.8500,55.8567
129.9457,55.8757
130.0268,55.9299
130.0810,56.0110
130.1000,56.1067
Z" /> 
<path style="fill:#000000; fill-opacity:1.0000; stroke:none;fill-rule:evenodd;"
d="M 98.0750,75.7250
97.9985,75.7098
97.9336,75.6664
97.8902,75.6015
97.8750,75.5250
97.8750,75.1250
97.8902,75.0485
97.9336,74.9836
97.9985,74.9402
98.0750,74.9250
98.6250,74.9250
98.7015,74.9402
98.7664,74.9836
98.8098,75.0485
98.8250,75.1250
98.8250,75.5250
98.8098,75.6015
98.7664,75.6664
98.7015,75.7098
98.6250,75.7250
Z" /> 
<path style="fill:#000000; fill-opacity:1.0000; stroke:none;fill-rule:evenodd;"
d="M 98.0750,74.0750
97.9985,74.0598
97.9336,74.0164
97.8902,73.9515
97.8750,73.8750
97.8750,73.4750
97.8902,73.3985
97.9336,73.3336
97.9985,73.2902
98.0750,73.2750
98.6250,73.2750
98.7015,73.2902
98.7664,73.3336
98.8098,73.3985
98.8250,73.4750
98.8250,73.8750
98.8098,73.9515
98.7664,74.0164
98.7015,74.0598
98.6250,74.0750
Z" /> 
<path style="fill:#000000; fill-opacity:1.0000; stroke:none;fill-rule:evenodd;"
d="M 126.2250,67.2750
126.2098,67.3515
126.1664,67.4164
126.1015,67.4598
126.0250,67.4750
125.6250,67.4750
125.5485,67.4598
125.4836,67.4164
125.4402,67.3515
125.4250,67.2750
125.4250,66.7250
125.4402,66.6485
125.4836,66.5836
125.5485,66.5402
125.6250,66.5250
126.0250,66.5250
126.1015,66.5402
126.1664,66.5836
126.2098,66.6485
126.2250,66.7250
Z" /> 
<path style="fill:#000000; fill-opacity:1.0000; stroke:none;fill-rule:evenodd;"
d="M 124.5750,67.2750
124.5598,67.3515
124.5164,67.4164
124.4515,67.4598
124.3750,67.4750
123.9750,67.4750
123.8985,67.4598
123.8336,67.4164
123.7902,67.3515
123.7750,67.2750
123.7750,66.7250
123.7902,66.6485
123.8336,66.5836
123.8985,66.5402
123.9750,66.5250
124.3750,66.5250
124.4515,66.5402
124.5164,66.5836
124.5598,66.6485
124.5750,66.7250
Z" /> 
<path style="fill:#000000; fill-opacity:1.0000; stroke:none;fill-rule:evenodd;"
d="M 92.6308,66.7147
92.6136,66.8008
92.5648,66.8738
92.4919,66.9225
92.4058,66.9397
91.9558,66.9397
91.8696,66.9225
91.7967,66.8738
91.7479,66.8008
91.7308,66.7147
91.7308,66.2147
91.7479,66.1285
91.7967,66.0556
91.8696,66.0068
91.9558,65.9897
92.4058,65.9897
92.4919,66.0068
92.5648,66.0556
92.6136,66.1285
92.6308,66.2147
Z" /> 
<path style="fill:#000000; fill-opacity:1.0000; stroke:none;fill-rule:evenodd;"
d="M 91.0808,66.7147
91.0636,66.8008
91.0148,66.8738
90.9419,66.9225
90.8558,66.9397
90.4058,66.9397
90.3196,66.9225
90.2467,66.8738
90.1979,66.8008
90.1808,66.7147
90.1808,66.2147
90.1979,66.1285
90.2467,66.0556
90.3196,66.0068
90.4058,65.9897
90.8558,65.9897
90.9419,66.0068
91.0148,66.0556
91.0636,66.1285
91.0808,66.2147
Z" /> 
<path style="fill:#000000; fill-opacity:1.0000; stroke:none;fill-rule:evenodd;"
d="M 103.6955,68.7438
103.6784,68.8299
103.6296,68.9029
103.5566,68.9517
103.4705,68.9688
103.0205,68.9688
102.9344,68.9517
102.8614,68.9029
102.8126,68.8299
102.7955,68.7438
102.7955,68.2438
102.8126,68.1577
102.8614,68.0847
102.9344,68.0359
103.0205,68.0188
103.4705,68.0188
103.5566,68.0359
103.6296,68.0847
103.6784,68.1577
103.6955,68.2438
Z" /> 
<path style="fill:#000000; fill-opacity:1.0000; stroke:none;fill-rule:evenodd;"
d="M 102.1455,68.7438
102.1284,68.8299
102.0796,68.9029
102.0066,68.9517
101.9205,68.9688
101.4705,68.9688
101.3844,68.9517
101.3114,68.9029
101.2626,68.8299
101.2455,68.7438
101.2455,68.2438
101.2626,68.1577
101.3114,68.0847
101.3844,68.0359
101.4705,68.0188
101.9205,68.0188
102.0066,68.0359
102.0796,68.0847
102.1284,68.1577
102.1455,68.2438
Z" /> 
<path style="fill:#000000; fill-opacity:1.0000; stroke:none;fill-rule:evenodd;"
d="M 118.9673,53.8500
118.9863,53.7543
119.0405,53.6732
119.1216,53.6190
119.2173,53.6000
119.8673,53.6000
119.9630,53.6190
120.0441,53.6732
120.0983,53.7543
120.1173,53.8500
120.1173,55.1500
120.0983,55.2457
120.0441,55.3268
119.9630,55.3810
119.8673,55.4000
119.2173,55.4000
119.1216,55.3810
119.0405,55.3268
118.9863,55.2457
118.9673,55.1500
Z" /> 
<path style="fill:#000000; fill-opacity:1.0000; stroke:none;fill-rule:evenodd;"
d="M 121.9173,53.8500
121.9363,53.7543
121.9905,53.6732
122.0716,53.6190
122.1673,53.6000
122.8173,53.6000
122.9130,53.6190
122.9941,53.6732
123.0483,53.7543
123.0673,53.8500
123.0673,55.1500
123.0483,55.2457
122.9941,55.3268
122.9130,55.3810
122.8173,55.4000
122.1673,55.4000
122.0716,55.3810
121.9905,55.3268
121.9363,55.2457
121.9173,55.1500
Z" /> 
<path style="fill:#000000; fill-opacity:1.0000; stroke:none;fill-rule:evenodd;"
d="M 128.9100,45.6550
125.0900,45.6550
125.0900,42.6250
128.9100,42.6250
Z" /> 
<path style="fill:#000000; fill-opacity:1.0000; stroke:none;fill-rule:evenodd;"
d="M 128.9100,52.5150
125.0900,52.5150
125.0900,49.4850
128.9100,49.4850
Z" /> 
<path style="fill:#000000; fill-opacity:1.0000; stroke:none;fill-rule:evenodd;"
d="M 101.2455,69.7050
101.2607,69.6285
101.3041,69.5636
101.3690,69.5202
101.4455,69.5050
101.8455,69.5050
101.9221,69.5202
101.9869,69.5636
102.0303,69.6285
102.0455,69.7050
102.0455,70.2550
102.0303,70.3315
101.9869,70.3964
101.9221,70.4398
101.8455,70.4550
101.4455,70.4550
101.3690,70.4398
101.3041,70.3964
101.2607,70.3315
101.2455,70.2550
Z" /> 
<path style="fill:#000000; fill-opacity:1.0000; stroke:none;fill-rule:evenodd;"
d="M 102.8955,69.7050
102.9107,69.6285
102.9541,69.5636
103.0190,69.5202
103.0955,69.5050
103.4955,69.5050
103.5721,69.5202
103.6369,69.5636
103.6803,69.6285
103.6955,69.7050
103.6955,70.2550
103.6803,70.3315
103.6369,70.3964
103.5721,70.4398
103.4955,70.4550
103.0955,70.4550
103.0190,70.4398
102.9541,70.3964
102.9107,70.3315
102.8955,70.2550
Z" /> 
<path style="fill:#000000; fill-opacity:1.0000; stroke:none;fill-rule:evenodd;"
d="M 78.3500,84.0000
78.3500,80.5000
79.8500,80.5000
79.8500,84.0000
Z" /> 
<path style="fill:#000000; fill-opacity:1.0000; stroke:none;fill-rule:evenodd;"
d="M 80.3500,76.5000
80.3500,73.0000
81.8500,73.0000
81.8500,76.5000
Z" /> 
<path style="fill:#000000; fill-opacity:1.0000; stroke:none;fill-rule:evenodd;"
d="M 85.3500,84.0000
85.3500,80.5000
86.8500,80.5000
86.8500,84.0000
Z" /> 
<path style="fill:#000000; fill-opacity:1.0000; stroke:none;fill-rule:evenodd;"
d="M 111.4500,53.4150
111.4652,53.3385
111.5086,53.2736
111.5735,53.2302
111.6500,53.2150
112.0500,53.2150
112.1265,53.2302
112.1914,53.2736
112.2348,53.3385
112.2500,53.4150
112.2500,53.9650
112.2348,54.0415
112.1914,54.1064
112.1265,54.1498
112.0500,54.1650
111.6500,54.1650
111.5735,54.1498
111.5086,54.1064
111.4652,54.0415
111.4500,53.9650
Z" /> 
<path style="fill:#000000; fill-opacity:1.0000; stroke:none;fill-rule:evenodd;"
d="M 113.1000,53.4150
113.1152,53.3385
113.1586,53.2736
113.2235,53.2302
113.3000,53.2150
113.7000,53.2150
113.7765,53.2302
113.8414,53.2736
113.8848,53.3385
113.9000,53.4150
113.9000,53.9650
113.8848,54.0415
113.8414,54.1064
113.7765,54.1498
113.7000,54.1650
113.3000,54.1650
113.2235,54.1498
113.1586,54.1064
113.1152,54.0415
113.1000,53.9650
Z" /> 
<path style="fill:#000000; fill-opacity:1.0000; stroke:none;fill-rule:evenodd;"
d="M 132.2175,52.7200
132.1324,52.7031
132.0602,52.6548
132.0119,52.5826
131.9950,52.4975
131.9950,51.9025
132.0119,51.8174
132.0602,51.7452
132.1324,51.6969
132.2175,51.6800
132.6625,51.6800
132.7476,51.6969
132.8198,51.7452
132.8681,51.8174
132.8850,51.9025
132.8850,52.4975
132.8681,52.5826
132.8198,52.6548
132.7476,52.7031
132.6625,52.7200
Z" /> 
<path style="fill:#000000; fill-opacity:1.0000; stroke:none;fill-rule:evenodd;"
d="M 133.2475,52.7200
133.1624,52.7031
133.0902,52.6548
133.0419,52.5826
133.0250,52.4975
133.0250,51.9025
133.0419,51.8174
133.0902,51.7452
133.1624,51.6969
133.2475,51.6800
133.6925,51.6800
133.7776,51.6969
133.8498,51.7452
133.8981,51.8174
133.9150,51.9025
133.9150,52.4975
133.8981,52.5826
133.8498,52.6548
133.7776,52.7031
133.6925,52.7200
Z" /> 
<path style="fill:#000000; fill-opacity:1.0000; stroke:none;fill-rule:evenodd;"
d="M 134.2775,52.7200
134.1924,52.7031
134.1202,52.6548
134.0719,52.5826
134.0550,52.4975
134.0550,51.9025
134.0719,51.8174
134.1202,51.7452
134.1924,51.6969
134.2775,51.6800
134.7225,51.6800
134.8076,51.6969
134.8798,51.7452
134.9281,51.8174
134.9450,51.9025
134.9450,52.4975
134.9281,52.5826
134.8798,52.6548
134.8076,52.7031
134.7225,52.7200
Z" /> 
<path style="fill:#000000; fill-opacity:1.0000; stroke:none;fill-rule:evenodd;"
d="M 132.2175,51.5200
132.1324,51.5031
132.0602,51.4548
132.0119,51.3826
131.9950,51.2975
131.9950,50.7025
132.0119,50.6174
132.0602,50.5452
132.1324,50.4969
132.2175,50.4800
132.6625,50.4800
132.7476,50.4969
132.8198,50.5452
132.8681,50.6174
132.8850,50.7025
132.8850,51.2975
132.8681,51.3826
132.8198,51.4548
132.7476,51.5031
132.6625,51.5200
Z" /> 
<path style="fill:#000000; fill-opacity:1.0000; stroke:none;fill-rule:evenodd;"
d="M 133.2475,51.5200
133.1624,51.5031
133.0902,51.4548
133.0419,51.3826
133.0250,51.2975
133.0250,50.7025
133.0419,50.6174
133.0902,50.5452
133.1624,50.4969
133.2475,50.4800
133.6925,50.4800
133.7776,50.4969
133.8498,50.5452
133.8981,50.6174
133.9150,50.7025
133.9150,51.2975
133.8981,51.3826
133.8498,51.4548
133.7776,51.5031
133.6925,51.5200
Z" /> 
<path style="fill:#000000; fill-opacity:1.0000; stroke:none;fill-rule:evenodd;"
d="M 134.2775,51.5200
134.1924,51.5031
134.1202,51.4548
134.0719,51.3826
134.0550,51.2975
134.0550,50.7025
134.0719,50.6174
134.1202,50.5452
134.1924,50.4969
134.2775,50.4800
134.7225,50.4800
134.8076,50.4969
134.8798,50.5452
134.9281,50.6174
134.9450,50.7025
134.9450,51.2975
134.9281,51.3826
134.8798,51.4548
134.8076,51.5031
134.7225,51.5200
Z" /> 
<path style="fill:#000000; fill-opacity:1.0000; stroke:none;fill-rule:evenodd;"
d="M 131.4150,55.0500
131.3576,55.0386
131.3089,55.0061
131.2764,54.9574
131.2650,54.9000
131.2650,53.4250
131.2764,53.3676
131.3089,53.3189
131.3576,53.2864
131.4150,53.2750
131.7150,53.2750
131.7724,53.2864
131.8211,53.3189
131.8536,53.3676
131.8650,53.4250
131.8650,54.9000
131.8536,54.9574
131.8211,55.0061
131.7724,55.0386
131.7150,55.0500
Z" /> 
<path style="fill:#000000; fill-opacity:1.0000; stroke:none;fill-rule:evenodd;"
d="M 132.6850,55.0500
132.6276,55.0386
132.5789,55.0061
132.5464,54.9574
132.5350,54.9000
132.5350,53.4250
132.5464,53.3676
132.5789,53.3189
132.6276,53.2864
132.6850,53.2750
132.9850,53.2750
133.0424,53.2864
133.0911,53.3189
133.1236,53.3676
133.1350,53.4250
133.1350,54.9000
133.1236,54.9574
133.0911,55.0061
133.0424,55.0386
132.9850,55.0500
Z" /> 
<path style="fill:#000000; fill-opacity:1.0000; stroke:none;fill-rule:evenodd;"
d="M 133.9550,55.0500
133.8976,55.0386
133.8489,55.0061
133.8164,54.9574
133.8050,54.9000
133.8050,53.4250
133.8164,53.3676
133.8489,53.3189
133.8976,53.2864
133.9550,53.2750
134.2550,53.2750
134.3124,53.2864
134.3611,53.3189
134.3936,53.3676
134.4050,53.4250
134.4050,54.9000
134.3936,54.9574
134.3611,55.0061
134.3124,55.0386
134.2550,55.0500
Z" /> 
<path style="fill:#000000; fill-opacity:1.0000; stroke:none;fill-rule:evenodd;"
d="M 135.2250,55.0500
135.1676,55.0386
135.1189,55.0061
135.0864,54.9574
135.0750,54.9000
135.0750,53.4250
135.0864,53.3676
135.1189,53.3189
135.1676,53.2864
135.2250,53.2750
135.5250,53.2750
135.5824,53.2864
135.6311,53.3189
135.6636,53.3676
135.6750,53.4250
135.6750,54.9000
135.6636,54.9574
135.6311,55.0061
135.5824,55.0386
135.5250,55.0500
Z" /> 
<path style="fill:#000000; fill-opacity:1.0000; stroke:none;fill-rule:evenodd;"
d="M 135.2250,49.9250
135.1676,49.9136
135.1189,49.8811
135.0864,49.8324
135.0750,49.7750
135.0750,48.3000
135.0864,48.2426
135.1189,48.1939
135.1676,48.1614
135.2250,48.1500
135.5250,48.1500
135.5824,48.1614
135.6311,48.1939
135.6636,48.2426
135.6750,48.3000
135.6750,49.7750
135.6636,49.8324
135.6311,49.8811
135.5824,49.9136
135.5250,49.9250
Z" /> 
<path style="fill:#000000; fill-opacity:1.0000; stroke:none;fill-rule:evenodd;"
d="M 133.9550,49.9250
133.8976,49.9136
133.8489,49.8811
133.8164,49.8324
133.8050,49.7750
133.8050,48.3000
133.8164,48.2426
133.8489,48.1939
133.8976,48.1614
133.9550,48.1500
134.2550,48.1500
134.3124,48.1614
134.3611,48.1939
134.3936,48.2426
134.4050,48.3000
134.4050,49.7750
134.3936,49.8324
134.3611,49.8811
134.3124,49.9136
134.2550,49.9250
Z" /> 
<path style="fill:#000000; fill-opacity:1.0000; stroke:none;fill-rule:evenodd;"
d="M 132.6850,49.9250
132.6276,49.9136
132.5789,49.8811
132.5464,49.8324
132.5350,49.7750
132.5350,48.3000
132.5464,48.2426
132.5789,48.1939
132.6276,48.1614
132.6850,48.1500
132.9850,48.1500
133.0424,48.1614
133.0911,48.1939
133.1236,48.2426
133.1350,48.3000
133.1350,49.7750
133.1236,49.8324
133.0911,49.8811
133.0424,49.9136
132.9850,49.9250
Z" /> 
<path style="fill:#000000; fill-opacity:1.0000; stroke:none;fill-rule:evenodd;"
d="M 131.4150,49.9250
131.3576,49.9136
131.3089,49.8811
131.2764,49.8324
131.2650,49.7750
131.2650,48.3000
131.2764,48.2426
131.3089,48.1939
131.3576,48.1614
131.4150,48.1500
131.7150,48.1500
131.7724,48.1614
131.8211,48.1939
131.8536,48.2426
131.8650,48.3000
131.8650,49.7750
131.8536,49.8324
131.8211,49.8811
131.7724,49.9136
131.7150,49.9250
Z" /> 
<path style="fill:#000000; fill-opacity:1.0000; stroke:none;fill-rule:evenodd;"
d="M 101.1283,57.1860
101.0518,57.1708
100.9869,57.1275
100.9435,57.0626
100.9283,56.9860
100.9283,56.5860
100.9435,56.5095
100.9869,56.4446
101.0518,56.4013
101.1283,56.3860
101.6783,56.3860
101.7548,56.4013
101.8197,56.4446
101.8631,56.5095
101.8783,56.5860
101.8783,56.9860
101.8631,57.0626
101.8197,57.1275
101.7548,57.1708
101.6783,57.1860
Z" /> 
<path style="fill:#000000; fill-opacity:1.0000; stroke:none;fill-rule:evenodd;"
d="M 101.1283,55.5360
101.0518,55.5208
100.9869,55.4775
100.9435,55.4126
100.9283,55.3360
100.9283,54.9360
100.9435,54.8595
100.9869,54.7946
101.0518,54.7513
101.1283,54.7360
101.6783,54.7360
101.7548,54.7513
101.8197,54.7946
101.8631,54.8595
101.8783,54.9360
101.8783,55.3360
101.8631,55.4126
101.8197,55.4775
101.7548,55.5208
101.6783,55.5360
Z" /> 
<path style="fill:#000000; fill-opacity:1.0000; stroke:none;fill-rule:evenodd;"
d="M 90.9483,54.1466
90.8526,54.1276
90.7715,54.0734
90.7173,53.9923
90.6983,53.8966
90.6983,52.3966
90.7173,52.3009
90.7715,52.2198
90.8526,52.1656
90.9483,52.1466
92.2283,52.1466
92.3239,52.1656
92.4050,52.2198
92.4592,52.3009
92.4783,52.3966
92.4783,53.8966
92.4592,53.9923
92.4050,54.0734
92.3239,54.1276
92.2283,54.1466
Z" /> 
<path style="fill:#000000; fill-opacity:1.0000; stroke:none;fill-rule:evenodd;"
d="M 93.4883,54.1466
93.3926,54.1276
93.3115,54.0734
93.2573,53.9923
93.2383,53.8966
93.2383,52.3966
93.2573,52.3009
93.3115,52.2198
93.3926,52.1656
93.4883,52.1466
94.7683,52.1466
94.8639,52.1656
94.9450,52.2198
94.9992,52.3009
95.0183,52.3966
95.0183,53.8966
94.9992,53.9923
94.9450,54.0734
94.8639,54.1276
94.7683,54.1466
Z" /> 
<path style="fill:#000000; fill-opacity:1.0000; stroke:none;fill-rule:evenodd;"
d="M 96.0283,54.1466
95.9326,54.1276
95.8515,54.0734
95.7973,53.9923
95.7783,53.8966
95.7783,52.3966
95.7973,52.3009
95.8515,52.2198
95.9326,52.1656
96.0283,52.1466
97.3083,52.1466
97.4039,52.1656
97.4850,52.2198
97.5392,52.3009
97.5583,52.3966
97.5583,53.8966
97.5392,53.9923
97.4850,54.0734
97.4039,54.1276
97.3083,54.1466
Z" /> 
<path style="fill:#000000; fill-opacity:1.0000; stroke:none;fill-rule:evenodd;"
d="M 98.5683,54.1466
98.4726,54.1276
98.3915,54.0734
98.3373,53.9923
98.3183,53.8966
98.3183,52.3966
98.3373,52.3009
98.3915,52.2198
98.4726,52.1656
98.5683,52.1466
99.8483,52.1466
99.9439,52.1656
100.0250,52.2198
100.0792,52.3009
100.0983,52.3966
100.0983,53.8966
100.0792,53.9923
100.0250,54.0734
99.9439,54.1276
99.8483,54.1466
Z" /> 
<path style="fill:#000000; fill-opacity:1.0000; stroke:none;fill-rule:evenodd;"
d="M 101.1083,54.1466
101.0126,54.1276
100.9315,54.0734
100.8773,53.9923
100.8583,53.8966
100.8583,52.3966
100.8773,52.3009
100.9315,52.2198
101.0126,52.1656
101.1083,52.1466
102.3883,52.1466
102.4839,52.1656
102.5650,52.2198
102.6192,52.3009
102.6383,52.3966
102.6383,53.8966
102.6192,53.9923
102.5650,54.0734
102.4839,54.1276
102.3883,54.1466
Z" /> 
<path style="fill:#000000; fill-opacity:1.0000; stroke:none;fill-rule:evenodd;"
d="M 103.6483,54.1466
103.5526,54.1276
103.4715,54.0734
103.4173,53.9923
103.3983,53.8966
103.3983,52.3966
103.4173,52.3009
103.4715,52.2198
103.5526,52.1656
103.6483,52.1466
104.9283,52.1466
105.0239,52.1656
105.1050,52.2198
105.1592,52.3009
105.1783,52.3966
105.1783,53.8966
105.1592,53.9923
105.1050,54.0734
105.0239,54.1276
104.9283,54.1466
Z" /> 
<path style="fill:#000000; fill-opacity:1.0000; stroke:none;fill-rule:evenodd;"
d="M 106.1883,54.1466
106.0926,54.1276
106.0115,54.0734
105.9573,53.9923
105.9383,53.8966
105.9383,52.3966
105.9573,52.3009
106.0115,52.2198
106.0926,52.1656
106.1883,52.1466
107.4683,52.1466
107.5639,52.1656
107.6450,52.2198
107.6992,52.3009
107.7183,52.3966
107.7183,53.8966
107.6992,53.9923
107.6450,54.0734
107.5639,54.1276
107.4683,54.1466
Z" /> 
<path style="fill:#000000; fill-opacity:1.0000; stroke:none;fill-rule:evenodd;"
d="M 108.7283,54.1466
108.6326,54.1276
108.5515,54.0734
108.4973,53.9923
108.4783,53.8966
108.4783,52.3966
108.4973,52.3009
108.5515,52.2198
108.6326,52.1656
108.7283,52.1466
110.0083,52.1466
110.1039,52.1656
110.1850,52.2198
110.2392,52.3009
110.2583,52.3966
110.2583,53.8966
110.2392,53.9923
110.1850,54.0734
110.1039,54.1276
110.0083,54.1466
Z" /> 
<path style="fill:#000000; fill-opacity:1.0000; stroke:none;fill-rule:evenodd;"
d="M 108.7283,44.6166
108.6326,44.5976
108.5515,44.5434
108.4973,44.4623
108.4783,44.3666
108.4783,42.8666
108.4973,42.7709
108.5515,42.6898
108.6326,42.6356
108.7283,42.6166
110.0083,42.6166
110.1039,42.6356
110.1850,42.6898
110.2392,42.7709
110.2583,42.8666
110.2583,44.3666
110.2392,44.4623
110.1850,44.5434
110.1039,44.5976
110.0083,44.6166
Z" /> 
<path style="fill:#000000; fill-opacity:1.0000; stroke:none;fill-rule:evenodd;"
d="M 106.1883,44.6166
106.0926,44.5976
106.0115,44.5434
105.9573,44.4623
105.9383,44.3666
105.9383,42.8666
105.9573,42.7709
106.0115,42.6898
106.0926,42.6356
106.1883,42.6166
107.4683,42.6166
107.5639,42.6356
107.6450,42.6898
107.6992,42.7709
107.7183,42.8666
107.7183,44.3666
107.6992,44.4623
107.6450,44.5434
107.5639,44.5976
107.4683,44.6166
Z" /> 
<path style="fill:#000000; fill-opacity:1.0000; stroke:none;fill-rule:evenodd;"
d="M 103.6483,44.6166
103.5526,44.5976
103.4715,44.5434
103.4173,44.4623
103.3983,44.3666
103.3983,42.8666
103.4173,42.7709
103.4715,42.6898
103.5526,42.6356
103.6483,42.6166
104.9283,42.6166
105.0239,42.6356
105.1050,42.6898
105.1592,42.7709
105.1783,42.8666
105.1783,44.3666
105.1592,44.4623
105.1050,44.5434
105.0239,44.5976
104.9283,44.6166
Z" /> 
<path style="fill:#000000; fill-opacity:1.0000; stroke:none;fill-rule:evenodd;"
d="M 101.1083,44.6166
101.0126,44.5976
100.9315,44.5434
100.8773,44.4623
100.8583,44.3666
100.8583,42.8666
100.8773,42.7709
100.9315,42.6898
101.0126,42.6356
101.1083,42.6166
102.3883,42.6166
102.4839,42.6356
102.5650,42.6898
102.6192,42.7709
102.6383,42.8666
102.6383,44.3666
102.6192,44.4623
102.5650,44.5434
102.4839,44.5976
102.3883,44.6166
Z" /> 
<path style="fill:#000000; fill-opacity:1.0000; stroke:none;fill-rule:evenodd;"
d="M 98.5683,44.6166
98.4726,44.5976
98.3915,44.5434
98.3373,44.4623
98.3183,44.3666
98.3183,42.8666
98.3373,42.7709
98.3915,42.6898
98.4726,42.6356
98.5683,42.6166
99.8483,42.6166
99.9439,42.6356
100.0250,42.6898
100.0792,42.7709
100.0983,42.8666
100.0983,44.3666
100.0792,44.4623
100.0250,44.5434
99.9439,44.5976
99.8483,44.6166
Z" /> 
<path style="fill:#000000; fill-opacity:1.0000; stroke:none;fill-rule:evenodd;"
d="M 96.0283,44.6166
95.9326,44.5976
95.8515,44.5434
95.7973,44.4623
95.7783,44.3666
95.7783,42.8666
95.7973,42.7709
95.8515,42.6898
95.9326,42.6356
96.0283,42.6166
97.3083,42.6166
97.4039,42.6356
97.4850,42.6898
97.5392,42.7709
97.5583,42.8666
97.5583,44.3666
97.5392,44.4623
97.4850,44.5434
97.4039,44.5976
97.3083,44.6166
Z" /> 
<path style="fill:#000000; fill-opacity:1.0000; stroke:none;fill-rule:evenodd;"
d="M 93.4883,44.6166
93.3926,44.5976
93.3115,44.5434
93.2573,44.4623
93.2383,44.3666
93.2383,42.8666
93.2573,42.7709
93.3115,42.6898
93.3926,42.6356
93.4883,42.6166
94.7683,42.6166
94.8639,42.6356
94.9450,42.6898
94.9992,42.7709
95.0183,42.8666
95.0183,44.3666
94.9992,44.4623
94.9450,44.5434
94.8639,44.5976
94.7683,44.6166
Z" /> 
<path style="fill:#000000; fill-opacity:1.0000; stroke:none;fill-rule:evenodd;"
d="M 90.9483,44.6166
90.8526,44.5976
90.7715,44.5434
90.7173,44.4623
90.6983,44.3666
90.6983,42.8666
90.7173,42.7709
90.7715,42.6898
90.8526,42.6356
90.9483,42.6166
92.2283,42.6166
92.3239,42.6356
92.4050,42.6898
92.4592,42.7709
92.4783,42.8666
92.4783,44.3666
92.4592,44.4623
92.4050,44.5434
92.3239,44.5976
92.2283,44.6166
Z" /> 
<path style="fill:#000000; fill-opacity:1.0000; stroke:none;fill-rule:evenodd;"
d="M 101.2455,74.2188
101.2607,74.1422
101.3041,74.0774
101.3690,74.0340
101.4455,74.0188
101.8455,74.0188
101.9221,74.0340
101.9869,74.0774
102.0303,74.1422
102.0455,74.2188
102.0455,74.7688
102.0303,74.8453
101.9869,74.9102
101.9221,74.9536
101.8455,74.9688
101.4455,74.9688
101.3690,74.9536
101.3041,74.9102
101.2607,74.8453
101.2455,74.7688
Z" /> 
<path style="fill:#000000; fill-opacity:1.0000; stroke:none;fill-rule:evenodd;"
d="M 102.8955,74.2188
102.9107,74.1422
102.9541,74.0774
103.0190,74.0340
103.0955,74.0188
103.4955,74.0188
103.5721,74.0340
103.6369,74.0774
103.6803,74.1422
103.6955,74.2188
103.6955,74.7688
103.6803,74.8453
103.6369,74.9102
103.5721,74.9536
103.4955,74.9688
103.0955,74.9688
103.0190,74.9536
102.9541,74.9102
102.9107,74.8453
102.8955,74.7688
Z" /> 
<path style="fill:#000000; fill-opacity:1.0000; stroke:none;fill-rule:evenodd;"
d="M 113.9090,56.9761
113.8938,57.0526
113.8504,57.1175
113.7855,57.1609
113.7090,57.1761
113.3090,57.1761
113.2325,57.1609
113.1676,57.1175
113.1242,57.0526
113.1090,56.9761
113.1090,56.4261
113.1242,56.3496
113.1676,56.2847
113.2325,56.2413
113.3090,56.2261
113.7090,56.2261
113.7855,56.2413
113.8504,56.2847
113.8938,56.3496
113.9090,56.4261
Z" /> 
<path style="fill:#000000; fill-opacity:1.0000; stroke:none;fill-rule:evenodd;"
d="M 112.2590,56.9761
112.2438,57.0526
112.2004,57.1175
112.1355,57.1609
112.0590,57.1761
111.6590,57.1761
111.5825,57.1609
111.5176,57.1175
111.4742,57.0526
111.4590,56.9761
111.4590,56.4261
111.4742,56.3496
111.5176,56.2847
111.5825,56.2413
111.6590,56.2261
112.0590,56.2261
112.1355,56.2413
112.2004,56.2847
112.2438,56.3496
112.2590,56.4261
Z" /> 
<path style="fill:#000000; fill-opacity:1.0000; stroke:none;fill-rule:evenodd;"
d="M 99.2877,54.7360
99.3738,54.7532
99.4468,54.8019
99.4956,54.8749
99.5127,54.9610
99.5127,55.4110
99.4956,55.4972
99.4468,55.5701
99.3738,55.6189
99.2877,55.6360
98.7877,55.6360
98.7016,55.6189
98.6286,55.5701
98.5798,55.4972
98.5627,55.4110
98.5627,54.9610
98.5798,54.8749
98.6286,54.8019
98.7016,54.7532
98.7877,54.7360
Z" /> 
<path style="fill:#000000; fill-opacity:1.0000; stroke:none;fill-rule:evenodd;"
d="M 99.2877,56.2860
99.3738,56.3032
99.4468,56.3519
99.4956,56.4249
99.5127,56.5110
99.5127,56.9610
99.4956,57.0472
99.4468,57.1201
99.3738,57.1689
99.2877,57.1860
98.7877,57.1860
98.7016,57.1689
98.6286,57.1201
98.5798,57.0472
98.5627,56.9610
98.5627,56.5110
98.5798,56.4249
98.6286,56.3519
98.7016,56.3032
98.7877,56.2860
Z" /> 
<path style="fill:#000000; fill-opacity:1.0000; stroke:none;fill-rule:evenodd;"
d="M 114.1500,45.4500
114.2457,45.4690
114.3268,45.5232
114.3810,45.6043
114.4000,45.7000
114.4000,46.3500
114.3810,46.4457
114.3268,46.5268
114.2457,46.5810
114.1500,46.6000
112.8500,46.6000
112.7543,46.5810
112.6732,46.5268
112.6190,46.4457
112.6000,46.3500
112.6000,45.7000
112.6190,45.6043
112.6732,45.5232
112.7543,45.4690
112.8500,45.4500
Z" /> 
<path style="fill:#000000; fill-opacity:1.0000; stroke:none;fill-rule:evenodd;"
d="M 114.1500,48.4000
114.2457,48.4190
114.3268,48.4732
114.3810,48.5543
114.4000,48.6500
114.4000,49.3000
114.3810,49.3957
114.3268,49.4768
114.2457,49.5310
114.1500,49.5500
112.8500,49.5500
112.7543,49.5310
112.6732,49.4768
112.6190,49.3957
112.6000,49.3000
112.6000,48.6500
112.6190,48.5543
112.6732,48.4732
112.7543,48.4190
112.8500,48.4000
Z" /> 
<path style="fill:#000000; fill-opacity:1.0000; stroke:none;fill-rule:evenodd;"
d="M 113.9123,50.9272
113.8970,51.0037
113.8537,51.0686
113.7888,51.1120
113.7123,51.1272
113.3123,51.1272
113.2357,51.1120
113.1709,51.0686
113.1275,51.0037
113.1123,50.9272
113.1123,50.3772
113.1275,50.3007
113.1709,50.2358
113.2357,50.1924
113.3123,50.1772
113.7123,50.1772
113.7888,50.1924
113.8537,50.2358
113.8970,50.3007
113.9123,50.3772
Z" /> 
<path style="fill:#000000; fill-opacity:1.0000; stroke:none;fill-rule:evenodd;"
d="M 112.2623,50.9272
112.2470,51.0037
112.2037,51.0686
112.1388,51.1120
112.0623,51.1272
111.6623,51.1272
111.5857,51.1120
111.5209,51.0686
111.4775,51.0037
111.4623,50.9272
111.4623,50.3772
111.4775,50.3007
111.5209,50.2358
111.5857,50.1924
111.6623,50.1772
112.0623,50.1772
112.1388,50.1924
112.2037,50.2358
112.2470,50.3007
112.2623,50.3772
Z" /> 
<path style="fill:#000000; fill-opacity:1.0000; stroke:none;fill-rule:evenodd;"
d="M 90.1656,63.3255
90.1828,63.2393
90.2315,63.1664
90.3045,63.1176
90.3906,63.1005
90.8406,63.1005
90.9267,63.1176
90.9997,63.1664
91.0485,63.2393
91.0656,63.3255
91.0656,63.8255
91.0485,63.9116
90.9997,63.9846
90.9267,64.0333
90.8406,64.0505
90.3906,64.0505
90.3045,64.0333
90.2315,63.9846
90.1828,63.9116
90.1656,63.8255
Z" /> 
<path style="fill:#000000; fill-opacity:1.0000; stroke:none;fill-rule:evenodd;"
d="M 91.7156,63.3255
91.7328,63.2393
91.7815,63.1664
91.8545,63.1176
91.9406,63.1005
92.3906,63.1005
92.4767,63.1176
92.5497,63.1664
92.5985,63.2393
92.6156,63.3255
92.6156,63.8255
92.5985,63.9116
92.5497,63.9846
92.4767,64.0333
92.3906,64.0505
91.9406,64.0505
91.8545,64.0333
91.7815,63.9846
91.7328,63.9116
91.7156,63.8255
Z" /> 
<path style="fill:#000000; fill-opacity:1.0000; stroke:none;fill-rule:evenodd;"
d="M 128.1601,63.2811
128.2462,63.2982
128.3192,63.3470
128.3680,63.4200
128.3851,63.5061
128.3851,63.9561
128.3680,64.0422
128.3192,64.1152
128.2462,64.1640
128.1601,64.1811
127.6601,64.1811
127.5740,64.1640
127.5010,64.1152
127.4523,64.0422
127.4351,63.9561
127.4351,63.5061
127.4523,63.4200
127.5010,63.3470
127.5740,63.2982
127.6601,63.2811
Z" /> 
<path style="fill:#000000; fill-opacity:1.0000; stroke:none;fill-rule:evenodd;"
d="M 128.1601,64.8311
128.2462,64.8482
128.3192,64.8970
128.3680,64.9700
128.3851,65.0561
128.3851,65.5061
128.3680,65.5922
128.3192,65.6652
128.2462,65.7140
128.1601,65.7311
127.6601,65.7311
127.5740,65.7140
127.5010,65.6652
127.4523,65.5922
127.4351,65.5061
127.4351,65.0561
127.4523,64.9700
127.5010,64.8970
127.5740,64.8482
127.6601,64.8311
Z" /> 
<path style="fill:#000000; fill-opacity:1.0000; stroke:none;fill-rule:evenodd;"
d="M 87.7605,57.7693
87.8466,57.7864
87.9196,57.8352
87.9684,57.9082
87.9855,57.9943
87.9855,58.4443
87.9684,58.5304
87.9196,58.6034
87.8466,58.6521
87.7605,58.6693
87.2605,58.6693
87.1744,58.6521
87.1014,58.6034
87.0526,58.5304
87.0355,58.4443
87.0355,57.9943
87.0526,57.9082
87.1014,57.8352
87.1744,57.7864
87.2605,57.7693
Z" /> 
<path style="fill:#000000; fill-opacity:1.0000; stroke:none;fill-rule:evenodd;"
d="M 87.7605,59.3193
87.8466,59.3364
87.9196,59.3852
87.9684,59.4582
87.9855,59.5443
87.9855,59.9943
87.9684,60.0804
87.9196,60.1534
87.8466,60.2021
87.7605,60.2193
87.2605,60.2193
87.1744,60.2021
87.1014,60.1534
87.0526,60.0804
87.0355,59.9943
87.0355,59.5443
87.0526,59.4582
87.1014,59.3852
87.1744,59.3364
87.2605,59.3193
Z" /> 
<path style="fill:#000000; fill-opacity:1.0000; stroke:none;fill-rule:evenodd;"
d="M 122.4754,65.0607
122.5519,65.0760
122.6168,65.1193
122.6601,65.1842
122.6754,65.2607
122.6754,65.6607
122.6601,65.7373
122.6168,65.8022
122.5519,65.8455
122.4754,65.8607
121.9254,65.8607
121.8488,65.8455
121.7840,65.8022
121.7406,65.7373
121.7254,65.6607
121.7254,65.2607
121.7406,65.1842
121.7840,65.1193
121.8488,65.0760
121.9254,65.0607
Z" /> 
<path style="fill:#000000; fill-opacity:1.0000; stroke:none;fill-rule:evenodd;"
d="M 122.4754,66.7107
122.5519,66.7260
122.6168,66.7693
122.6601,66.8342
122.6754,66.9107
122.6754,67.3107
122.6601,67.3873
122.6168,67.4522
122.5519,67.4955
122.4754,67.5107
121.9254,67.5107
121.8488,67.4955
121.7840,67.4522
121.7406,67.3873
121.7254,67.3107
121.7254,66.9107
121.7406,66.8342
121.7840,66.7693
121.8488,66.7260
121.9254,66.7107
Z" /> 
<path style="fill:#000000; fill-opacity:1.0000; stroke:none;fill-rule:evenodd;"
d="M 85.8101,72.4355
85.7240,72.4184
85.6510,72.3696
85.6023,72.2966
85.5851,72.2105
85.5851,71.7605
85.6023,71.6744
85.6510,71.6014
85.7240,71.5527
85.8101,71.5355
86.3101,71.5355
86.3962,71.5527
86.4692,71.6014
86.5180,71.6744
86.5351,71.7605
86.5351,72.2105
86.5180,72.2966
86.4692,72.3696
86.3962,72.4184
86.3101,72.4355
Z" /> 
<path style="fill:#000000; fill-opacity:1.0000; stroke:none;fill-rule:evenodd;"
d="M 85.8101,70.8855
85.7240,70.8684
85.6510,70.8196
85.6023,70.7466
85.5851,70.6605
85.5851,70.2105
85.6023,70.1244
85.6510,70.0514
85.7240,70.0027
85.8101,69.9855
86.3101,69.9855
86.3962,70.0027
86.4692,70.0514
86.5180,70.1244
86.5351,70.2105
86.5351,70.6605
86.5180,70.7466
86.4692,70.8196
86.3962,70.8684
86.3101,70.8855
Z" /> 
<path style="fill:#000000; fill-opacity:1.0000; stroke:none;fill-rule:evenodd;"
d="M 87.3101,72.4355
87.2240,72.4184
87.1510,72.3696
87.1023,72.2966
87.0851,72.2105
87.0851,71.7605
87.1023,71.6744
87.1510,71.6014
87.2240,71.5527
87.3101,71.5355
87.8101,71.5355
87.8962,71.5527
87.9692,71.6014
88.0180,71.6744
88.0351,71.7605
88.0351,72.2105
88.0180,72.2966
87.9692,72.3696
87.8962,72.4184
87.8101,72.4355
Z" /> 
<path style="fill:#000000; fill-opacity:1.0000; stroke:none;fill-rule:evenodd;"
d="M 87.3101,70.8855
87.2240,70.8684
87.1510,70.8196
87.1023,70.7466
87.0851,70.6605
87.0851,70.2105
87.1023,70.1244
87.1510,70.0514
87.2240,70.0027
87.3101,69.9855
87.8101,69.9855
87.8962,70.0027
87.9692,70.0514
88.0180,70.1244
88.0351,70.2105
88.0351,70.6605
88.0180,70.7466
87.9692,70.8196
87.8962,70.8684
87.8101,70.8855
Z" /> 
<path style="fill:#000000; fill-opacity:1.0000; stroke:none;fill-rule:evenodd;"
d="M 88.3736,61.4023
88.4119,61.4099
88.4443,61.4316
88.4660,61.4640
88.4736,61.5023
88.4736,62.7773
88.4660,62.8156
88.4443,62.8480
88.4119,62.8697
88.3736,62.8773
88.1736,62.8773
88.1353,62.8697
88.1029,62.8480
88.0812,62.8156
88.0736,62.7773
88.0736,61.5023
88.0812,61.4640
88.1029,61.4316
88.1353,61.4099
88.1736,61.4023
Z" /> 
<path style="fill:#000000; fill-opacity:1.0000; stroke:none;fill-rule:evenodd;"
d="M 87.7236,61.4023
87.7619,61.4099
87.7943,61.4316
87.8160,61.4640
87.8236,61.5023
87.8236,62.7773
87.8160,62.8156
87.7943,62.8480
87.7619,62.8697
87.7236,62.8773
87.5236,62.8773
87.4853,62.8697
87.4529,62.8480
87.4312,62.8156
87.4236,62.7773
87.4236,61.5023
87.4312,61.4640
87.4529,61.4316
87.4853,61.4099
87.5236,61.4023
Z" /> 
<path style="fill:#000000; fill-opacity:1.0000; stroke:none;fill-rule:evenodd;"
d="M 87.0736,61.4023
87.1119,61.4099
87.1443,61.4316
87.1660,61.4640
87.1736,61.5023
87.1736,62.7773
87.1660,62.8156
87.1443,62.8480
87.1119,62.8697
87.0736,62.8773
86.8736,62.8773
86.8353,62.8697
86.8029,62.8480
86.7812,62.8156
86.7736,62.7773
86.7736,61.5023
86.7812,61.4640
86.8029,61.4316
86.8353,61.4099
86.8736,61.4023
Z" /> 
<path style="fill:#000000; fill-opacity:1.0000; stroke:none;fill-rule:evenodd;"
d="M 86.4236,61.4023
86.4619,61.4099
86.4943,61.4316
86.5160,61.4640
86.5236,61.5023
86.5236,62.7773
86.5160,62.8156
86.4943,62.8480
86.4619,62.8697
86.4236,62.8773
86.2236,62.8773
86.1853,62.8697
86.1529,62.8480
86.1312,62.8156
86.1236,62.7773
86.1236,61.5023
86.1312,61.4640
86.1529,61.4316
86.1853,61.4099
86.2236,61.4023
Z" /> 
<path style="fill:#000000; fill-opacity:1.0000; stroke:none;fill-rule:evenodd;"
d="M 85.7736,61.4023
85.8119,61.4099
85.8443,61.4316
85.8660,61.4640
85.8736,61.5023
85.8736,62.7773
85.8660,62.8156
85.8443,62.8480
85.8119,62.8697
85.7736,62.8773
85.5736,62.8773
85.5353,62.8697
85.5029,62.8480
85.4812,62.8156
85.4736,62.7773
85.4736,61.5023
85.4812,61.4640
85.5029,61.4316
85.5353,61.4099
85.5736,61.4023
Z" /> 
<path style="fill:#000000; fill-opacity:1.0000; stroke:none;fill-rule:evenodd;"
d="M 85.1236,61.4023
85.1619,61.4099
85.1943,61.4316
85.2160,61.4640
85.2236,61.5023
85.2236,62.7773
85.2160,62.8156
85.1943,62.8480
85.1619,62.8697
85.1236,62.8773
84.9236,62.8773
84.8853,62.8697
84.8529,62.8480
84.8312,62.8156
84.8236,62.7773
84.8236,61.5023
84.8312,61.4640
84.8529,61.4316
84.8853,61.4099
84.9236,61.4023
Z" /> 
<path style="fill:#000000; fill-opacity:1.0000; stroke:none;fill-rule:evenodd;"
d="M 84.4736,61.4023
84.5119,61.4099
84.5443,61.4316
84.5660,61.4640
84.5736,61.5023
84.5736,62.7773
84.5660,62.8156
84.5443,62.8480
84.5119,62.8697
84.4736,62.8773
84.2736,62.8773
84.2353,62.8697
84.2029,62.8480
84.1812,62.8156
84.1736,62.7773
84.1736,61.5023
84.1812,61.4640
84.2029,61.4316
84.2353,61.4099
84.2736,61.4023
Z" /> 
<path style="fill:#000000; fill-opacity:1.0000; stroke:none;fill-rule:evenodd;"
d="M 83.8236,61.4023
83.8619,61.4099
83.8943,61.4316
83.9160,61.4640
83.9236,61.5023
83.9236,62.7773
83.9160,62.8156
83.8943,62.8480
83.8619,62.8697
83.8236,62.8773
83.6236,62.8773
83.5853,62.8697
83.5529,62.8480
83.5312,62.8156
83.5236,62.7773
83.5236,61.5023
83.5312,61.4640
83.5529,61.4316
83.5853,61.4099
83.6236,61.4023
Z" /> 
<path style="fill:#000000; fill-opacity:1.0000; stroke:none;fill-rule:evenodd;"
d="M 83.1736,61.4023
83.2119,61.4099
83.2443,61.4316
83.2660,61.4640
83.2736,61.5023
83.2736,62.7773
83.2660,62.8156
83.2443,62.8480
83.2119,62.8697
83.1736,62.8773
82.9736,62.8773
82.9353,62.8697
82.9029,62.8480
82.8812,62.8156
82.8736,62.7773
82.8736,61.5023
82.8812,61.4640
82.9029,61.4316
82.9353,61.4099
82.9736,61.4023
Z" /> 
<path style="fill:#000000; fill-opacity:1.0000; stroke:none;fill-rule:evenodd;"
d="M 82.5236,61.4023
82.5619,61.4099
82.5943,61.4316
82.6160,61.4640
82.6236,61.5023
82.6236,62.7773
82.6160,62.8156
82.5943,62.8480
82.5619,62.8697
82.5236,62.8773
82.3236,62.8773
82.2853,62.8697
82.2529,62.8480
82.2312,62.8156
82.2236,62.7773
82.2236,61.5023
82.2312,61.4640
82.2529,61.4316
82.2853,61.4099
82.3236,61.4023
Z" /> 
<path style="fill:#000000; fill-opacity:1.0000; stroke:none;fill-rule:evenodd;"
d="M 81.8736,61.4023
81.9119,61.4099
81.9443,61.4316
81.9660,61.4640
81.9736,61.5023
81.9736,62.7773
81.9660,62.8156
81.9443,62.8480
81.9119,62.8697
81.8736,62.8773
81.6736,62.8773
81.6353,62.8697
81.6029,62.8480
81.5812,62.8156
81.5736,62.7773
81.5736,61.5023
81.5812,61.4640
81.6029,61.4316
81.6353,61.4099
81.6736,61.4023
Z" /> 
<path style="fill:#000000; fill-opacity:1.0000; stroke:none;fill-rule:evenodd;"
d="M 81.2236,61.4023
81.2619,61.4099
81.2943,61.4316
81.3160,61.4640
81.3236,61.5023
81.3236,62.7773
81.3160,62.8156
81.2943,62.8480
81.2619,62.8697
81.2236,62.8773
81.0236,62.8773
80.9853,62.8697
80.9529,62.8480
80.9312,62.8156
80.9236,62.7773
80.9236,61.5023
80.9312,61.4640
80.9529,61.4316
80.9853,61.4099
81.0236,61.4023
Z" /> 
<path style="fill:#000000; fill-opacity:1.0000; stroke:none;fill-rule:evenodd;"
d="M 80.5736,61.4023
80.6119,61.4099
80.6443,61.4316
80.6660,61.4640
80.6736,61.5023
80.6736,62.7773
80.6660,62.8156
80.6443,62.8480
80.6119,62.8697
80.5736,62.8773
80.3736,62.8773
80.3353,62.8697
80.3029,62.8480
80.2812,62.8156
80.2736,62.7773
80.2736,61.5023
80.2812,61.4640
80.3029,61.4316
80.3353,61.4099
80.3736,61.4023
Z" /> 
<path style="fill:#000000; fill-opacity:1.0000; stroke:none;fill-rule:evenodd;"
d="M 79.9236,61.4023
79.9619,61.4099
79.9943,61.4316
80.0160,61.4640
80.0236,61.5023
80.0236,62.7773
80.0160,62.8156
79.9943,62.8480
79.9619,62.8697
79.9236,62.8773
79.7236,62.8773
79.6853,62.8697
79.6529,62.8480
79.6312,62.8156
79.6236,62.7773
79.6236,61.5023
79.6312,61.4640
79.6529,61.4316
79.6853,61.4099
79.7236,61.4023
Z" /> 
<path style="fill:#000000; fill-opacity:1.0000; stroke:none;fill-rule:evenodd;"
d="M 79.9236,67.1273
79.9619,67.1349
79.9943,67.1566
80.0160,67.1890
80.0236,67.2273
80.0236,68.5023
80.0160,68.5406
79.9943,68.5730
79.9619,68.5947
79.9236,68.6023
79.7236,68.6023
79.6853,68.5947
79.6529,68.5730
79.6312,68.5406
79.6236,68.5023
79.6236,67.2273
79.6312,67.1890
79.6529,67.1566
79.6853,67.1349
79.7236,67.1273
Z" /> 
<path style="fill:#000000; fill-opacity:1.0000; stroke:none;fill-rule:evenodd;"
d="M 80.5736,67.1273
80.6119,67.1349
80.6443,67.1566
80.6660,67.1890
80.6736,67.2273
80.6736,68.5023
80.6660,68.5406
80.6443,68.5730
80.6119,68.5947
80.5736,68.6023
80.3736,68.6023
80.3353,68.5947
80.3029,68.5730
80.2812,68.5406
80.2736,68.5023
80.2736,67.2273
80.2812,67.1890
80.3029,67.1566
80.3353,67.1349
80.3736,67.1273
Z" /> 
<path style="fill:#000000; fill-opacity:1.0000; stroke:none;fill-rule:evenodd;"
d="M 81.2236,67.1273
81.2619,67.1349
81.2943,67.1566
81.3160,67.1890
81.3236,67.2273
81.3236,68.5023
81.3160,68.5406
81.2943,68.5730
81.2619,68.5947
81.2236,68.6023
81.0236,68.6023
80.9853,68.5947
80.9529,68.5730
80.9312,68.5406
80.9236,68.5023
80.9236,67.2273
80.9312,67.1890
80.9529,67.1566
80.9853,67.1349
81.0236,67.1273
Z" /> 
<path style="fill:#000000; fill-opacity:1.0000; stroke:none;fill-rule:evenodd;"
d="M 81.8736,67.1273
81.9119,67.1349
81.9443,67.1566
81.9660,67.1890
81.9736,67.2273
81.9736,68.5023
81.9660,68.5406
81.9443,68.5730
81.9119,68.5947
81.8736,68.6023
81.6736,68.6023
81.6353,68.5947
81.6029,68.5730
81.5812,68.5406
81.5736,68.5023
81.5736,67.2273
81.5812,67.1890
81.6029,67.1566
81.6353,67.1349
81.6736,67.1273
Z" /> 
<path style="fill:#000000; fill-opacity:1.0000; stroke:none;fill-rule:evenodd;"
d="M 82.5236,67.1273
82.5619,67.1349
82.5943,67.1566
82.6160,67.1890
82.6236,67.2273
82.6236,68.5023
82.6160,68.5406
82.5943,68.5730
82.5619,68.5947
82.5236,68.6023
82.3236,68.6023
82.2853,68.5947
82.2529,68.5730
82.2312,68.5406
82.2236,68.5023
82.2236,67.2273
82.2312,67.1890
82.2529,67.1566
82.2853,67.1349
82.3236,67.1273
Z" /> 
<path style="fill:#000000; fill-opacity:1.0000; stroke:none;fill-rule:evenodd;"
d="M 83.1736,67.1273
83.2119,67.1349
83.2443,67.1566
83.2660,67.1890
83.2736,67.2273
83.2736,68.5023
83.2660,68.5406
83.2443,68.5730
83.2119,68.5947
83.1736,68.6023
82.9736,68.6023
82.9353,68.5947
82.9029,68.5730
82.8812,68.5406
82.8736,68.5023
82.8736,67.2273
82.8812,67.1890
82.9029,67.1566
82.9353,67.1349
82.9736,67.1273
Z" /> 
<path style="fill:#000000; fill-opacity:1.0000; stroke:none;fill-rule:evenodd;"
d="M 83.8236,67.1273
83.8619,67.1349
83.8943,67.1566
83.9160,67.1890
83.9236,67.2273
83.9236,68.5023
83.9160,68.5406
83.8943,68.5730
83.8619,68.5947
83.8236,68.6023
83.6236,68.6023
83.5853,68.5947
83.5529,68.5730
83.5312,68.5406
83.5236,68.5023
83.5236,67.2273
83.5312,67.1890
83.5529,67.1566
83.5853,67.1349
83.6236,67.1273
Z" /> 
<path style="fill:#000000; fill-opacity:1.0000; stroke:none;fill-rule:evenodd;"
d="M 84.4736,67.1273
84.5119,67.1349
84.5443,67.1566
84.5660,67.1890
84.5736,67.2273
84.5736,68.5023
84.5660,68.5406
84.5443,68.5730
84.5119,68.5947
84.4736,68.6023
84.2736,68.6023
84.2353,68.5947
84.2029,68.5730
84.1812,68.5406
84.1736,68.5023
84.1736,67.2273
84.1812,67.1890
84.2029,67.1566
84.2353,67.1349
84.2736,67.1273
Z" /> 
<path style="fill:#000000; fill-opacity:1.0000; stroke:none;fill-rule:evenodd;"
d="M 85.1236,67.1273
85.1619,67.1349
85.1943,67.1566
85.2160,67.1890
85.2236,67.2273
85.2236,68.5023
85.2160,68.5406
85.1943,68.5730
85.1619,68.5947
85.1236,68.6023
84.9236,68.6023
84.8853,68.5947
84.8529,68.5730
84.8312,68.5406
84.8236,68.5023
84.8236,67.2273
84.8312,67.1890
84.8529,67.1566
84.8853,67.1349
84.9236,67.1273
Z" /> 
<path style="fill:#000000; fill-opacity:1.0000; stroke:none;fill-rule:evenodd;"
d="M 85.7736,67.1273
85.8119,67.1349
85.8443,67.1566
85.8660,67.1890
85.8736,67.2273
85.8736,68.5023
85.8660,68.5406
85.8443,68.5730
85.8119,68.5947
85.7736,68.6023
85.5736,68.6023
85.5353,68.5947
85.5029,68.5730
85.4812,68.5406
85.4736,68.5023
85.4736,67.2273
85.4812,67.1890
85.5029,67.1566
85.5353,67.1349
85.5736,67.1273
Z" /> 
<path style="fill:#000000; fill-opacity:1.0000; stroke:none;fill-rule:evenodd;"
d="M 86.4236,67.1273
86.4619,67.1349
86.4943,67.1566
86.5160,67.1890
86.5236,67.2273
86.5236,68.5023
86.5160,68.5406
86.4943,68.5730
86.4619,68.5947
86.4236,68.6023
86.2236,68.6023
86.1853,68.5947
86.1529,68.5730
86.1312,68.5406
86.1236,68.5023
86.1236,67.2273
86.1312,67.1890
86.1529,67.1566
86.1853,67.1349
86.2236,67.1273
Z" /> 
<path style="fill:#000000; fill-opacity:1.0000; stroke:none;fill-rule:evenodd;"
d="M 87.0736,67.1273
87.1119,67.1349
87.1443,67.1566
87.1660,67.1890
87.1736,67.2273
87.1736,68.5023
87.1660,68.5406
87.1443,68.5730
87.1119,68.5947
87.0736,68.6023
86.8736,68.6023
86.8353,68.5947
86.8029,68.5730
86.7812,68.5406
86.7736,68.5023
86.7736,67.2273
86.7812,67.1890
86.8029,67.1566
86.8353,67.1349
86.8736,67.1273
Z" /> 
<path style="fill:#000000; fill-opacity:1.0000; stroke:none;fill-rule:evenodd;"
d="M 87.7236,67.1273
87.7619,67.1349
87.7943,67.1566
87.8160,67.1890
87.8236,67.2273
87.8236,68.5023
87.8160,68.5406
87.7943,68.5730
87.7619,68.5947
87.7236,68.6023
87.5236,68.6023
87.4853,68.5947
87.4529,68.5730
87.4312,68.5406
87.4236,68.5023
87.4236,67.2273
87.4312,67.1890
87.4529,67.1566
87.4853,67.1349
87.5236,67.1273
Z" /> 
<path style="fill:#000000; fill-opacity:1.0000; stroke:none;fill-rule:evenodd;"
d="M 88.3736,67.1273
88.4119,67.1349
88.4443,67.1566
88.4660,67.1890
88.4736,67.2273
88.4736,68.5023
88.4660,68.5406
88.4443,68.5730
88.4119,68.5947
88.3736,68.6023
88.1736,68.6023
88.1353,68.5947
88.1029,68.5730
88.0812,68.5406
88.0736,68.5023
88.0736,67.2273
88.0812,67.1890
88.1029,67.1566
88.1353,67.1349
88.1736,67.1273
Z" /> 
<path style="fill:#000000; fill-opacity:1.0000; stroke:none;fill-rule:evenodd;"
d="M 131.7500,46.2250
131.6639,46.2079
131.5909,46.1591
131.5421,46.0861
131.5250,46.0000
131.5250,45.5500
131.5421,45.4639
131.5909,45.3909
131.6639,45.3421
131.7500,45.3250
132.2500,45.3250
132.3361,45.3421
132.4091,45.3909
132.4579,45.4639
132.4750,45.5500
132.4750,46.0000
132.4579,46.0861
132.4091,46.1591
132.3361,46.2079
132.2500,46.2250
Z" /> 
<path style="fill:#000000; fill-opacity:1.0000; stroke:none;fill-rule:evenodd;"
d="M 131.7500,44.6750
131.6639,44.6579
131.5909,44.6091
131.5421,44.5361
131.5250,44.4500
131.5250,44.0000
131.5421,43.9139
131.5909,43.8409
131.6639,43.7921
131.7500,43.7750
132.2500,43.7750
132.3361,43.7921
132.4091,43.8409
132.4579,43.9139
132.4750,44.0000
132.4750,44.4500
132.4579,44.5361
132.4091,44.6091
132.3361,44.6579
132.2500,44.6750
Z" /> 
<path style="fill:#000000; fill-opacity:1.0000; stroke:none;fill-rule:evenodd;"
d="M 118.9750,51.5580
118.9940,51.4623
119.0482,51.3812
119.1293,51.3270
119.2250,51.3080
119.8750,51.3080
119.9707,51.3270
120.0518,51.3812
120.1060,51.4623
120.1250,51.5580
120.1250,52.8580
120.1060,52.9536
120.0518,53.0347
119.9707,53.0889
119.8750,53.1080
119.2250,53.1080
119.1293,53.0889
119.0482,53.0347
118.9940,52.9536
118.9750,52.8580
Z" /> 
<path style="fill:#000000; fill-opacity:1.0000; stroke:none;fill-rule:evenodd;"
d="M 121.9250,51.5580
121.9440,51.4623
121.9982,51.3812
122.0793,51.3270
122.1750,51.3080
122.8250,51.3080
122.9207,51.3270
123.0018,51.3812
123.0560,51.4623
123.0750,51.5580
123.0750,52.8580
123.0560,52.9536
123.0018,53.0347
122.9207,53.0889
122.8250,53.1080
122.1750,53.1080
122.0793,53.0889
121.9982,53.0347
121.9440,52.9536
121.9250,52.8580
Z" /> 
<path style="fill:#000000; fill-opacity:1.0000; stroke:none;fill-rule:evenodd;"
d="M 108.7500,54.7360
108.8361,54.7532
108.9091,54.8019
108.9579,54.8749
108.9750,54.9610
108.9750,55.4110
108.9579,55.4972
108.9091,55.5701
108.8361,55.6189
108.7500,55.6360
108.2500,55.6360
108.1639,55.6189
108.0909,55.5701
108.0421,55.4972
108.0250,55.4110
108.0250,54.9610
108.0421,54.8749
108.0909,54.8019
108.1639,54.7532
108.2500,54.7360
Z" /> 
<path style="fill:#000000; fill-opacity:1.0000; stroke:none;fill-rule:evenodd;"
d="M 108.7500,56.2860
108.8361,56.3032
108.9091,56.3519
108.9579,56.4249
108.9750,56.5110
108.9750,56.9610
108.9579,57.0472
108.9091,57.1201
108.8361,57.1689
108.7500,57.1860
108.2500,57.1860
108.1639,57.1689
108.0909,57.1201
108.0421,57.0472
108.0250,56.9610
108.0250,56.5110
108.0421,56.4249
108.0909,56.3519
108.1639,56.3032
108.2500,56.2860
Z" /> 
<path style="fill:#000000; fill-opacity:1.0000; stroke:none;fill-rule:evenodd;"
d="M 114.5798,51.9000
114.5912,51.8426
114.6237,51.7939
114.6724,51.7614
114.7298,51.7500
115.9048,51.7500
115.9622,51.7614
116.0109,51.7939
116.0434,51.8426
116.0548,51.9000
116.0548,52.2000
116.0434,52.2574
116.0109,52.3061
115.9622,52.3386
115.9048,52.3500
114.7298,52.3500
114.6724,52.3386
114.6237,52.3061
114.5912,52.2574
114.5798,52.2000
Z" /> 
<path style="fill:#000000; fill-opacity:1.0000; stroke:none;fill-rule:evenodd;"
d="M 114.5798,53.8000
114.5912,53.7426
114.6237,53.6939
114.6724,53.6614
114.7298,53.6500
115.9048,53.6500
115.9622,53.6614
116.0109,53.6939
116.0434,53.7426
116.0548,53.8000
116.0548,54.1000
116.0434,54.1574
116.0109,54.2061
115.9622,54.2386
115.9048,54.2500
114.7298,54.2500
114.6724,54.2386
114.6237,54.2061
114.5912,54.1574
114.5798,54.1000
Z" /> 
<path style="fill:#000000; fill-opacity:1.0000; stroke:none;fill-rule:evenodd;"
d="M 116.4548,52.8500
116.4662,52.7926
116.4987,52.7439
116.5474,52.7114
116.6048,52.7000
117.7798,52.7000
117.8372,52.7114
117.8859,52.7439
117.9184,52.7926
117.9298,52.8500
117.9298,53.1500
117.9184,53.2074
117.8859,53.2561
117.8372,53.2886
117.7798,53.3000
116.6048,53.3000
116.5474,53.2886
116.4987,53.2561
116.4662,53.2074
116.4548,53.1500
Z" /> 
<path style="fill:#000000; fill-opacity:1.0000; stroke:none;fill-rule:evenodd;"
d="M 96.3971,57.1860
96.3206,57.1708
96.2557,57.1275
96.2124,57.0626
96.1971,56.9860
96.1971,56.5860
96.2124,56.5095
96.2557,56.4446
96.3206,56.4013
96.3971,56.3860
96.9471,56.3860
97.0237,56.4013
97.0886,56.4446
97.1319,56.5095
97.1471,56.5860
97.1471,56.9860
97.1319,57.0626
97.0886,57.1275
97.0237,57.1708
96.9471,57.1860
Z" /> 
<path style="fill:#000000; fill-opacity:1.0000; stroke:none;fill-rule:evenodd;"
d="M 96.3971,55.5360
96.3206,55.5208
96.2557,55.4775
96.2124,55.4126
96.1971,55.3360
96.1971,54.9360
96.2124,54.8595
96.2557,54.7946
96.3206,54.7513
96.3971,54.7360
96.9471,54.7360
97.0237,54.7513
97.0886,54.7946
97.1319,54.8595
97.1471,54.9360
97.1471,55.3360
97.1319,55.4126
97.0886,55.4775
97.0237,55.5208
96.9471,55.5360
Z" /> 
<path style="fill:#000000; fill-opacity:1.0000; stroke:none;fill-rule:evenodd;"
d="M 126.7375,65.6500
126.7261,65.7074
126.6936,65.7561
126.6449,65.7886
126.5875,65.8000
125.4125,65.8000
125.3551,65.7886
125.3064,65.7561
125.2739,65.7074
125.2625,65.6500
125.2625,65.3500
125.2739,65.2926
125.3064,65.2439
125.3551,65.2114
125.4125,65.2000
126.5875,65.2000
126.6449,65.2114
126.6936,65.2439
126.7261,65.2926
126.7375,65.3500
Z" /> 
<path style="fill:#000000; fill-opacity:1.0000; stroke:none;fill-rule:evenodd;"
d="M 126.7375,63.7500
126.7261,63.8074
126.6936,63.8561
126.6449,63.8886
126.5875,63.9000
125.4125,63.9000
125.3551,63.8886
125.3064,63.8561
125.2739,63.8074
125.2625,63.7500
125.2625,63.4500
125.2739,63.3926
125.3064,63.3439
125.3551,63.3114
125.4125,63.3000
126.5875,63.3000
126.6449,63.3114
126.6936,63.3439
126.7261,63.3926
126.7375,63.4500
Z" /> 
<path style="fill:#000000; fill-opacity:1.0000; stroke:none;fill-rule:evenodd;"
d="M 124.8625,64.7000
124.8511,64.7574
124.8186,64.8061
124.7699,64.8386
124.7125,64.8500
123.5375,64.8500
123.4801,64.8386
123.4314,64.8061
123.3989,64.7574
123.3875,64.7000
123.3875,64.4000
123.3989,64.3426
123.4314,64.2939
123.4801,64.2614
123.5375,64.2500
124.7125,64.2500
124.7699,64.2614
124.8186,64.2939
124.8511,64.3426
124.8625,64.4000
Z" /> 
<path style="fill:#000000; fill-opacity:1.0000; stroke:none;fill-rule:evenodd;"
d="M 124.7250,43.2750
124.7098,43.3515
124.6664,43.4164
124.6015,43.4598
124.5250,43.4750
124.1250,43.4750
124.0485,43.4598
123.9836,43.4164
123.9402,43.3515
123.9250,43.2750
123.9250,42.7250
123.9402,42.6485
123.9836,42.5836
124.0485,42.5402
124.1250,42.5250
124.5250,42.5250
124.6015,42.5402
124.6664,42.5836
124.7098,42.6485
124.7250,42.7250
Z" /> 
<path style="fill:#000000; fill-opacity:1.0000; stroke:none;fill-rule:evenodd;"
d="M 123.0750,43.2750
123.0598,43.3515
123.0164,43.4164
122.9515,43.4598
122.8750,43.4750
122.4750,43.4750
122.3985,43.4598
122.3336,43.4164
122.2902,43.3515
122.2750,43.2750
122.2750,42.7250
122.2902,42.6485
122.3336,42.5836
122.3985,42.5402
122.4750,42.5250
122.8750,42.5250
122.9515,42.5402
123.0164,42.5836
123.0598,42.6485
123.0750,42.7250
Z" /> 
<path style="fill:#000000; fill-opacity:1.0000; stroke:none;fill-rule:evenodd;"
d="M 79.7834,72.4575
79.6973,72.4404
79.6243,72.3916
79.5755,72.3186
79.5584,72.2325
79.5584,71.7825
79.5755,71.6964
79.6243,71.6234
79.6973,71.5746
79.7834,71.5575
80.2834,71.5575
80.3695,71.5746
80.4425,71.6234
80.4913,71.6964
80.5084,71.7825
80.5084,72.2325
80.4913,72.3186
80.4425,72.3916
80.3695,72.4404
80.2834,72.4575
Z" /> 
<path style="fill:#000000; fill-opacity:1.0000; stroke:none;fill-rule:evenodd;"
d="M 79.7834,70.9075
79.6973,70.8904
79.6243,70.8416
79.5755,70.7686
79.5584,70.6825
79.5584,70.2325
79.5755,70.1464
79.6243,70.0734
79.6973,70.0246
79.7834,70.0075
80.2834,70.0075
80.3695,70.0246
80.4425,70.0734
80.4913,70.1464
80.5084,70.2325
80.5084,70.6825
80.4913,70.7686
80.4425,70.8416
80.3695,70.8904
80.2834,70.9075
Z" /> 
<path style="fill:#000000; fill-opacity:1.0000; stroke:none;fill-rule:evenodd;"
d="M 129.6750,54.7000
129.6579,54.7861
129.6091,54.8591
129.5361,54.9079
129.4500,54.9250
129.0000,54.9250
128.9139,54.9079
128.8409,54.8591
128.7921,54.7861
128.7750,54.7000
128.7750,54.2000
128.7921,54.1139
128.8409,54.0409
128.9139,53.9921
129.0000,53.9750
129.4500,53.9750
129.5361,53.9921
129.6091,54.0409
129.6579,54.1139
129.6750,54.2000
Z" /> 
<path style="fill:#000000; fill-opacity:1.0000; stroke:none;fill-rule:evenodd;"
d="M 128.1250,54.7000
128.1079,54.7861
128.0591,54.8591
127.9861,54.9079
127.9000,54.9250
127.4500,54.9250
127.3639,54.9079
127.2909,54.8591
127.2421,54.7861
127.2250,54.7000
127.2250,54.2000
127.2421,54.1139
127.2909,54.0409
127.3639,53.9921
127.4500,53.9750
127.9000,53.9750
127.9861,53.9921
128.0591,54.0409
128.1079,54.1139
128.1250,54.2000
Z" /> 
<path style="fill:#000000; fill-opacity:1.0000; stroke:none;fill-rule:evenodd;"
d="M 82.4175,47.3584
82.4749,47.3698
82.5236,47.4023
82.5561,47.4510
82.5675,47.5084
82.5675,48.5334
82.5561,48.5908
82.5236,48.6394
82.4749,48.6719
82.4175,48.6834
82.1175,48.6834
82.0601,48.6719
82.0114,48.6394
81.9789,48.5908
81.9675,48.5334
81.9675,47.5084
81.9789,47.4510
82.0114,47.4023
82.0601,47.3698
82.1175,47.3584
Z" /> 
<path style="fill:#000000; fill-opacity:1.0000; stroke:none;fill-rule:evenodd;"
d="M 81.4675,47.3584
81.5249,47.3698
81.5736,47.4023
81.6061,47.4510
81.6175,47.5084
81.6175,48.5334
81.6061,48.5908
81.5736,48.6394
81.5249,48.6719
81.4675,48.6834
81.1675,48.6834
81.1101,48.6719
81.0614,48.6394
81.0289,48.5908
81.0175,48.5334
81.0175,47.5084
81.0289,47.4510
81.0614,47.4023
81.1101,47.3698
81.1675,47.3584
Z" /> 
<path style="fill:#000000; fill-opacity:1.0000; stroke:none;fill-rule:evenodd;"
d="M 80.5175,47.3584
80.5749,47.3698
80.6236,47.4023
80.6561,47.4510
80.6675,47.5084
80.6675,48.5334
80.6561,48.5908
80.6236,48.6394
80.5749,48.6719
80.5175,48.6834
80.2175,48.6834
80.1601,48.6719
80.1114,48.6394
80.0789,48.5908
80.0675,48.5334
80.0675,47.5084
80.0789,47.4510
80.1114,47.4023
80.1601,47.3698
80.2175,47.3584
Z" /> 
<path style="fill:#000000; fill-opacity:1.0000; stroke:none;fill-rule:evenodd;"
d="M 80.5175,49.6334
80.5749,49.6448
80.6236,49.6773
80.6561,49.7260
80.6675,49.7834
80.6675,50.8084
80.6561,50.8658
80.6236,50.9144
80.5749,50.9469
80.5175,50.9584
80.2175,50.9584
80.1601,50.9469
80.1114,50.9144
80.0789,50.8658
80.0675,50.8084
80.0675,49.7834
80.0789,49.7260
80.1114,49.6773
80.1601,49.6448
80.2175,49.6334
Z" /> 
<path style="fill:#000000; fill-opacity:1.0000; stroke:none;fill-rule:evenodd;"
d="M 82.4175,49.6334
82.4749,49.6448
82.5236,49.6773
82.5561,49.7260
82.5675,49.7834
82.5675,50.8084
82.5561,50.8658
82.5236,50.9144
82.4749,50.9469
82.4175,50.9584
82.1175,50.9584
82.0601,50.9469
82.0114,50.9144
81.9789,50.8658
81.9675,50.8084
81.9675,49.7834
81.9789,49.7260
82.0114,49.6773
82.0601,49.6448
82.1175,49.6334
Z" /> 
<path style="fill:#000000; fill-opacity:1.0000; stroke:none;fill-rule:evenodd;"
d="M 99.5850,75.7250
99.5085,75.7098
99.4436,75.6664
99.4002,75.6015
99.3850,75.5250
99.3850,75.1250
99.4002,75.0485
99.4436,74.9836
99.5085,74.9402
99.5850,74.9250
100.1350,74.9250
100.2115,74.9402
100.2764,74.9836
100.3198,75.0485
100.3350,75.1250
100.3350,75.5250
100.3198,75.6015
100.2764,75.6664
100.2115,75.7098
100.1350,75.7250
Z" /> 
<path style="fill:#000000; fill-opacity:1.0000; stroke:none;fill-rule:evenodd;"
d="M 99.5850,74.0750
99.5085,74.0598
99.4436,74.0164
99.4002,73.9515
99.3850,73.8750
99.3850,73.4750
99.4002,73.3985
99.4436,73.3336
99.5085,73.2902
99.5850,73.2750
100.1350,73.2750
100.2115,73.2902
100.2764,73.3336
100.3198,73.3985
100.3350,73.4750
100.3350,73.8750
100.3198,73.9515
100.2764,74.0164
100.2115,74.0598
100.1350,74.0750
Z" /> 
<path style="fill:#000000; fill-opacity:1.0000; stroke:none;fill-rule:evenodd;"
d="M 94.5566,54.7360
94.6427,54.7532
94.7157,54.8019
94.7645,54.8749
94.7816,54.9610
94.7816,55.4110
94.7645,55.4972
94.7157,55.5701
94.6427,55.6189
94.5566,55.6360
94.0566,55.6360
93.9705,55.6189
93.8975,55.5701
93.8487,55.4972
93.8316,55.4110
93.8316,54.9610
93.8487,54.8749
93.8975,54.8019
93.9705,54.7532
94.0566,54.7360
Z" /> 
<path style="fill:#000000; fill-opacity:1.0000; stroke:none;fill-rule:evenodd;"
d="M 94.5566,56.2860
94.6427,56.3032
94.7157,56.3519
94.7645,56.4249
94.7816,56.5110
94.7816,56.9610
94.7645,57.0472
94.7157,57.1201
94.6427,57.1689
94.5566,57.1860
94.0566,57.1860
93.9705,57.1689
93.8975,57.1201
93.8487,57.0472
93.8316,56.9610
93.8316,56.5110
93.8487,56.4249
93.8975,56.3519
93.9705,56.3032
94.0566,56.2860
Z" /> 
<path style="fill:#000000; fill-opacity:1.0000; stroke:none;fill-rule:evenodd;"
d="M 117.0312,56.0754
117.0934,56.0877
117.1461,56.1230
117.1813,56.1757
117.1937,56.2379
117.1937,57.1329
117.1813,57.1950
117.1461,57.2478
117.0934,57.2830
117.0312,57.2954
116.7062,57.2954
116.6440,57.2830
116.5913,57.2478
116.5560,57.1950
116.5437,57.1329
116.5437,56.2379
116.5560,56.1757
116.5913,56.1230
116.6440,56.0877
116.7062,56.0754
Z" /> 
<path style="fill:#000000; fill-opacity:1.0000; stroke:none;fill-rule:evenodd;"
d="M 115.1312,56.0754
115.1934,56.0877
115.2461,56.1230
115.2813,56.1757
115.2937,56.2379
115.2937,57.1329
115.2813,57.1950
115.2461,57.2478
115.1934,57.2830
115.1312,57.2954
114.8062,57.2954
114.7440,57.2830
114.6913,57.2478
114.6560,57.1950
114.6437,57.1329
114.6437,56.2379
114.6560,56.1757
114.6913,56.1230
114.7440,56.0877
114.8062,56.0754
Z" /> 
<path style="fill:#000000; fill-opacity:1.0000; stroke:none;fill-rule:evenodd;"
d="M 116.0812,58.6954
116.1434,58.7077
116.1961,58.7430
116.2313,58.7957
116.2437,58.8579
116.2437,59.7529
116.2313,59.8150
116.1961,59.8678
116.1434,59.9030
116.0812,59.9154
115.7562,59.9154
115.6940,59.9030
115.6413,59.8678
115.6060,59.8150
115.5937,59.7529
115.5937,58.8579
115.6060,58.7957
115.6413,58.7430
115.6940,58.7077
115.7562,58.6954
Z" /> 
<path style="fill:#000000; fill-opacity:1.0000; stroke:none;fill-rule:evenodd;"
d="M 101.2455,71.2346
101.2626,71.1485
101.3114,71.0755
101.3844,71.0267
101.4705,71.0096
101.9205,71.0096
102.0066,71.0267
102.0796,71.0755
102.1284,71.1485
102.1455,71.2346
102.1455,71.7346
102.1284,71.8207
102.0796,71.8937
102.0066,71.9425
101.9205,71.9596
101.4705,71.9596
101.3844,71.9425
101.3114,71.8937
101.2626,71.8207
101.2455,71.7346
Z" /> 
<path style="fill:#000000; fill-opacity:1.0000; stroke:none;fill-rule:evenodd;"
d="M 102.7955,71.2346
102.8126,71.1485
102.8614,71.0755
102.9344,71.0267
103.0205,71.0096
103.4705,71.0096
103.5566,71.0267
103.6296,71.0755
103.6784,71.1485
103.6955,71.2346
103.6955,71.7346
103.6784,71.8207
103.6296,71.8937
103.5566,71.9425
103.4705,71.9596
103.0205,71.9596
102.9344,71.9425
102.8614,71.8937
102.8126,71.8207
102.7955,71.7346
Z" /> 
<path style="fill:#000000; fill-opacity:1.0000; stroke:none;fill-rule:evenodd;"
d="M 111.4698,54.9096
111.4850,54.8330
111.5284,54.7681
111.5933,54.7248
111.6698,54.7096
112.0698,54.7096
112.1463,54.7248
112.2112,54.7681
112.2546,54.8330
112.2698,54.9096
112.2698,55.4596
112.2546,55.5361
112.2112,55.6010
112.1463,55.6443
112.0698,55.6596
111.6698,55.6596
111.5933,55.6443
111.5284,55.6010
111.4850,55.5361
111.4698,55.4596
Z" /> 
<path style="fill:#000000; fill-opacity:1.0000; stroke:none;fill-rule:evenodd;"
d="M 93.6955,70.2550
93.6803,70.3315
93.6369,70.3964
93.5721,70.4398
93.4955,70.4550
93.0955,70.4550
93.0190,70.4398
92.9541,70.3964
92.9107,70.3315
92.8955,70.2550
92.8955,69.7050
92.9107,69.6285
92.9541,69.5636
93.0190,69.5202
93.0955,69.5050
93.4955,69.5050
93.5721,69.5202
93.6369,69.5636
93.6803,69.6285
93.6955,69.7050
Z" /> 
<path style="fill:#000000; fill-opacity:1.0000; stroke:none;fill-rule:evenodd;"
d="M 92.0455,70.2550
92.0303,70.3315
91.9869,70.3964
91.9221,70.4398
91.8455,70.4550
91.4455,70.4550
91.3690,70.4398
91.3041,70.3964
91.2607,70.3315
91.2455,70.2550
91.2455,69.7050
91.2607,69.6285
91.3041,69.5636
91.3690,69.5202
91.4455,69.5050
91.8455,69.5050
91.9221,69.5202
91.9869,69.5636
92.0303,69.6285
92.0455,69.7050
Z" /> 
<path style="fill:#000000; fill-opacity:1.0000; stroke:none;fill-rule:evenodd;"
d="M 127.0000,57.4917
127.0957,57.5107
127.1768,57.5649
127.2310,57.6460
127.2500,57.7417
127.2500,60.5417
127.2310,60.6373
127.1768,60.7185
127.0957,60.7726
127.0000,60.7917
125.0000,60.7917
124.9043,60.7726
124.8232,60.7185
124.7690,60.6373
124.7500,60.5417
124.7500,57.7417
124.7690,57.6460
124.8232,57.5649
124.9043,57.5107
125.0000,57.4917
Z" /> 
<path style="fill:#000000; fill-opacity:1.0000; stroke:none;fill-rule:evenodd;"
d="M 120.2000,57.4917
120.2957,57.5107
120.3768,57.5649
120.4310,57.6460
120.4500,57.7417
120.4500,60.5417
120.4310,60.6373
120.3768,60.7185
120.2957,60.7726
120.2000,60.7917
118.2000,60.7917
118.1043,60.7726
118.0232,60.7185
117.9690,60.6373
117.9500,60.5417
117.9500,57.7417
117.9690,57.6460
118.0232,57.5649
118.1043,57.5107
118.2000,57.4917
Z" /> 
<path style="fill:#000000; fill-opacity:1.0000; stroke:none;fill-rule:evenodd;"
d="M 129.3873,65.7278
129.3586,65.7221
129.3343,65.7058
129.3180,65.6815
129.3123,65.6528
129.3123,63.8328
129.3180,63.8041
129.3343,63.7797
129.3586,63.7635
129.3873,63.7578
129.8373,63.7578
129.8660,63.7635
129.8903,63.7797
129.9066,63.8041
129.9123,63.8328
129.9123,65.6528
129.9066,65.6815
129.8903,65.7058
129.8660,65.7221
129.8373,65.7278
Z" /> 
<path style="fill:#000000; fill-opacity:1.0000; stroke:none;fill-rule:evenodd;"
d="M 130.6573,65.7278
130.6286,65.7221
130.6043,65.7058
130.5880,65.6815
130.5823,65.6528
130.5823,63.8328
130.5880,63.8041
130.6043,63.7797
130.6286,63.7635
130.6573,63.7578
131.1073,63.7578
131.1360,63.7635
131.1603,63.7797
131.1766,63.8041
131.1823,63.8328
131.1823,65.6528
131.1766,65.6815
131.1603,65.7058
131.1360,65.7221
131.1073,65.7278
Z" /> 
<path style="fill:#000000; fill-opacity:1.0000; stroke:none;fill-rule:evenodd;"
d="M 131.9273,65.7278
131.8986,65.7221
131.8743,65.7058
131.8580,65.6815
131.8523,65.6528
131.8523,63.8328
131.8580,63.8041
131.8743,63.7797
131.8986,63.7635
131.9273,63.7578
132.3773,63.7578
132.4060,63.7635
132.4303,63.7797
132.4466,63.8041
132.4523,63.8328
132.4523,65.6528
132.4466,65.6815
132.4303,65.7058
132.4060,65.7221
132.3773,65.7278
Z" /> 
<path style="fill:#000000; fill-opacity:1.0000; stroke:none;fill-rule:evenodd;"
d="M 133.1973,65.7278
133.1686,65.7221
133.1443,65.7058
133.1280,65.6815
133.1223,65.6528
133.1223,63.8328
133.1280,63.8041
133.1443,63.7797
133.1686,63.7635
133.1973,63.7578
133.6473,63.7578
133.6760,63.7635
133.7003,63.7797
133.7166,63.8041
133.7223,63.8328
133.7223,65.6528
133.7166,65.6815
133.7003,65.7058
133.6760,65.7221
133.6473,65.7278
Z" /> 
<path style="fill:#000000; fill-opacity:1.0000; stroke:none;fill-rule:evenodd;"
d="M 133.1973,60.7778
133.1686,60.7721
133.1443,60.7558
133.1280,60.7315
133.1223,60.7028
133.1223,58.8828
133.1280,58.8541
133.1443,58.8297
133.1686,58.8135
133.1973,58.8078
133.6473,58.8078
133.6760,58.8135
133.7003,58.8297
133.7166,58.8541
133.7223,58.8828
133.7223,60.7028
133.7166,60.7315
133.7003,60.7558
133.6760,60.7721
133.6473,60.7778
Z" /> 
<path style="fill:#000000; fill-opacity:1.0000; stroke:none;fill-rule:evenodd;"
d="M 131.9273,60.7778
131.8986,60.7721
131.8743,60.7558
131.8580,60.7315
131.8523,60.7028
131.8523,58.8828
131.8580,58.8541
131.8743,58.8297
131.8986,58.8135
131.9273,58.8078
132.3773,58.8078
132.4060,58.8135
132.4303,58.8297
132.4466,58.8541
132.4523,58.8828
132.4523,60.7028
132.4466,60.7315
132.4303,60.7558
132.4060,60.7721
132.3773,60.7778
Z" /> 
<path style="fill:#000000; fill-opacity:1.0000; stroke:none;fill-rule:evenodd;"
d="M 130.6573,60.7778
130.6286,60.7721
130.6043,60.7558
130.5880,60.7315
130.5823,60.7028
130.5823,58.8828
130.5880,58.8541
130.6043,58.8297
130.6286,58.8135
130.6573,58.8078
131.1073,58.8078
131.1360,58.8135
131.1603,58.8297
131.1766,58.8541
131.1823,58.8828
131.1823,60.7028
131.1766,60.7315
131.1603,60.7558
131.1360,60.7721
131.1073,60.7778
Z" /> 
<path style="fill:#000000; fill-opacity:1.0000; stroke:none;fill-rule:evenodd;"
d="M 129.3873,60.7778
129.3586,60.7721
129.3343,60.7558
129.3180,60.7315
129.3123,60.7028
129.3123,58.8828
129.3180,58.8541
129.3343,58.8297
129.3586,58.8135
129.3873,58.8078
129.8373,58.8078
129.8660,58.8135
129.8903,58.8297
129.9066,58.8541
129.9123,58.8828
129.9123,60.7028
129.9066,60.7315
129.8903,60.7558
129.8660,60.7721
129.8373,60.7778
Z" /> 
<path style="fill:#000000; fill-opacity:1.0000; stroke:none;fill-rule:evenodd;"
d="M 90.2676,60.2250
90.1815,60.2079
90.1085,60.1591
90.0597,60.0861
90.0426,60.0000
90.0426,59.5500
90.0597,59.4639
90.1085,59.3909
90.1815,59.3421
90.2676,59.3250
90.7676,59.3250
90.8537,59.3421
90.9267,59.3909
90.9754,59.4639
90.9926,59.5500
90.9926,60.0000
90.9754,60.0861
90.9267,60.1591
90.8537,60.2079
90.7676,60.2250
Z" /> 
<path style="fill:#000000; fill-opacity:1.0000; stroke:none;fill-rule:evenodd;"
d="M 90.2676,58.6750
90.1815,58.6579
90.1085,58.6091
90.0597,58.5361
90.0426,58.4500
90.0426,58.0000
90.0597,57.9139
90.1085,57.8409
90.1815,57.7921
90.2676,57.7750
90.7676,57.7750
90.8537,57.7921
90.9267,57.8409
90.9754,57.9139
90.9926,58.0000
90.9926,58.4500
90.9754,58.5361
90.9267,58.6091
90.8537,58.6579
90.7676,58.6750
Z" /> 
<path style="fill:#000000; fill-opacity:1.0000; stroke:none;fill-rule:evenodd;"
d="M 135.4500,55.7750
135.5265,55.7902
135.5914,55.8336
135.6348,55.8985
135.6500,55.9750
135.6500,56.3750
135.6348,56.4515
135.5914,56.5164
135.5265,56.5598
135.4500,56.5750
134.9000,56.5750
134.8235,56.5598
134.7586,56.5164
134.7152,56.4515
134.7000,56.3750
134.7000,55.9750
134.7152,55.8985
134.7586,55.8336
134.8235,55.7902
134.9000,55.7750
Z" /> 
<path style="fill:#000000; fill-opacity:1.0000; stroke:none;fill-rule:evenodd;"
d="M 135.4500,57.4250
135.5265,57.4402
135.5914,57.4836
135.6348,57.5485
135.6500,57.6250
135.6500,58.0250
135.6348,58.1015
135.5914,58.1664
135.5265,58.2098
135.4500,58.2250
134.9000,58.2250
134.8235,58.2098
134.7586,58.1664
134.7152,58.1015
134.7000,58.0250
134.7000,57.6250
134.7152,57.5485
134.7586,57.4836
134.8235,57.4402
134.9000,57.4250
Z" /> 
<path style="fill:#000000; fill-opacity:1.0000; stroke:none;fill-rule:evenodd;"
d="M 93.6955,74.7550
93.6803,74.8315
93.6369,74.8964
93.5721,74.9398
93.4955,74.9550
93.0955,74.9550
93.0190,74.9398
92.9541,74.8964
92.9107,74.8315
92.8955,74.7550
92.8955,74.2050
92.9107,74.1285
92.9541,74.0636
93.0190,74.0202
93.0955,74.0050
93.4955,74.0050
93.5721,74.0202
93.6369,74.0636
93.6803,74.1285
93.6955,74.2050
Z" /> 
<path style="fill:#000000; fill-opacity:1.0000; stroke:none;fill-rule:evenodd;"
d="M 92.0455,74.7550
92.0303,74.8315
91.9869,74.8964
91.9221,74.9398
91.8455,74.9550
91.4455,74.9550
91.3690,74.9398
91.3041,74.8964
91.2607,74.8315
91.2455,74.7550
91.2455,74.2050
91.2607,74.1285
91.3041,74.0636
91.3690,74.0202
91.4455,74.0050
91.8455,74.0050
91.9221,74.0202
91.9869,74.0636
92.0303,74.1285
92.0455,74.2050
Z" /> 
<path style="fill:#000000; fill-opacity:1.0000; stroke:none;fill-rule:evenodd;"
d="M 81.8155,70.0075
81.8921,70.0227
81.9570,70.0661
82.0003,70.1310
82.0155,70.2075
82.0155,70.6075
82.0003,70.6841
81.9570,70.7489
81.8921,70.7923
81.8155,70.8075
81.2655,70.8075
81.1890,70.7923
81.1241,70.7489
81.0808,70.6841
81.0655,70.6075
81.0655,70.2075
81.0808,70.1310
81.1241,70.0661
81.1890,70.0227
81.2655,70.0075
Z" /> 
<path style="fill:#000000; fill-opacity:1.0000; stroke:none;fill-rule:evenodd;"
d="M 81.8155,71.6575
81.8921,71.6727
81.9570,71.7161
82.0003,71.7810
82.0155,71.8575
82.0155,72.2575
82.0003,72.3341
81.9570,72.3989
81.8921,72.4423
81.8155,72.4575
81.2655,72.4575
81.1890,72.4423
81.1241,72.3989
81.0808,72.3341
81.0655,72.2575
81.0655,71.8575
81.0808,71.7810
81.1241,71.7161
81.1890,71.6727
81.2655,71.6575
Z" /> 
<path style="fill:#000000; fill-opacity:1.0000; stroke:none;fill-rule:evenodd;"
d="M 80.1802,51.8774
80.1973,51.7913
80.2461,51.7183
80.3191,51.6695
80.4052,51.6524
80.8552,51.6524
80.9413,51.6695
81.0143,51.7183
81.0631,51.7913
81.0802,51.8774
81.0802,52.3774
81.0631,52.4635
81.0143,52.5365
80.9413,52.5853
80.8552,52.6024
80.4052,52.6024
80.3191,52.5853
80.2461,52.5365
80.1973,52.4635
80.1802,52.3774
Z" /> 
<path style="fill:#000000; fill-opacity:1.0000; stroke:none;fill-rule:evenodd;"
d="M 81.7302,51.8774
81.7473,51.7913
81.7961,51.7183
81.8691,51.6695
81.9552,51.6524
82.4052,51.6524
82.4913,51.6695
82.5643,51.7183
82.6131,51.7913
82.6302,51.8774
82.6302,52.3774
82.6131,52.4635
82.5643,52.5365
82.4913,52.5853
82.4052,52.6024
81.9552,52.6024
81.8691,52.5853
81.7961,52.5365
81.7473,52.4635
81.7302,52.3774
Z" /> 
<path style="fill:#000000; fill-opacity:1.0000; stroke:none;fill-rule:evenodd;"
d="M 123.7000,45.9000
123.7000,49.1000
121.3000,49.1000
121.3000,45.9000
Z" /> 
<path style="fill:#000000; fill-opacity:1.0000; stroke:none;fill-rule:evenodd;"
d="M 117.7000,45.9000
117.7000,49.1000
115.3000,49.1000
115.3000,45.9000
Z" /> 
<path style="fill:#000000; fill-opacity:1.0000; stroke:none;fill-rule:evenodd;"
d="M 82.7727,72.4575
82.6962,72.4423
82.6313,72.3989
82.5879,72.3341
82.5727,72.2575
82.5727,71.8575
82.5879,71.7810
82.6313,71.7161
82.6962,71.6727
82.7727,71.6575
83.3227,71.6575
83.3992,71.6727
83.4641,71.7161
83.5075,71.7810
83.5227,71.8575
83.5227,72.2575
83.5075,72.3341
83.4641,72.3989
83.3992,72.4423
83.3227,72.4575
Z" /> 
<path style="fill:#000000; fill-opacity:1.0000; stroke:none;fill-rule:evenodd;"
d="M 82.7727,70.8075
82.6962,70.7923
82.6313,70.7489
82.5879,70.6841
82.5727,70.6075
82.5727,70.2075
82.5879,70.1310
82.6313,70.0661
82.6962,70.0227
82.7727,70.0075
83.3227,70.0075
83.3992,70.0227
83.4641,70.0661
83.5075,70.1310
83.5227,70.2075
83.5227,70.6075
83.5075,70.6841
83.4641,70.7489
83.3992,70.7923
83.3227,70.8075
Z" /> 
<path style="fill:#000000; fill-opacity:1.0000; stroke:none;fill-rule:evenodd;"
d="M 93.6955,73.2300
93.6784,73.3161
93.6296,73.3891
93.5566,73.4379
93.4705,73.4550
93.0205,73.4550
92.9344,73.4379
92.8614,73.3891
92.8126,73.3161
92.7955,73.2300
92.7955,72.7300
92.8126,72.6439
92.8614,72.5709
92.9344,72.5221
93.0205,72.5050
93.4705,72.5050
93.5566,72.5221
93.6296,72.5709
93.6784,72.6439
93.6955,72.7300
Z" /> 
<path style="fill:#000000; fill-opacity:1.0000; stroke:none;fill-rule:evenodd;"
d="M 92.1455,73.2300
92.1284,73.3161
92.0796,73.3891
92.0066,73.4379
91.9205,73.4550
91.4705,73.4550
91.3844,73.4379
91.3114,73.3891
91.2626,73.3161
91.2455,73.2300
91.2455,72.7300
91.2626,72.6439
91.3114,72.5709
91.3844,72.5221
91.4705,72.5050
91.9205,72.5050
92.0066,72.5221
92.0796,72.5709
92.1284,72.6439
92.1455,72.7300
Z" /> 
<path style="fill:#000000; fill-opacity:1.0000; stroke:none;fill-rule:evenodd;"
d="M 90.1808,67.7147
90.1979,67.6285
90.2467,67.5556
90.3196,67.5068
90.4058,67.4897
90.8558,67.4897
90.9419,67.5068
91.0148,67.5556
91.0636,67.6285
91.0808,67.7147
91.0808,68.2147
91.0636,68.3008
91.0148,68.3738
90.9419,68.4225
90.8558,68.4397
90.4058,68.4397
90.3196,68.4225
90.2467,68.3738
90.1979,68.3008
90.1808,68.2147
Z" /> 
<path style="fill:#000000; fill-opacity:1.0000; stroke:none;fill-rule:evenodd;"
d="M 91.7308,67.7147
91.7479,67.6285
91.7967,67.5556
91.8696,67.5068
91.9558,67.4897
92.4058,67.4897
92.4919,67.5068
92.5648,67.5556
92.6136,67.6285
92.6308,67.7147
92.6308,68.2147
92.6136,68.3008
92.5648,68.3738
92.4919,68.4225
92.4058,68.4397
91.9558,68.4397
91.8696,68.4225
91.7967,68.3738
91.7479,68.3008
91.7308,68.2147
Z" /> 
<path style="fill:#000000; fill-opacity:1.0000; stroke:none;fill-rule:evenodd;"
d="M 104.0189,54.7360
104.1050,54.7532
104.1780,54.8019
104.2267,54.8749
104.2439,54.9610
104.2439,55.4110
104.2267,55.4972
104.1780,55.5701
104.1050,55.6189
104.0189,55.6360
103.5189,55.6360
103.4328,55.6189
103.3598,55.5701
103.3110,55.4972
103.2939,55.4110
103.2939,54.9610
103.3110,54.8749
103.3598,54.8019
103.4328,54.7532
103.5189,54.7360
Z" /> 
<path style="fill:#000000; fill-opacity:1.0000; stroke:none;fill-rule:evenodd;"
d="M 104.0189,56.2860
104.1050,56.3032
104.1780,56.3519
104.2267,56.4249
104.2439,56.5110
104.2439,56.9610
104.2267,57.0472
104.1780,57.1201
104.1050,57.1689
104.0189,57.1860
103.5189,57.1860
103.4328,57.1689
103.3598,57.1201
103.3110,57.0472
103.2939,56.9610
103.2939,56.5110
103.3110,56.4249
103.3598,56.3519
103.4328,56.3032
103.5189,56.2860
Z" /> 
<path style="fill:#000000; fill-opacity:1.0000; stroke:none;fill-rule:evenodd;"
d="M 84.8048,70.0075
84.8909,70.0246
84.9639,70.0734
85.0127,70.1464
85.0298,70.2325
85.0298,70.6825
85.0127,70.7686
84.9639,70.8416
84.8909,70.8904
84.8048,70.9075
84.3048,70.9075
84.2187,70.8904
84.1457,70.8416
84.0970,70.7686
84.0798,70.6825
84.0798,70.2325
84.0970,70.1464
84.1457,70.0734
84.2187,70.0246
84.3048,70.0075
Z" /> 
<path style="fill:#000000; fill-opacity:1.0000; stroke:none;fill-rule:evenodd;"
d="M 84.8048,71.5575
84.8909,71.5746
84.9639,71.6234
85.0127,71.6964
85.0298,71.7825
85.0298,72.2325
85.0127,72.3186
84.9639,72.3916
84.8909,72.4404
84.8048,72.4575
84.3048,72.4575
84.2187,72.4404
84.1457,72.3916
84.0970,72.3186
84.0798,72.2325
84.0798,71.7825
84.0970,71.6964
84.1457,71.6234
84.2187,71.5746
84.3048,71.5575
Z" /> 
<path style="fill:#000000; fill-opacity:1.0000; stroke:none;fill-rule:evenodd;"
d="M 101.2455,72.7392
101.2626,72.6531
101.3114,72.5801
101.3844,72.5313
101.4705,72.5142
101.9205,72.5142
102.0066,72.5313
102.0796,72.5801
102.1284,72.6531
102.1455,72.7392
102.1455,73.2392
102.1284,73.3253
102.0796,73.3983
102.0066,73.4471
101.9205,73.4642
101.4705,73.4642
101.3844,73.4471
101.3114,73.3983
101.2626,73.3253
101.2455,73.2392
Z" /> 
<path style="fill:#000000; fill-opacity:1.0000; stroke:none;fill-rule:evenodd;"
d="M 102.7955,72.7392
102.8126,72.6531
102.8614,72.5801
102.9344,72.5313
103.0205,72.5142
103.4705,72.5142
103.5566,72.5313
103.6296,72.5801
103.6784,72.6531
103.6955,72.7392
103.6955,73.2392
103.6784,73.3253
103.6296,73.3983
103.5566,73.4471
103.4705,73.4642
103.0205,73.4642
102.9344,73.4471
102.8614,73.3983
102.8126,73.3253
102.7955,73.2392
Z" /> 
<path style="fill:#000000; fill-opacity:1.0000; stroke:none;fill-rule:evenodd;"
d="M 91.2455,71.2438
91.2626,71.1577
91.3114,71.0847
91.3844,71.0359
91.4705,71.0188
91.9205,71.0188
92.0066,71.0359
92.0796,71.0847
92.1284,71.1577
92.1455,71.2438
92.1455,71.7438
92.1284,71.8299
92.0796,71.9029
92.0066,71.9517
91.9205,71.9688
91.4705,71.9688
91.3844,71.9517
91.3114,71.9029
91.2626,71.8299
91.2455,71.7438
Z" /> 
<path style="fill:#000000; fill-opacity:1.0000; stroke:none;fill-rule:evenodd;"
d="M 92.7955,71.2438
92.8126,71.1577
92.8614,71.0847
92.9344,71.0359
93.0205,71.0188
93.4705,71.0188
93.5566,71.0359
93.6296,71.0847
93.6784,71.1577
93.6955,71.2438
93.6955,71.7438
93.6784,71.8299
93.6296,71.9029
93.5566,71.9517
93.4705,71.9688
93.0205,71.9688
92.9344,71.9517
92.8614,71.9029
92.8126,71.8299
92.7955,71.7438
Z" /> 
</g> 
</svg>
