<?xml version="1.0" standalone="no"?>
 <!DOCTYPE svg PUBLIC "-//W3C//DTD SVG 1.1//EN" 
 "http://www.w3.org/Graphics/SVG/1.1/DTD/svg11.dtd"> 
<svg
  xmlns:svg="http://www.w3.org/2000/svg"
  xmlns="http://www.w3.org/2000/svg"
  xmlns:xlink="http://www.w3.org/1999/xlink"
  xmlns:inkscape="http://www.inkscape.org/namespaces/inkscape"
  version="1.1"
  width="210.0072mm" height="148.0058mm" viewBox="0.0000 0.0000 210.0072 148.0058">
<title>SVG Image created as PiGarage-Board Layer Stack Bottom Solder.svg date 2026-03-31T14:45:00 </title>
  <desc>Image generated by PCBNEW </desc>
<g style="fill:#000000; fill-opacity:1.0000;stroke:#000000; stroke-opacity:1.0000;
stroke-linecap:round; stroke-linejoin:round;"
 transform="translate(0 0) scale(1 1)">
</g>
<g style="fill:#000000; fill-opacity:1.0000; stroke:none;">
<circle cx="79.0000" cy="78.5000" r="0.6000" /> 
<circle cx="85.0000" cy="78.5000" r="0.6000" /> 
<path style="fill:#000000; fill-opacity:1.0000; stroke:none;fill-rule:evenodd;"
d="M 100.9500,86.9000
100.9310,86.9957
100.8768,87.0768
100.7957,87.1310
100.7000,87.1500
98.5000,87.1500
98.4043,87.1310
98.3232,87.0768
98.2690,86.9957
98.2500,86.9000
98.2500,84.1000
98.2690,84.0043
98.3232,83.9232
98.4043,83.8690
98.5000,83.8500
100.7000,83.8500
100.7957,83.8690
100.8768,83.9232
100.9310,84.0043
100.9500,84.1000
Z" /> 
</g>
<g style="fill:none; 
stroke:#000000; stroke-width:2.7000; stroke-opacity:1; 
stroke-linecap:round; stroke-linejoin:round;">
<path d="M95.4000 85.8000
L95.4000 85.2000
" />
<path d="M99.6000 80.3000
L99.6000 79.7000
" />
<path d="M95.4000 80.3000
L95.4000 79.7000
" />
<path style="fill:#000000; fill-opacity:1.0000; stroke:none;fill-rule:evenodd;"
d="M 134.9000,70.1500
134.9957,70.1690
135.0768,70.2232
135.1310,70.3043
135.1500,70.4000
135.1500,72.6000
135.1310,72.6957
135.0768,72.7768
134.9957,72.8310
134.9000,72.8500
132.1000,72.8500
132.0043,72.8310
131.9232,72.7768
131.8690,72.6957
131.8500,72.6000
131.8500,70.4000
131.8690,70.3043
131.9232,70.2232
132.0043,70.1690
132.1000,70.1500
Z" /> 
</g>
<g style="fill:none; 
stroke:#000000; stroke-width:2.7000; stroke-opacity:1; 
stroke-linecap:round; stroke-linejoin:round;">
<path d="M133.8000 75.7000
L133.2000 75.7000
" />
<path d="M133.8000 79.9000
L133.2000 79.9000
" />
<path d="M128.3000 71.5000
L127.7000 71.5000
" />
<path d="M128.3000 75.7000
L127.7000 75.7000
" />
<path d="M128.3000 79.9000
L127.7000 79.9000
" />
<path style="fill:#000000; fill-opacity:1.0000; stroke:none;fill-rule:evenodd;"
d="M 80.0743,37.0152
81.7743,37.0152
81.7743,38.7152
80.0743,38.7152
Z" /> 
</g>
<g style="fill:#000000; fill-opacity:1.0000; stroke:none;">
<circle cx="80.9243" cy="35.3252" r="0.8500" /> 
<circle cx="83.4643" cy="37.8652" r="0.8500" /> 
<circle cx="83.4643" cy="35.3252" r="0.8500" /> 
<circle cx="86.0043" cy="37.8652" r="0.8500" /> 
<circle cx="86.0043" cy="35.3252" r="0.8500" /> 
<circle cx="88.5443" cy="37.8652" r="0.8500" /> 
<circle cx="88.5443" cy="35.3252" r="0.8500" /> 
<circle cx="91.0843" cy="37.8652" r="0.8500" /> 
<circle cx="91.0843" cy="35.3252" r="0.8500" /> 
<circle cx="93.6243" cy="37.8652" r="0.8500" /> 
<circle cx="93.6243" cy="35.3252" r="0.8500" /> 
<circle cx="96.1643" cy="37.8652" r="0.8500" /> 
<circle cx="96.1643" cy="35.3252" r="0.8500" /> 
<circle cx="98.7043" cy="37.8652" r="0.8500" /> 
<circle cx="98.7043" cy="35.3252" r="0.8500" /> 
<circle cx="101.2443" cy="37.8652" r="0.8500" /> 
<circle cx="101.2443" cy="35.3252" r="0.8500" /> 
<circle cx="103.7843" cy="37.8652" r="0.8500" /> 
<circle cx="103.7843" cy="35.3252" r="0.8500" /> 
<circle cx="106.3243" cy="37.8652" r="0.8500" /> 
<circle cx="106.3243" cy="35.3252" r="0.8500" /> 
<circle cx="108.8643" cy="37.8652" r="0.8500" /> 
<circle cx="108.8643" cy="35.3252" r="0.8500" /> 
<circle cx="111.4043" cy="37.8652" r="0.8500" /> 
<circle cx="111.4043" cy="35.3252" r="0.8500" /> 
<circle cx="113.9443" cy="37.8652" r="0.8500" /> 
<circle cx="113.9443" cy="35.3252" r="0.8500" /> 
<circle cx="116.4843" cy="37.8652" r="0.8500" /> 
<circle cx="116.4843" cy="35.3252" r="0.8500" /> 
<circle cx="119.0243" cy="37.8652" r="0.8500" /> 
<circle cx="119.0243" cy="35.3252" r="0.8500" /> 
<circle cx="121.5643" cy="37.8652" r="0.8500" /> 
<circle cx="121.5643" cy="35.3252" r="0.8500" /> 
<circle cx="124.1043" cy="37.8652" r="0.8500" /> 
<circle cx="124.1043" cy="35.3252" r="0.8500" /> 
<circle cx="126.6443" cy="37.8652" r="0.8500" /> 
<circle cx="126.6443" cy="35.3252" r="0.8500" /> 
<circle cx="129.1843" cy="37.8652" r="0.8500" /> 
<circle cx="129.1843" cy="35.3252" r="0.8500" /> 
</g> 
</svg>
