<?xml version="1.0" standalone="no"?>
 <!DOCTYPE svg PUBLIC "-//W3C//DTD SVG 1.1//EN" 
 "http://www.w3.org/Graphics/SVG/1.1/DTD/svg11.dtd"> 
<svg
  xmlns:svg="http://www.w3.org/2000/svg"
  xmlns="http://www.w3.org/2000/svg"
  xmlns:xlink="http://www.w3.org/1999/xlink"
  xmlns:inkscape="http://www.inkscape.org/namespaces/inkscape"
  version="1.1"
  width="210.0072mm" height="148.0058mm" viewBox="0.0000 0.0000 210.0072 148.0058">
<title>SVG Image created as PiGarage-Edge_Cuts.svg date 2026-03-31T14:45:00 </title>
  <desc>Image generated by PCBNEW </desc>
<g style="fill:#000000; fill-opacity:1.0000;stroke:#000000; stroke-opacity:1.0000;
stroke-linecap:round; stroke-linejoin:round;"
 transform="translate(0 0) scale(1 1)">
</g>
<g style="fill:none; 
stroke:#000000; stroke-width:0.1000; stroke-opacity:1; 
stroke-linecap:round; stroke-linejoin:round;">
<path d="M72.5270 35.9905
L72.5270 51.4905
" />
<path d="M72.5270 70.4905
L72.5270 85.9905
" />
<path d="M73.5270 52.4905
L76.5270 52.4905
" />
<path d="M73.5270 69.4905
L76.5270 69.4905
" />
<path d="M75.5270 32.9905
L134.5270 32.9905
" />
<path d="M75.5270 88.9905
L134.5270 88.9905
" />
<path d="M77.5270 53.4905
L77.5270 68.4905
" />
<path d="M116.5270 69.9905
L116.5270 84.9905
" />
<path d="M118.5270 69.9905
L118.5270 84.9905
" />
<path d="M137.5270 36.4905
L137.5270 35.9905
" />
<path d="M137.5270 36.4905
L137.5270 85.9905
" />
<path d="M75.5270 32.9905 A3.0000 3.0000 0.0 0 0 72.5270 35.9905" />
<path d="M73.5270 69.4905 A1.0000 1.0000 0.0 0 0 72.5270 70.4905" />
<path d="M72.5270 51.4905 A1.0000 1.0000 0.0 0 0 73.5270 52.4905" />
<path d="M72.5270 85.9905 A3.0000 3.0000 0.0 0 0 75.5270 88.9905" />
<path d="M77.5270 53.4905 A1.0000 1.0000 0.0 0 0 76.5270 52.4905" />
<path d="M76.5270 69.4905 A1.0000 1.0000 0.0 0 0 77.5270 68.4905" />
<path d="M118.5270 69.9905 A1.0000 1.0000 0.0 0 0 116.5270 69.9905" />
<path d="M116.5270 84.9905 A1.0000 1.0000 0.0 0 0 118.5270 84.9905" />
<path d="M137.5270 35.9905 A3.0000 3.0000 0.0 0 0 134.5270 32.9905" />
<path d="M134.5270 88.9905 A3.0000 3.0000 0.0 0 0 137.5270 85.9905" />
</g>
<g style="fill:none; 
stroke:#000000; stroke-width:0.0500; stroke-opacity:1; 
stroke-linecap:round; stroke-linejoin:round;">
<circle cx="76.0270" cy="36.4905" r="1.5000" /> 
<circle cx="76.0270" cy="85.4905" r="1.5000" /> 
<circle cx="134.0270" cy="36.4905" r="1.5000" /> 
<circle cx="134.0270" cy="85.4905" r="1.5000" /> 
</g> 
</svg>
