<?xml version="1.0" encoding="UTF-8"?>
<svg id="Layer_1" xmlns="http://www.w3.org/2000/svg" viewBox="0 0 100 95.95">
  <path d="M37.34,58.75c.7-.47,1.07-1.12,1.17-2.06,0-.09.01-.17.03-.25.02-.09.03-.18.03-.28.15-1.04.52-1.78,1.24-2.46,2.72-2.68,3.45-6.44,1.9-9.81-1.48-3.23-4.85-5.27-8.4-5.06-3.53.21-6.62,2.54-7.69,5.8-1.17,3.64-.41,6.76,2.26,9.28.76.69,1.16,1.42,1.3,2.34l.03.21c.04.33.09.65.21.95l.08.18c.18.4.39.84.72,1.09.44.35.53.69.53,1.16v3.75l-.15.11c-.28.21-.55.41-.79.61-.59.5-.96,1.16-1.16,2.07-.84,4.29-1.7,8.54-2.43,12.13-.01.05-.02.1-.04.16-.04.18-.08.36-.17.47-.12.12-.36.22-.5.19-.13-.04-.31-.26-.31-.36,0-.44.08-.88.17-1.33.53-2.68,1.05-5.33,1.58-7.98.05-.15.06-.31.07-.54,0-.07.01-.14.02-.23l.02-.27-.23.13c-.5.29-.75.66-.97.99l-.04.06c-2.23,3.17-4.47,6.39-6.63,9.5l-.06.09c-.47.67-.92,1.37-1.35,2.05-.26.4-.53.84-.71,1.32-.44,1.16-.04,2.14,1.07,2.63.52.24,1.02.41,1.55.53.94.22,1.88.45,2.82.67,2.42.58,4.93,1.18,7.41,1.72.63.14,1.25.22,1.85.22,1.84,0,3.52-.67,4.93-1.98,1.85-1.67,3.52-3.27,5.09-4.87,1.7-1.7,3.39-3.46,5.02-5.16.82-.86,1.64-1.71,2.46-2.56.43-.43.78-.87,1.07-1.35.28-.46.36-.94.23-1.37-.13-.46-.49-.85-1.02-1.13-.32-.14-.68-.26-1.05-.36-1.56-.34-3.14-.66-4.66-.97-.69-.14-1.37-.28-2.06-.42h-.03c-.07,0-.13.02-.19.05-.03.01-.06.03-.09.04l-.12.04.02.12c.06.32.15.67.24,1.02.43,1.65.92,3.48,1.55,5.73.11.39.12.67.03.83-.05.09-.13.15-.26.18-.27.09-.56.1-.82-.74-.21-.73-.43-1.47-.64-2.2-.61-2.07-1.23-4.21-1.75-6.34-.37-1.47-.96-2.93-2.66-3.66v-4.17c0-.18.12-.4.26-.49ZM34.09,40.95c.4.03.84.09,1.21.17.45.1.83.22,1.15.36,1.1.48,1.81,1.28,1.95,2.21.15.93-.28,1.92-1.18,2.72-.09.07-.19.15-.29.23-.09.08-.18.15-.28.22-1.76,1.09-3.67,1.32-5.67.67-.74-.22-1.39-.66-1.86-1.28-.4-.5-.79-1.29-.39-2.19.31-.65.64-1.15,1.01-1.48,1.03-1.03,2.41-1.54,4.35-1.6v-.03ZM35.32,57.75c-.56.13-1.15.2-1.81.2-1.71,0-2.14-.37-2.42-2.11,0-.01.01-.02.02-.04,1.88.57,3.7.55,5.56-.07.08,1.33-.2,1.72-1.35,2.03ZM35.36,65.38c0,.38-.16.59-.51.67-.37.08-.76.14-1.19.11-.67-.05-.82-.21-.85-.9-.06-1.27-.06-2.57-.06-3.83v-1.44h2.6v5.39ZM30.91,65.75c.63,1.45,1.67,2.06,3.35,1.97,1.54-.09,2.38-.73,2.79-2.13.38.33.58.66.58.98,0,.34-.21.68-.64,1.02-1.41,1.1-4.06,1.23-5.57.28-.17-.11-.33-.22-.47-.36-.35-.32-.49-.63-.45-.98.02-.34.15-.59.4-.78Z"/>
  <path d="M93.81,48.5c-.78-.11-1.58-.14-2.38-.23-1.12-.11-2.21-.26-3.33-.37-2.1-5.69-2.67-11.49-2.21-17.52,0-.2.03-.4.11-.6.03-.17.09-.31.17-.46.03-.07.05-.13.08-.2.03-.12.09-.25.15-.35.46-1.12,1.18-1.84,2.21-2.21.75-.26,1.61-.4,2.41-.46.83-.06,1.72,0,2.58,0,.52,0,.78-.23.83-.6.06-.37-.2-.69-.69-.75-1.84-.23-3.7-.26-5.46.37-1.38.49-2.44,1.41-3.1,2.76-.11.26-.26.49-.4.8-.6.14-1.23.29-2.01.46.2-.86.37-1.64.52-2.38.49-2.47,1.03-4.94,1.46-7.44.29-1.58.46-3.22,0-4.82-.63-2.33-2.1-3.93-4.28-4.88-1.49-.66-3.04-.83-4.65-.95-4.51-.4-9.02-.8-13.56-1.21-3.56-.32-7.09-.6-10.65-.89-3.76-.32-7.52-.66-11.29-.95-2.93-.23-5.89-.46-8.79-.69-1.67-.11-3.3-.34-4.97-.4-1.06-.06-2.15,0-3.19.2-3.02.6-4.71,2.58-5.4,5.49-.29,1.18-.34,2.41-.4,3.59-.11,2.53-.2,5.08-.29,7.67,0,.2-.03.4-.03.66-1.12-.37-2.18-.75-3.3-1.12,0-.06-.09-.14-.11-.23-.75-2.33-2.38-3.68-4.71-4.22-1.55-.37-3.13-.57-4.71-.83-.89-.14-1.78-.26-2.67-.37-.23-.06-.49-.06-.72-.06-.66-.03-1.01.14-1.03.57-.06.43.23.66.89.78,2.41.4,4.85.78,7.27,1.18.89.14,1.72.43,2.5.95.72.49,1.29,1.06,1.58,1.92.06.14.09.26.09.4.06.14.09.29.09.46.06.11.11.26.11.37.06.17.11.34.11.52.14.8.34,1.67.49,2.47.72,3.73,1.95,7.29,3.73,10.63.57,1.12.8,2.27.78,3.53-.52.11-1.03,0-1.52-.09-3.3-.43-6.58-.92-9.88-1.38-1.32-.17-2.61-.37-3.91-.55-.37-.06-.75-.11-1.12-.06-.23.06-.52.32-.55.52-.06.23.11.57.32.69.23.17.6.2.89.23,5.17.75,10.34,1.46,15.51,2.18.06,0,.11.03.29.11.06.37.14.8.17,1.23.29,3.5.63,6.98.83,10.45.26,3.96-.66,7.64-2.99,10.88-4.74,6.63-9.42,13.27-14.13,19.9l.06-.11c-.4.57-.8,1.12-1.18,1.72-.11.17-.32.4-.32.63s.11.52.26.72c.2.26.55.17.75-.03.23-.2.43-.43.6-.69,2.61-3.65,5.23-7.32,7.81-11,2.58-3.68,5.17-7.32,7.75-11.03,1.72-2.47,2.53-5.26,2.79-8.24.23-2.73-.17-5.4-.34-8.1-.2-3.36-.55-6.69-.72-10.05-.17-4.14-.32-8.3-.37-12.44-.09-4.31.14-8.64.6-12.95.09-.8.32-1.64.6-2.41.75-1.87,2.24-2.87,4.22-3.25,1.46-.29,2.9,0,4.34.09,2.93.23,5.86.52,8.79.75,2.96.26,5.94.49,8.9.75,2.79.23,5.57.46,8.39.72,3.73.32,7.44.63,11.17.98,3.39.32,6.81.57,10.22.92,1.06.11,2.21.26,3.25.57,2.96.89,4.6,3.16,4.39,6.23-.11,2.01-.46,3.99-.86,5.94-2.18,10.65-5.28,21.02-8.73,31.33-.8,2.33-1.55,4.65-2.41,6.95-1.41,3.85-3.5,7.29-6.32,10.28-4.57,4.85-9.16,9.68-13.76,14.56-2.47,2.61-4.97,5.23-7.44,7.84-.2.23-.46.46-.55.75-.09.2-.03.57.11.72s.52.2.72.14c.29-.11.55-.4.78-.63,2.53-2.64,5-5.28,7.5-7.93,4.08-4.28,8.16-8.59,12.23-12.87,2.33-2.44,4.45-5.03,6.09-7.98,1.35-2.41,2.24-4.97,3.1-7.55,2.93-8.7,5.74-17.4,7.93-26.31.32-1.35,1.03-1.84,2.33-1.92h.17c-.06,1.46-.11,2.84-.11,4.22.03,4.45.66,8.82,2.13,13.04.23.66.23,1.26.03,1.92-1.49,5.11-2.96,10.22-4.39,15.34-.57,2.04-1.58,3.82-2.99,5.37-4.62,5.08-9.25,10.2-13.87,15.31-2.5,2.76-5.05,5.54-7.55,8.3-.2.2-.4.4-.52.66-.17.34-.17.69.14.95.32.23.6.17.86-.03.23-.17.4-.4.6-.6,3.59-3.91,7.15-7.81,10.71-11.75,3.33-3.68,6.63-7.35,9.94-11.03.66-.75,1.32-1.52,1.92-2.33,1.03-1.41,1.72-2.9,2.18-4.57,1.41-5,2.84-10.02,4.28-15.05.06-.23.14-.43.26-.72.98.09,1.95.17,2.9.26.83.09,1.67.2,2.47.29h.32c.46,0,.78-.29.78-.66s-.23-.69-.69-.75ZM17.29,32.82c-1.7-3.17-2.56-6.6-3.17-10.08.06-.06.12-.12.2-.17.75.35,1.47.66,2.19.95.46.17.66.52.66,1.04l-.03-.03c.06,2.56.14,5.13.17,7.69,0,.2-.03.4-.03.6Z"/>
  <path d="M49.11,36.47c1.63.22,3.26.42,4.89.63,1.85.24,3.7.47,5.54.72,1,.12,2,.25,3,.38,1.96.25,3.99.51,5.99.74.24.03.48.06.72.09.51.06,1.05.13,1.56.17.08,0,.15,0,.22,0,1.55,0,2.61-.9,2.86-2.46.23-1.38.42-2.79.6-4.15.07-.5.13-1,.2-1.5.18-1.35.36-2.7.54-4.05.21-1.53.41-3.07.61-4.62.17-1.25.35-2.53.49-3.83.03-.3.03-.62.03-.97-.03-1.39-.81-2.32-2.13-2.56-1.12-.21-2.24-.29-3.33-.38-3.57-.35-7.17-.67-10.65-.98-3.38-.29-6.83-.62-10.06-.92-1.29-.11-2.58-.24-3.87-.36-1.3-.12-2.61-.25-3.91-.36-2.68-.23-5.39-.46-8.09-.69-1.04-.09-2.07-.18-3.11-.27-1.04-.09-2.08-.19-3.11-.27-.46-.03-.88,0-1.33.03h-.04c-1.05.15-1.72.8-1.94,1.87-.17.85-.26,1.75-.34,2.61v.08c-.12,1.2-.22,2.39-.32,3.57-.11,1.3-.23,2.59-.35,3.89l-.61,6.42c0,.34-.03.62-.06.8v.07s.05.06.05.06c-.04,2.05.83,3.07,2.8,3.31,3.89.49,7.8.97,11.71,1.46l.79.1c1.77.23,3.54.45,5.31.68,1.77.22,3.54.45,5.31.68ZM31.33,17.92c1.45.43,2.37,1.8,2.25,3.42-.1,1.57-1.11,2.81-2.42,3.03,2.02-2.04,2.08-4.11.17-6.45ZM28.18,18.58c.71-.13,1.39.05,1.93.5.49.41.8,1.01.88,1.69h0s0,.33,0,.33c0,.11,0,.28-.03.44-.17,1.17-1.2,2.13-2.31,2.16-1.06,0-1.97-.76-2.28-1.9,0-.1-.04-.22-.07-.33l-.02-.09c-.13-1.32.72-2.58,1.91-2.8ZM32.86,25.38c1.5-.88,2.41-2.47,2.44-4.25.03-1.8-.78-3.43-2.17-4.35-1.35-.9-3.04-1.01-4.65-.3l-.17.07c-.83.35-1.69.71-2.52,1.51.06-.63.11-1.24.16-1.83.09-1.04.17-2.02.28-2.98.07-.59.41-.86,1.1-.86.49,0,.58.01.71.03.06,0,.12.02.23.03,1.32.12,2.63.24,3.95.36,1.3.12,2.61.24,3.91.36,1.84.17,3.67.32,5.51.48,1.68.14,3.37.29,5.06.44,4.76.45,9.68.92,14.52,1.35,2,.19,3.99.37,5.99.55,1.98.18,3.96.36,5.93.54.64.06.99.18,1.18.41.18.22.23.59.16,1.19-.1.94-.22,1.9-.34,2.82-.06.47-.12.94-.18,1.41-.23,1.74-.46,3.5-.69,5.26s-.46,3.51-.69,5.26c-.05.36-.09.72-.14,1.07-.09.7-.18,1.41-.29,2.12-.13.94-.6,1.33-1.56,1.29-.3,0-.58-.03-.93-.08-.87-.1-1.74-.22-2.58-.33-.85-.11-1.72-.23-2.59-.33-2.13-.27-4.26-.54-6.39-.81-2.13-.27-4.27-.53-6.4-.81l-8.76-1.12c-3.49-.45-7.09-.92-10.63-1.35-1.06-.14-2.15-.27-3.19-.39-1.05-.12-2.13-.25-3.2-.39-1.03-.13-1.23-.37-1.18-1.44.04-.96.14-1.96.23-2.92.03-.3.06-.61.09-.91.09-.81.15-1.62.22-2.4l.04-.5s.03.03.05.04c.32.28.65.57,1.02.82.41.31.91.62,1.51.96,1.58.86,3.43.84,4.94-.05Z"/>
  <path d="M56.65,77.13c2.11-2.21,4.32-4.59,7.17-7.72,1.85-2.03,3.39-4.61,4.72-7.91.72-1.76,1.31-3.45,1.73-5.03.27-1,.18-1.88-.27-2.56-.46-.7-1.29-1.15-2.38-1.31-2.17-.32-4.36-.63-6.55-.94-2.19-.31-4.38-.62-6.56-.94-3.88-.58-7.14-1.06-10.43-1.53-.13,0-.3,0-.49-.03l-.12-.02-.03.12c-.04.12-.07.25-.1.37-.07.28-.15.56-.27.92l-.05.15.15.03c.52.12.95.2,1.39.29,3.47.51,6.93,1.02,10.4,1.53l9.63,1.41c.28.04.57.08.85.11.71.09,1.44.18,2.13.35.48.09.8.26.97.51.17.26.21.62.11,1.11-.48,2.37-2.6,7.23-4.05,9.31-5.15-.85-10.39-1.74-15.45-2.59-3.58-.61-7.16-1.21-10.76-1.81l-.16-.03v1.69l.12.02c3.63.62,7.27,1.24,10.92,1.85,4.64.78,9.44,1.59,14.17,2.41-.1.37-.33.62-.56.87l-.1.1c-.57.63-1.15,1.27-1.73,1.9-1.48,1.64-3.01,3.33-4.55,4.95-3.64,3.82-7.37,7.69-10.97,11.43-2.42,2.51-4.84,5.03-7.26,7.55-.3.3-.56.65-.79.97-.25.36-.2.75.14,1.05.17.14.35.21.53.21s.35-.07.52-.2l.64-.55c1.44-1.49,2.86-2.97,4.29-4.46,4.29-4.45,8.72-9.06,13.06-13.61Z"/>
  <path d="M45.45,82.07c2.11-2.17,4.22-4.42,6.25-6.69.71-.78,1.19-1.49,1.47-2.17.71-1.79.57-4.16-1.97-5.48-.79-.41-1.61-.71-2.37-.88-1.99-.45-4.01-.87-5.96-1.26-.66-.14-1.32-.27-1.99-.41h-.03s-.66,0-.66,0l.12.24c.06.24.11.45.17.66.06.21.11.43.17.67l.02.08.08.02c.35.1.65.18.91.23h.06c2.24.49,4.56.98,6.85,1.5.57.13,1.19.34,1.82.62,1.29.63,1.75,1.77,1.28,3.14-.24.65-.61,1.26-1.06,1.7-2.25,2.36-4.55,4.75-6.78,7.05-1.69,1.75-3.38,3.49-5.06,5.25-.34.34-.72.66-1.08.97-2.24,2.02-5.02,2.74-8.03,2.07-2.97-.65-5.98-1.43-8.89-2.18-.6-.16-1.2-.31-1.79-.47-.46-.1-.94-.29-1.53-.59-1.44-.75-2.01-2.2-1.46-3.69.21-.53.46-1.03.73-1.44.59-.86,1.19-1.73,1.78-2.59,2.16-3.14,4.39-6.39,6.63-9.56.55-.79,1.31-1.49,2.04-2.16l.16-.15c.58-.55.67-1.17.77-1.88l.05-.35-.21.07c-1.15.37-1.98,1.01-2.88,1.88-.38.38-.71.8-1.02,1.2-3.2,4.21-6.1,8.57-8.76,12.65-.23.35-.42.7-.58,1.02-.67,1.35-.79,2.77-.33,4,.45,1.21,1.41,2.16,2.76,2.73.88.39,1.85.65,2.79.91.27.07.53.15.8.22.69.17,1.37.34,2.05.51,2.11.53,4.29,1.07,6.46,1.51.88.19,1.73.28,2.56.28,2.85,0,5.43-1.11,7.68-3.31,1.99-1.94,4.04-3.92,5.99-5.94Z"/>
  <path d="M19.97,66.34l.16-.23c1.26-1.82,2.56-3.7,3.48-5.92,1.51.27,2.98.51,4.42.75.56.09,1.12.18,1.69.28l.16.03v-1.62l-.1-.03c-.95-.29-1.96-.44-2.92-.58-.86-.13-1.74-.26-2.6-.48.03-.2.06-.41.09-.61.04-.27.08-.54.12-.79.38-2.2.14-4.41-.08-6.54v-.03c-.12-.96-.2-1.83,0-2.75.08-.3.06-.61.03-.94-.01-.17-.03-.35-.03-.53v-.17l-.17.03c-.58.11-.98.43-1.31,1.05-.43.84-.42,1.69-.36,2.49.16,1.59.29,3.02.37,4.46.17,2.59-.47,5.07-1.91,7.35-1.83,2.88-3.73,5.7-5.67,8.58-3.6,5.27-7.32,10.71-11,16.04-.16.24-.31.49-.44.73-.08.15-.17.29-.25.43-.18.35-.11.68.17.93.21.17.4.23.56.23.2,0,.37-.1.49-.2.24-.21.45-.48.62-.71,1.87-2.73,3.72-5.45,5.58-8.18,1.87-2.75,3.75-5.5,5.63-8.25,1.07-1.58,2.18-3.21,3.28-4.81Z"/>
  <path d="M37.04,26.8l5.7.6c1.42.16,2.86.32,4.29.49,1.43.17,2.87.33,4.29.49,2.19.26,4.54.51,7.19.78h0s.03,0,.03,0c.05,0,.11,0,.16,0,.82,0,1.11-.25,1.19-.99.11-.88.23-1.79.29-2.69.06-.83-.18-1.14-1.01-1.27-1.94-.23-3.9-.44-5.8-.63l-8.7-.95c-2.27-.26-4.56-.49-6.83-.69-1.2-.12-1.41.04-1.59,1.24-.1.68-.19,1.39-.26,2.07l-.02.21c-.06.85.25,1.24,1.07,1.34Z"/>
  <path d="M36.75,32.29l4.95.6c3.42.42,7.39.91,11.26,1.35l4.23.52c.07,0,.13,0,.18,0,.06,0,.12,0,.18,0s.13,0,.2-.01h0c1.01,0,1.62-.53,1.81-1.58.01-.14.02-.26.03-.38,0-.14.01-.25.03-.34l.07-.43-.11.11c-.07-1.06-.54-1.55-1.58-1.71-1.23-.19-2.5-.33-3.73-.47l-.2-.02-10.54-1.21c-1.93-.23-3.92-.46-5.88-.66-.13,0-.25,0-.37-.01-.13,0-.25-.01-.37-.01-.87,0-1.38.4-1.63,1.28-.1.35-.15.73-.15,1.08-.03,1.14.5,1.77,1.59,1.9ZM42.14,31.42c.09-.5.17-.92.22-1.32,1.58.2,2.93.36,4.33.51-.04.31-.09.59-.13.88-.03.18-.06.35-.08.54-.58-.09-1.15-.15-1.7-.21-.9-.1-1.76-.19-2.63-.4ZM36.39,30.13c.01-.27.06-.41.14-.49.08-.07.23-.1.5-.08.7.07,1.41.15,2.15.24.5.06,1.02.12,1.55.18-.09.5-.16.91-.23,1.34l-.4-.04c-.57-.06-1.12-.11-1.65-.2-.23-.04-.47-.05-.7-.06-.46-.02-.9-.04-1.32-.26,0-.08-.01-.16-.02-.24-.01-.13-.02-.26-.01-.38ZM47.67,32.18l.03-.16c.08-.45.15-.83.23-1.26,1.41.18,2.82.34,4.42.52-.09.47-.16.91-.24,1.42-1.64-.2-3.02-.36-4.44-.51ZM53.54,32.76c.03-.2.06-.39.09-.58.04-.24.08-.49.12-.76.56.07,1.1.13,1.63.19.74.08,1.44.16,2.16.26.52.08.59.18.54.77-.03.32-.08.49-.16.56-.08.07-.24.09-.52.06-1-.09-2-.23-2.96-.37-.22-.02-.43-.05-.68-.09-.07-.01-.14-.02-.22-.03Z"/>
  <path d="M63.05,28.84c.22.13.43.25.64.36.25.13.48.26.71.41.76.46,1.61.7,2.48.7.59,0,1.18-.11,1.76-.32,1.49-.56,2.63-1.76,3.11-3.3.49-1.53.32-3.16-.47-4.48-.76-1.26-2.02-2.11-3.56-2.38-.51-.08-1.03-.02-1.5.04l-.18.02c-1.19.18-2.28.71-3.56,1.73-1.01.81-1.48,1.95-1.49,3.59l-.03.03v.06c.03,1.46.77,2.72,2.08,3.54ZM63,25.13v-.03c0-1.63,1.05-2.8,2.54-2.86.02,0,.03,0,.05,0,.64,0,1.26.26,1.73.72.54.53.84,1.27.84,2.05,0,1.51-1.13,2.71-2.57,2.74-1.5,0-2.59-1.1-2.59-2.63ZM69.42,26.45c.3-.87.32-1.8.06-2.84-.2-.81-.72-1.41-1.31-2.01,1.52.61,2.35,1.84,2.3,3.45-.05,1.59-.91,2.75-2.43,3.33.72-.62,1.14-1.22,1.38-1.93Z"/>
  <path d="M37.25,18.01l1.4.14s0,0,0,0c.01,0,.02,0,.04,0h0l4.6.46-.1.9c-.03.22.13.42.35.45.02,0,.03,0,.05,0,.2,0,.38-.15.4-.36l.1-.91,16.05,1.62s.02,0,.04,0c.18,0,.33-.13.35-.31.02-.19-.12-.36-.31-.38l-.73-.07.18-1.73c.02-.19-.12-.36-.31-.38-.19-.02-.36.12-.38.31l-.18,1.74-2.47-.25.2-1.67c.02-.19-.11-.36-.3-.39-.19-.02-.36.11-.39.3l-.2,1.68-2.75-.28.21-1.76c.02-.19-.11-.36-.3-.39-.19-.02-.36.11-.39.3l-.21,1.77-2.59-.26.18-1.69c.02-.19-.12-.36-.31-.38-.19-.02-.36.12-.38.31l-.18,1.69-2.44-.25.17-1.66c.02-.19-.12-.36-.31-.38-.19-.02-.36.12-.38.31l-.17,1.66-1.6-.16.36-3.18c.03-.22-.13-.42-.35-.45-.22-.03-.42.13-.45.35l-.37,3.19-1.72-.17.21-1.72c.02-.19-.11-.36-.3-.39-.19-.02-.36.11-.39.3l-.21,1.73-1.89-.19.17-1.58c.02-.19-.12-.36-.31-.38-.19-.02-.36.12-.38.31l-.17,1.58-1.07-.11c-.19-.02-.36.12-.38.31-.02.19.12.36.31.38Z"/>
  <path d="M29.91,45.35c.07.05.15.07.23.07.13,0,.26-.06.35-.18l.87-1.28,1.31.35-.66.98c-.13.19-.08.45.12.58.07.05.15.07.23.07.13,0,.27-.07.35-.19l.81-1.22,1.31.35-.83,1.24c-.13.19-.08.45.12.58.07.05.15.07.23.07.13,0,.27-.07.35-.19l2.3-3.46c.13-.19.08-.45-.12-.58-.19-.13-.45-.08-.58.12l-.99,1.48-1.31-.35.66-.98c.13-.19.08-.45-.12-.58-.19-.13-.45-.08-.58.12l-.81,1.22-1.3-.35.71-1.04c.13-.19.08-.45-.11-.58-.19-.13-.45-.08-.58.11l-2.07,3.05c-.13.19-.08.45.11.58Z"/>
  <path d="M99.49,6.91L7.6,0c-.31-.03-.57.21-.6.51-.02.31.21.57.51.6l91.88,6.91s.03,0,.04,0c.29,0,.53-.22.55-.51.02-.31-.21-.57-.51-.6Z"/>
</svg>